<svg id="Calque_1" data-name="Calque 1" xmlns="http://www.w3.org/2000/svg" viewBox="0 0 1192.3342 1210.7173">
  <defs>
    <style>
      .cls-1, .cls-2 {
        fill: #1d1d1b;
      }

      .cls-1, .cls-4, .cls-5 {
        stroke: #1d1d1b;
      }

      .cls-1, .cls-4, .cls-5, .cls-6, .cls-7 {
        stroke-miterlimit: 10;
      }

      .cls-1 {
        stroke-width: 20px;
      }

      .cls-3 {
        fill: #fff;
      }

      .cls-4, .cls-5 {
        fill: none;
      }

      .cls-4 {
        stroke-width: 11px;
      }

      .cls-5 {
        stroke-width: 30px;
      }

      .cls-6, .cls-7 {
        stroke: #000;
      }

      .cls-6 {
        stroke-width: 4px;
      }

      .cls-7 {
        stroke-width: 2px;
      }
    </style>
  </defs>
  <g id="Calque_3" data-name="Calque 3">
    <circle class="cls-1" cx="595.8" cy="589" r="451.2"/>
    <path class="cls-2" d="M5.1,669.9l15.1-2.8,7.2,38.7,12.9-2.4-5.5-29.5,14.9-2.8,5.5,29.5,20.4-3.8-7.2-38.7,15.1-2.8,10.3,55L15.6,724.9Z" transform="translate(0 0)"/>
    <path class="cls-2" d="M0,567.4l29,25.5,50.5-34.4.3,19.7L41.7,603.8l8.4,7.4,30.2-.4.2,16.7-79.6,1L.7,611.8l27.3-.3L.3,588.3Z" transform="translate(0 0)"/>
    <path class="cls-2" d="M3.9,525.2,6,508.7l79,9.9-2.1,16.5Z" transform="translate(0 0)"/>
    <path class="cls-2" d="M25.4,427a39.2766,39.2766,0,0,1,44-17.2C87,414.6,97.9,430,98.5,447a47.4765,47.4765,0,0,1-2,14.5l-7.2,26.3-76.8-21,7.2-26.3A47.2827,47.2827,0,0,1,25.4,427Zm57.5,18.2c-1.4-9.3-8.3-16.7-17.9-19.3s-19.2.2-25.2,7.5c-2.1,2.5-3.7,5.5-5.2,11.2l-2.8,10.3L79,467.8l2.8-10.3C83.3,451.9,83.4,448.4,82.9,445.2Z" transform="translate(0 0)"/>
    <path class="cls-2" d="M69.7,311.1l13.9,6.5L66.8,353.2l11.9,5.6,12.8-27.2,13.7,6.5L92.4,365.3l18.7,8.8,16.8-35.6,13.9,6.5-23.9,50.7-72-34Z" transform="translate(0 0)"/>
    <path class="cls-2" d="M155.2,320.7,90.5,274.3l5.3-7.3,68.5-9-41-29.4L133,215l64.7,46.4-5.3,7.3-68.4,9L164.9,307Z" transform="translate(0 0)"/>
    <path class="cls-2" d="M232.8,121.8c16.2-6.7,34.7-2.1,46.2,12.6s11.4,33.6,1,47.8c-2.3,3-5,5.9-11.5,10.9L253,205.2l-49-62.8,15.5-12.1C225.9,125.2,229.3,123.3,232.8,121.8Zm42.3,56.1c8.4-11.8,8.3-27.3-1.3-39.5s-24.6-16.2-38-10.8c-3.2,1.2-6.3,2.9-12.4,7.7l-10.3,8,41.2,52.8,10.3-8C270.7,183.3,273.1,180.7,275.1,177.9Z" transform="translate(0 0)"/>
    <path class="cls-2" d="M295.8,77.4l22,41.8c2.6,4.9,4.3,7.1,6.3,8.9a22.8392,22.8392,0,0,0,26.7,3.2c9.2-4.9,14-14.3,12.6-23.9-.4-2.7-1.3-5.3-3.9-10.2l-22-41.8,5.8-3.1,22.1,41.9c3.2,6.1,4.3,10.1,4.6,14.1.9,11.4-4.9,22.5-16.3,28.5s-23.9,4.5-32.7-2.7c-3.1-2.5-5.8-5.7-9-11.8L290,80.4Z" transform="translate(0 0)"/>
    <path class="cls-2" d="M455.5,95.7,438.1,18,471,10.6a28.0235,28.0235,0,0,1,10.4-.7,21.1652,21.1652,0,0,1,17.2,24.4A21.3954,21.3954,0,0,1,490,47.9a26.9242,26.9242,0,0,1-9.7,3.8l-26.5,5.9L462,94.2Zm22.9-49.8a22.2485,22.2485,0,0,0,8-3.1,14.7113,14.7113,0,0,0-5.9-26.3c-2.2-.4-4.5-.4-8.6.5l-26,5.8,6.5,28.9Z" transform="translate(0 0)"/>
    <path class="cls-2" d="M540.8,0l4.4,73.1,44.5-2.7.4,6.4L539,79.9,534.2.4Z" transform="translate(0 0)"/>
    <path class="cls-2" d="M671,65.1l-43.2-4.6-9.3,16.9-7.1-.8L652.8,1l6.4.7,24.2,82.7-7.1-.8ZM631.1,54.5l38,4.1-14-48.4Z" transform="translate(0 0)"/>
    <path class="cls-2" d="M776.1,26.1l-1.7,6.2-27.7-7.4L727.8,95.7,721.4,94l18.9-70.8-27.6-7.4,1.7-6.2Z" transform="translate(0 0)"/>
    <path class="cls-2" d="M825.9,113.4,786.2,95.8l-14,13.3-6.6-2.9L828,46.7l5.9,2.6-2.1,86.1-6.5-2.9ZM791.1,91.1,826,106.6l1.5-50.4Z" transform="translate(0 0)"/>
    <path class="cls-2" d="M903.1,85.4l-40,61.4,37.4,24.4-3.5,5.3-42.9-28,43.5-66.7Z" transform="translate(0 0)"/>
    <path class="cls-2" d="M1014.7,297.6c-12-17.2-7.9-39.1,9.1-51,17.6-12.3,39.1-7.7,50.8,9.2,11.6,16.7,8.5,38.5-9.1,50.8C1048.8,318.3,1026.7,314.8,1014.7,297.6Z" transform="translate(0 0)"/>
    <path class="cls-2" d="M170.8,882.8c11.9,17.2,7.9,39.1-9.2,51-17.6,12.2-39.1,7.7-50.8-9.3-11.6-16.7-8.5-38.5,9.2-50.8C136.7,862,158.9,865.6,170.8,882.8Z" transform="translate(0 0)"/>
    <path class="cls-2" d="M1011.2,916.2l11.8,10-25.7,30.4,10.1,8.6L1027,942l11.7,9.9-19.6,23.2,16,13.6,25.7-30.4,11.8,10-36.6,43.2-61.4-52Zm-36.3,7.4,11.8-13.9,4.4,21.4-7.9,9.3Z" transform="translate(0 0)"/>
    <path class="cls-2" d="M1049.6,859.4a39.7064,39.7064,0,0,1,47.5-5.4c16,9.3,22.7,27.1,18.9,43.9a45.417,45.417,0,0,1-5.8,13.6l-13.9,23.9L1026.6,895l13.9-23.9A47.2035,47.2035,0,0,1,1049.6,859.4Zm51.6,32.6c1-9.5-3.8-18.5-12.5-23.5s-18.8-4.8-26.6.8c-2.7,1.9-5.1,4.5-8,9.6l-5.4,9.4,42.9,24.9,5.4-9.4C1099.8,898.6,1100.8,895.3,1101.2,892Z" transform="translate(0 0)"/>
    <path class="cls-2" d="M1071.7,809.5l6.3-15.6,74.7,30.2-6.3,15.6Z" transform="translate(0 0)"/>
    <path class="cls-2" d="M1105.1,702.3l15.1,3.8-6.5,25.7,62.9,16.1-4.2,16.3-62.9-16.1-6.5,25.6-15.1-3.8Z" transform="translate(0 0)"/>
    <path class="cls-2" d="M1108,676.6l1.9-16.7,80,9.1-1.9,16.7Z" transform="translate(0 0)"/>
    <path class="cls-2" d="M1192.3,590.4c.9,23.6-16.1,41.6-38.8,42.4s-40.9-15.9-41.7-39.5,16.2-41.7,38.8-42.4S1191.4,566.8,1192.3,590.4Zm-65,2.4c.5,14.4,11.8,23.3,25.7,22.8s24.4-10.2,23.9-24.6-11.7-23.4-25.6-22.9S1126.7,578.3,1127.3,592.8Z" transform="translate(0 0)"/>
    <path class="cls-2" d="M1184.8,509.4l-78.3,19-2.2-8.9,38.3-58.5L1093,473l-4-16.3,78.3-19,2.2,8.9L1131.3,505l49.5-12Z" transform="translate(0 0)"/>
  </g>
  <g id="Calque_9" data-name="Calque 9">
    <path class="cls-3" d="M956.1,304.3l-61.4-49.2,1.9-.3-15.7,2.9q-40.5,7.35-81,14.8a2.4924,2.4924,0,0,1-1.7-.3c-4.7-2.7-9.3-5.4-14-8.2q-44.1-25.95-88.3-51.9a2.7429,2.7429,0,0,0-2-.1c-2,.8-4.1,1.7-6.1,2.6-13.2,5.8-26.5,11.5-39.7,17.3l-34.7,15c-3.7,1.6-7.3,3.2-11,4.8.4,1.5.7,3,1.1,4.4q2.7,11.1,5.4,22.2a3.2322,3.2322,0,0,1-.4,2.7c-8.9,12.4-17.9,24.7-26.8,37.1-.6.9-.7,1.4,0,2.2,1.6,1.8,3.1,3.7,4.6,5.6,1.4,1.7,2.7,3.4,4.2,5.1l-38,54c.4.5.7.9,1,1.3,6.3,7.8,12.7,15.5,19,23.2a3.2233,3.2233,0,0,1,.7,2.5c-1.8,14-3.6,28-5.3,41.9-.1.8-.2,1.5-.3,2.3l26.5,10.6c18.6,7.5,37.3,14.9,55.9,22.4a9.9528,9.9528,0,0,0,3.8.8c4.9.1,9.8,0,14.8-.1a2.9509,2.9509,0,0,1,2.5,1.1c4.9,5.7,9.9,11.3,14.8,17a3.3209,3.3209,0,0,0,3.7,1.3q28.65-6.15,57.3-12.2a2.3562,2.3562,0,0,0,2.1-2.2c1.9-8.4,3.9-16.8,5.9-25.2a4.5313,4.5313,0,0,1,1.1-1.9q26.85-26.4,53.9-52.8a3.3369,3.3369,0,0,1,2.3-.9c17.7.7,35.4,1.4,53.2,2.2,26,1.1,52.1,2.1,78.1,3.2l78.9,2.8Z" transform="translate(0 0)"/>
    <path class="cls-3" d="M903.7,253.4l-7.2,1.3Z" transform="translate(0 0)"/>
    <path class="cls-3" d="M688.7,340.6c2.7-14.7,5.4-29.2,8.1-43.8-.5-.1-.9-.1-1.3-.2-5.7-.5-11.4-1.1-17.2-1.6-6.8-.7-13.6-1-20.3-2.2-12.2-2.2-24.4-4.8-36.5-7.3a1.2622,1.2622,0,0,0-1.6538.6717,1.2411,1.2411,0,0,0-.0462.1283v.1c-3.8,7.3-7.6,14.6-11.3,21.9-1.6,3-3.1,6-4.7,9.2l23.8,11c-1.2.5-2.1.9-3,1.3-7.3,2.9-14.6,5.8-21.9,8.8a4.364,4.364,0,0,0-1.7,1.6c-3.7,7.1-7.2,14.2-10.8,21.3-3.4,6.8-6.9,13.6-10.4,20.5l34.6,15.3c-2.4.9-4.4,1.7-6.4,2.5-5.4,2-10.8,4.1-16.1,6a2.162,2.162,0,0,0-1.5,2.1c-.4,4.6-.9,9.2-1.4,13.8-.6,6.3-1.3,12.5-1.9,18.8l74.2,29c3.4-15.7,6.8-31.2,10.2-46.8l-55.6-13.2a2.354,2.354,0,0,1,1.3-.5c19.1-2.3,38.1-4.7,57.2-7,1.1-.1,1.6-.5,1.8-1.8,1.4-7.7,2.9-15.4,4.3-23.1.7-3.7,1.4-7.4,2.1-11.3l-60.1-19v-.4Z" transform="translate(0 0)"/>
    <path class="cls-3" d="M933.9,343,909,350.4c-9.1,2.7-18.1,5.4-27.2,8.1-9,2.7-18,5.3-27.1,8L836.6,372a1.1653,1.1653,0,0,1-1.5812-.464L835,371.5v-.1c-3.1-5.4-6.2-10.8-9.4-16.1-1.6-2.7-3.2-5.3-4.7-8a4.33,4.33,0,0,0,.1,1.6l8.7,32.7a1.95,1.95,0,0,0,2.0787,1.8121q.0609-.0042.1213-.0121c40.3,0,80.6.1,121,0" transform="translate(0 0)"/>
    <path class="cls-3" d="M737.8,269c-.1.1-.2.3-.3.4-2,8.4-4,16.9-6,25.3a2.5718,2.5718,0,0,0,.1,1.5c.7,2,1.5,3.8,2.2,5.8,4.6,12.3,9.1,24.5,13.7,36.8l6.3,17.1a7.8883,7.8883,0,0,1,.5,3l-2.4,64.5c-.1,1.9-.1,3.9-.2,6.1l1-1.1c6.7-7.9,13.3-15.7,20-23.6a3.4187,3.4187,0,0,0,.9-2.9l-2.7-25.8a5.2761,5.2761,0,0,1,.4-2.5l10.8-21.9a5.3386,5.3386,0,0,0,.5-2.5l-4.2-57.3a2.1659,2.1659,0,0,0-1.4-2.1c-8.2-4.3-16.3-8.6-24.5-12.9Z" transform="translate(0 0)"/>
    <path class="cls-3" d="M707.2,243c-.1-.1-.3-.2-.4-.3-6.4-2.9-12.8-5.9-19.2-8.8a1.95,1.95,0,0,0-1.5,0c-5.7,2.3-11.4,4.7-17.1,7.1-14.2,6-28.4,11.9-42.5,17.9-.8.3-.9.8-.9,1.6,0,3,0,6-.2,9,0,1.3.3,1.8,1.4,2.1,8.6,2.2,17.3,4.5,25.9,6.7,3.5.9,7,2.1,10.5,2.5,8.5.8,17,1,25.5,1.5l11.3.6Q703.6,262.8,707.2,243Z" transform="translate(0 0)"/>
    <path class="cls-2" d="M952.8,383.4c-40.3.1-80.6,0-121,0-1.3,0-1.8-.5-2.2-1.8l-8.7-32.7a2.9166,2.9166,0,0,1-.1-1.6c1.6,2.7,3.2,5.3,4.7,8,3.1,5.3,6.3,10.7,9.4,16.1a1.0958,1.0958,0,0,0,1.4125.6375q.0446-.0168.0875-.0375h.1l18.1-5.5c9-2.7,18.1-5.3,27.1-8s18.1-5.4,27.2-8.1l24.9-7.4" transform="translate(0 0)"/>
    <path class="cls-2" d="M737.8,269l14.9,7.8c8.2,4.3,16.3,8.6,24.5,12.9a2.17,2.17,0,0,1,1.3,2.1l4.2,57.3a5.3374,5.3374,0,0,1-.5,2.5l-10.8,21.9a4.2884,4.2884,0,0,0-.4,2.5q1.2,12.9,2.7,25.8a3.5162,3.5162,0,0,1-.9,2.9c-6.7,7.8-13.4,15.7-20,23.6l-1,1.1c.1-2.2.1-4.1.2-6.1l2.4-64.5a10.471,10.471,0,0,0-.5-3l-6.3-17.1c-4.6-12.3-9.1-24.5-13.7-36.8-.7-1.9-1.5-3.8-2.2-5.8a2.5734,2.5734,0,0,1-.1-1.5c2-8.4,4-16.9,6-25.3C737.7,269.3,737.8,269.2,737.8,269Z" transform="translate(0 0)"/>
    <polygon class="cls-2" points="687.3 304.3 691.5 323.9 667.4 347.9 672.3 370.8 654.3 407.2 665.8 437.3 726.5 400.4 728.9 322.9 687.3 304.3"/>
  </g>
  <g id="Calque_7" data-name="Calque 7">
    <polygon class="cls-3" points="415.2 873.4 465.8 901.6 720.4 370.2 669.8 342 415.2 873.4"/>
    <line class="cls-4" x1="711.5" y1="360.6" x2="447.7" y2="907.5"/>
    <ellipse class="cls-3" cx="695.0603" cy="356.205" rx="15.7005" ry="28.9009" transform="translate(43.1358 786.3041) rotate(-60.5486)"/>
    <ellipse class="cls-3" cx="440.2026" cy="887.0247" rx="15.7005" ry="28.9009" transform="translate(-548.6357 834.2044) rotate(-60.5486)"/>
    <path class="cls-3" d="M684.6,479.8c.5,3.3.9,6.6,1.5,9.9a2.3347,2.3347,0,0,0,1,1.2c4.5,2.4,8.9,4.8,13.4,7.2.9.5,1.3.3,1.8-.5,4.5-7.2,9-14.3,13.6-21.5a2.1324,2.1324,0,0,0,.2-2.3c-1.7-4.2-3.3-8.5-5.1-12.7a15.7971,15.7971,0,0,0-2-3.6q-13.95-17.55-28.1-35c-2.3-2.9-4.7-5.8-7-8.7L653.4,427c.3.3.4.5.6.7,5.9,6.4,11.7,13,17.9,19.1,3.1,3,4.7,6.1,4.3,10.1a10.9117,10.9117,0,0,0,3.6,9c.6.6,1.1.9,1.8.7,1.7-.5,3.4-.9,5-1.4a1.72,1.72,0,0,1,2.1.7c4.6,5.3,9.3,10.5,13.9,15.7a5.7646,5.7646,0,0,0,.8,1Z" transform="translate(0 0)"/>
    <path class="cls-2" d="M697.6,463c.5,3.3.9,6.6,1.5,9.9a2.3347,2.3347,0,0,0,1,1.2c4.5,2.4,9,4.8,13.4,7.2.9.5,1.3.3,1.8-.5,4.5-7.2,9-14.3,13.6-21.5a2.1324,2.1324,0,0,0,.2-2.3c-1.7-4.2-3.3-8.5-5.1-12.7a15.7971,15.7971,0,0,0-2-3.6q-13.95-17.55-28.1-35c-2.3-2.9-15.5,0-17.9-3-6.9,4.4-2.7,3-9.6,7.4.3.3.4.5.6.7,5.9,6.4,11.7,13,17.9,19.1a41.7311,41.7311,0,0,1,5.8,6.8,31.0385,31.0385,0,0,0,4.7,5.5c.6.6,2.8,2.5,3.6,2.3-7.1-7.9-2-2.5.8,2.4a6.366,6.366,0,0,1,2,2c4.6,5.3,9.3,10.5,13.9,15.7a5.7741,5.7741,0,0,0,.8,1Z" transform="translate(0 0)"/>
    <polygon class="cls-2" points="585.2 404.9 606.6 420.4 660.1 400 603.8 407.7 580 401.5 585.2 404.9"/>
    <polygon class="cls-2" points="602 343.6 623.5 359.1 677 338.6 620.6 346.4 596.8 340.2 602 343.6"/>
    <polygon class="cls-2" points="630.7 293 648.3 306 691.8 289.2 646 295.4 626.5 290.1 630.7 293"/>
  </g>
  <g id="Calque_2" data-name="Calque 2">
    <path class="cls-3" d="M604.5,720.5c10.3-21.4,20.4-42.4,30.5-63.5-1.5-.7-2.6-1.3-3.7-1.8-8.4-4-16.8-8.1-25.4-12a5.2288,5.2288,0,0,1-3.6-4.6c-1.2-10.2-2.5-20.4-3.8-30.7-.4-3.2-1-6.4-1.5-9.8-3.6,0-7-.1-10.3,0-10.7.2-21.3.4-32,.6-8.2.1-16.4.1-24.6.2-12.1.2-24.2.3-36.3.5a37.7838,37.7838,0,0,0-8.9.7c-5.3,1.4-10.6,3.2-15.8,5.1a9.64,9.64,0,0,1-7.8-.2c-7.5-3.4-15.2-6.6-22.8-9.8-3.1,1.6-6.1,3.1-9,4.7-19.3,10.2-36.3,20.3-56.3,30.4-.1,1.6-1.9,3.7-1.9,4.9,0,6.8-1.5,11.9-2.4,19.7a9.8608,9.8608,0,0,1-2.1,6.4q-24,32.85-47.8,65.8a7.3533,7.3533,0,0,1-4,2.9c-3.8,1-7.6,2.2-11.4,3.3-13.7,3.9-27.4,7.8-41.1,11.8-13.6,3.9-27.1,7.7-40.7,11.6l-28.5,8.1-23.8,6.8c4.6,6.4,7.4,14.7,10.7,21.4,3.4,7,8.3,13.4,12.7,19.8,4.8,7.1,9.5,14.2,14,21.5,1.8,2.9,3.5,5.9,5.1,8.8.4.6.7,1.2,1.1,1.8a4.1794,4.1794,0,0,1,.4,1c1.9,3.6,3.8,7.3,5.4,11s3.2,7.3,4.8,10.9a63.5522,63.5522,0,0,1,19.7,23.9,152.4988,152.4988,0,0,1,14.2,14.8l.8.7,13.7-6.5c21.2-10.2,42.5-20.3,63.7-30.5,10.5-5,21-10.1,31.4-15.2a12.8613,12.8613,0,0,1,7.2-1.5c16.6,2,33.2,3.9,49.8,5.8,11.9,1.3,23.8,2.5,35.7,3.9,16.5,1.8,32.9,3.7,49.4,5.7a8.0939,8.0939,0,0,0,6.2-1.5c8.7-6.4,17.4-12.6,26.1-18.9,13.1-9.5,26.1-18.9,39.2-28.4,9.5-6.8,2.2-10.2,11.7-17-12.2-2.7.4-7.1,1.5-8-5-9.4,7.6-13.3,2.4-20.7l22.9-46.7Z" transform="translate(0 0)"/>
    <path d="M486.7,792.3a646.2686,646.2686,0,0,1,94.4-18.8c3.7-12,7.3-23.6,11-35.6l-30.5-1-.4-1a7.7091,7.7091,0,0,0,1.9-.8c7.9-5.4,15.8-10.9,23.6-16.4a6.2939,6.2939,0,0,0,2.4-2.7c4.7-15.2,9.2-30.5,13.8-46l-44.6-.6c0-.3-.1-.5-.1-.8l25.1-16.8c-1.8-10.9-3.6-21.6-5.3-32.3l-96.7,2c.3,15.6.5,30.8.8,46.3l69-9.1.2.7-68.6,29.2c.7,11.9,1.3,23.5,1.9,35.2l76.5-5.6.2.6L484.1,749C485,763.5,485.9,777.6,486.7,792.3Z" transform="translate(0 0)"/>
    <path d="M383.8,693.3a5.2426,5.2426,0,0,0-1,1.1c-5.7,9.5-11.5,19.1-17.2,28.7a3.04,3.04,0,0,0-.1,3.3c3.2,6.7,6.3,13.5,9.6,20.2a7.6345,7.6345,0,0,1,.4,6.1c-2.2,7.2-4.3,14.4-6.3,21.7a5.1452,5.1452,0,0,0,.2,3c1.6,4.1,3.3,8.2,5,12.3,3.4,8.3,6.8,16.6,10.3,24.9,2,4.8,4.1,9.6,6.2,14.6l54.3,3.4a17.9769,17.9769,0,0,0,.2-2.2c0-6.5-.3-13,.2-19.5.2-3.4-1.2-5.8-3.4-8-7.3-7.5-14.5-15.1-21.6-22.7-4.8-5.1-9.4-10.3-14.4-15.3-3.4-3.3-5.9-6.8-7-11.4-3.9-16.5-8.1-32.8-12.3-49.2C385.8,700.7,384.8,697.1,383.8,693.3Z" transform="translate(0 0)"/>
    <path d="M486.7,806c.8,13.1,1.7,26,2.5,39,6.4.2,12.5-.1,18.3.6,6.5.7,11.2-1.6,16.4-5.3,18.5-13.5,37.4-26.6,56.1-39.8.7-.5,1.4-1.1,2.1-1.7-1-3.6-2-7-3.1-10.5l-10.2,1.1c-11.3,1.3-22.7,2.3-34,3.9-5.2.7-10.2,2.4-15.3,3.8C508.8,799.9,498,802.9,486.7,806Z" transform="translate(0 0)"/>
    <path d="M455.6,692.1c-3.4-8.2-6.6-15.9-9.9-23.6-2.7-6.3-2.7-4,.3-10.6.1-.2.2-.5.3-.7a7.9647,7.9647,0,0,0,0-9.9l-8.9-.6c-2.6-6.8-5.2-13.5-8.1-20.9l19.6,7.5,3.8-10.2-12.8-11.9c-9.4,5.9-18.3,11.6-27.3,17.3a3.4931,3.4931,0,0,0-1.8,3c-.3,4.5-.7,9-1,13.4a8.1956,8.1956,0,0,0,.3,3.1c4.6,14.8,9.2,29.5,13.8,44.3.7,2.2,1.5,4.3,2.3,6.6Z" transform="translate(0 0)"/>
    <path class="cls-3" d="M486.7,792.3c-.9-14.7-1.7-28.8-2.5-43.1L561.4,719l-.2-.6L484.7,724c-.6-11.8-1.3-23.3-1.9-35.2l68.6-29.2-.2-.7-69,9.1c-.3-15.5-.5-30.7-.8-46.3l96.7-2c1.8,10.7,3.5,21.4,5.3,32.3l-25.1,16.7c0,.3.1.5.1.8l44.6.5c-4.7,15.6-9.2,30.8-13.8,46a5.7191,5.7191,0,0,1-2.4,2.7c-7.8,5.5-15.7,11-23.6,16.4a10.8425,10.8425,0,0,1-1.9.8l.4,1,30.5,1c-3.7,12-7.3,23.6-11,35.6A647.5844,647.5844,0,0,0,486.7,792.3Z" transform="translate(0 0)"/>
    <path class="cls-2" d="M256,887.6c17.2-9.1,8.6-.6,25.8-9.6l35.4-18.6c9.4-5,18.9-9.9,28.3-14.9a10.6,10.6,0,0,0,1.2-1c-.6-11.4-1.2-22.9-1.9-34.5h-.9c-2.3,9.3-4.6,18.6-7,28.3-40.2,10.8-65.5,19.1-105.9,29.9" transform="translate(0 0)"/>
    <path class="cls-3" d="M383.8,693.3c1,3.9,2,7.4,2.9,11,4.1,16.4,8.4,32.7,12.3,49.2,1.1,4.7,3.6,8.1,7,11.4,5,4.9,9.6,10.2,14.4,15.3,7.2,7.6,14.3,15.2,21.6,22.7,2.2,2.3,3.6,4.6,3.4,8-.4,6.5-.1,13-.2,19.5a17.9556,17.9556,0,0,1-.2,2.2l-54.3-3.4c-2.1-5-4.2-9.8-6.2-14.6-3.4-8.3-6.9-16.6-10.3-24.9-1.7-4.1-3.4-8.2-5-12.3a5.1459,5.1459,0,0,1-.2-3c2-7.2,4.1-14.5,6.3-21.7a8.0708,8.0708,0,0,0-.4-6.1c-3.3-6.7-6.3-13.5-9.6-20.2a3.04,3.04,0,0,1,.1-3.3c5.8-9.6,11.5-19.1,17.2-28.7A10.9929,10.9929,0,0,1,383.8,693.3Z" transform="translate(0 0)"/>
    <path class="cls-3" d="M486.7,806c11.3-3.1,22.1-6.1,32.9-9,5.1-1.4,10.2-3.1,15.3-3.8,11.3-1.6,22.6-2.7,34-3.9l10.2-1.1c1,3.6,2,7,3.1,10.5-.8.6-1.4,1.2-2.1,1.7-18.7,13.3-37.6,26.3-56.1,39.8-5.2,3.8-9.9,6.1-16.4,5.3-5.8-.7-11.9-.4-18.3-.6C488.3,832,487.5,819.1,486.7,806Z" transform="translate(0 0)"/>
    <path class="cls-3" d="M455.4,692,426,699c-.8-2.3-1.6-4.4-2.3-6.6-4.7-14.7-9.3-29.5-13.8-44.3a8.1949,8.1949,0,0,1-.3-3.1c.3-4.5.8-8.9,1-13.4a3.4936,3.4936,0,0,1,1.8-3c9-5.7,18-11.4,27.3-17.3,4.3,4,8.5,7.9,12.8,11.9-1.3,3.3-2.5,6.5-3.9,10.2L429,625.9l8.1,20.9,8.9.6a7.9648,7.9648,0,0,1,0,9.9,4.8732,4.8732,0,0,0-.3.7c-3,6.6-3,4.3-.3,10.6C448.9,676.1,452,683.8,455.4,692Z" transform="translate(0 0)"/>
    <polygon class="cls-3" points="440.7 602.2 387 641.3 348.2 774.4 392.1 836.8 518.3 849.2 594.5 797.8 589.1 769.7 601.3 708.2 608.2 655.7 588.7 622.2 578.5 614.4 440.7 602.2"/>
    <polygon class="cls-3" points="488.2 561.3 429.5 600.1 475.4 622.2 558.9 595.7 569.3 557.7 573.5 549 488.2 561.3"/>
    <g id="Calque_4" data-name="Calque 4">
      <polygon class="cls-3" points="365.5 723 410.3 637.7 441.1 625.3 470.2 619.2 572.1 622.2 575.9 648.4 602.6 667 586.5 716.6 568.3 730.7 591.3 733 578.4 769.2 585.6 793.4 517.9 843 392 826.1 365.5 772.8 371.7 748.3 365.5 723"/>
      <polygon class="cls-2" points="365.1 779.5 383.7 829.8 524.4 849.4 576.6 793 539.1 805.2 518.5 822.4 365.1 779.5"/>
      <polygon points="455.4 620.1 480.1 620.9 506.4 621.4 543.6 607.1 572.3 578.7 582.1 544.2 568.2 569.2 538.2 593.6 505.3 592.9 455.4 620.1"/>
      <polygon class="cls-2" points="598.2 694.8 579.8 727.3 502.2 728.9 576.5 708.7 602.8 687.4 598.2 694.8"/>
      <polygon class="cls-2" points="582.4 755.6 565.4 775.2 494.7 779.2 562.5 764.5 586.7 751.2 582.4 755.6"/>
      <polygon class="cls-2" points="584.2 655.7 569.7 682.9 508.4 683.7 567 667.2 587.8 649.5 584.2 655.7"/>
    </g>
  </g>
  <g id="Calque_10" data-name="Calque 10">
    <circle class="cls-5" cx="595.8" cy="589" r="451.2"/>
  </g>
  <polygon class="cls-6" points="739.054 1093.043 718.505 1081.505 715.782 1082.382 735.815 1093.951 739.054 1093.043"/>
  <g>
    <path class="cls-7" d="M292.7718,1128.5474l-7.0806,11.9786-3.8608-2.2823,7.0806-11.9785c-16.4424-11.0547-20.7959-31.2617-7.9224-53.042,13.3423-22.5713,34.2515-28.1133,52.2691-17.4629s23.2446,31.6407,9.9023,54.2119C330.2279,1131.8511,310.3265,1137.7213,292.7718,1128.5474Zm46.6265-20.7988c12.4057-20.9873,7.435-39.0215-8.3057-48.3252-15.84-9.3633-33.896-4.8066-46.2432,16.082s-7.6914,39.003,8.1485,48.3663C308.7386,1133.1763,326.9925,1128.7369,339.3983,1107.7486Z" transform="translate(0 0)"/>
    <path class="cls-7" d="M419.3158,1153.1119c-7.1182,18.7021-19.3985,25.1035-36.4883,18.5986-17.1973-6.5449-22.0069-19.45-14.8887-38.1523l18.2861-48.0449,4.0845,1.5546-18.4087,48.3672c-6.0547,15.9073-2.54,26.72,12.3994,32.4063s24.7539-.0537,30.8086-15.961l18.4092-48.3671,4.084,1.5537Z" transform="translate(0 0)"/>
    <path class="cls-7" d="M459.6571,1168.6715l-14.4248,22.3613-4.503-.9414,46.9751-72.418,4.6153.9649,13.9218,85.1474-4.5024-.9414-4.26-26.2666Zm32.9394-22.1329c-1.35-8.1533-3.4272-23.5078-3.5161-23.6435l-.2251-.0469c-.1362.0889-8.2788,13.19-12.6694,20.1436l-14.2417,22.0459,34.7822,7.27Z" transform="translate(0 0)"/>
    <path class="cls-7" d="M561.58,1132.1334l-5.4,76.1709-4.3589-.31,5.4-76.1709-25.9253-1.8379.2925-4.13,56.211,3.9854-.293,4.13Z" transform="translate(0 0)"/>
    <path class="cls-7" d="M639.8275,1173.4957c-1.7129.2363-6.0723.5469-7.6778.6611l-10.7841.7676,2.4492,34.415-4.3594.31-5.7139-80.3008,19.043-1.3555c16.9775-1.208,27.4717,6.9229,28.5166,21.6065.9473,13.3076-6.0439,20.3769-16.9346,22.8809l21.4346,33.871-5.1621.3672Zm-3.1377-3.5821c12.5039-.89,21.248-6.0087,20.2519-20.0039-.9384-13.1923-10.0976-18.7666-24.208-17.7627l-14.3388,1.0206,2.6933,37.8564Z" transform="translate(0 0)"/>
    <path class="cls-7" d="M688.0277,1121.317l4.3008-.7735,14.249,79.2325-4.3018.7744Z" transform="translate(0 0)"/>
    <path class="cls-7" d="M724.0452,1114.1236l44.4649-13.0674,1.168,3.9717-40.2735,11.835,8.9492,30.4531,32.2188-9.4678,1.167,3.9717-32.2178,9.4687,10.2461,34.8663,40.2725-11.836,1.167,3.9727-44.4649,13.0674Z" transform="translate(0 0)"/>
    <path class="cls-7" d="M864.929,1100.3511c-6.0869-12.64-13.5595-28.9521-13.61-29.0556l-.207.1c-.1036.05.4687,6.5391.1562,24.1758l-.4805,35.8418-3.1084,1.497L819.66,1111.3033c-14.2881-11.1152-19.1084-15.5586-19.2119-15.5088l-.1035.05c.05.1035,8.041,16.166,14.1289,28.8067l18.2617,37.92-3.834,1.8467-34.9267-72.5254,4.5586-2.1953,48.3056,37.4912.1035-.05.7-61.0928,4.56-2.1953,34.9268,72.5254-3.9366,1.8955Z" transform="translate(0 0)"/>
    <path class="cls-7" d="M878.2855,1047.5308l37.9658-26.5771,2.374,3.3916L884.24,1048.4166l18.2012,26.001,27.5087-19.2569,2.3741,3.3916-27.5088,19.2569,20.84,29.77,34.3858-24.07,2.374,3.3906L924.45,1113.4761Z" transform="translate(0 0)"/>
  </g>
</svg>
