<svg id="Calque_1" data-name="Calque 1" xmlns="http://www.w3.org/2000/svg" viewBox="0 0 575.04 71.47"><defs><style>.cls-1{fill:#fff;}.cls-2{fill:#231f20;}.cls-3{fill:#10497c;}.cls-4{fill:#131718;}.cls-5{fill:none;stroke:#131718;stroke-miterlimit:10;stroke-width:0.54px;}.cls-6{fill:#003b71;}.cls-7{fill:#0091b3;}.cls-8,.cls-9{fill:#003f58;}.cls-9{fill-rule:evenodd;}.cls-10{fill:#121517;}.cls-11{fill:#c62052;}.cls-12{fill:#cfd2d3;}.cls-13{fill:#d42c49;}.cls-14{fill:#58535e;}</style></defs><rect class="cls-1" x="504.92" y="13.51" width="49.98" height="49.99"/><rect class="cls-1" x="504.92" y="13.51" width="49.98" height="49.99"/><rect class="cls-2" x="506.55" y="15.15" width="46.72" height="32.15"/><path class="cls-3" d="M553.23,61.81l0-12.35h-2.1c-.22.29-.07,1.6-.73,1.85-2.25-.5-.2-.76-1-1.85H548.3c.11,0,.5.46-.09,1-.78,5.17.66,7.28-.07,11.39Z"/><path class="cls-3" d="M519.82,53.29a1.9,1.9,0,0,0,.88-1.85c-.25-.29-1.25-.31-1.65-.23-.55.46-.07,1.29-.4,1.82.22.47.8.14,1.17.26"/><path class="cls-3" d="M524.62,59.41l.25.07a1.36,1.36,0,0,0,.77,0,1.41,1.41,0,0,0-.25-.45,8,8,0,0,0-.77.42"/><path class="cls-3" d="M527.73,56.2c-.59,0-1.1.87-1.61.52.3-.83,1-1.52,1.23-2.33.48-1.1,1.28-3.5.94-4.94H526c-.74.21-.19,2.12-1,2.25a9.27,9.27,0,0,0-.75-2.23h-1.22c.09.82,0,.86-.1.94-.42,0-.38-.64-.91-.29-.47-.08-.59.66-1.08.52-.17-.4-.63-.91-1.14-.6.44,1,2.66,1.35,1.61,2.92-.22.46-.05,1.12-.62,1.35-1-.27-1.92-.64-2.92-.89.11.37-.17.89-.06,1.27,1.06.14,1.38,1.24,2.28,1.57a.51.51,0,0,1,.24.54c-.64.27-1.31-.29-1.91-.54-.15.06-.06.21-.08.31.55.65,2.32.37,1.75,1.72-.48,1.1-.38,2.93-2,3.08-.15.33.25.3.38.45,1.44.15,2.92-1.22,4.13-.08.4,0,.91-.25,1.23.07h3.6c.68-1.31.16-2.15.22-3.36.08-.3-.84-.61-1.54-.44-.13-.09,0-.26-.06-.4.46-.54,2.32.27,1.9-1,0-.1,0-.35-.23-.37m-7.64-1.35h-.32c-.44-.16-1.42-.39-1.46-.91.62.16,1.17.47,1.78.68ZM524.21,51l-.11,1.29c-.05.21-.2.61-.57.46-.44.1-.21-.43-.26-.63.39-.33.5-1,.94-1.12m0,3.77a2,2,0,0,1-1.38.08,1.12,1.12,0,0,0,.15-.54c.26-.21.53-.66,1-.52a1.4,1.4,0,0,1,.24,1m-1.7-3.61c.05-.48.62-.29.93-.44l.07.21c-.3.23-.51.73-1,.54Zm-.06,5.18c.57.13,1.19-.3,1.61.15-.19.4-.19,1.06-.85.68-.29-.23-1-.12-.91-.68Zm-.7-5.56c.11-.16.26-.47.55-.37,0,.25-.15.71-.55.52Zm-.44,5c.37-.22.88-.18.79.52h-.59c-.12-.14-.29-.28-.2-.52m-1.4-.27c.11-.19.33-.08.49-.11.06.46.77-.11.49.49h-.08a.66.66,0,0,1-.9-.38m.85,5.14c-.53-.91.08-2.43.23-3.3.12-.12.25-.29.47-.23.14.48-.56.79-.09,1.2.49-.14,1.12.29,1.61-.08-.26-.41-.78-.2-1.14-.37v-.23l1.08-.06c.17.23.93.44.76.88a8.94,8.94,0,0,1-2.92,2.19m4.87-1.18a1.78,1.78,0,0,1,0,1.5l-2.45.09v-.32a5.33,5.33,0,0,1,1.44-1.3l-.49-.13c-.7-.48.94-1.17,1.2-1.36L526,59a.52.52,0,0,1-.35.46m-1-5.61c-.5-1.35,1.33-1.9,2-2.72l.95.53c-.1.92-1.78,1.09-1.68,2.08.18.15.33.4.56.45.08.25-.13.4-.28.55-.74.3-1.11-.42-1.58-.89"/><path class="cls-3" d="M510.1,50.79a17.64,17.64,0,0,0-3.51.08v1.79H507a4,4,0,0,0,1.36.17,33.31,33.31,0,0,0,5.38-.19,1.75,1.75,0,0,0-.62-.1c-.32-.24-.52-.4-.45-.78.5-.54,1.42-.1,2-.41.52.2.17.76.3,1.11,0,.1-.11.09-.17.14.58,0,1.19,0,1.85.08V50.82c-2.8-.18-4.77.08-6.57,0"/><path class="cls-3" d="M531.32,50.17a14.71,14.71,0,0,0,2.83.37V49.46h-4a5.64,5.64,0,0,1-.66,2,2.34,2.34,0,0,1,1,.17v.23a5.7,5.7,0,0,0-1-.15v3.51h.45c0,.08.1.12.09.23l-.09.16h-.45v.43a1.37,1.37,0,0,0,.45,0s0,0,0,.06c.21,0,.36.31.62.17v.22h-.47a.35.35,0,0,1-.28-.11.6.6,0,0,1-.35.05v.32a3,3,0,0,1,1.16,0c0,.08.12.12.1.23l-.1.16a5,5,0,0,0-1.16-.1v2.71l.36.09c0,.1.14.16.14.29a.7.7,0,0,1-.5.06v1.52h4.7V60.29a1.61,1.61,0,0,1-.76,0,3.17,3.17,0,0,1,.6-1.1l.16-2a4.88,4.88,0,0,0-1.15.1l-.1-.16c0-.11.06-.15.1-.23a3,3,0,0,1,1.15,0v-.32a.68.68,0,0,1-.53-.16c0-.11.06-.15.09-.23a1.3,1.3,0,0,0,.44,0v-.43h-.44l-.09-.16c0-.11.06-.15.09-.23h.44V51.76a5.73,5.73,0,0,0-1,.15v-.23a2.32,2.32,0,0,1,1-.17v-.69c-.83,0-1.66-.13-2.45-.2-.2-.1-.49-.08-.62-.29a.22.22,0,0,1,.24-.16m2.53,2.59v.7c-.33,0-.72.1-1-.12.14-.5.67-.47,1-.58M530,52.28h.62v.23H530Zm1,.91a2,2,0,0,1-.89.32l-.18-.59c.33,0,.94-.19,1.07.27m-1.38,5.09h.81v.23h-.81Zm3.53,2.81c-.28.65-.79.18-1.15,0s-.53.74-.8.12c0-.15.06-.21.09-.33a1.7,1.7,0,0,1,1.86.21m-.66-5.33h-1.18v-.44h1.18Zm-.23,1.65v.64c-.2,0-.47.1-.63-.11,0-.49.43-.45.63-.53m-.41-5c.17.12.53.13.35.6-.22.19-.37-.31-.57-.37Zm0-.89-.35.38c-.13,0-.37-.41-.41-.57s.7,0,.76.19m.61,7.45v.55c-.72.25-1.4,1-2.19.7v-.5c.32-.15.69.3,1-.4.44,0,.8-.59,1.24-.35m-1.34-4.41a1.63,1.63,0,0,1-1.3-.06c.19-.42.64-.17,1-.23.1.15.33,0,.34.29"/><path class="cls-3" d="M510.47,50.22c2,0,4.2-.18,6.22,0v-.76H506.57c0,.31,0,.81,0,.81a24.33,24.33,0,0,1,3.9,0"/><path class="cls-3" d="M508.92,53.9c-.57,0-1.18-.56-1.75-.74h-.28l-.29.06v8.59h10.12V53.12c-2.64-.3-5,1-7.79.78"/><path class="cls-3" d="M547,56c-.59-1.43.76-6.2-1.42-6.59a.76.76,0,0,0-.63.22,1.76,1.76,0,0,1,.74,1.14c-.51,1.12-1.57-.25-2.29.12v.91c-.3.25-.51.59-.93.46-.26-.29-.59-.5-.47-.91s.85-.33,1.23-.58c0,0,0,0,0,0-.73-.18-.63-1.31-1.85-1.31H539c-1.08.34-2.42,1-3.67,0l.24,1.54.15.53V52l.55.48-.57.48.19,1.19c.43.13.9.15.92.55a20,20,0,0,0-.58,2.05c0,.83.43,4.24.41,5.07a17,17,0,0,0,3-.35s.6.33.6.35c.76.07,1.75.26,1.5-1.06l-.55-3.5c-.65-1.79.55-2.23.95-2.25l.32.28a5,5,0,0,0-.2,1,.66.66,0,0,1,.1.5.47.47,0,0,1-.11.42c.13,1.62.9,3,.92,4.59h2l.75-.58-.16-1.44.09-1.36,0-2.53a6.34,6.34,0,0,1,1,.3Zm-10.15-4a1.32,1.32,0,0,1-.56-1.3c.26-.6,1.12-.4,1.47-.15s.77.88,0,1.08c.07,1-.63.82-.93.37m2.29,8v-.77l-.58-.55-.24-.83a6,6,0,0,1,.26-3.21l0,0c-.21-.06-.55.12-.68-.14.19-.32-.08-.8.24-1.06a1.44,1.44,0,0,1,.95.13,1.31,1.31,0,0,1-.26.88.73.73,0,0,1,.7.19,48.34,48.34,0,0,0,.37,6.26Zm1.41-8.33c.13.5-.56.59-.81.61a1,1,0,0,1-.46-1.17c.19-.2.35-.44.7-.35.19.31.73.47.57.91m1.24,1.74a.93.93,0,0,1-1.07.66c-.28-.2-.19-.6-.25-.89s.67-.37.93-.31c.1.15.48.34.39.54m.86.66a1.16,1.16,0,0,1,.81-.37.85.85,0,0,1,.32.92c0,.27-.32.2-.53.2s-.68-.4-.6-.75m1.51,5.53c-.25.28-.18,1.55-.79.9-.65-1.71.23-2.89.38-4.41.38-.41.8-.57,1-.46.06,0,.38.77.43.78.08,1.05-.56,1.1.05,2.83-.16.29-.9.14-1.1.36m1.44-4.51c-.24,0-.76-.07-.8-.4s-.07-.87.73-.72c.6.16.83,1,.07,1.12"/><path class="cls-1" d="M519.15,42.08a2.75,2.75,0,0,1-2.16-.83l.46-.46a2.17,2.17,0,0,0,1.71.69c.92,0,1.49-.44,1.49-1.17a1,1,0,0,0-.3-.79,1.38,1.38,0,0,0-.82-.3l-.74-.11a2.33,2.33,0,0,1-1.16-.48,1.48,1.48,0,0,1-.48-1.18,1.78,1.78,0,0,1,2-1.78,2.56,2.56,0,0,1,1.88.69l-.43.44a2,2,0,0,0-1.47-.54,1.17,1.17,0,0,0-1.33,1.17.93.93,0,0,0,.28.72,1.88,1.88,0,0,0,.85.35l.69.1a2,2,0,0,1,1.15.44,1.58,1.58,0,0,1,.53,1.25c0,1.11-.86,1.79-2.17,1.79"/><path class="cls-1" d="M525.28,42v-.49a1.62,1.62,0,0,1-1.23.54,1.55,1.55,0,0,1-1.13-.41,1.61,1.61,0,0,1-.44-1.22V37.67h.64v2.68c0,.77.41,1.16,1.06,1.16a1,1,0,0,0,1.09-1.16V37.67h.64V42Z"/><path class="cls-1" d="M530,42V41.5a1.41,1.41,0,0,1-1.24.58,1.52,1.52,0,0,1-1.06-.38,2.61,2.61,0,0,1-.53-1.85,2.61,2.61,0,0,1,.53-1.85,1.52,1.52,0,0,1,1.06-.38,1.4,1.4,0,0,1,1.23.56V35.73h.64V42Zm-1.1-3.84c-.94,0-1.09.81-1.09,1.66s.15,1.66,1.09,1.66S530,40.7,530,39.85s-.14-1.66-1.09-1.66"/><path class="cls-1" d="M534.6,39.43h-1.67V42h-.67v-6.3h2.34a1.85,1.85,0,1,1,0,3.7m-.06-3.1h-1.61v2.5h1.61a1.25,1.25,0,1,0,0-2.5"/><path class="cls-1" d="M540.1,42v-.42a1.54,1.54,0,0,1-1.26.47,1.57,1.57,0,0,1-1.23-.4,1.25,1.25,0,0,1-.32-.88c0-.76.53-1.26,1.5-1.26h1.31v-.42c0-.63-.32-.95-1.12-.95a1.13,1.13,0,0,0-1.09.49l-.44-.39a1.69,1.69,0,0,1,1.54-.65c1.17,0,1.75.5,1.75,1.45v3Zm0-2h-1.22c-.66,0-1,.26-1,.77s.31.74,1,.74a1.31,1.31,0,0,0,1-.29,1,1,0,0,0,.22-.75Z"/><path class="cls-1" d="M544.63,38.5a.94.94,0,0,0-.75-.31,1.06,1.06,0,0,0-1,1.16V42h-.64V37.67h.64v.53a1.47,1.47,0,0,1,1.22-.58,1.35,1.35,0,0,1,1.05.41Z"/><path class="cls-1" d="M545.8,35.72h.71v.71h-.71Zm0,2h.64V42h-.64Z"/><path class="cls-1" d="M549.35,42.08a2.38,2.38,0,0,1-1.78-.63L548,41a1.8,1.8,0,0,0,1.35.5c.72,0,1.16-.26,1.16-.77s-.22-.59-.72-.64l-.72-.06c-.85-.07-1.3-.45-1.3-1.17s.67-1.27,1.6-1.27a2.47,2.47,0,0,1,1.57.47l-.42.41a1.9,1.9,0,0,0-1.16-.34c-.63,0-1,.27-1,.72s.21.59.76.63l.7.07c.76.07,1.28.36,1.28,1.17s-.71,1.33-1.77,1.33"/><path class="cls-1" d="M513.51,28.85h-1.83v5.23a.42.42,0,0,1-.42.42h-.19a.41.41,0,0,1-.42-.42V28.85h-1.82a.4.4,0,0,1-.43-.39V28.3a.4.4,0,0,1,.42-.39h4.68a.4.4,0,0,1,.43.39v.16a.4.4,0,0,1-.42.39"/><path class="cls-1" d="M519.45,34.5h-4.28a.38.38,0,0,1-.39-.39V28.3a.39.39,0,0,1,.4-.39h4.07a.39.39,0,0,1,.42.39v.16a.39.39,0,0,1-.42.39H515.8v1.91H519a.39.39,0,0,1,.42.39v.15a.39.39,0,0,1-.42.39H515.8v1.88h3.65a.38.38,0,0,1,.41.39v.15a.38.38,0,0,1-.41.39"/><path class="cls-1" d="M525.24,34.5h-4.32V28.33a.42.42,0,0,1,.42-.42h.19a.43.43,0,0,1,.42.42v5.24h3.29a.39.39,0,0,1,.42.39v.15a.39.39,0,0,1-.42.39"/><path class="cls-1" d="M531,34.5h-4.28a.38.38,0,0,1-.39-.39V28.3a.39.39,0,0,1,.4-.39h4.07a.39.39,0,0,1,.42.39v.16a.39.39,0,0,1-.42.39h-3.44v1.91h3.16a.39.39,0,0,1,.42.39v.15a.39.39,0,0,1-.42.39h-3.16v1.88H531a.38.38,0,0,1,.41.39v.15a.38.38,0,0,1-.41.39"/><path class="cls-1" d="M536.73,34.5H534a1.56,1.56,0,0,1-1.53-1.58V29.46a1.58,1.58,0,0,1,1.58-1.55h2.5a.39.39,0,0,1,.42.39v.16a.39.39,0,0,1-.42.39h-2.14a.81.81,0,0,0-.91.9v3c0,.65.41.86.93.86h2.29a.39.39,0,0,1,.42.39v.15a.39.39,0,0,1-.42.39"/><path class="cls-1" d="M541.94,34.5h-2.26a1.55,1.55,0,0,1-1.55-1.56v-3.5a1.58,1.58,0,0,1,1.6-1.52h2.15a1.57,1.57,0,0,1,1.6,1.52v3.5a1.56,1.56,0,0,1-1.54,1.56m.51-4.89a.76.76,0,0,0-.76-.76h-1.76a.76.76,0,0,0-.77.76v3.2a.75.75,0,0,0,.75.76h1.78a.75.75,0,0,0,.76-.76Z"/><path class="cls-1" d="M550.48,34.5h-.19a.42.42,0,0,1-.42-.42V29.69l-1.39,1.95c-.12.16-.23.3-.44.3h-.14c-.21,0-.32-.14-.44-.3l-1.39-1.95v4.39a.42.42,0,0,1-.42.42h-.2a.41.41,0,0,1-.41-.42V28.3a.37.37,0,0,1,.39-.39h.25c.18,0,.33.17.43.31L548,30.85l1.88-2.63c.09-.14.23-.31.41-.31h.25a.37.37,0,0,1,.39.39v5.78a.41.41,0,0,1-.42.42"/><path class="cls-4" d="M40.36,36.5c-6.34-4.36-9.75-6.69-12.95-9.06a16.86,16.86,0,0,0,4.93,22.65c1.86-3.65,4.35-7.71,8-13.59"/><path class="cls-4" d="M56.94,39.86a7.81,7.81,0,0,1-9.77,1.29c-.58-.36-4.7-3.2-4.7-3.2-4.55,6.43-6.89,9.66-9.4,12.61A16.87,16.87,0,0,0,58.69,37a7.93,7.93,0,0,1-1.75,2.89"/><path class="cls-4" d="M53.82,30.36l-4.17-2.77c-3,4.36-3.43,5-5.69,8.25,0,0,3.93,2.54,4.5,2.89A5,5,0,0,0,56,35.44a5,5,0,0,0-2.18-5.08"/><path class="cls-4" d="M41.68,34.37c2.14-3.41,4.07-6.44,7.11-11,0,0,6.38,4.2,6.94,4.6a8.43,8.43,0,0,1,1.55,1.42A16.87,16.87,0,0,0,28.39,26c3.39,2,7.45,4.63,13.29,8.38"/><path class="cls-4" d="M25.9,24a2.13,2.13,0,1,0-2.14,2.11A2.13,2.13,0,0,0,25.9,24"/><path class="cls-4" d="M27.39,17.82l1-.72a1.05,1.05,0,0,1,1.57.16h0a1.1,1.1,0,0,1-.4,1.59l-.5.36.58.82-.44.32Zm1.91.63a.59.59,0,0,0,.22-.85h0a.57.57,0,0,0-.87-.07l-.52.38.65.91Z"/><path class="cls-4" d="M31.54,16.93h0a1.6,1.6,0,0,1,.85-2.14,1.57,1.57,0,0,1,2.13.81h0a1.61,1.61,0,0,1-.85,2.14,1.59,1.59,0,0,1-2.14-.81M34,15.84h0a1.06,1.06,0,1,0-1.94.85h0a1.07,1.07,0,0,0,1.42.58A1.06,1.06,0,0,0,34,15.84"/><polygon class="cls-4" points="35.86 13.6 36.39 13.48 36.95 16.04 38.56 15.69 38.67 16.18 36.52 16.65 35.86 13.6"/><polygon class="cls-4" points="40.27 14.79 38.92 12.98 39.57 12.94 40.52 14.27 41.32 12.83 41.95 12.8 40.82 14.75 40.9 15.99 40.35 16.02 40.27 14.79"/><polygon class="cls-4" points="44.19 13.48 43.21 13.36 43.27 12.86 45.78 13.15 45.73 13.65 44.74 13.54 44.44 16.14 43.89 16.07 44.19 13.48"/><polygon class="cls-4" points="47.65 13.55 49.86 14.23 49.72 14.7 48.03 14.19 47.79 14.96 49.29 15.42 49.14 15.89 47.65 15.43 47.4 16.23 49.11 16.76 48.97 17.23 46.73 16.54 47.65 13.55"/><path class="cls-4" d="M50.94,16.36h0a1.57,1.57,0,0,1,2.18-.66,1.61,1.61,0,0,1,.85,1l-.51.19a1.24,1.24,0,0,0-.58-.76,1,1,0,0,0-1.43.48h0a1.07,1.07,0,0,0,.38,1.47,1.22,1.22,0,0,0,1,.06l.14.49a1.62,1.62,0,0,1-1.38-.12,1.58,1.58,0,0,1-.64-2.17"/><polygon class="cls-4" points="55.81 17.45 56.23 17.8 55.4 18.8 56.54 19.75 57.37 18.76 57.79 19.11 55.79 21.51 55.37 21.15 56.21 20.14 55.07 19.18 54.22 20.2 53.8 19.84 55.81 17.45"/><polygon class="cls-4" points="59.46 20.83 59.77 21.23 59.09 23.88 60.79 22.56 61.12 22.98 58.65 24.9 58.37 24.53 59.08 21.81 57.32 23.17 56.99 22.75 59.46 20.83"/><rect class="cls-4" x="59.4" y="25.51" width="3.12" height="0.55" transform="translate(-4.92 32.19) rotate(-28.48)"/><path class="cls-4" d="M61.48,30.43a1.65,1.65,0,0,1,.41-2.87h0a1.6,1.6,0,0,1,2.06,1,1.58,1.58,0,0,1-1,2.06h0a1.59,1.59,0,0,1-1,0l-.18.44-.48-.21Zm.21-.5.26-.66.49.2-.28.67a1,1,0,0,0,.6,0h0a1.07,1.07,0,0,0,.71-1.36,1.06,1.06,0,0,0-1.39-.64h0a1.07,1.07,0,0,0-.7,1.37,1,1,0,0,0,.31.46"/><path class="cls-4" d="M63.06,32.33l1.79-.21.07.54-1.77.21c-.58.07-.85.4-.79.89a.75.75,0,0,0,1,.68l1.79-.21.06.54L63.4,35a1.25,1.25,0,0,1-1.55-1.17,1.23,1.23,0,0,1,1.21-1.48"/><polygon class="cls-4" points="65.18 36.89 65 39.2 64.51 39.16 64.65 37.4 63.84 37.33 63.72 38.9 63.23 38.86 63.35 37.3 62.51 37.23 62.38 39.02 61.89 38.98 62.07 36.65 65.18 36.89"/><rect class="cls-4" x="27.67" y="53.63" width="3.13" height="0.55" transform="translate(-31.65 46.57) rotate(-54.66)"/><polygon class="cls-4" points="26.25 53.57 25.89 53.21 26.25 50.5 24.72 52.02 24.34 51.64 26.55 49.44 26.87 49.76 26.51 52.55 28.09 50.98 28.47 51.37 26.25 53.57"/><path class="cls-4" d="M25.29,48.58l-.51-.06a1.43,1.43,0,0,0-.21-1.05c-.18-.28-.43-.37-.63-.24h0c-.19.13-.22.3,0,.86s.28,1.06-.2,1.38h0a.94.94,0,0,1-1.34-.39,1.73,1.73,0,0,1-.3-1.16h.51a1.42,1.42,0,0,0,.2.89c.17.27.42.33.59.22h0c.21-.13.22-.31,0-.88s-.22-1.06.21-1.35h0a1,1,0,0,1,1.39.42,2,2,0,0,1,.3,1.36"/><polygon class="cls-4" points="21 45.45 21.39 46.36 20.93 46.56 19.92 44.23 20.39 44.03 20.78 44.94 23.19 43.91 23.4 44.41 21 45.45"/><rect class="cls-4" x="19.28" y="41.59" width="3.12" height="0.55" transform="translate(-10.25 6.93) rotate(-15.2)"/><polygon class="cls-4" points="19.24 39.25 19.36 40.23 18.86 40.29 18.54 37.78 19.05 37.71 19.17 38.7 21.77 38.37 21.84 38.92 19.24 39.25"/><path class="cls-4" d="M20.28,36.09,18.48,36l0-.55,1.77.11c.58,0,.91-.24.94-.73S21,34,20.42,34l-1.8-.11,0-.55,1.76.11a1.26,1.26,0,0,1,1.32,1.43,1.24,1.24,0,0,1-1.46,1.24"/><polygon class="cls-4" points="19.69 30.7 19.44 31.65 18.95 31.53 19.59 29.07 20.08 29.2 19.83 30.16 22.36 30.82 22.22 31.35 19.69 30.7"/><path class="cls-4" d="M34.88,55.08l1.21.34c1.25.35,1.7,1.15,1.43,2.08h0c-.26.93-1.09,1.41-2.36,1.05L34,58.22Zm.6,2.58c.48.13.85,0,1-.43h0c.13-.45-.13-.74-.61-.88l-.17-.05-.38,1.32Z"/><polygon class="cls-4" points="39.52 56.17 42.3 56.31 42.26 57.21 40.55 57.12 40.53 57.45 42.13 57.53 42.09 58.32 40.49 58.24 40.47 58.6 42.21 58.68 42.17 59.58 39.35 59.44 39.52 56.17"/><path class="cls-4" d="M46.44,55.8l1.41-.43c.83-.25,1.51-.06,1.73.69h0c.23.75-.22,1.33-1.07,1.59l-.34.1.26.85-1,.32Zm1.79,1.13c.27-.08.41-.26.35-.48h0c-.07-.23-.27-.29-.55-.21l-.28.09L48,57Z"/><path class="cls-4" d="M51.32,53.9l.94-.53,2.83,2.18-1,.59-.36-.3-1,.57.07.47-1,.57Zm1.75,1.4-.65-.54.13.84Z"/><path class="cls-4" d="M54.5,51.88l1.17-1.09a1.65,1.65,0,0,1,1.12-.53,1,1,0,0,1,.75.36h0a1.05,1.05,0,0,1,.22,1.17l1.31.3-.91.85-1.09-.26h0l-.16.16.64.68-.8.75Zm2.21.07c.19-.18.23-.37.09-.52h0c-.15-.16-.34-.12-.52,0l-.35.33.44.47Z"/><rect class="cls-4" x="58.88" y="47.37" width="1.09" height="3.27" transform="translate(-15.23 67.97) rotate(-53.77)"/><path class="cls-4" d="M61.75,47.64l-.37-.83a1.93,1.93,0,0,0,.85-.87c.09-.17.08-.27,0-.31h0c-.09,0-.18,0-.39.31-.46.59-.93,1.08-1.55.78h0c-.56-.28-.78-.92-.39-1.74a2.33,2.33,0,0,1,1-1.13l.43.8a1.78,1.78,0,0,0-.72.75c-.07.14,0,.24,0,.27h0c.08,0,.17,0,.38-.29.5-.69,1-1.09,1.56-.8h0c.62.3.75,1,.36,1.79a2.54,2.54,0,0,1-1.23,1.27"/><rect class="cls-4" x="73.46" y="18.53" width="1.52" height="8.66"/><polygon class="cls-4" points="79.26 18.53 80.67 18.53 85.31 24.52 85.31 18.53 86.8 18.53 86.8 27.19 85.53 27.19 80.76 21.03 80.76 27.19 79.26 27.19 79.26 18.53"/><path class="cls-4" d="M94.34,22.17c-1.66-.4-2.06-.71-2.06-1.38s.52-1,1.41-1a3.84,3.84,0,0,1,2.35.89l.82-1.15a4.78,4.78,0,0,0-3.14-1.09c-1.72,0-3,1-3,2.52s1,2.15,2.88,2.6c1.61.37,2,.71,2,1.33S95,26,94.07,26a4,4,0,0,1-2.74-1.13l-.91,1.09A5.33,5.33,0,0,0,94,27.31c1.82,0,3.09-1,3.09-2.59,0-1.44-1-2.11-2.78-2.55"/><polygon class="cls-4" points="102.59 19.94 99.84 19.94 99.84 18.53 106.87 18.53 106.87 19.94 104.13 19.94 104.13 27.19 102.59 27.19 102.59 19.94"/><rect class="cls-4" x="110.22" y="18.53" width="1.52" height="8.66"/><polygon class="cls-4" points="117.84 19.94 115.09 19.94 115.09 18.53 122.12 18.53 122.12 19.94 119.37 19.94 119.37 27.19 117.84 27.19 117.84 19.94"/><path class="cls-4" d="M125.17,23.51v-5h1.52v4.92c0,1.61.83,2.48,2.19,2.48s2.17-.82,2.17-2.42v-5h1.52v4.91c0,2.59-1.46,3.88-3.72,3.88s-3.68-1.29-3.68-3.81"/><polygon class="cls-4" points="138.37 19.94 135.63 19.94 135.63 18.53 142.65 18.53 142.65 19.94 139.91 19.94 139.91 27.19 138.37 27.19 138.37 19.94"/><path class="cls-4" d="M76.87,31.83H73.46v8.66H75V37.7H76.7c1.9,0,3.46-1,3.46-3,0-1.75-1.27-2.91-3.29-2.91m-.12,4.5H75V33.21h1.77c1.14,0,1.87.55,1.87,1.56s-.72,1.56-1.87,1.56"/><path class="cls-4" d="M87.45,31.68A4.48,4.48,0,1,0,92,36.15a4.44,4.44,0,0,0-4.52-4.47m0,7.56a3,3,0,0,1-2.94-3.09,2.93,2.93,0,0,1,2.92-3.07,3,3,0,0,1,2.94,3.09,2.94,2.94,0,0,1-2.92,3.07"/><polygon class="cls-4" points="95.39 31.83 96.91 31.83 96.91 39.1 101.46 39.1 101.46 40.49 95.39 40.49 95.39 31.83"/><polygon class="cls-4" points="105.56 37.07 102.13 31.83 103.92 31.83 106.34 35.66 108.79 31.83 110.54 31.83 107.1 37.04 107.1 40.49 105.56 40.49 105.56 37.07"/><polygon class="cls-4" points="115.66 33.24 112.91 33.24 112.91 31.83 119.94 31.83 119.94 33.24 117.19 33.24 117.19 40.49 115.66 40.49 115.66 33.24"/><polygon class="cls-4" points="123.28 31.83 129.7 31.83 129.7 33.19 124.8 33.19 124.8 35.44 129.14 35.44 129.14 36.8 124.8 36.8 124.8 39.13 129.76 39.13 129.76 40.49 123.28 40.49 123.28 31.83"/><path class="cls-4" d="M140,38.11a3.37,3.37,0,0,1-2.49,1.13,3.09,3.09,0,0,1,0-6.16A3.45,3.45,0,0,1,140,34.16l1-1.13a4.49,4.49,0,0,0-3.38-1.35,4.48,4.48,0,0,0-.07,9A4.5,4.5,0,0,0,141,39.1Z"/><polygon class="cls-4" points="144.32 31.83 145.84 31.83 145.84 35.43 149.97 35.43 149.97 31.83 151.49 31.83 151.49 40.49 149.97 40.49 149.97 36.84 145.84 36.84 145.84 40.49 144.32 40.49 144.32 31.83"/><polygon class="cls-4" points="155.84 31.83 157.25 31.83 161.89 37.82 161.89 31.83 163.38 31.83 163.38 40.49 162.11 40.49 157.34 34.33 157.34 40.49 155.84 40.49 155.84 31.83"/><rect class="cls-4" x="167.74" y="31.83" width="1.52" height="8.66"/><path class="cls-4" d="M180.87,38.82a4.53,4.53,0,1,0-1,1l1,.93,1-1.09Zm-1.16-1-1.5-1.36-1,1.12,1.49,1.26a2.77,2.77,0,0,1-1.49.42,3,3,0,0,1-2.94-3.09,2.94,2.94,0,0,1,2.92-3.07,3,3,0,0,1,2.94,3.09,3,3,0,0,1-.44,1.63"/><path class="cls-4" d="M185.19,36.81v-5h1.52v4.92c0,1.61.83,2.48,2.19,2.48s2.18-.82,2.18-2.42v-5h1.52v4.91c0,2.58-1.46,3.88-3.73,3.88s-3.68-1.3-3.68-3.81"/><polygon class="cls-4" points="196.34 31.83 202.76 31.83 202.76 33.19 197.86 33.19 197.86 35.44 202.21 35.44 202.21 36.8 197.86 36.8 197.86 39.13 202.82 39.13 202.82 40.49 196.34 40.49 196.34 31.83"/><path class="cls-4" d="M76.8,45.13H73.46v8.66h3.29c3.11,0,4.93-1.87,4.93-4.37s-1.79-4.29-4.88-4.29m0,6.53h-1v-4.4h1a2.21,2.21,0,1,1,0,4.4"/><polygon class="cls-4" points="85.64 45.13 92.61 45.13 92.61 47.17 88.02 47.17 88.02 48.48 92.17 48.48 92.17 50.37 88.02 50.37 88.02 51.75 92.67 51.75 92.67 53.79 85.64 53.79 85.64 45.13"/><path class="cls-4" d="M106.63,45.13h-3.71v8.66h2.4V51.31h1.19c2.15,0,3.72-1.08,3.72-3.13s-1.41-3-3.6-3m-.17,4.3h-1.14V47.15h1.13c.86,0,1.38.4,1.38,1.15s-.52,1.13-1.37,1.13"/><path class="cls-4" d="M115.94,45.07h2.31l3.69,8.72h-2.58l-.63-1.55H115.4l-.62,1.55h-2.53Zm2.1,5.3-1-2.46-1,2.46Z"/><path class="cls-4" d="M131.09,50.77a2.75,2.75,0,0,0,1.78-2.67c0-1.91-1.33-3-3.58-3h-4.1v8.66h2.4V51.16h1l1.75,2.63h2.77Zm-1.92-1.49h-1.58V47.21h1.57c.81,0,1.3.36,1.3,1s-.47,1-1.29,1"/><rect class="cls-4" x="137.17" y="45.13" width="2.41" height="8.66"/><path class="cls-4" d="M147.56,48.39c-1.2-.27-1.5-.45-1.5-.85s.29-.57.87-.57a4.3,4.3,0,0,1,2.42.86l1.2-1.7A5.47,5.47,0,0,0,147,45c-2.08,0-3.35,1.17-3.35,2.78,0,1.78,1.42,2.32,3.27,2.74,1.17.27,1.45.48,1.45.84s-.34.6-1,.6a4.44,4.44,0,0,1-2.8-1l-1.34,1.6a6.05,6.05,0,0,0,4.06,1.44c2.1,0,3.5-1.07,3.5-2.84s-1.24-2.27-3.23-2.71"/><line class="cls-5" x1="212.86" y1="66.41" x2="212.86" y2="4.82"/><polygon class="cls-6" points="320.88 15.13 301.65 15.14 296.31 46.21 315.44 46.21 320.88 15.13"/><path class="cls-1" d="M315.92,43.57c-9.82.33-16.52-3.54-15.47-9.41S310,22.37,320.17,20"/><path class="cls-6" d="M320.4,17.8c11.87-1.6,20.87,2.4,19.68,9s-11.94,13.29-23.82,14.89"/><path class="cls-7" d="M319.93,35.1a5.87,5.87,0,1,0-5.86-5.86,5.87,5.87,0,0,0,5.86,5.86"/><polygon class="cls-6" points="293.57 61.75 300.4 61.75 300.68 60.15 295.46 60.15 296.01 57.07 300.22 57.07 300.5 55.46 296.3 55.46 296.86 52.24 302.08 52.24 302.36 50.63 295.54 50.63 293.57 61.75"/><polygon class="cls-6" points="310.36 58.77 306.23 50.63 304.74 50.63 302.78 61.77 304.38 61.77 305.83 53.62 310.04 61.77 311.44 61.77 313.41 50.63 311.81 50.63 310.36 58.77"/><path class="cls-6" d="M319.75,50.51A4.84,4.84,0,0,0,315,54c-.43,2.47,1.8,2.54,3.36,3,.76.24,2.72.23,2.52,1.39a2.93,2.93,0,0,1-2.84,1.92c-1.54,0-2.34-1-2.18-2h-1.6c-.37,2.11,1.38,3.57,3.49,3.57,2.26,0,4.41-1.65,4.73-3.52.69-3.91-6.27-2.15-5.87-4.42a2.86,2.86,0,0,1,2.82-1.9c1.54,0,2.35,1,2.19,2h1.61c.37-2.13-1.39-3.57-3.51-3.57"/><polygon class="cls-6" points="332.09 50.63 325.37 50.63 325.08 52.24 327.69 52.24 325.99 61.77 327.6 61.77 329.29 52.24 331.81 52.24 332.09 50.63"/><path class="cls-6" d="M337.87,50.63h-1.38l-6.23,11.14H332l1.47-2.66h4.42l.56,2.66h1.68Zm-3.58,7,2.41-4.3.87,4.3Z"/><path class="cls-8" d="M254.76,23.73c-1.84,2.17-4.21,5-6.32,7.59C240.22,21.15,232.57,13,227.5,9.21c2.64,6.06,9.15,15.41,17.68,26.27-4.43,5.74-13.22,17.14-17.7,26.82,6.11-4.81,14.29-14.33,21-22.73,8.2,10.19,16,18.91,21.05,22.68-2.63-6-9.32-16-17.79-26.84,3.32-4.27,4.53-5.79,7.8-10.41,3.55-5,9.29-12.17,12.37-10.67-4.6-2.62-11.16,2.38-17.11,9.4"/><path class="cls-8" d="M238.3,32.56a.56.56,0,0,0-.35-.1,1.22,1.22,0,0,0-.61.19,4.05,4.05,0,0,0-.7.52,8.21,8.21,0,0,0-.73.79,11.14,11.14,0,0,0-.72,1c-.23.36-.44.74-.64,1.13A9.87,9.87,0,0,0,234,37.3a9.38,9.38,0,0,0-.36,1.22,6.29,6.29,0,0,0-.12.84l-.63.56-.64.53a3.7,3.7,0,0,1-.45.31l.09.34a5.27,5.27,0,0,0,.56-.37c.18-.14.39-.33.64-.54l.42-.38a2.15,2.15,0,0,0,.11.62,1.35,1.35,0,0,0,.28.52.9.9,0,0,0,.4.3,1.28,1.28,0,0,0,.47.1,1.16,1.16,0,0,0,.59-.16,2.46,2.46,0,0,0,.55-.38,4.22,4.22,0,0,0,.41-.43l-.21-.22-.09.1a3.66,3.66,0,0,1-.4.39,2.47,2.47,0,0,1-.42.27.82.82,0,0,1-.41.11.52.52,0,0,1-.48-.26,1.44,1.44,0,0,1-.19-.78c0-.12,0-.25,0-.38a2.87,2.87,0,0,1,.05-.41c.11-.1.21-.22.32-.33l.13-.13.28-.27.38-.42c.16-.17.34-.38.55-.63s.47-.55.76-.91c.15-.18.29-.38.44-.59s.29-.42.43-.65.26-.44.38-.67.22-.44.31-.64.15-.4.2-.57a1.78,1.78,0,0,0,.08-.45.44.44,0,0,0-.15-.38M238,33.62a5.47,5.47,0,0,1-.39.83c-.17.3-.37.62-.6.95s-.49.69-.78,1.05-.58.72-.9,1.09-.65.72-1,1.08h0a8.15,8.15,0,0,1,.39-1.35,12.64,12.64,0,0,1,.61-1.35A13.11,13.11,0,0,1,236,34.7a9.64,9.64,0,0,1,.75-1,5.42,5.42,0,0,1,.67-.68.92.92,0,0,1,.5-.25.13.13,0,0,1,.12.08.27.27,0,0,1,0,.14,1.85,1.85,0,0,1-.14.63m2.63,0a.74.74,0,0,1-.1.43,1.43,1.43,0,0,1-.29.37,2.55,2.55,0,0,1-.4.32,2.64,2.64,0,0,1-.44.23l-.13-.21a2.71,2.71,0,0,0,.49-.31,1.25,1.25,0,0,0,.32-.35.46.46,0,0,1-.3-.18.49.49,0,0,1-.09-.28.46.46,0,0,1,.14-.34.48.48,0,0,1,.33-.13.46.46,0,0,1,.34.14.48.48,0,0,1,.13.31"/><path class="cls-8" d="M241.89,58.71h1.72V59h-1.38V60.1h1.37v.31h-1.37v1.11h1.38v.31h-1.72Zm1.32-1,.11.23-1,.55-.1-.21ZM247.13,61a1.54,1.54,0,0,1-1.43.89,1.61,1.61,0,1,1,0-3.22,1.57,1.57,0,0,1,1.43.91h-.37a1.25,1.25,0,0,0-1.06-.6,1.31,1.31,0,1,0,1.06,2Zm.32-.71a1.63,1.63,0,1,1,1.62,1.6,1.59,1.59,0,0,1-1.62-1.6Zm.35,0a1.28,1.28,0,1,0,1.27-1.3,1.28,1.28,0,0,0-1.27,1.3Zm3.49-1.56h.35v2.81H253v.31h-1.68Zm2.12,0h1.73V59h-1.38V60.1h1.37v.31h-1.37v1.11h1.38v.31h-1.73Z"/><path class="cls-8" d="M231.3,63a1.37,1.37,0,0,1,.92.22,1.09,1.09,0,0,1,0,1.58,1.21,1.21,0,0,1-.87.25H231v1.07h-.62V63Zm-.32,1.5h.37a.82.82,0,0,0,.41-.08A.42.42,0,0,0,232,64a.38.38,0,0,0-.22-.38.83.83,0,0,0-.42-.08H231Zm1.92.09a1.64,1.64,0,1,1,1.63,1.59,1.6,1.6,0,0,1-1.63-1.59Zm.63,0a1,1,0,1,0,1-1.06,1,1,0,0,0-1,1.06ZM236.76,63h.63v2.57h1v.55h-1.65Zm2.68,2-1-2h.68l.59,1.42.59-1.42H241l-.95,2v1.12h-.62Zm2.61-1.44h-.68V63h2v.56h-.67v2.56h-.62Zm2-.56h1.74v.56h-1.12v.7h1.1v.55h-1.1v.76h1.12v.55H244Zm5.39,2.08a1.57,1.57,0,0,1-1.53,1.1,1.62,1.62,0,1,1,0-3.23,1.57,1.57,0,0,1,1.53,1.12h-.66a1,1,0,0,0-.87-.57,1,1,0,0,0-1,1.06,1,1,0,0,0,1,1.07,1,1,0,0,0,.87-.55Zm.51,1V63h.63v1.25h1.2V63h.62v3.12h-.62V64.82h-1.2v1.31Zm5.33-1V63h.6v3.12h-.55L253.84,64v2.16h-.6V63h.56ZM256.72,63h.63v3.12h-.63Zm5.84,0v1.92a.86.86,0,0,0,.09.47.44.44,0,0,0,.42.24.43.43,0,0,0,.41-.23.88.88,0,0,0,.09-.48V63h.63v1.92a1.17,1.17,0,0,1-.33,1,1.12,1.12,0,0,1-.8.3,1.16,1.16,0,0,1-.81-.3,1.12,1.12,0,0,1-.33-1V63Zm2.36,0h1.75v.56h-1.12v.7h1.1v.55h-1.1v.76h1.12v.55h-1.75Zm-3.7,2.65a.68.68,0,0,1-.31-.09,1.63,1.63,0,1,0-2.93-1h0a1.58,1.58,0,0,0,.86,1.4h0l.11,0a1.63,1.63,0,0,0,.66.15,1.66,1.66,0,0,0,.79-.2l.1-.06a1.19,1.19,0,0,0,.73.26h.08v-.54Zm-2.61-1.09h0a1,1,0,1,1,2,0,1.1,1.1,0,0,1-.16.58l-.33-.33-.38.38.32.32a.94.94,0,0,1-.45.11,1,1,0,0,1-1-1.07"/><path class="cls-9" d="M250.86,14l.34-.37s.22-.23.25-.21,0,.11-.06.13a1.25,1.25,0,0,1-.22.35,1.21,1.21,0,0,1-.16.1s0,0,0,0-.07.06-.1.07-.09,0-.08,0V14m-.31,1.24a.35.35,0,0,1,0-.08l.05-.09.68-.38s0,0,.06-.05a3.29,3.29,0,0,0-.39.17s-.3.13-.32.07.07-.14.09-.16a4.43,4.43,0,0,0,.79-.27s.06,0,.09,0a2.1,2.1,0,0,1-1.1.8m-.65.12c-.06,0-.16,0-.16-.07s.57-.24.64-.32a5,5,0,0,1-.53.13c0-.05,0-.09,0-.09.24,0,.73-.25.75-.22a2,2,0,0,1-.73.57m.6-2.19a.22.22,0,0,1-.1.18h-.27s-.07,0-.07,0v0a.8.8,0,0,1,0-.18,1.08,1.08,0,0,1,.4.09m0,1.21s0,0,0,.05,0-.1-.06-.15h0s0,.07,0,.11m-.14-.74-.33,0s-.05-.26.07-.24.28,0,.3.05,0,.2,0,.22m0,.08s0,.17,0,.18h-.26c-.1,0-.07-.13-.08-.21a.76.76,0,0,1,.36,0m-.23.47c-.12,0-.09-.14-.11-.22a1,1,0,0,1,.31,0s.07.26,0,.25l-.2,0m.19.07c.08,0,.06.12.09.16a2.06,2.06,0,0,0-.25,0h0l0-.08s0-.07,0-.08a1.64,1.64,0,0,1,.2,0m-.49.2s.09,0,.09,0-.06,0-.09,0h-.09s-.13,0-.13,0,0,0,0,0a.47.47,0,0,1,.17,0m0,.12s.07,0,.07,0-.12,0-.15,0-.3,0-.3,0a.22.22,0,0,1,.09-.07c.09,0,.2,0,.29,0m1.49-.73s0,0,0,0a.67.67,0,0,1,.06-.12.93.93,0,0,1,.07-.19,3.15,3.15,0,0,0,.46-.42s-.33.29-.4.27a1.31,1.31,0,0,1,.19-.34.15.15,0,0,1,.1-.06s0,0,0,.07.11-.25.21-.25,0,0,0,.06,0-.13.09-.17.08,0,.1,0,0,.11-.06.17a3.59,3.59,0,0,1-.12.35,6.79,6.79,0,0,1-.73.7m-.51.38h0l.15-.06s0-.07.08-.06a1.5,1.5,0,0,1-.33.47,5.33,5.33,0,0,1-.7.33c-.07,0-.11,0-.11,0s0-.05,0-.06a4.77,4.77,0,0,0,.55-.23s-.45.09-.47.08,0-.12.06-.13h.35s.27,0,.34-.05.05-.2.06-.24m-.25.21a.17.17,0,0,1,.06-.11.44.44,0,0,1,.08-.11h0a.88.88,0,0,1-.12.17s0,0,0,0m.11-1c0,.05-.12.19-.15.23s0,.07,0,.08,0,0,.05,0,.08-.14.11-.14-.14.24-.16.28,0,.08,0,.08.14-.19.17-.18h0s-.17.26-.17.28,0,.09,0,.09.11-.16.14-.18,0,.05,0,.06-.14.2-.13.26,0,0,0,0,0-.15,0-.18,0-.31,0-.34v-.14l.16-.15h0m0-.11a1,1,0,0,1-.17.21l0-.13.12-.12s0,0,0,0m-.07-.14s0,.07,0,.11,0,0-.06,0,.06-.09.1-.13m.15-1.62s.34.24.5.36l0,0s-.06,0-.08,0a3.33,3.33,0,0,1-.43-.33s0,0,0,0m.42.46c.11.07.08.16,0,.17s0,0-.07-.06a1,1,0,0,0-.1-.07.41.41,0,0,0,.16.16c0,.07-.2.24-.22.26a.15.15,0,0,1-.07,0s-.48-.32-.49-.33-.07,0-.07-.06a1.09,1.09,0,0,1,.09-.25s.14-.23.17-.23.11.06.13.07l.42.31m-1,.15s0,0,.06,0a1,1,0,0,1,.17.11l.4.28s.09.06.05.11a1.08,1.08,0,0,0-.19-.13s0,.05.07.08a.31.31,0,0,1,.09.07s-.07,0-.1-.05l-.43-.3s-.14-.07-.12-.14m.57.53a.13.13,0,0,1,0,.06s-.07-.07-.09-.09,0,0-.07,0a.18.18,0,0,0,0,.07.31.31,0,0,0,.1,0c-.06.1-.12.18-.18.29l-.65-.22s0,0,0-.07l.14-.21c0-.05.15-.26.17-.25l.07,0c.1.07.44.3.49.35m-2.08.54s.19,0,.22,0,0,0-.07,0h-.15Zm-.69,0s.19,0,.22,0,0,0-.07,0-.14,0-.15,0Zm.74.12s.13,0,.14,0-.1,0-.12,0-.08,0-.08,0,0,0,.06,0m.06.14h0a.21.21,0,0,1-.11,0s.08,0,.11,0m.61-1a1.19,1.19,0,0,1-.36-.21,1.14,1.14,0,0,1-.19-.19,2.11,2.11,0,0,1-.15-.23s0,0,0,0,0,.06.08.1a1.32,1.32,0,0,0,.48.46l.2.08s.05,0,.05,0-.1,0-.15,0m-.2-.23.27,0a.14.14,0,0,1,0,.06h-.14a.12.12,0,0,1-.1-.05s-.05,0-.05,0m-.17-.63h-.2s0-.06,0-.08a.21.21,0,0,0-.25-.18.35.35,0,0,0-.26.15,1.87,1.87,0,0,1-.44-.09,1.38,1.38,0,0,1-.4-.22c-.12-.1-.09-.06-.1-.12a1.08,1.08,0,0,1,1-.69,1,1,0,0,1,.4.08s-.19,0-.23,0v0a3.35,3.35,0,0,1,.4,0,.06.06,0,0,1,.06.06h-.23s0,0,0,0,.37,0,.39.1-.06,0-.09,0,0,0,0,0,.22,0,.21.09-.12,0-.13,0,.12,0,.18,0,.06,0,.05.06-.17,0-.21,0,0,0,0,0,.27,0,.28.09-.29,0-.34,0,0,0,0,0l.28,0,.08,0s0,0,0,.07-.16,0-.24,0a.05.05,0,0,1,0,0,1.26,1.26,0,0,1,.28.05.06.06,0,0,1,0,.06s-.22,0-.28,0,0,0,0,0,.3,0,.33.06a.05.05,0,0,1,0,.08,1.75,1.75,0,0,0-.24,0,0,0,0,0,1,0,0s.21,0,.26,0,0,0,0,.06h-.28v0c.1,0,.29,0,.29.06s0,0,0,0a2.46,2.46,0,0,1-.31,0,0,0,0,0,0,0,0,1.06,1.06,0,0,1,.33,0s0,0,0,.06h-.22s0,0,0,0a.75.75,0,0,1,.22,0v.07h-.18s0,0,0,0l.19,0s0,.06,0,.07h-.28v0l.29,0a.11.11,0,0,1,0,.06.86.86,0,0,1-.32,0,.82.82,0,0,1-.18-.19s0,0,.05,0v0h-.09s-.06-.06-.05-.07.07,0,.11,0-.14,0-.17-.06,0,0,0,0,.13,0,.17,0v0c-.05,0-.13,0-.16,0s0-.07,0-.08h.2Zm-1.81-.47s0-.07.06-.06l0,0a1.07,1.07,0,0,0,.4.3s0,0,0,0a0,0,0,0,0,0,0l.18,0a2.75,2.75,0,0,0,.3.07v0H248v0h.26s0,0,0,0-.24.13-.54.11a3.07,3.07,0,0,1-.53-.07c-.19,0,0-.47,0-.49m-.06.55a3.78,3.78,0,0,0,.61.07h.46s.06,0,.06,0-.16.05-.17.06v0l.21,0-.09.08-.26.14a3.38,3.38,0,0,1-.69.14,1.42,1.42,0,0,1-.36,0,2.73,2.73,0,0,1,.23-.5m0,.62a1,1,0,0,1-.28,0s.05,0,.08,0a2.62,2.62,0,0,0,1-.12,2.46,2.46,0,0,0,.42-.23h0c0,.05-.16.14-.22.18a2.39,2.39,0,0,1-1,.24m.93,1s.1,0,.1,0-.07,0-.1,0Zm-1.81,1.58a.74.74,0,0,1-.15-.2s.06,0,.1,0a2.44,2.44,0,0,0,.25.13,4,4,0,0,0,.4.08s0,0,0,.09,0,0-.11,0a3.76,3.76,0,0,1-.42-.16,1.15,1.15,0,0,0,.26.19,1.11,1.11,0,0,0,.31.1s.09,0,.06.06a.16.16,0,0,1-.11,0,1.37,1.37,0,0,1-.62-.38m-1.17-.54s.07,0,.1,0l.14.05a6.53,6.53,0,0,1,.7.29s.07.1,0,.11a5.36,5.36,0,0,1-.68-.26s.1.07.16.11l.57.32a.26.26,0,0,1,0,.09s.05,0,.05.08c-.2,0-1.1-.61-1.1-.8m.76-.39c0,.07-.11,0-.14,0a.76.76,0,0,1-.14-.13,1.79,1.79,0,0,1-.22-.35s-.07-.09-.06-.12.21.14.26.2.18.19.23.27a.73.73,0,0,1,.07.16m.05.39a.59.59,0,0,1-.17-.18c0-.05-.08-.11-.07-.15h0c.05,0,.17.13.18.13a.09.09,0,0,1,0,.1s.06.07,0,.11m.74-1.38c.07,0,.05.2.05.24s-.32.07-.35,0a.2.2,0,0,1-.05-.19c0-.06.29-.12.35-.1m.05.51s-.34.07-.35,0a.32.32,0,0,1,0-.17s.33,0,.35,0,0,.11,0,.16m.2-.6c.05,0,.09.2.09.2a1.79,1.79,0,0,1,0,1.07.18.18,0,0,1-.13,0,2.2,2.2,0,0,0,.05-1.12s0-.13,0-.14m2.9.14a2.14,2.14,0,0,0,.06,1.12.22.22,0,0,1-.14,0,1.88,1.88,0,0,1,0-1.07s0-.21.1-.2,0,.1,0,.14M247,14.36s0,0,0,0,.06,0,.07.07h-.23a.22.22,0,0,1,0-.1H247m2.92,0a.11.11,0,0,1,0,.1h-.23s.06,0,.07-.07,0,0,0,0h.12m-3.23-.4c-.07,0-.28,0-.3,0s0-.19.05-.2.26,0,.29,0,0,.18,0,.2m-.26.06c.08,0,.29,0,.3,0s0,.18-.1.19h-.24c-.08,0,0-.23,0-.23m-.17.49a.39.39,0,0,1,.11-.21.65.65,0,0,1,.24,0c.06,0,0,.21-.08.23s-.27,0-.27,0m.47.09s.07.12.05.13-.47-.08-.47-.08a.65.65,0,0,0,.22.11l.32.11a.07.07,0,0,1,0,.06c0,.07,0,.07-.1.05a3.54,3.54,0,0,1-.39-.11c-.1,0-.31-.2-.3-.24s.63,0,.65,0m.14-1.19a.06.06,0,0,1-.06-.09s.11,0,.11,0v.06s0,0,0,0m0-.13s0-.13.05-.1,0,.06,0,.08-.07,0-.08,0m0-.15s.09-.05.09,0-.08,0-.09,0m3.1.25v-.06s.1,0,.11,0a.07.07,0,0,1-.06.09s-.06,0-.05,0m0-.12s0-.07,0-.08.09.08.05.1-.06,0-.08,0m0-.14s.1,0,.1,0-.1,0-.1,0M245.52,12c.18-.14.33-.24.51-.39,0,0,0,.06,0,.08l-.09.07a4.8,4.8,0,0,1-.4.3s0-.06,0-.06m.34.55s0-.05.06-.06a1.53,1.53,0,0,0,.18-.18s-.08.05-.12.08a.51.51,0,0,0-.16.13s0,0,0,0,0,0,.05-.06l.16-.18c-.07,0-.24.19-.26.2a0,0,0,0,1,0,0s.1-.1.11-.15-.12.09-.13.09a0,0,0,0,1,0,0c0-.05.13-.11.13-.16s-.14.11-.17.11-.05-.12.08-.2a6,6,0,0,1,.53-.35s.08.06.09.09a1.19,1.19,0,0,1,.1.16.75.75,0,0,1,.08.24,5.12,5.12,0,0,1-.54.39s-.07,0-.07,0m.1.18,0,0a1.31,1.31,0,0,1,.12-.11.18.18,0,0,0-.16.08s0,0,0,.05,0,0,0-.05.09-.08.12-.1a2.65,2.65,0,0,1,.26-.21.87.87,0,0,1,.23-.16s.07,0,.05.08-.08.07-.12.1l-.2.14-.21.18s-.06,0-.1,0m.08,0c.16-.13.35-.27.53-.39,0,0,.21.26.27.37a.2.2,0,0,1,0,.14,2.35,2.35,0,0,1-.61.22L246,12.8m.15.46s.11-.07.12,0,0,.4,0,.47,0,.22,0,.25,0,.17,0,.23a2.5,2.5,0,0,1-.08.25s-.06.12-.1.12-.06-.06-.08-.1a2.6,2.6,0,0,1-.05-.3,3.56,3.56,0,0,1,.05-.47,1.25,1.25,0,0,1,.16-.43M243.62,12A8.13,8.13,0,0,1,246,13.37s0,.06,0,.07-.05,0-.06,0l-.19-.17.24.27s0,.09,0,.09,0,0,0,0a1.62,1.62,0,0,0-.19-.18l.16.21s.09.09,0,.14,0,0-.05,0-.1-.14-.14-.15.24.25.17.35,0,0,0,0a12.32,12.32,0,0,0-.9-.93,14.78,14.78,0,0,0-1.31-.86s0,0,0,0m2.91,3.81s0,0,0,0-.11,0-.17,0-.13,0-.13,0,.07,0,.08-.06-.14,0-.21,0a.17.17,0,0,1-.12-.05v0c-.07,0-.21,0-.17-.11s0,0-.07,0a.08.08,0,0,1-.07,0l-.23-.3s-.07-.12,0-.13.48.25.94.43a.07.07,0,0,1,0,.07.07.07,0,0,1-.05,0l-.09,0-.44-.15s.09.06.11.07a1,1,0,0,0,.25.11l.25.07c.05,0,.27,0,.27.1s-.17.08-.21,0m.21-.25c0,.06.35.17.35.2s-.05,0-.11,0-.17-.06-.25-.11a2.15,2.15,0,0,1-.48-.53s-.06-.06,0-.08a1.37,1.37,0,0,0,.9.47s.12.11.07.12-.4-.1-.46-.12M248,16s-.58,0-.81,0c0,0-.05-.21,0-.22l.88,0h.07V16H248m-1.1.86a2.27,2.27,0,0,1,.16-.25s.09,0,0,.12l-.05.08c0,.07-.1.17-.12.17s0-.08,0-.12m.51,0s0-.06,0-.07.21,0,.22,0,0,0,0,0,0,.06-.05.07l-.19,0m.26-.1s-.07,0-.11,0l-.12,0v0c0-.05.12,0,.17,0s.08,0,.07,0m0,.07s0-.07,0-.08.06,0,.07,0a.51.51,0,0,1,0,.09,1.3,1.3,0,0,1,0,.21s0,.08,0,.08,0,0,0,0,0-.19,0-.2a.28.28,0,0,0,0-.09m-.36,0c0,.06-.05.12-.08.19s0,.08,0,.07,0-.07,0-.12a1,1,0,0,0,.08-.18s0-.08.06-.08,0,.08,0,.12m-.18.21,0,0S247,17,247,17s.16,0,.16,0m-.11-.1c0-.08.12,0,.13,0l0,0s0,.06,0,.06h0a.17.17,0,0,1-.07,0m.2-.16s-.09,0-.09,0,0,0,0-.05.15.06.06.08m0,.05s0,.07-.05.06-.09,0-.09,0a.13.13,0,0,1,0-.05.14.14,0,0,1,.11,0m-2.44,4.42s-.15-.21-.17-.25l-.19-.34a5.67,5.67,0,0,1-.33-.89,2.54,2.54,0,0,1-.07-.75,4.44,4.44,0,0,1,.14-1.05s.19.27.26.39a6,6,0,0,0,.86.88s.08,0,.05.08-.12.34-.13.38l0,0-.1-.11a5.37,5.37,0,0,1-.36-.43s-.29-.4-.34-.47-.08-.15-.11-.15,0,0,0,.36a3.83,3.83,0,0,0,.79,2.24s0,0,0,.09l-.1.09a0,0,0,0,1,0,0l-.06,0m3.57,2,0-1.5s0,0-.08,0l-.65,0a3.73,3.73,0,0,1-2-.85,4.49,4.49,0,0,1-1.05-1.41c-.16-.35-.2-.46-.23-.53s0-.07-.05-.08,0,.05,0,.08.07.23.08.25a4.16,4.16,0,0,0,.25.52,1.39,1.39,0,0,1,.12.25s-.16-.25-.22-.36a3.15,3.15,0,0,0-.17-.33c0,.07,0,.15,0,.27a3.93,3.93,0,0,0,.2.58c0,.08.14.22.22.33a.46.46,0,0,1,.08.13s-.25-.3-.3-.37a.48.48,0,0,0,0,.16,2,2,0,0,0,.45.57l.2.2s.2.16.21.19a.91.91,0,0,1-.19-.13c-.05-.05-.26-.24-.34-.33s0,0,0,0a3.37,3.37,0,0,0,1.36,1c1.12.46,1.68.58,2,1.38Zm.05-2.82a1.61,1.61,0,0,0,.31,0s0,0,0,0h-.31v-.09c.06,0,.3,0,.3,0s-.22,0-.3,0v-.08c.06,0,.27,0,.27,0s-.21,0-.27,0V20a1.68,1.68,0,0,0,.31,0s-.22,0-.31,0v-.1c.08,0,.31,0,.31,0s-.24,0-.31,0v-.1s.26,0,.26,0-.23,0-.26,0,0-.06,0-.09.31,0,.31,0-.24,0-.31,0v-.09a1.09,1.09,0,0,0,.28,0s-.23,0-.28,0v-.08c.1,0,.32,0,.32,0s-.24,0-.32,0v-.09s.29,0,.29,0a.84.84,0,0,0-.29,0V19a.61.61,0,0,0,.25,0,1.57,1.57,0,0,0-.25,0V18.9a1.58,1.58,0,0,0,.32,0s0,0,0,0-.3,0-.33,0v-.09a3.79,3.79,0,0,0,.6,0,.48.48,0,0,1,.18,0c0,.09-.26.12-.32.13s.23,0,.27,0,.06,0,.06.07S249,19,249,19s.22,0,.26,0,0,0,0,.06-.2,0-.26.08.25,0,.27,0a.06.06,0,0,1,0,.06s-.27,0-.27.07.24,0,.26,0,0,0,0,0-.11,0-.17.05-.07,0-.07,0,.22,0,.24,0a.05.05,0,0,1,0,.05c0,.06-.15,0-.2.08s0,0,0,0l.15,0a.08.08,0,0,1,0,.07s-.29.06-.29.08.07,0,.09,0a1.38,1.38,0,0,1,.2,0,.07.07,0,0,1,0,.07s-.17.05-.18.08h0c.08,0,.18-.07.18.05l-.28.08s.06,0,.09,0l.21,0s0,0,0,.07-.31.06-.31.09.05,0,.08,0l.25,0s0,.06,0,.07,0,0-.05,0l-.24.06s0,0,0,0,.05,0,.06,0,.33-.07.35,0a1,1,0,0,1-.27.07s0,0,0,0,.33-.05.36-.05.07.05.07.08-.08,0-.1,0l-.34.06s0,0,0,0,.26,0,.4-.05.14,0,.17,0-.44.1-.48.13,0,0,.06,0l.37-.07.14,0s.17,0,.1.07l-.56.12s-.06,0-.05,0a6.33,6.33,0,0,0,.78-.15h.19a4.34,4.34,0,0,1-.73.21v0a4.22,4.22,0,0,0,.82-.24,2.66,2.66,0,0,0,.62-.39A6,6,0,0,0,252.17,19c.18-.25.27-.39.27-.39a.3.3,0,0,1,0,.16,4.22,4.22,0,0,1-.18.45l-.14.27a2.56,2.56,0,0,1-.16.25,7.78,7.78,0,0,1-.73.92c-.12.09-.17.15-.45.37a4.19,4.19,0,0,1-1.92.55h-.38s0-.07,0-.08a1.52,1.52,0,0,0,.42,0,1.68,1.68,0,0,0-.42,0s0-.08,0-.09.29,0,.3-.05a2.85,2.85,0,0,0-.3,0,.06.06,0,0,1,0-.09h.08s.3,0,.3-.05-.37,0-.39,0,0-.09,0-.1a2.06,2.06,0,0,0,.36-.05s-.34,0-.36,0,0-.09,0-.1.36,0,.36,0-.39,0-.39,0,.32-.05.32-.08-.19,0-.29,0,0-.08,0-.09.32,0,.32,0-.25,0-.32,0a.06.06,0,0,1,0-.08s.29,0,.3,0-.24,0-.31,0Zm0-1.74c.1,0,.23,0,.34,0l.31,0s.11,0,.13,0-.1.06-.16.07-.43,0-.62,0m.85-.15a3.41,3.41,0,0,0,.19,1.28.92.92,0,0,0,1,.66,2.13,2.13,0,0,0,.76-.46s-.06,0-.06,0c-.37.08-.47-.13-.46-.2s.06-.06.07-.11a.13.13,0,0,0-.07-.09.2.2,0,0,0-.16,0,2.55,2.55,0,0,1-.28.08.82.82,0,0,1-.27,0,.15.15,0,0,1-.08-.12s0-.07,0-.1,0-.1-.07-.16l-.07-.09a.5.5,0,0,1-.13,0,.28.28,0,0,1,0-.13,2,2,0,0,0-.37-.62m1.45,1a1.91,1.91,0,0,1,.32-.24s.07.1.08.12a1.17,1.17,0,0,1-.3.24l-.1-.12m1.76-.8s0,0,0,0a4.18,4.18,0,0,1-.34.85c-.07.14-.54.79-.57.82s-.36.39-.5.5a4,4,0,0,1-.48.32,4.56,4.56,0,0,1-1.12.39,4.12,4.12,0,0,1-1.07,0s.06,0,.07,0c.18,0,.66,0,.76,0a4.2,4.2,0,0,0,.47-.08,5,5,0,0,0,.55-.18,3.17,3.17,0,0,0,.48-.25,4.88,4.88,0,0,0,.41-.32,7.92,7.92,0,0,0,.68-.78,7.18,7.18,0,0,0,.42-.68c0-.05.16-.39.23-.59m-4,4.37-.09,0s.08,0,.12,0a.33.33,0,0,1,0,.06m.06-.11s-.14,0-.15,0,.16,0,.2,0a.35.35,0,0,0-.05.08m.06-.12s-.21,0-.21-.06.24,0,.28,0a.71.71,0,0,0-.07.09m.12-.14c-.08,0-.41,0-.31-.08l.4,0a.73.73,0,0,0-.09.1m.14-.15a.76.76,0,0,1-.34,0s-.12,0-.13,0,.21,0,.26-.05a1,1,0,0,0,.32,0l-.11.11m.19-.15a1,1,0,0,1-.38,0s-.27,0-.28,0a3.27,3.27,0,0,1,.64-.09l.17,0-.15.11m.23-.16-.24,0-.42,0c-.05,0-.22,0-.23,0s.2-.05.29-.06a3.91,3.91,0,0,0,.84-.11,1.17,1.17,0,0,1-.24.13m1.1-.45a5,5,0,0,1-.89.29l-.15,0a2.4,2.4,0,0,1-.32.05,4.23,4.23,0,0,1-.6,0s-.06-.07.06-.07h.27a2.23,2.23,0,0,0,.55-.08c-.12,0-.59.06-.69,0s-.22,0-.22,0,.06,0,.09,0l.43,0s0,0,0,0h0s-.28,0-.37,0-.14,0-.15,0,.08-.05.13-.05a4,4,0,0,0,.7-.06l.43-.08s0,0,0,0a7.61,7.61,0,0,1-1.21.11s-.1,0-.1,0,.1,0,.12,0h.37l.59-.08a2.22,2.22,0,0,0,.46-.11,4.09,4.09,0,0,0,.7-.28,3.52,3.52,0,0,0,1-.91,6.54,6.54,0,0,0,.62-1c.06-.09.09-.22.15-.31h0a.2.2,0,0,1,0,.11,3,3,0,0,1-.3.66c0,.05-.21.33-.24.37a2,2,0,0,0-.13.19s.09-.06.11-.1a3,3,0,0,0,.25-.36l.24-.46c0-.06,0-.06,0-.06s0,.07,0,.09a1.19,1.19,0,0,1-.11.26,2.38,2.38,0,0,0-.23.41s.22-.32.24-.33a1.16,1.16,0,0,1-.11.31c-.05.11-.47.63-.5.67l-.13.15s0,0,0,0a4.62,4.62,0,0,0,.52-.6,3.3,3.3,0,0,1-.32.49,4.08,4.08,0,0,1-1.42,1m1.51-.62-.1-.09v0s0,0,.06-.09a3.8,3.8,0,0,0,.71-2.48.28.28,0,0,0,0-.13s-.06.06-.07.07-.66.89-.76,1-.09.1-.15.12a2.42,2.42,0,0,0-.12-.35s0-.05,0-.07.05-.05.08-.08a4.73,4.73,0,0,0,1.11-1.23h0c0,.05,0,.1,0,.17a3.07,3.07,0,0,1,.08.91,3.59,3.59,0,0,1-.38,1.64l-.19.33a1.88,1.88,0,0,1-.16.23s0,.06-.06.06h0m-.63-1.75c.05,0,.09-.09.13,0l-.16.16.2-.09a.06.06,0,0,0,0,0c-.06.08-.13.13-.19.2a.21.21,0,0,0,.11,0l.05,0a.21.21,0,0,1,0,.07.43.43,0,0,1-.54.2s-.1-.07-.1-.1.44-.33.52-.39m0-.48-.1.14c-.05,0-.61.45-.7.49a.33.33,0,0,1-.15,0s.89-.68,1-.73h0s0,0,0,.06m.15-.34c.06,0,0,.07-.06.1l-1.25.92s-.06.07-.1,0,1.35-1,1.41-1.05m-.08-.05h0s0,0,0,0l-1.28,1s0,0,0,0,0-.06.06-.08l1.28-.93m.34-2.41a.5.5,0,0,1,.78.13.85.85,0,0,1,.19.38v0c0,.06-.15,0-.24,0A.79.79,0,0,0,252,17l-.39.34a5.1,5.1,0,0,1-3.17,1.21A5,5,0,0,1,244.88,17a.87.87,0,0,0-.47-.25c-.08,0-.24.06-.24,0s0,0,0,0a.75.75,0,0,1,.18-.39.54.54,0,0,1,.48-.26.64.64,0,0,1,.31.13,4.37,4.37,0,0,0,6.47,0l0,0M250,17s-.12.07-.15.08l-.32.12-.22.05c-.09,0-.19.05-.29.06v0a3.62,3.62,0,0,0,.77-.17l.17-.05s.07,0,.09,0-.06.05-.1.06l-.11.05-.24.08-.26.07-.2,0s0,0,0,0a5,5,0,0,0,.56-.11s0,0,0,0a3.55,3.55,0,0,1-.52.15,4.51,4.51,0,0,1-.53.08,3.19,3.19,0,0,1-.76,0,3,3,0,0,1-.49-.11l-.65-.26s0,0,0-.06l.49.12c0-.05-.34-.13-.44-.17s0,0,0,0a7.66,7.66,0,0,0,1.43.22,4.29,4.29,0,0,0,.63,0l.35-.05.17,0,.2,0,.21-.07h0l0,0H250s.07,0,.07,0m-2.23.12c0-.05.05-.05.06-.06l.22.05s0,.05,0,.06a.93.93,0,0,1-.24,0s0,0,0,0m.08-.08s-.05,0-.05,0,0,0,0,0,.25,0,.26,0,0,0,0,.05-.17,0-.21,0m.24-.25a.49.49,0,0,1-.24,0s0-.06,0-.05h.22s0,0,0,.05m0,.2s0-.09,0-.14,0-.1,0-.11.05.07,0,.13a.66.66,0,0,0,0,.14c0,.05,0,.16-.05.17s0-.12,0-.19m-.24-.17s.21,0,.23,0a.08.08,0,0,1,0,.07.85.85,0,0,1-.24-.05s0-.07,0-.06m.64.29,0,0c0,.07,0,.06-.08.06h-.13s-.06,0-.07,0a.06.06,0,0,1,0-.06,1,1,0,0,1,.24,0m-.2-.16s0-.05,0-.07.23,0,.25,0,0,0,0,.05-.2,0-.22,0m.17,0s.07,0,.07.06l0,0h-.14s-.1,0-.11,0a.07.07,0,0,1,0-.07h.18m.11-.24s0,.06,0,.1,0,.28,0,.33-.07,0-.07-.12,0-.3,0-.31m-.27,0a.5.5,0,0,1,.21,0s0,.06,0,.07-.2,0-.21,0a0,0,0,0,1,0,0m1.21-.09s-.09,0-.09,0,.09-.06.13-.07h0a0,0,0,0,1,0,0s0,.05-.1.07m.14,0s0,0,0,.05-.15.08-.17.08-.05,0,0-.07,0,0,.07,0,.08-.06.12,0m-.29.3a1.21,1.21,0,0,1,0-.14.3.3,0,0,1,0-.1s0-.1,0-.07a.79.79,0,0,1,0,.09,1.46,1.46,0,0,0,.07.19s.07.12,0,.13,0,0,0,0a.41.41,0,0,1,0-.07m-.16.15s0-.05,0-.06l.15,0s.05.06,0,.07a.61.61,0,0,1-.15,0m0-.1s0,0,0-.06.1,0,.16-.06a.09.09,0,0,1,0,.09.41.41,0,0,1-.16,0m.1-.22s0,0,0,.06l0,0-.09,0s-.05-.06,0-.08.09,0,.12-.05,0,0,0,0m-.16,0s0,0,0,0,.15-.08.16,0-.11,0-.12.06m-.14.13,0-.14s0,0,0-.06,0,.08.05.12a1.63,1.63,0,0,1,.07.3s-.05,0-.06,0-.05-.22-.05-.22m0,.26a.58.58,0,0,1-.22,0s0,0,0,0,0,0,0,0a.75.75,0,0,1,.2,0s0,.06,0,.07m-.21-.08a.07.07,0,0,1-.05-.07s.1,0,.11,0,.11,0,.11,0,0,.06,0,.07l-.17,0m.17-.18s-.06,0-.09,0a.27.27,0,0,1-.12,0s0-.06,0-.08l.07,0s.11,0,.13,0,0,0,0,.06m0-.11-.13,0s-.07,0-.08,0,.16-.08.18-.08,0,.06,0,.07m.67.21s0-.05.08-.07l.1,0s0,0,0,0-.05.05-.08.06l-.11,0s0,0,0,0m.11-.32-.06-.11s0-.07.09,0a1.74,1.74,0,0,1,.11.18s.09.11,0,.12-.05,0-.06,0l-.11-.19m0,.17a.32.32,0,0,1-.18.06s0,0,0-.05.05,0,.08-.05.09,0,.12,0a.07.07,0,0,1,0,.06m.09-1.08c-.15,0-.12,0-.12,0s.06,0,.09-.06l.1,0,.11,0s0,0,.05-.05l-.18.05a2.26,2.26,0,0,0-.28.07c0-.05,0-.13.07-.12.34,0,.57-.2.91-.48h0c0,.05-.49.72-.75.72m1.26-.31-.13.05c0,.1-.1.1-.17.11a.06.06,0,0,0,0,0c-.07.1-.22,0-.33,0s.08,0,.08.06-.08,0-.13,0-.12-.06-.16,0,0,0,0,0-.2,0-.2,0,.21-.1.26-.11a1.53,1.53,0,0,0,.25-.06l.25-.11a1.05,1.05,0,0,0,.11-.07s0,0-.06,0a3.63,3.63,0,0,1-.46.14s-.06,0-.06,0,.1-.12.1-.12a5.82,5.82,0,0,0,.74-.31s.15-.1.16-.06a1.16,1.16,0,0,1-.27.43m1.44-.88-.05.08c0,.07-.08.08-.14.12s-.08.11-.15.14,0,0,0,0-.19.12-.21.13,0,0,0,0,0,.05-.07.06-.1,0-.13,0,0,0,0,0-.22.06-.34,0,.11,0,.11.06-.06.05-.09.06a1.67,1.67,0,0,0-.19,0c.11,0-.08.1-.12,0s.1-.14.11-.16l.09,0a1.45,1.45,0,0,0,.24-.1A3.47,3.47,0,0,0,252,15c-.09,0-.53.23-.59.21a.33.33,0,0,1,.06-.1c0-.05.06-.11.13-.12l.26-.1.62-.37s.09-.05.13,0a.14.14,0,0,1-.05.09m.44-.94c0,.05-.22.36-.31.46s0,0,0,0,0,.07-.07.1a4.16,4.16,0,0,1-1,.66c-.12,0-.11,0-.12,0s.08-.15.14-.18.61-.34.67-.4h0a1.82,1.82,0,0,0-.32.15c-.06,0-.14,0-.12,0s.5-.36.56-.4l.54-.4m.25-1s0,0,0,.09a3.22,3.22,0,0,1-.37.76,5.61,5.61,0,0,1-1.11.9A2.23,2.23,0,0,0,252,14a2.45,2.45,0,0,0,.8-.68,3.88,3.88,0,0,1-.67.49.63.63,0,0,1,.14-.3s.24-.16.35-.25.46-.52.5-.54.06-.07.11-.06m-.33.16c0,.06-.48.62-.77.62,0,0,.06-.16.06-.16a4.26,4.26,0,0,0,.46-.41.79.79,0,0,0,.18-.24,3.59,3.59,0,0,0-.35.3s-.19.15-.22.12.1-.37.12-.39.07-.1.1-.08-.06.15,0,.15.12-.2.14-.23,0,0,.08,0,0,.14,0,.09.1-.22.16-.2,0,.08,0,.11c.14-.2.21-.24.23-.24s0,.07,0,.07,0,0,.06-.08.25-.25.27-.23a4.66,4.66,0,0,1-.49.84m-8.68,1.7s.09,0,.13,0l.62.36.26.11c.07,0,.1.06.13.11s.05.06.06.1a4.73,4.73,0,0,1-.59-.21,2.57,2.57,0,0,0,.33.18,1.94,1.94,0,0,0,.24.11l.09,0s.1.14.11.17-.23,0-.12-.05h-.19s-.1,0-.1-.06.1,0,.12,0-.29,0-.34-.06,0,0,0,0-.09,0-.14,0a.2.2,0,0,1-.06-.07s0,0,0,0-.22-.1-.21-.13,0,0,0,0-.18-.05-.15-.15-.11,0-.14-.11l-.05-.08a.14.14,0,0,1,0-.1m.15-.44c.06,0,.55.37.56.39s-.06,0-.12,0-.27-.14-.32-.15h0a7.73,7.73,0,0,0,.67.39c.06,0,.17.14.14.19s0,0-.12,0a4,4,0,0,1-1-.66s-.07-.08-.07-.1,0,0,0,0-.28-.33-.26-.38a5.14,5.14,0,0,1,.49.32m-.68-1.32s.4.45.5.54.33.23.35.25.16.26.14.31a4.48,4.48,0,0,1-.67-.5,2.32,2.32,0,0,0,.8.68,2.23,2.23,0,0,0,.27.41,5.27,5.27,0,0,1-1.11-.9,4,4,0,0,1-.38-.76c0-.06,0-.06,0-.09s.07,0,.11.06m7-.43a1.73,1.73,0,0,1,.21.13s.12.07.09.11-.07,0-.08,0l-.22-.19h0m.14,0h0a.23.23,0,0,1,.1.07l.1.06s.06.05.05.08-.06,0-.07,0-.14-.14-.19-.19m-.22-.43h0a.12.12,0,0,1,.06.06.09.09,0,0,1-.1-.07m.42.45v0c.05,0,.13.08.14.12s-.06,0-.08,0l-.06-.07m-.52-.22s.06,0,.07.05-.08,0-.07-.05m-.14.3s.07,0,.07.06-.07,0-.07-.06m.12.49h0c.06,0,.13,0,.15.11s-.12-.06-.09,0a.31.31,0,0,1-.07-.08m-.36-.11a.19.19,0,0,1,.12.09s-.16-.05-.12-.09m.31.21h0s.1.06.1.11a.13.13,0,0,1-.11,0s-.06-.06,0-.07m0-.31a.51.51,0,0,1-.16-.09h0s.14.07.15.1m-.21.33a.35.35,0,0,1-.16-.09s.09,0,.12,0,0,0,0,.06m0-.31s0,0,0,0,.12,0,.14.1a.71.71,0,0,1-.15-.08M245.7,21l-.25-.23-.17-.18s-.1-.09-.1-.13.36.37.41.41l.26.2.2.13a1.45,1.45,0,0,1,.23.15,1.08,1.08,0,0,1-.3-.16L245.7,21m2-3.59.21,0v0a1.39,1.39,0,0,1-.27,0c-.09,0-.25,0-.24-.06s0,0,0,0l.28,0m-.32-.16s.09,0,.1,0l.5.08s0,0,0,0a3.5,3.5,0,0,1-.48-.06s-.11,0-.11,0m.76-.83s-.25,0-.28,0v0s.17,0,.2,0,.08,0,.08,0m-.08.13s-.23,0-.3,0,0,0,0,0l.31,0m.17-.27a1.07,1.07,0,0,1-.36,0s0,0,0,0a1.55,1.55,0,0,1,.31,0m-1.53,5.61s-.12,0-.21,0a2.1,2.1,0,0,1-.3-.15,3.17,3.17,0,0,1-.36-.21l-.24-.18a0,0,0,0,1,0,0c.16.09.94.51,1.06.56s.06,0,.06,0m1.14-6.29h-.44s0,0,0,0a1.22,1.22,0,0,1,.4,0m-1.6-2.77s-.06,0-.09,0,0-.06.06-.08.06,0,.1,0-.05.05-.07.07m.32-.25s-.05,0-.09,0,0,0,.06-.06l.08,0h0s0,0-.06.05m.13,0s0,0,0,0a.38.38,0,0,1-.15.09c0-.05.08-.08.14-.11m-.37.31s-.05.06-.09.05,0-.07.08-.1,0,0,.07,0a.17.17,0,0,1-.06.06m-.17.66a.48.48,0,0,1,0-.17s0,.22,0,.24-.06.35-.06.39,0,.27,0,.31,0,.06,0,.06l0-.05a1.58,1.58,0,0,1,0-.48,1.76,1.76,0,0,1,.06-.3m.6-.87c.06,0-.07.1-.11.1s.07-.07.11-.1m-1,.5h0Zm.52-.15s0,0,0-.05.08-.07.12,0-.08.11-.15.09m0-1s.05,0,.07-.06,0,0,0,0,0,0-.08,0m.51.73s0,0,0,0-.05.05-.07.06,0,0-.08,0,.08-.09.11-.11m-.36-.43s.07-.1.08-.06-.06.05-.08.06m-.28-.53a.16.16,0,0,1,.1,0,.1.1,0,0,1-.1.07s0,0,0,0m1.36.13h0a2.12,2.12,0,0,1,.39,0s-.23,0-.29,0-.09,0-.1,0m-.55,2.74s0,0,0,0a1.13,1.13,0,0,1,.26,0h0a1,1,0,0,1-.29,0m.65.72a1.13,1.13,0,0,1-.31,0s.27,0,.27,0,0,0,0,0m-.71-.84s0,0,0,0,.28,0,.28,0a.74.74,0,0,1-.33,0M247,15s.25,0,.31,0,0,0,0,0-.3,0-.33,0m-.06-.13s.25,0,.31,0,0,0,0,0-.31,0-.32,0m.23.5s.31,0,.41,0a.15.15,0,0,1-.1,0s-.28,0-.31,0m-.11-.24s.28,0,.39,0h0a1,1,0,0,1-.39,0m.06.12s.25,0,.3,0v0c-.08,0-.29,0-.31,0m.88,6.55a2.05,2.05,0,0,1-.51-.05h0a4.73,4.73,0,0,0,.54,0h.13a.15.15,0,0,1,.1,0s-.21,0-.27,0m-.69-.09s0,0-.06,0l-.29-.06a3.07,3.07,0,0,1-.62-.24h0s0,0,0,0,.44.15.56.19a2.83,2.83,0,0,1,.4.11m0-9.57h.26s-.23,0-.26,0m0,.14v0h.21v0a.5.5,0,0,1-.21,0m.11,6.31c0,.07,0,0-.05.07s-.37-.12-.38-.11a.07.07,0,0,0,0,0c.09,0,.3.11.3.16a.11.11,0,0,1,0,.06s-.41-.22-.43-.19a.14.14,0,0,0,.05.06s.32.16.33.2,0,0,0,.05-.47-.28-.48-.27a0,0,0,0,0,0,0,3,3,0,0,1,.42.31s0,0,0,0a3.65,3.65,0,0,0-.54-.32s.44.3.51.38l0,0c-.17-.1-1.12-.79-1.24-.89A3,3,0,0,1,246,18a6.2,6.2,0,0,0,1.43.57m-1.7,1.54h0c.33,0,.37-.18.36-.23s-.07-.07-.07-.1a.15.15,0,0,1,.14-.1.43.43,0,0,1,.2.09,1,1,0,0,0,.44.07.21.21,0,0,0,.08-.12s0-.08,0-.12a2.14,2.14,0,0,1,.13-.22s.12,0,.14,0,0-.1,0-.13.24-.39.34-.55a4.3,4.3,0,0,1,0,.71,1.43,1.43,0,0,1-.19.7.7.7,0,0,1-.75.39,1.88,1.88,0,0,1-.79-.36m.23-.39a1.7,1.7,0,0,1-.3-.23.54.54,0,0,0,.07-.13,2.8,2.8,0,0,1,.33.24l-.1.12m-.4-.63a.47.47,0,0,1-.05-.1h0c.08,0,.86.64.93.69s0,0,.05,0a.81.81,0,0,1-.22-.07,8.24,8.24,0,0,1-.71-.56m-.06.43.22.17a1.88,1.88,0,0,0,.23.16.22.22,0,0,1,.07.06s-.06.08-.1.1a.33.33,0,0,1-.31,0,.85.85,0,0,1-.25-.25l0,0,.1,0,0,0-.13-.13a.07.07,0,0,0,0-.05h0l.14.07a.81.81,0,0,0-.16-.16c0-.07.08,0,.13,0m4.06-1a6.75,6.75,0,0,0,1.22-.49,1.7,1.7,0,0,1,.15.22l-1.21.9s0,0,0-.05.3-.22.32-.25.07-.09.06-.09-.4.29-.42.28a.11.11,0,0,1,0-.05,2.36,2.36,0,0,1,.33-.27c.06-.05,0,0,0,0s-.37.26-.39.25a.07.07,0,0,1,0-.07,1.85,1.85,0,0,1,.26-.18c.06,0,.07-.07.06-.08s-.3.18-.34.19,0-.05-.05-.06.33-.17.3-.21-.33.15-.34.13l-.05-.08.18-.05m1.63.08c-.31.22-.91.65-1.21.88,0,0,0,0,0-.06a3.85,3.85,0,0,1,.43-.31l0,0a5,5,0,0,1-.45.29s0,0,0,0c.29-.23.9-.67,1.21-.89l.12.16m-.17-.32h0s-.95.7-1.26.94a.19.19,0,0,1-.09.05c0-.05,0-.07,0-.09s1.21-.89,1.26-.91m-.3-.12a.19.19,0,0,1-.1.05s0,0,.07-.06l.07,0h0s0,.05-.05.06m.14,0c.09,0-.11.14-.17.14s.1-.1.17-.14m.2.33a.06.06,0,0,1,.06,0s-.08.08-.1.09-.07.06-.13.07.12-.14.17-.17m-5.1-.22c0-.1.17.06.19.12a.35.35,0,0,1-.19-.12m.16-.1a.27.27,0,0,1,.08.07.12.12,0,0,1-.08,0l-.07-.05h0s0,0,.07,0m1.19-8.11a1.94,1.94,0,0,1,1-.28,1.87,1.87,0,0,1,.74.14,1.54,1.54,0,0,1,.95,1.64,3.16,3.16,0,0,0-.1-.67,1.78,1.78,0,0,0-.76-.88,2.38,2.38,0,0,0-.69-.18,2.27,2.27,0,0,0-.86.12l-.28.13s-.06.05-.08,0,0,0,0,0m.13.1-.05,0a.12.12,0,0,1,.1-.06s.11.11.14.18a1,1,0,0,1,.1.32s0,0,0,0,0-.07-.05-.11a.62.62,0,0,0-.22-.34m1.3,1.6a.16.16,0,0,1-.16.16.16.16,0,0,1-.16-.16.16.16,0,0,1,.16-.15.16.16,0,0,1,.16.15M249,13a.41.41,0,0,1,.1.29.49.49,0,0,1-.16.4.68.68,0,0,1-.46.17.61.61,0,0,1-.66-.57.54.54,0,0,1,.2-.39s.14-.09.2,0-.09.08-.09.08a.47.47,0,0,0-.2.35c0,.25.21.44.54.44s.54-.19.54-.44a.41.41,0,0,0-.12-.28c-.06-.05-.17-.11-.13-.13s.18,0,.24.12m-.15-1.27a.23.23,0,1,1-.45,0,.22.22,0,0,1,.22-.22.21.21,0,0,1,.23.22m-.11,0a.11.11,0,0,1-.11.11.11.11,0,1,1,0-.21.11.11,0,0,1,.11.1M248.48,14a0,0,0,0,1,0,.05.05.05,0,1,1,0-.1,0,0,0,0,1,0,0m-1.08-1s0,0,0,.05a1.93,1.93,0,0,0,0,.24,2.64,2.64,0,0,0,0,.28,2.06,2.06,0,0,0,0,.26c0,.11.06.19,0,.21a.52.52,0,0,1-.07-.18,3.74,3.74,0,0,1,0-.48c0-.05,0-.06,0-.09a.2.2,0,0,0-.13,0s0,.07,0,.16a2,2,0,0,1,0,.46s0,.09,0,.1,0-.07,0-.11,0-.27,0-.34a2.09,2.09,0,0,0-.07-.42s0-.1,0-.1,0,.08.06.09a.58.58,0,0,0,.17,0s0-.11,0-.11m-.06.16s0,0,0,0-.14,0-.15,0l0,0s.13,0,.15,0m.12,1.07a.11.11,0,0,1-.11.11.11.11,0,0,1-.12-.11c0-.06.05-.1.12-.1a.1.1,0,0,1,.11.1m.06,0a.16.16,0,1,1-.16-.16.16.16,0,0,1,.16.16m0-1.4a2.65,2.65,0,0,0,0,.74,2.81,2.81,0,0,0,.1.45c0,.06.11.29.11.31a2.49,2.49,0,0,1-.3.23,2.17,2.17,0,0,1-.29-.24c0-.1,0-.14.07-.29a2.26,2.26,0,0,0,0-.73,3.24,3.24,0,0,0-.13-.41l.48-.06m1.94.26a.58.58,0,0,0,.17,0s0-.09.06-.09,0,.08,0,.1a2.28,2.28,0,0,0-.06.42c0,.07,0,.3,0,.34s0,.1,0,.11,0-.09,0-.1a2.2,2.2,0,0,1,0-.46c0-.09,0-.11,0-.16a.2.2,0,0,0-.13,0s0,0,0,.09a3.42,3.42,0,0,1-.06.48s0,.17-.07.18,0-.1,0-.21a1.09,1.09,0,0,0,0-.26,2.64,2.64,0,0,0,0-.28,1.92,1.92,0,0,0,0-.24s0-.05,0-.05,0,.11,0,.11m.17.09s0,0,0,0-.14,0-.15,0,0,0,0,0,.13,0,.15,0m-.15.93a.1.1,0,0,1,.11.1.11.11,0,0,1-.11.11.11.11,0,0,1-.12-.11c0-.06.05-.1.12-.1m0,0a.16.16,0,1,1,0,.32.16.16,0,1,1,0-.32m-.12-1.24.49.06c0,.11-.12.34-.15.43a2.81,2.81,0,0,0,0,.71c0,.09.05.19.07.29a1.76,1.76,0,0,1-.3.24,1.7,1.7,0,0,1-.29-.23s.09-.25.1-.31a2.69,2.69,0,0,0,.11-.45,2.85,2.85,0,0,0,0-.74m-1.85,4.07a.45.45,0,0,0,.18,0,.09.09,0,0,0,0-.08s-.17,0-.22,0-.05.06-.05.07l.06,0m0,.13.15,0s0,0,0-.05a0,0,0,0,0,0,0l-.19,0s0,0,0,0V17s.08,0,.08,0m2.11-5s0,.06,0,.09a1,1,0,0,0,0,.26.19.19,0,0,1,0,.07s0,.05,0,.06.06-.09.08-.13a2.23,2.23,0,0,0,.21-.88,1.55,1.55,0,0,0-.16-.77,1.8,1.8,0,0,0-.36-.45,1.64,1.64,0,0,0-1.1-.34,1.75,1.75,0,0,0-.68.16l.13.28a1,1,0,0,1,0,.21l.09,0a.68.68,0,0,0,0-.21c0-.09-.07-.14-.11-.2s.06-.12.13-.12.1.11.11.2a.92.92,0,0,1,0,.29l.11,0s.07-.14.09-.2,0-.16-.05-.22.1-.11.15-.09.07.13.06.23a1,1,0,0,1-.11.26h.11a.59.59,0,0,0,.13-.18c0-.08,0-.16,0-.23s.1-.08.16-.05,0,.14,0,.23a1.31,1.31,0,0,1-.17.24l.1,0a.81.81,0,0,0,.16-.16c0-.07,0-.16,0-.23s.13-.06.17,0,0,.15,0,.23-.15.15-.21.21l.1,0a.94.94,0,0,0,.18-.12c.07-.06.07-.15.09-.21s.13,0,.17,0,0,.14-.08.21a1,1,0,0,1-.25.16l.09.05a1.28,1.28,0,0,0,.22-.09c.08,0,.09-.13.13-.18s.13,0,.16,0,0,.14-.13.19a1,1,0,0,1-.28.11l.08.08.21,0c.09,0,.12-.11.17-.15s.13,0,.14.09-.08.12-.16.16a.83.83,0,0,1-.27,0l.07.09h.15c.09,0,.15-.08.2-.11s.13.06.12.12-.1.1-.19.12a.71.71,0,0,1-.21,0,.61.61,0,0,0,.05.12h.12c.07,0,.13,0,.18-.07s.1.07.09.12-.1.07-.18.07a.32.32,0,0,1-.17,0,.36.36,0,0,1,0,.1l.09,0c.07,0,.14,0,.19,0s.08.08.06.13-.11.05-.19,0l-.12-.05h0s0,.07,0,.11l0,0c.07,0,.14,0,.2,0s.06.1,0,.15-.12,0-.2,0l-.07,0v.08h0c.06.05.13,0,.19,0s.05.1,0,.13-.12,0-.19,0l-.05,0m-.17-.94Zm-.84,5h-.22v-.37h.22Zm-.05,0h-.1v-.24h.1Zm.11.1h-.37v-.49h.37Zm-.42,0h.47v-.1c.2,0,.43,0,.65,0h.17s-.05,0-.07,0a3.93,3.93,0,0,0-.6.07c.21,0,.72,0,.72,0s-.07,0-.1,0a3.43,3.43,0,0,0-.34.06v0c.12,0,.44,0,.45,0a.07.07,0,0,1,0,0s-.5.09-.52.1,0,0,0,0l.53,0s.09,0,.09,0a2.44,2.44,0,0,1-.67.12v0c.21,0,.43,0,.63-.07,0,0,.07,0,.09,0s0,0-.08,0a3.56,3.56,0,0,1-.6.11l-.21,0a5.05,5.05,0,0,1-1.1,0c-.14,0-.28,0-.41-.06l-.16,0a1.19,1.19,0,0,1,.09-.15s.13,0,.13,0-.1,0-.12,0a.59.59,0,0,0,0-.08h.09s-.06,0-.08,0l.08-.16h.83Zm.47-.46h.85s.09,0,.06.06-.14,0-.19,0l-.28,0s.06,0,.09,0h.17a.67.67,0,0,1,.2,0c0,.06,0,.07,0,.1h-.09l-.8,0V15.7m3.42,5.52a4.25,4.25,0,0,0,.72-1.72,3.47,3.47,0,0,0-.07-1.57s0-.08,0-.09,0,.07,0,.09a3.66,3.66,0,0,1,.07,1.57,4.19,4.19,0,0,1-.73,1.72s0,.09-.07.08,0-.06,0-.08m-7.28.1s-.06,0-.06-.05a4.27,4.27,0,0,1-.73-1.73,3.66,3.66,0,0,1,.07-1.57s0-.09.05-.09,0,.08,0,.09a3.47,3.47,0,0,0-.07,1.57,4.33,4.33,0,0,0,.72,1.73s0,0,0,.05m0-4.86h0s0,0,0,0l-.07.08s0,0,0,0h0s0,0,0,0l.22-.27s0,0,0,0l0,0s0,0,0,0a.14.14,0,0,1,0,.14c0,.07-.1.08-.16,0m.12-.15h-.05l0,.06a0,0,0,0,0,0,0l0,0s0,0,0,0,0-.06,0-.08m0,.46a.1.1,0,0,1-.08,0,.09.09,0,0,1,0-.07c0-.05,0-.08.09-.16s.09-.1.13-.11a.15.15,0,0,1,.09,0,.13.13,0,0,1,0,.08s0,.08-.08.15-.09.11-.14.12m.16-.27a0,0,0,0,0,0,0h0s0,0-.1.1-.07.08-.07.11,0,0,0,0h0a.43.43,0,0,0,.1-.1c0-.06.07-.09.07-.11m0,.44a.08.08,0,0,1-.07,0,.15.15,0,0,1-.05-.07.13.13,0,0,1,0-.08l.17-.21a0,0,0,0,1,0,0h0s0,0,0,0l-.15.19a.13.13,0,0,0,0,.05,0,0,0,0,0,0,0s0,0,.06,0l.17-.21s0,0,.05,0h0a0,0,0,0,1,0,.05l-.17.21a.1.1,0,0,1-.07,0m.21.19s0,0,0,0l0-.11s0,0,0,0,0,0,0,0l-.07.09a0,0,0,0,1,0,0h0a0,0,0,0,1,0,0l.21-.28h0l0,0,0,.05a.12.12,0,0,1,0,.13.12.12,0,0,1-.1.06l-.05.15s0,0,0,0Zm.15-.32h0s0,0,0,0l0,.05s0,0,0,0,0,0,0,0,0,0,0,0,0-.05,0-.07m0,.47s0,0,0-.05l.2-.28s0,0,0,0h0s0,0,0,0l-.17.24s0,0,0,0l0,0s0,0,0,0a0,0,0,0,1,0,0Zm.3.2s0,0,0,0v0s0,0,0,0l0,0h0l0,0a0,0,0,0,1,0,0h0a0,0,0,0,1,0,0l.26-.24a0,0,0,0,1,.05,0h0s0,0,0,0l-.12.34a0,0,0,0,1,0,0Zm.08-.28s0,0,0,0l-.08.08s0,0,0,0h0s0,0,0,0Zm.25.29h0s0,0,0,0l-.05.09s0,0,0,0h0a0,0,0,0,1,0,0l.18-.3s0,0,0,0l0,0,0,0a.14.14,0,0,1,0,.14c0,.07-.09.09-.15,0m.09-.16h0a0,0,0,0,0,0,0l0,.06s0,0,0,0h0s0,0,0,0,0-.06,0-.08m.12.46a0,0,0,0,1,0,0v0a.08.08,0,0,0,0-.05h0s0,0,0,0h0s0,0,0,0h0s0,0,0,0l.24-.26a0,0,0,0,1,0,0h0s0,0,0,0l-.08.35s0,0,0,0Zm.05-.29s0,0,0,0l-.07.09s0,0,0,0h0s0,0,0,0Zm.28.06s0,0,0,0l-.13.26a0,0,0,0,1,0,0h0s0,0,0,0l.12-.26s0,0,0,0h0a0,0,0,0,1,0,0s0,0,0,0l.13.06s0,0,0,0,0,0,0,0Zm.1.43s0,0,0,0v-.12a.05.05,0,0,0,0,0l0,0,0,.1s0,0,0,0h0a.08.08,0,0,1,0,0l.14-.32s0,0,0,0l0,0,0,0a.1.1,0,0,1,0,.13c0,.05,0,.08-.08.08V18s0,0,0,0Zm.06-.35h0s0,0,0,0l0,.06a0,0,0,0,0,0,0,0,0,0,0,0,0,0s0,0,0,0,0-.06,0-.07m.06.39s0,0,0,0l.11-.32a0,0,0,0,1,0,0h0s0,0,0,0L247,18s0,0,0,0Zm.14,0s0,0,0,0l.1-.33a.05.05,0,0,1,0,0l.11,0a0,0,0,0,1,0,0s0,0,0,0h-.05s0,0,0,0l0,.05s0,0,0,0h0s0,0,0,0,0,0,0,0h0s0,0,0,0l0,.06s0,0,0,0l.05,0s0,0,0,0,0,0,0,0Zm.33.1a.05.05,0,0,1,0,0l.08-.34s0,0,0,0h0a.05.05,0,0,1,0,0l-.07.28a0,0,0,0,0,0,0h0s0,0,0,0,0,0,0,0Zm.21,0s0,0,0,0l.06-.34a0,0,0,0,1,0,0l.11,0s0,0,0,0a.05.05,0,0,1,0,0h0s0,0,0,0V18s0,0,0,0h0s0,0,0,0a0,0,0,0,1,0,0h0l0,0v.06a.05.05,0,0,0,0,0h0s0,0,0,0,0,0,0,0Zm.38,0a.11.11,0,0,1-.08,0,.1.1,0,0,1-.08,0,.1.1,0,0,1,0-.08h0a0,0,0,0,1,0,0,0,0,0,0,0,0,0s0,0,0,0h0a.43.43,0,0,0,0-.05s0-.05,0-.07h0l0,0a.1.1,0,0,1,0-.09.09.09,0,0,1,0-.08.1.1,0,0,1,.07,0,.09.09,0,0,1,.07,0,.1.1,0,0,1,0,.09h0a0,0,0,0,1,0,0v0h-.05s0,0,0,0,0,.05,0,.06h0l.05,0a.12.12,0,0,1,0,.1.1.1,0,0,1,0,.08m.37,0-.08,0-.08,0s0-.05,0-.09h0a0,0,0,0,1,0,0h0l0,0s0,0,0,0,0,0,0,0,0-.05,0-.07h0l-.06,0a.13.13,0,0,1,0-.09.13.13,0,0,1,0-.09l.07,0a.09.09,0,0,1,.07,0,.12.12,0,0,1,0,.09h0s0,0,0,0v0h-.05s0,0,0,0,0,0,0,.05h0l0,0a.13.13,0,0,1,0,.1.12.12,0,0,1,0,.09m.27,0a.08.08,0,0,1-.07,0,.11.11,0,0,1-.08,0s0-.08,0-.17,0-.14,0-.18,0,0,.07,0a.08.08,0,0,1,.07,0s0,0,0,.08h0s0,0,0,0h0l0,0s0,.06,0,.13a.33.33,0,0,0,0,.14h0s0,0,0,0,0,0,0,0h.06a.12.12,0,0,1,0,.09m.13,0a0,0,0,0,1,0,0l0-.34s0,0,0,0h0s0,0,0,0l0,.35s0,0,0,0Zm.14,0s0,0,0,0l-.05-.34s0,0,0,0H249s0,0,0,0a0,0,0,0,1,0,0h-.05s0,0,0,0V18a0,0,0,0,0,0,0h0l0,0s0,0,0,0h0a0,0,0,0,0,0,0v.06a0,0,0,0,0,0,0H249s0,0,0,0a0,0,0,0,1,0,0Zm.39-.06,0,0-.11-.17s0,0,0,0l0,.18s0,0,0,0h0s0,0,0,0l-.07-.34a0,0,0,0,1,0,0l0,0,.11.17s0,0,0,0l0-.17s0,0,0,0h0l0,0,.06.34s0,0,0,0m.27-.09-.06,0a.13.13,0,0,1-.09,0,.3.3,0,0,1-.07-.16.43.43,0,0,1,0-.18.1.1,0,0,1,.07-.05.11.11,0,0,1,.08,0,.13.13,0,0,1,.05.07h0s0,0,0,0h0s0,0,0,0,0,0,0,0,0,.06,0,.13a.34.34,0,0,0,0,.13h0s0,0,0,0v0h.06a.13.13,0,0,1,0,.09m.13,0s0,0,0,0l-.11-.33s0,0,0,0l.11,0,0,0s0,0,0,0h-.05a.05.05,0,0,0,0,0l0,.05s0,0,0,0h0s0,0,0,0,0,0,0,0h0s0,0,0,0V18l0,0,.05,0s0,0,0,0,0,0,0,0Zm.35-.15A.1.1,0,0,1,250,18a.1.1,0,0,1-.09,0,.1.1,0,0,1,0-.07l0,0s0,0,0,0H250s0,0,0,0,0,0,0-.05,0-.05-.06-.05h-.08s0,0-.06-.07a.14.14,0,0,1,0-.09.1.1,0,0,1,.06,0,.11.11,0,0,1,.08,0,.1.1,0,0,1,.05.07h0a0,0,0,0,1,0,0h0s0,0,0,0,0,0,0,0,0,0,0,0H250a.1.1,0,0,1,.07.08.1.1,0,0,1,0,.09m.22-.07s0,0,0,0l-.15-.31s0,0,0,0l.1,0s0,0,0,0,0,0,0,0l-.05,0s0,0,0,0l0,.05s0,0,0,0h0s0,0,0,0,0,0,0,0h0a0,0,0,0,0,0,0l0,.06s0,0,0,0l0,0s0,0,0,0,0,0,0,0Zm.14-.47s0,0,0,0l.14.25s0,0,0,0h-.05l-.14-.26s0,0,0,0h0s0,0,0,0,0,0,0,0l.12-.07s0,0,0,0,0,0,0,0Zm.36.19a0,0,0,0,1,0,0l-.18-.29s0,0,0,0h0l.15.25s0,0,0,0l.05,0s0,0,0,0,0,0,0,0Zm.31-.2a0,0,0,0,1,0,0l0,0h0l0,0s0,0,0,.05v0s0,0,0,0h0a0,0,0,0,1,0,0l-.12-.34s0,0,0,0h0a0,0,0,0,1,0,0l.26.24a0,0,0,0,1,0,0Zm-.22-.18s0,0,0,0l0,.11a0,0,0,0,0,0,0h0s0,0,0,0Zm.45,0a.15.15,0,0,1-.09,0s-.07-.05-.12-.13S251,17,251,17a.1.1,0,0,1,.05-.08.1.1,0,0,1,.07,0,.12.12,0,0,1,.07.05l0,0h-.05s0,0,0,0l0,0,.07.12a.3.3,0,0,0,.09.1h0s0,0,0-.06l0,0s0,0,0,0h0s0,0,0,0l0,0s0,0,0,0l0,.07a.1.1,0,0,1,0,.15m.15-.12a0,0,0,0,1,0,0l-.21-.28s0,0,0,0h0s0,0,0,0l.18.23s0,0,0,0l0,0s0,0,0,0a0,0,0,0,1,0,.05Zm.25-.23a.09.09,0,0,1,0,.08.13.13,0,0,1-.08,0c-.05,0-.07,0-.13-.12s-.08-.11-.08-.15a.09.09,0,0,1,0-.08.09.09,0,0,1,.08,0s.07,0,.13.12.08.11.08.15m-.22-.21h0s0,0,0,0,0,.05.07.11a.3.3,0,0,0,.09.1h0s0,0,0,0,0-.05-.07-.11a.3.3,0,0,0-.09-.1m.34.16a0,0,0,0,1,0,0l-.21-.28a0,0,0,0,1,0,0h0a0,0,0,0,1,0,0l.21.28a0,0,0,0,1,0,0Zm.23-.17a0,0,0,0,1-.05,0l-.09-.07h0s0,0,0,0l.07.08s0,0,0,0h0s0,0,0,0l-.21-.27s0,0,0,0l0,0,.05,0a.14.14,0,0,1,.13,0,.11.11,0,0,1,0,.12l.14.09a0,0,0,0,1,0,0Zm-.27-.23h0s0,0,0,0l0,.05a0,0,0,0,0,0,0,.08.08,0,0,0,0,0,.05.05,0,0,0,0-.05s0,0-.07,0m.36.16s0,0,0,0l-.2-.28a0,0,0,0,1,0,0l.09-.06h0s0,0,0,0l0,0a0,0,0,0,0,0,0l0,.05a0,0,0,0,0,0,0h0a0,0,0,0,1,0,0,0,0,0,0,1,0,0l0,0a0,0,0,0,0,0,0l0,.05s0,0,0,0l0,0a0,0,0,0,1,0,0,.06.06,0,0,1,0,0Zm1-4.58s-1.07.65-1.31.85-.8.82-.9.94,0,0-.05,0,.17-.32.17-.35-.11.12-.14.14,0,0,0,0,0-.1,0-.14l.16-.21a1.62,1.62,0,0,0-.19.18s0,0,0,0,0-.07,0-.09l.23-.27a1.45,1.45,0,0,0-.19.17s0,.06-.06.05,0-.05,0-.07A8.13,8.13,0,0,1,253.15,12s0,0,0,0m-4.89.78c-.06,0-.53.08-.64.09s0-.09-.09-.1h-.07l-.38.05H247l0-.05-.2-.3-.08-.13v-.09a.14.14,0,0,0-.06-.07l-.07,0s0-.05,0-.08a.93.93,0,0,0-.1-.2,1,1,0,0,0-.17-.24h-.08s-.06-.1-.11-.11-.16.1-.19.12a3.51,3.51,0,0,0-.46.36s0,.08,0,.08.06.05.06.08,0,0,0,.06a1.13,1.13,0,0,0,.3.38s.07,0,.08.05,0,.05,0,.08.09.07.13.11a.91.91,0,0,1,.11.16,1.3,1.3,0,0,1,.1.15.14.14,0,0,1-.24,0,13.34,13.34,0,0,0-2.75-1.53l-.09,0s.17.27.26.47.25.44.27.49-.15-.09-.17-.08,0,.08,0,.16a4.16,4.16,0,0,0,.39.87s0,.07,0,.08-.18-.07-.2-.07,0,0,0,.06a4.87,4.87,0,0,0,.47.8s-.06,0-.08,0,0,.07,0,.12l.23.31a2.48,2.48,0,0,0,.36.34,3.17,3.17,0,0,0,.45.26,2.12,2.12,0,0,0,.41.12l.15,0s.09.06.12.08a1.33,1.33,0,0,0,.87.17c.13,0,.2,0,.25,0a2.73,2.73,0,0,1,.25.2l-.13.24c-.07.14-.37.64-.4.68s-.06.14-.11.13a5.2,5.2,0,0,1-.58-.34c-.09-.07-.8-.58-.92-.68a.58.58,0,0,0-.85.2.92.92,0,0,0,.25,1.36.61.61,0,0,1,.17.52s0,0,0,.08a1.27,1.27,0,0,0,.51-.84A5.81,5.81,0,0,0,246,18a.91.91,0,0,0-.1.13.38.38,0,0,1-.09.12s-.11,0-.13.05,0,.08,0,.13a.53.53,0,0,1-.06.1l-.08.08s0,0-.07,0l-.05,0-.06,0s0,.08,0,.14l0,.06s.06.06.07.09.26.38.22.47-.06,0-.11,0-.08,0-.12-.06a.59.59,0,0,0,.08-.22c0-.05,0-.05-.09-.09s-.67-.63-.72-.69L244.4,18c-.05-.07-.22-.36-.26-.36s-.08.1-.08.12a.42.42,0,0,1,0,.1,3.85,3.85,0,0,0-.09,1.64,3.9,3.9,0,0,0,.78,1.83s0,0,.07,0,.25-.18.31-.23,0,0,0,0h0a3.28,3.28,0,0,0,1.14.76c.15.07.29.12.43.17.82.33,1.37.51,1.68,1.5,0,.05,0,.05,0,.05s0,0,0-.06c.31-1,.84-1.2,1.68-1.53l.43-.17a3.59,3.59,0,0,0,1.15-.76,1.82,1.82,0,0,0,.3.23s0,0,.06,0a3.65,3.65,0,0,0,.81-1.84,3.85,3.85,0,0,0-.09-1.64s-.07-.2-.11-.21a.14.14,0,0,0-.1.08l-.08.12a7.26,7.26,0,0,1-1.2,1.29c0,.06,0,.14.06.21l-.11,0s-.12-.07-.12-.1.06-.1.09-.13a.67.67,0,0,0,.12-.2.6.6,0,0,1,.08-.16l.06-.14a.12.12,0,0,0-.05-.07,1.15,1.15,0,0,0-.17-.06.66.66,0,0,1-.15-.19c0-.05,0-.1,0-.14s-.08,0-.12,0a2.11,2.11,0,0,1-.17-.22,6.94,6.94,0,0,0,.77-.55,1.35,1.35,0,0,0,.52.84s0-.06,0-.11a.67.67,0,0,1,.17-.49.91.91,0,0,0,.25-1.35.6.6,0,0,0-.77-.26c-.14.08-.61.47-.72.55a5.93,5.93,0,0,1-.8.5.12.12,0,0,1-.1,0,4.32,4.32,0,0,1-.41-.63c-.09-.17-.19-.37-.16-.42a.9.9,0,0,1,.29-.18,2.91,2.91,0,0,1,.31,0,1.67,1.67,0,0,0,.71-.19l.11-.08.17,0a2.47,2.47,0,0,0,1.38-.92c.1-.14.12-.19.11-.23s-.06,0-.08,0,.24-.32.27-.39.14-.21.18-.32,0-.11,0-.14-.17.09-.2.06.08-.13.3-.56.17-.51.15-.54-.14.06-.16.06c.08-.16.18-.32.26-.47s.27-.46.27-.47,0,0-.09,0a13.66,13.66,0,0,0-2.76,1.52.16.16,0,0,1-.2,0l.11-.16a.74.74,0,0,1,.12-.16s.12,0,.13-.11,0-.06,0-.08.05,0,.07-.05l.13-.11a1,1,0,0,0,.18-.27s0,0,0-.06,0,0,.06-.08a.19.19,0,0,0,0-.08s-.05,0-.08-.07l-.48-.35s-.05-.06-.09-.06-.06.09-.11.11h-.08a.67.67,0,0,0-.14.19s-.12.22-.13.25a.45.45,0,0,1,0,.08l-.08,0a.21.21,0,0,0-.05.07s0,.06,0,.09a.75.75,0,0,1-.09.15s-.17.25-.18.28l0,.07-.24,0-.27,0c-.08,0-.1.05-.13.1l-.49,0s0-.06,0-.09,0-.5,0-.59h0c.43.6.86.58,1,.52A2.39,2.39,0,0,0,250,12a1.82,1.82,0,0,0,.08-.59,1.62,1.62,0,0,0-1-1.47,2.11,2.11,0,0,0-1.82.15.37.37,0,0,0-.1.07.15.15,0,0,0,.06.09s.07,0,.1,0a.46.46,0,0,1,.2.2.65.65,0,0,1,.08.32,2.07,2.07,0,0,0-.29.41c-.09-.1-.16.14-.19.2a1.71,1.71,0,0,0-.08.43.29.29,0,0,0,0,.08c-.06.14-.15.3-.17.35a1.2,1.2,0,0,0-.1.32,2.18,2.18,0,0,0,1.38-.18v.46h0m.34-.62a0,0,0,0,0-.06,0v1.52s0,0,0,0,0,0,0,0Zm-.11.05s0,0,0,0-.13.06-.13.1v1.38s0,0,0,0h.11s0,0,0,0Zm-.1,9.32s0-2.56,0-2.57,0-.24,0-.28-.07,0-.11,0a3.23,3.23,0,0,1-.59-.06c-.05,0,0,.07,0,.07l.28,0a.08.08,0,0,0,0,0c-.06,0-.32-.06-.28,0s.21,0,.26.08v0l-.24,0s0,0,0,.08.26,0,.25.07a.92.92,0,0,1-.24,0s0,.05,0,.08.25,0,.24.05-.19,0-.23,0a.21.21,0,0,0,0,.08s.23,0,.22,0a.81.81,0,0,1-.22,0,.33.33,0,0,1,0,.1s.22,0,.21.05h-.21a.3.3,0,0,0,0,.1s.21,0,.21,0a.8.8,0,0,1-.22,0s0,.05,0,.08.22,0,.22,0-.22,0-.23,0,0,.06,0,.09.23,0,.22,0-.19,0-.23,0a.2.2,0,0,0,0,.08l.25.05s0,0,0,0l-.23,0,0,.09s.27,0,.27.07a1.36,1.36,0,0,1-.29,0s0,.06,0,.09l.28.06v0a1.54,1.54,0,0,1-.31,0s-.06.07-.05.08.32.06.33.09-.33,0-.37,0l-.08.06a2.45,2.45,0,0,0,.41.08v.05l-.46-.09-.09.07s.49.09.54.11v0a3.33,3.33,0,0,1-.58-.1,1.38,1.38,0,0,1-.2,0l.63.16s0,0,0,0l-.62-.13-.05,0a1.74,1.74,0,0,1-1.06-.42A7.31,7.31,0,0,1,244.5,19s0-.07-.07-.08a.31.31,0,0,0,0,.17,9.33,9.33,0,0,0,.81,1.29,4.13,4.13,0,0,0,.87.75,4.08,4.08,0,0,0,1.2.46c.26,0,.89.07.94.07s0-.06,0-.08m-3.28-4.17a2.74,2.74,0,0,0-.62-.51s.08.09.09.1l.46.42a.62.62,0,0,1,.08.12c0,.05.09,0,0-.13m-.81-.07s.07.09.08.11.4.35.44.61c0,0,0,.07,0,.06s0,0,0-.06a.58.58,0,0,0-.13-.31c0-.05-.41-.45-.44-.41m-.07-.18s.07.08.08.09.56.43.61.69c0,0,0,.06,0,.06s0,0,0-.07a.83.83,0,0,0-.18-.31c-.09-.1-.53-.51-.56-.46m0-.18s.07.12.1.13a3.16,3.16,0,0,1,.67.69s0,.06,0,.06,0,0,0-.07-.08-.16-.23-.31-.54-.52-.6-.5m.06-.1s.08.11.11.13a6.35,6.35,0,0,1,.69.65s0,.06,0,.05,0,0,0-.06-.1-.14-.24-.28-.54-.51-.61-.49m7.49.61s.05-.08.09-.12l.45-.41s.12-.08.1-.1-.4.27-.63.51,0,.17,0,.12m.38.21A.93.93,0,0,0,252,18c0,.07,0,.06,0,.07s0,0,0-.06c0-.26.43-.62.43-.62s.11-.08.09-.1-.41.36-.45.4m0-.12a.84.84,0,0,0-.19.3c0,.07,0,.07,0,.07s0,0,0-.05c.05-.27.6-.69.6-.69s.11-.07.09-.1-.47.37-.56.47m0-.14c-.15.14-.2.21-.22.3s0,.07,0,.07,0,0,0-.05a3.18,3.18,0,0,1,.68-.69s.14-.12.1-.13-.46.35-.61.5m-.06-.12a1.15,1.15,0,0,0-.24.28c0,.05,0,.06,0,.07s0,0,0-.05a4.39,4.39,0,0,1,.69-.65s.14-.12.1-.13-.45.34-.6.48m-3.54,1.42v0m-2.72-.22c.31.22.94.66,1.24.89a.08.08,0,0,1,0,.06,5.52,5.52,0,0,1-.47-.32l0,0,.47.33s0,0,0,.06l-1.24-.89c0-.06.09-.11.12-.17m0-.14a13.87,13.87,0,0,1,1.3.9s.06,0,.05.09a.19.19,0,0,1-.09-.05l-1.23-.9s0,0,0,0m-.27.36h0l1.27.93s.07,0,.07.08,0,0,0,0l-1.31-1Zm0,.14s-.12-.08-.06-.1l1.38,1s0,0,0,0-.08,0-.1,0l-1.25-.92m.3-.16s0,0,0-.05.19.11.21.17-.17-.08-.21-.12m2.59-4.6a.11.11,0,0,1,0-.07.68.68,0,0,1-.68-.65.59.59,0,0,1,.16-.39.65.65,0,0,0-.26,0,.08.08,0,0,0-.06.05,2.63,2.63,0,0,0,.21,1.37v0a2.63,2.63,0,0,1-.39.28s-.24-.19-.25-.19h-.21s-.08,0-.09,0a4.28,4.28,0,0,0,.42,1,.5.5,0,0,0,.08.12s.11.07.31.06h.55v-.06h.22V14.12a.11.11,0,0,1,0-.08m.18,0s0,0,.17,0l0,0h-.17s-.06,0-.06.06.05,0,.06,0h.18l0,0h-.17s-.05,0-.05,0,0,.07,0,.07h.2v0h-.18a0,0,0,0,0-.05,0s0,.06,0,.06h.19v0h-.17a0,0,0,0,0-.05.05s0,.07.05.07h.19l0,0h-.17a.06.06,0,0,0-.05.06s0,.06.05.06h.18v0h-.17s-.05,0-.05.05,0,0,.06,0h.16l0,0h-.14s-.05,0-.05,0,0,.06.05.06h.14l0,0h-.16s-.06,0-.06.05,0,.05.05.05h.15l0,0h-.16s-.06,0-.06.05,0,0,.06,0h.15l0,0h-.16a.07.07,0,0,0-.07.06s0,0,.06,0h.17l0,0h-.25v0h.21v.06c.22,0,.47,0,.69,0,0,0,.17,0,.16,0s-.08,0-.11,0h-.33a0,0,0,0,0,0,0l.41,0c.06,0,.1,0,.09-.06s-.21,0-.31,0,0,0,0,0h.22c.07,0,.18,0,.14-.07l-.28,0v0h.22c.05,0,.15,0,.13-.05a2.51,2.51,0,0,0-.27,0s0,0,0,0,.36,0,.35-.06h0c-.16,0-.35,0-.52,0v0h.53s.05,0,0,0-.11,0-.12,0-.23,0-.32,0,0,0,0,0h.42s.1,0,.09,0-.14,0-.16-.06l-.3,0a1.61,1.61,0,0,1-.39-.31s.06-.19.06-.19l.06-.16v0a2.23,2.23,0,0,0,.09-.39,2.35,2.35,0,0,0,0-.57c0-.09-.06-.1-.18-.12S249,13,249,13a.6.6,0,0,1,.11.34.67.67,0,0,1-.62.64s0,0,0,0a.26.26,0,0,1,0,.07m2.66.15s-.1.16.09,0a1,1,0,0,1,.34-.14,2.08,2.08,0,0,1-.56.29l-.18.27a3.4,3.4,0,0,0,.8-.38,4,4,0,0,0,.41-.72c0-.11,0-.12,0-.09s-.2.16-.28.23a4.39,4.39,0,0,1-.44.3.92.92,0,0,0-.14.2m-6.48-1a2.3,2.3,0,0,1-.18-.52s.08,0,.1,0,0,.13.08.17,0-.06,0-.06.1.21.21.25,0,0,0-.06a.19.19,0,0,1,.1.05s.2.31.18.35-.38-.27-.39-.28a2.39,2.39,0,0,0,.46.43s.11.27.13.31v0a4.75,4.75,0,0,1-.73-.7m-1.29-1.27a.64.64,0,0,1,.27.23c0,.06,0,.1.06.09s0-.08,0-.07.09,0,.23.24c0,0-.06-.11,0-.12s.12.15.16.2,0-.08,0-.08a.06.06,0,0,1,.08,0s.11.25.14.24,0-.13,0-.15.08.05.1.07.15.36.12.39-.18-.09-.22-.12a3.29,3.29,0,0,0-.35-.29.75.75,0,0,0,.17.23,6.18,6.18,0,0,0,.47.42s.09.15,0,.15c-.28,0-.72-.55-.77-.62a4.47,4.47,0,0,1-.48-.84M245.47,14a4.39,4.39,0,0,1-.44-.3c-.08-.08-.25-.19-.28-.23s-.09,0,0,.09a3.63,3.63,0,0,0,.41.71,3.46,3.46,0,0,0,.8.39l-.18-.27a2.08,2.08,0,0,1-.56-.29,1,1,0,0,1,.34.14c.19.11.1,0,.09,0a1.5,1.5,0,0,0-.14-.19m1.39-.59s-.07,0-.06.05a6.21,6.21,0,0,1-.05.69c0,.13-.1.3-.07.31s0,0,.08-.05a2.53,2.53,0,0,0,.17-.9c0-.09-.07-.1-.07-.1m3,.11a3,3,0,0,0,.16.9c0,.07.06.06.09,0a1,1,0,0,0-.07-.31,3.45,3.45,0,0,1-.05-.68c0-.06-.09-.05-.07-.05s0,0-.06.1"/><rect class="cls-1" x="435.16" y="13.54" width="49.95" height="49.95"/><rect class="cls-10" x="436.79" y="15.17" width="46.68" height="32.12"/><path class="cls-11" d="M483.44,61.8l0-12.34h-2.1c-.21.29-.07,1.6-.73,1.85-2.24-.51-.2-.76-1-1.85h-1.11c.11,0,.5.45-.09.95-.78,5.18.66,7.28-.07,11.38Z"/><path class="cls-11" d="M450.05,53.28a1.9,1.9,0,0,0,.89-1.85,2.59,2.59,0,0,0-1.65-.23c-.55.46-.07,1.29-.4,1.83.21.46.8.14,1.16.25"/><path class="cls-11" d="M454.85,59.4l.25.07a1.35,1.35,0,0,0,.77,0,1.41,1.41,0,0,0-.25-.45,8,8,0,0,0-.77.42"/><path class="cls-11" d="M458,56.19c-.59,0-1.1.87-1.61.52.3-.83.95-1.51,1.23-2.32.48-1.11,1.27-3.51.94-4.94h-2.27c-.74.21-.19,2.12-1,2.24a9.42,9.42,0,0,0-.75-2.23h-1.22c.09.82,0,.86-.1.94-.42,0-.38-.64-.91-.29-.46-.08-.59.67-1.08.52-.16-.39-.63-.91-1.14-.6.44,1,2.67,1.35,1.61,2.92-.21.46,0,1.12-.61,1.35-1-.27-1.93-.64-2.92-.89.11.37-.17.89-.07,1.27,1.06.14,1.38,1.24,2.29,1.57a.52.52,0,0,1,.23.54c-.63.27-1.31-.29-1.9-.54-.15.06-.07.21-.09.31.55.65,2.33.37,1.76,1.72-.49,1.1-.38,2.93-2.05,3.07-.15.33.25.31.38.46,1.43.14,2.92-1.23,4.12-.09.4,0,.91-.25,1.23.08h3.6c.68-1.31.16-2.15.22-3.36.08-.3-.84-.61-1.54-.44-.13-.09,0-.26-.06-.4.46-.54,2.32.27,1.9-1,0-.1,0-.35-.23-.37m-7.64-1.35H450c-.45-.16-1.42-.39-1.46-.91.61.16,1.16.48,1.77.68ZM454.44,51l-.11,1.3c-.05.2-.2.61-.57.45-.44.11-.21-.43-.26-.63.39-.33.5-1,.94-1.12m0,3.77a2,2,0,0,1-1.38.08,1.12,1.12,0,0,0,.15-.54c.26-.21.53-.66,1-.52a1.47,1.47,0,0,1,.23,1m-1.69-3.61c0-.47.61-.29.93-.43l.06.2c-.3.23-.51.73-1,.54Zm-.07,5.19c.57.12,1.19-.31,1.61.14-.19.4-.19,1.06-.85.68-.29-.23-.95-.12-.9-.68ZM452,50.78c.1-.17.25-.48.55-.38,0,.25-.15.71-.55.52Zm-.45,5c.37-.21.88-.18.79.52h-.59c-.11-.14-.28-.28-.2-.52m-1.4-.27c.11-.19.33-.08.49-.11.06.46.77-.1.5.49h-.08a.67.67,0,0,1-.91-.38m.85,5.14c-.53-.91.09-2.43.23-3.3.13-.12.26-.29.47-.23.15.48-.55.79-.08,1.2.48-.14,1.11.29,1.6-.08-.25-.41-.78-.2-1.14-.37V57.6l1.08-.06c.17.23.93.44.76.88A9.08,9.08,0,0,1,451,60.61m4.87-1.18a1.78,1.78,0,0,1,0,1.5l-2.45.08V60.7a5,5,0,0,1,1.44-1.3l-.49-.14c-.7-.47.94-1.16,1.2-1.35l.66,1.06a.52.52,0,0,1-.35.46m-.95-5.61c-.51-1.35,1.32-1.89,2-2.71l.95.52c-.1.92-1.78,1.09-1.68,2.09.18.15.33.4.56.44.08.25-.13.4-.28.55-.74.3-1.11-.42-1.57-.89"/><path class="cls-11" d="M440.34,50.79a16.59,16.59,0,0,0-3.5.08v1.79h.42a4.25,4.25,0,0,0,1.37.16,32.12,32.12,0,0,0,5.37-.19,2,2,0,0,0-.62-.1c-.32-.24-.52-.4-.45-.78.5-.53,1.42-.09,2-.41.52.2.17.76.3,1.11-.06.1-.11.09-.17.15a17.16,17.16,0,0,1,1.85.07V50.82c-2.8-.18-4.77.08-6.57,0"/><path class="cls-11" d="M461.54,50.16a13.39,13.39,0,0,0,2.84.37V49.46h-4.05a5.58,5.58,0,0,1-.65,2,2.16,2.16,0,0,1,1,.17v.22a5.71,5.71,0,0,0-1-.14v3.5h.45c0,.08.1.13.08.23l-.08.17h-.45v.42a1.37,1.37,0,0,0,.45,0,.14.14,0,0,0,0,.06c.22,0,.36.31.63.17v.22h-.47a.34.34,0,0,1-.28-.11.6.6,0,0,1-.35,0v.32a3,3,0,0,1,1.16,0c0,.08.12.12.09.23l-.09.16a5,5,0,0,0-1.16-.1v2.71l.35.09c0,.1.15.16.15.28a.66.66,0,0,1-.5.07v1.51h4.7V60.28a1.61,1.61,0,0,1-.76,0,3.15,3.15,0,0,1,.59-1.1l.17-2a5,5,0,0,0-1.16.1l-.09-.16c0-.11.05-.15.09-.23a3,3,0,0,1,1.16,0v-.32a.69.69,0,0,1-.54-.16c0-.11.07-.15.1-.23a1.31,1.31,0,0,0,.44,0v-.42h-.44l-.1-.17c0-.1.07-.15.1-.23h.44v-3.5a5.59,5.59,0,0,0-1,.14v-.22a2.16,2.16,0,0,1,1-.17v-.69c-.84,0-1.67-.14-2.45-.2-.2-.11-.49-.09-.63-.29a.23.23,0,0,1,.24-.17m2.53,2.59v.7c-.32,0-.72.11-1-.11.14-.51.68-.48,1-.59m-3.81-.48h.62v.23h-.62Zm1,.91a1.78,1.78,0,0,1-.9.32l-.17-.58c.33,0,.94-.2,1.07.26m-1.38,5.09h.81v.23h-.81Zm3.53,2.81c-.28.65-.8.18-1.15,0s-.53.74-.81.12c0-.15.07-.21.09-.33a1.7,1.7,0,0,1,1.87.21m-.66-5.33h-1.18v-.44h1.18Zm-.23,1.65V58c-.21,0-.48.1-.63-.11,0-.49.42-.45.63-.53m-.41-5c.17.12.53.13.34.6-.21.19-.37-.3-.57-.36Zm0-.89-.34.39c-.14,0-.38-.41-.42-.58.11-.12.71,0,.76.19m.62,7.45v.55c-.73.25-1.4,1-2.2.69v-.49c.32-.15.69.3,1-.4.43,0,.79-.59,1.24-.35m-1.34-4.41a1.63,1.63,0,0,1-1.3-.06c.19-.41.64-.16.95-.23.11.15.33,0,.35.29"/><path class="cls-11" d="M440.72,50.22c2,0,4.19-.18,6.21,0v-.76H436.82c0,.32,0,.81,0,.81a24.27,24.27,0,0,1,3.9,0"/><path class="cls-11" d="M439.16,53.89c-.56,0-1.18-.55-1.75-.74h-.28l-.28.07,0,8.57h10.11V53.12c-2.63-.31-4.93,1-7.78.77"/><path class="cls-11" d="M477.19,56c-.59-1.44.75-6.21-1.42-6.6a.8.8,0,0,0-.63.23,1.69,1.69,0,0,1,.73,1.13c-.51,1.12-1.56-.25-2.28.13v.91c-.3.25-.51.58-.93.45-.26-.29-.6-.49-.47-.9s.85-.34,1.23-.59l0,0c-.72-.17-.62-1.3-1.85-1.3h-2.33c-1.08.33-2.42.95-3.66,0l.23,1.54.15.52V52l.55.48-.57.49.19,1.18c.43.13.9.15.92.55-.08.64-.56,1.38-.58,2,0,.83.43,4.24.42,5.07a17,17,0,0,0,3-.35s.6.33.6.35c.75.07,1.75.26,1.5-1.06l-.55-3.49c-.65-1.79.55-2.24.95-2.26l.32.29a4.83,4.83,0,0,0-.2,1,.72.72,0,0,1,.1.5.5.5,0,0,1-.11.42c.12,1.62.9,3,.91,4.59h2.05l.74-.58L476,59.78l.08-1.36,0-2.53a7.55,7.55,0,0,1,1,.3ZM467,52a1.33,1.33,0,0,1-.55-1.29c.25-.6,1.11-.4,1.47-.15s.76.87,0,1.08c.07,1-.63.81-.93.36m2.29,8v-.77l-.58-.55-.24-.83a5.94,5.94,0,0,1,.26-3.2h0c-.21-.06-.55.13-.67-.14.19-.32-.09-.79.23-1.06.23,0,.81,0,.95.13a1.34,1.34,0,0,1-.26.89.73.73,0,0,1,.7.18,50.18,50.18,0,0,0,.37,6.26Zm1.41-8.33c.13.5-.56.59-.81.62a1,1,0,0,1-.46-1.18c.19-.19.35-.44.7-.34.19.31.73.46.57.9M472,53.44a1,1,0,0,1-1.07.66c-.28-.21-.19-.61-.25-.9s.67-.37.93-.3c.1.14.48.33.39.54m.86.65a1.16,1.16,0,0,1,.81-.37.86.86,0,0,1,.32.92c0,.27-.32.2-.53.2s-.69-.4-.6-.75m1.51,5.53c-.25.28-.18,1.55-.79.89-.65-1.7.23-2.88.38-4.4.38-.41.79-.56,1-.46.06,0,.38.78.43.79.07,1-.56,1.09.05,2.82-.16.29-.91.14-1.1.36m1.43-4.51c-.23,0-.75-.07-.79-.4s-.08-.86.73-.71c.59.15.83,1,.06,1.11"/><path class="cls-12" d="M463.28,36.58a11.82,11.82,0,0,1,1.45,0c.79.06,1.14.51,1.14,1.08,0,.74-.59,1.27-1.59,1.35a5.54,5.54,0,0,1-1,0Zm0,2.77a8.9,8.9,0,0,0,1.36,0c1.42-.24,2.15-.7,2.15-1.71s-.64-1.38-2.6-1.38H462.4V42l.44,0,.44,0Z"/><path class="cls-12" d="M469.57,40.09a4.28,4.28,0,0,1,0,.62,1.29,1.29,0,0,1-1.17,1.13.72.72,0,0,1-.8-.83c.1-.93.45-.81,1.56-1.15l.43-.14Zm0-.57-.16.07a5.46,5.46,0,0,1-1,.27c-.79.17-1.6.27-1.65,1.17,0,.57.58,1,1.25,1a1.52,1.52,0,0,0,1.54-.8V42h1.32v-.15h-.46V39.29c0-.67-.12-1.29-1.54-1.35a2.94,2.94,0,0,0-.77.05,3.83,3.83,0,0,0-.85.23v1.2h.2l.23-.5c.21-.43.39-.9,1.1-.84s.82.45.82.87Z"/><path class="cls-12" d="M473.31,42h-2v-.15h.49V38.2h-.51V38h1.27v.83a1.27,1.27,0,0,1,1.22-.85,1.44,1.44,0,0,1,.6.13v1.43h-.21l-.26-.66c-.18-.46-.32-.76-.6-.62-.74.35-.68,1.2-.68,2v1.53h.64Z"/><path class="cls-12" d="M475,42v-.15h.5V38.2H475V38h1.31v3.78h.44V42Zm1.37-4.84a.49.49,0,0,1-.53.44.5.5,0,0,1-.52-.43.53.53,0,0,1,1.05,0"/><path class="cls-12" d="M480,39c-.2-.62-.41-.86-1-.86s-1.11.16-1.15.66.52.62,1,.76c.84.24,1.83.49,1.8,1.28s-.77,1.3-1.79,1.28a3.6,3.6,0,0,1-1.47-.34V40.45h.19l.23.65c.25.73.53.74,1,.78.62,0,1.33-.2,1.38-.7s-.92-.79-1.55-1c-.44-.13-1.31-.38-1.31-1.12s1.13-1.15,1.72-1.15a3.32,3.32,0,0,1,1.28.27v1.18h-.2Z"/><path class="cls-1" d="M443.34,28.75H441.5V34a.41.41,0,0,1-.41.42h-.2a.41.41,0,0,1-.41-.42V28.75h-1.82a.39.39,0,0,1-.43-.39v-.15a.39.39,0,0,1,.41-.39h4.68a.39.39,0,0,1,.43.39v.15a.39.39,0,0,1-.41.39"/><path class="cls-1" d="M449.27,34.4H445a.38.38,0,0,1-.39-.39v-5.8a.38.38,0,0,1,.4-.39h4.07a.39.39,0,0,1,.42.39v.15a.39.39,0,0,1-.42.39h-3.44v1.91h3.16a.39.39,0,0,1,.42.39v.16a.38.38,0,0,1-.42.38h-3.16v1.88h3.64a.38.38,0,0,1,.41.39V34a.38.38,0,0,1-.41.39"/><path class="cls-1" d="M455.06,34.4h-4.32V28.24a.41.41,0,0,1,.41-.42h.2a.41.41,0,0,1,.41.42v5.23h3.3a.38.38,0,0,1,.41.39V34a.38.38,0,0,1-.41.39"/><path class="cls-1" d="M460.82,34.4h-4.28a.38.38,0,0,1-.39-.39v-5.8a.38.38,0,0,1,.4-.39h4.07a.39.39,0,0,1,.42.39v.15a.39.39,0,0,1-.42.39h-3.44v1.91h3.16a.39.39,0,0,1,.42.39v.16a.38.38,0,0,1-.42.38h-3.16v1.88h3.64a.38.38,0,0,1,.41.39V34a.38.38,0,0,1-.41.39"/><path class="cls-1" d="M466.54,34.4h-2.73a1.56,1.56,0,0,1-1.52-1.58V29.36a1.57,1.57,0,0,1,1.58-1.54h2.5a.39.39,0,0,1,.42.39v.15a.39.39,0,0,1-.42.39h-2.14a.82.82,0,0,0-.92.9v3c0,.65.42.86.94.86h2.29a.38.38,0,0,1,.41.39V34a.38.38,0,0,1-.41.39"/><path class="cls-1" d="M471.74,34.4h-2.26a1.55,1.55,0,0,1-1.54-1.56V29.35a1.57,1.57,0,0,1,1.59-1.53h2.16a1.57,1.57,0,0,1,1.59,1.53v3.49a1.56,1.56,0,0,1-1.54,1.56m.52-4.89a.77.77,0,0,0-.77-.76h-1.76a.76.76,0,0,0-.76.76V32.7a.75.75,0,0,0,.75.77h1.77a.76.76,0,0,0,.77-.77Z"/><path class="cls-1" d="M480.28,34.4h-.19a.42.42,0,0,1-.42-.42V29.6l-1.39,1.94c-.12.17-.23.3-.44.3h-.14c-.21,0-.32-.13-.45-.3l-1.38-1.94V34a.42.42,0,0,1-.42.42h-.2a.41.41,0,0,1-.41-.42V28.21a.37.37,0,0,1,.39-.39h.25c.18,0,.33.17.43.3l1.86,2.63,1.87-2.63c.1-.13.24-.3.42-.3h.25a.38.38,0,0,1,.39.39V34a.41.41,0,0,1-.42.42"/><path class="cls-13" d="M390.64,61.83h-.84l.11-2.85.75,0Zm2.37-.1-.28-2.84.74-.08.37,2.82-.83.1m3.16-.53-.66-2.77.72-.19L397,61l-.82.21m3.06-1-1-2.65.68-.28L400,59.92l-.78.32m2.9-1.37-1.39-2.48c.22-.12.43-.25.64-.38l1.48,2.44-.73.42m2.69-1.75-1.72-2.27.59-.46,1.79,2.21-.66.52m2.42-2.1-2-2c.18-.17.35-.35.52-.53l2.07,2-.58.6m2.11-2.41-2.26-1.73c.15-.19.3-.39.44-.59l2.32,1.64c-.16.23-.33.46-.5.68m1.77-2.68-2.48-1.4c.13-.21.24-.43.36-.65l2.52,1.31c-.13.25-.26.5-.4.74M412.51,47l-2.65-1c.09-.23.18-.46.26-.7l2.68,1c-.09.26-.19.53-.29.79m1-3.06-2.77-.68c.06-.23.12-.48.17-.72l2.78.58c-.05.27-.11.55-.18.82m.54-3.16-2.83-.29c0-.25.05-.49.06-.74l2.84.19c0,.28,0,.56-.07.84m-2.73-3.11c0-.25,0-.5,0-.74l2.84-.2c0,.28,0,.56,0,.84ZM411,34.9c0-.24-.08-.48-.13-.72l2.78-.58c.06.27.11.55.16.83Zm-.66-2.73c-.08-.23-.15-.47-.24-.7l2.68-1,.27.8Zm-1-2.62c-.1-.22-.21-.44-.33-.65l2.52-1.32c.13.24.26.49.38.75Zm-1.38-2.45-.42-.61,2.32-1.65c.16.23.32.46.47.7Zm-1.71-2.24-.5-.55,2.08-1.95.56.63Zm-2-2-.56-.47,1.79-2.22.64.55ZM402,21.17l-.63-.39,1.47-2.44.71.45ZM379.9,20.9l-1.5-2.41c.24-.15.48-.3.72-.43l1.41,2.47-.63.37m19.61-1.1-.68-.31L400,16.88l.77.34Zm-17.12-.21L381.23,17l.78-.33,1.06,2.64-.68.29m14.49-.82-.71-.21.76-2.74.8.23ZM385,18.63l-.78-2.74.81-.22.69,2.76-.72.2m9.11-.52-.73-.1.37-2.82c.28,0,.56.07.83.12ZM387.79,18l-.4-2.82.83-.11.3,2.83-.73.1m3.55-.2h-.74l0-2.84h.85Z"/><path class="cls-13" d="M394.28,56l-.56-2.79c.24,0,.48-.09.71-.15l.69,2.75a7.86,7.86,0,0,1-.84.19m3.14-.93-1.06-2.64.66-.29,1.19,2.59-.79.34m2.91-1.49-1.53-2.4.6-.4L401,53.12c-.23.17-.47.33-.71.48m2.59-2L401,49.52c.18-.16.35-.33.52-.5l2,2c-.2.21-.4.4-.61.6m2.19-2.43-2.28-1.7.42-.59,2.35,1.59c-.16.24-.32.47-.49.7m1.71-2.78-2.55-1.27c.11-.21.21-.43.31-.65l2.6,1.14q-.17.39-.36.78m1.18-3-2.73-.78.18-.7,2.77.65c-.06.28-.14.55-.22.83m.61-3.22-2.83-.27c0-.24,0-.48.05-.72l2.84.14c0,.28,0,.57-.06.85m-2.82-3c0-.24-.05-.48-.08-.72l2.82-.38c0,.29.07.57.1.86Zm-.48-2.71q-.09-.34-.21-.69l2.71-.88c.09.27.17.54.24.82Zm-1-2.58c-.1-.21-.21-.43-.33-.64l2.5-1.36c.14.25.27.51.4.77Zm-1.41-2.35-.44-.57,2.21-1.79c.18.22.35.45.52.68Zm-1.82-2.06c-.18-.16-.36-.33-.54-.48l1.85-2.16c.22.18.43.37.64.57Zm-2.17-1.7-.62-.38,1.43-2.46.74.45Zm-2.44-1.28-.67-.26,1-2.68.8.31Zm-11.45-.05L384,21.74l.81-.3.93,2.69-.67.25m8.82-.77-.7-.13.45-2.81.85.16Zm-6.19,0-.56-2.79c.27-.06.56-.11.84-.15l.43,2.81-.71.13m3.46-.3h-.72l-.06-2.85c.29,0,.58,0,.86,0Z"/><path class="cls-13" d="M402,42.87l-2.66-1c.08-.22.15-.43.21-.65l2.74.79c-.09.28-.18.57-.29.85m.72-3.34-2.84-.19c0-.2,0-.4,0-.59v-.09l2.85,0v.11c0,.27,0,.53,0,.79m-3-2.78q-.07-.33-.18-.66l2.72-.83c.09.29.17.58.23.87Zm-.93-2.42c-.11-.2-.23-.4-.36-.59l2.38-1.57c.16.25.32.51.46.77Zm-1.58-2.06c-.16-.16-.33-.31-.5-.46l1.82-2.18c.23.19.46.39.67.6Zm-2.1-1.53-.46-.22-.15-.07,1.13-2.61.21.09.6.29Zm-2.45-.87-.67-.11.35-2.82c.29,0,.59.08.89.14Z"/><path class="cls-14" d="M364.36,42.69h-2.14a2.1,2.1,0,0,1-2.38-2.2v-4a2.11,2.11,0,0,1,2.38-2.21h2.27v1.16h-2.27c-.94,0-1.1.48-1.1,1.17v1.19h3.22V39h-3.22v1.36c0,.69.16,1.15,1.1,1.15h2.32v1a.19.19,0,0,1-.18.19"/><path class="cls-14" d="M370.29,42.69l-2.89-6.5c0-.09-.1-.16-.13-.23v6.73H366V34.31h.92c.95,0,1.21.48,1.61,1.36l1.57,3.49.47,1.32-.09-1.32V34.31h1.26v8.38Z"/><path class="cls-14" d="M375.41,42.78a9.94,9.94,0,0,1-2.46-.44l.26-1.17a8.77,8.77,0,0,0,2.2.44c1,0,1.4-.57,1.4-1.17,0-1.9-3.72-1.19-3.72-3.94a2.34,2.34,0,0,1,2.63-2.28,7.4,7.4,0,0,1,2.15.43l-.35,1.1a5.76,5.76,0,0,0-1.79-.36c-1,0-1.33.52-1.33,1.11,0,1.62,3.72,1,3.72,3.94,0,1.43-1.09,2.34-2.71,2.34"/><path class="cls-14" d="M384.39,42.69l-.65-2.41h-3.11L380,42.69h-1.3l1.92-7.07a1.59,1.59,0,0,1,3.15,0l1.92,7.07ZM382.56,36c-.11-.45-.21-.57-.39-.57s-.24.12-.36.57l-.87,3.21h2.49Z"/><path class="cls-14" d="M391.32,42.69h-2.15a2.09,2.09,0,0,1-2.37-2.2v-4a2.1,2.1,0,0,1,2.37-2.21h2.28v1.16h-2.28c-.94,0-1.1.48-1.1,1.17v1.19h3.22V39h-3.22v1.36c0,.69.16,1.15,1.1,1.15h2.32v1a.19.19,0,0,1-.17.19"/></svg>