<?xml version="1.0" encoding="UTF-8"?>
<svg xmlns="http://www.w3.org/2000/svg" xmlns:xlink="http://www.w3.org/1999/xlink" width="204.24pt" height="288.25pt" viewBox="0 0 204.24 288.25" version="1.1">
<g id="surface1">
<path style=" stroke:none;fill-rule:nonzero;fill:rgb(100%,100%,100%);fill-opacity:1;" d="M 43.191406 243.566406 C 36.535156 238.988281 32.949219 236.542969 29.582031 234.042969 C 27.964844 236.71875 27.03125 239.855469 27.03125 243.210938 C 27.03125 249.296875 30.097656 254.664062 34.773438 257.855469 C 36.71875 254.019531 39.335938 249.742188 43.191406 243.566406 "/>
<path style=" stroke:none;fill-rule:nonzero;fill:rgb(100%,100%,100%);fill-opacity:1;" d="M 60.621094 247.101562 C 57.878906 250.011719 53.488281 250.4375 50.347656 248.457031 C 49.742188 248.078125 45.410156 245.089844 45.410156 245.089844 C 40.628906 251.847656 38.167969 255.238281 35.53125 258.347656 C 38.21875 259.988281 41.375 260.933594 44.753906 260.933594 C 54.257812 260.933594 62.011719 253.457031 62.457031 244.0625 C 62.070312 245.191406 61.441406 246.242188 60.621094 247.101562 "/>
<path style=" stroke:none;fill-rule:nonzero;fill:rgb(100%,100%,100%);fill-opacity:1;" d="M 57.34375 237.117188 C 56.753906 236.730469 52.957031 234.203125 52.957031 234.203125 C 49.84375 238.792969 49.355469 239.464844 46.976562 242.871094 C 46.976562 242.871094 51.113281 245.550781 51.707031 245.917969 C 53.847656 247.234375 56.6875 246.84375 58.355469 244.988281 C 58.996094 244.273438 59.453125 243.390625 59.625 242.457031 C 59.957031 240.734375 59.410156 238.476562 57.34375 237.117188 "/>
<path style=" stroke:none;fill-rule:nonzero;fill:rgb(100%,100%,100%);fill-opacity:1;" d="M 44.585938 241.332031 C 46.835938 237.75 48.863281 234.558594 52.058594 229.734375 C 52.058594 229.734375 58.757812 234.152344 59.351562 234.578125 C 60.058594 235.082031 60.570312 235.582031 60.976562 236.070312 C 58.230469 229.839844 52 225.484375 44.753906 225.484375 C 38.976562 225.484375 33.847656 228.25 30.613281 232.527344 C 34.179688 234.644531 38.445312 237.386719 44.585938 241.332031 "/>
<path style=" stroke:none;fill-rule:nonzero;fill:rgb(100%,100%,100%);fill-opacity:1;" d="M 27.996094 230.449219 C 28 229.214844 27.003906 228.210938 25.769531 228.207031 C 24.535156 228.203125 23.53125 229.199219 23.527344 230.433594 C 23.523438 231.667969 24.519531 232.671875 25.753906 232.675781 C 26.988281 232.679688 27.992188 231.683594 27.996094 230.449219 "/>
<path style=" stroke:none;fill-rule:nonzero;fill:rgb(100%,100%,100%);fill-opacity:1;" d="M 31.570312 224.597656 C 31.925781 224.34375 32.007812 223.988281 31.804688 223.710938 L 31.800781 223.703125 C 31.578125 223.390625 31.234375 223.386719 30.882812 223.636719 L 30.339844 224.027344 L 31.027344 224.988281 Z M 29.5625 223.933594 L 30.617188 223.183594 C 31.238281 222.738281 31.886719 222.8125 32.269531 223.351562 L 32.277344 223.355469 C 32.703125 223.957031 32.445312 224.613281 31.859375 225.03125 L 31.328125 225.410156 L 31.941406 226.269531 L 31.472656 226.605469 L 29.5625 223.933594 "/>
<path style=" stroke:none;fill-rule:nonzero;fill:rgb(100%,100%,100%);fill-opacity:1;" d="M 36.519531 221.851562 L 36.515625 221.84375 C 36.253906 221.261719 35.617188 220.964844 35.019531 221.226562 C 34.421875 221.492188 34.21875 222.152344 34.476562 222.734375 L 34.480469 222.742188 C 34.738281 223.328125 35.375 223.625 35.972656 223.359375 C 36.570312 223.097656 36.777344 222.4375 36.519531 221.851562 M 33.929688 222.996094 L 33.925781 222.988281 C 33.550781 222.144531 33.894531 221.144531 34.816406 220.738281 C 35.738281 220.332031 36.691406 220.746094 37.0625 221.59375 L 37.066406 221.601562 C 37.441406 222.445312 37.101562 223.441406 36.179688 223.851562 C 35.253906 224.257812 34.304688 223.84375 33.929688 222.996094 "/>
<path style=" stroke:none;fill-rule:nonzero;fill:rgb(100%,100%,100%);fill-opacity:1;" d="M 38.460938 219.5 L 39.027344 219.378906 L 39.617188 222.070312 L 41.300781 221.703125 L 41.414062 222.214844 L 39.164062 222.707031 L 38.460938 219.5 "/>
<path style=" stroke:none;fill-rule:nonzero;fill:rgb(100%,100%,100%);fill-opacity:1;" d="M 43.101562 220.753906 L 41.683594 218.847656 L 42.363281 218.808594 L 43.367188 220.203125 L 44.207031 218.695312 L 44.867188 218.65625 L 43.683594 220.707031 L 43.761719 222.015625 L 43.179688 222.046875 L 43.101562 220.753906 "/>
<path style=" stroke:none;fill-rule:nonzero;fill:rgb(100%,100%,100%);fill-opacity:1;" d="M 47.222656 219.371094 L 46.1875 219.253906 L 46.25 218.722656 L 48.894531 219.027344 L 48.835938 219.558594 L 47.800781 219.4375 L 47.484375 222.167969 L 46.90625 222.101562 L 47.222656 219.371094 "/>
<path style=" stroke:none;fill-rule:nonzero;fill:rgb(100%,100%,100%);fill-opacity:1;" d="M 50.851562 219.453125 L 53.179688 220.167969 L 53.027344 220.660156 L 51.253906 220.117188 L 51.003906 220.933594 L 52.578125 221.414062 L 52.425781 221.910156 L 50.851562 221.425781 L 50.59375 222.269531 L 52.390625 222.820312 L 52.238281 223.3125 L 49.890625 222.59375 L 50.851562 219.453125 "/>
<path style=" stroke:none;fill-rule:nonzero;fill:rgb(100%,100%,100%);fill-opacity:1;" d="M 54.316406 222.40625 L 54.320312 222.398438 C 54.765625 221.578125 55.742188 221.234375 56.617188 221.707031 C 57.152344 221.992188 57.371094 222.351562 57.507812 222.765625 L 56.976562 222.964844 C 56.863281 222.628906 56.691406 222.347656 56.363281 222.171875 C 55.808594 221.871094 55.164062 222.109375 54.859375 222.675781 L 54.855469 222.683594 C 54.550781 223.25 54.699219 223.925781 55.253906 224.226562 C 55.609375 224.417969 55.914062 224.394531 56.285156 224.296875 L 56.433594 224.804688 C 55.964844 224.957031 55.527344 224.976562 54.984375 224.683594 C 54.144531 224.230469 53.871094 223.234375 54.316406 222.40625 "/>
<path style=" stroke:none;fill-rule:nonzero;fill:rgb(100%,100%,100%);fill-opacity:1;" d="M 59.433594 223.542969 L 59.875 223.914062 L 58.996094 224.960938 L 60.199219 225.96875 L 61.078125 224.921875 L 61.519531 225.292969 L 59.410156 227.808594 L 58.964844 227.4375 L 59.855469 226.378906 L 58.65625 225.371094 L 57.765625 226.433594 L 57.324219 226.0625 L 59.433594 223.542969 "/>
<path style=" stroke:none;fill-rule:nonzero;fill:rgb(100%,100%,100%);fill-opacity:1;" d="M 63.265625 227.101562 L 63.59375 227.527344 L 62.875 230.304688 L 64.667969 228.914062 L 65.015625 229.363281 L 62.421875 231.375 L 62.125 230.992188 L 62.863281 228.132812 L 61.019531 229.5625 L 60.671875 229.113281 L 63.265625 227.101562 "/>
<path style=" stroke:none;fill-rule:nonzero;fill:rgb(100%,100%,100%);fill-opacity:1;" d="M 66.152344 231.269531 L 66.429688 231.773438 L 63.546875 233.34375 L 63.269531 232.839844 L 66.152344 231.269531 "/>
<path style=" stroke:none;fill-rule:nonzero;fill:rgb(100%,100%,100%);fill-opacity:1;" d="M 65.617188 236.660156 L 65.886719 235.972656 L 66.40625 236.183594 L 66.101562 236.886719 C 66.304688 236.9375 66.519531 236.921875 66.738281 236.847656 L 66.746094 236.847656 C 67.351562 236.636719 67.699219 236.027344 67.488281 235.410156 C 67.277344 234.792969 66.636719 234.53125 66.03125 234.738281 L 66.023438 234.742188 C 65.421875 234.949219 65.070312 235.5625 65.28125 236.179688 C 65.351562 236.382812 65.472656 236.542969 65.617188 236.660156 M 65.394531 237.1875 C 65.117188 236.988281 64.902344 236.707031 64.777344 236.34375 C 64.449219 235.386719 64.945312 234.472656 65.820312 234.171875 L 65.828125 234.171875 C 66.703125 233.871094 67.664062 234.292969 67.992188 235.246094 C 68.320312 236.203125 67.828125 237.113281 66.953125 237.414062 L 66.941406 237.417969 C 66.59375 237.539062 66.222656 237.542969 65.882812 237.429688 L 65.703125 237.890625 L 65.191406 237.671875 L 65.394531 237.1875 "/>
<path style=" stroke:none;fill-rule:nonzero;fill:rgb(100%,100%,100%);fill-opacity:1;" d="M 67.058594 239.183594 L 68.933594 238.964844 L 69 239.535156 L 67.148438 239.757812 C 66.539062 239.828125 66.253906 240.175781 66.3125 240.6875 C 66.371094 241.195312 66.71875 241.472656 67.316406 241.402344 L 69.195312 241.183594 L 69.261719 241.753906 L 67.410156 241.972656 C 66.4375 242.085938 65.886719 241.59375 65.785156 240.742188 C 65.683594 239.894531 66.109375 239.296875 67.058594 239.183594 "/>
<path style=" stroke:none;fill-rule:nonzero;fill:rgb(100%,100%,100%);fill-opacity:1;" d="M 69.28125 243.976562 L 69.09375 246.402344 L 68.582031 246.363281 L 68.722656 244.511719 L 67.871094 244.445312 L 67.742188 246.085938 L 67.230469 246.046875 L 67.355469 244.40625 L 66.476562 244.339844 L 66.332031 246.214844 L 65.820312 246.171875 L 66.007812 243.722656 L 69.28125 243.976562 "/>
<path style=" stroke:none;fill-rule:nonzero;fill:rgb(100%,100%,100%);fill-opacity:1;" d="M 30.789062 263.363281 L 30.316406 263.03125 L 32.21875 260.351562 L 32.691406 260.6875 L 30.789062 263.363281 "/>
<path style=" stroke:none;fill-rule:nonzero;fill:rgb(100%,100%,100%);fill-opacity:1;" d="M 28.371094 261.507812 L 27.992188 261.128906 L 28.363281 258.277344 L 26.753906 259.878906 L 26.355469 259.476562 L 28.683594 257.164062 L 29.023438 257.507812 L 28.640625 260.4375 L 30.296875 258.789062 L 30.699219 259.191406 L 28.371094 261.507812 "/>
<path style=" stroke:none;fill-rule:nonzero;fill:rgb(100%,100%,100%);fill-opacity:1;" d="M 27.355469 256.265625 L 26.820312 256.203125 C 26.875 255.789062 26.832031 255.441406 26.605469 255.101562 C 26.410156 254.804688 26.148438 254.707031 25.941406 254.84375 L 25.933594 254.847656 C 25.738281 254.976562 25.703125 255.15625 25.921875 255.742188 C 26.164062 256.417969 26.210938 256.863281 25.703125 257.195312 L 25.695312 257.203125 C 25.226562 257.511719 24.644531 257.332031 24.285156 256.785156 C 24.023438 256.390625 23.933594 255.992188 23.972656 255.566406 L 24.507812 255.585938 C 24.488281 255.953125 24.550781 256.265625 24.71875 256.515625 C 24.902344 256.796875 25.15625 256.867188 25.335938 256.746094 L 25.34375 256.742188 C 25.554688 256.601562 25.566406 256.414062 25.347656 255.808594 C 25.105469 255.136719 25.113281 254.695312 25.570312 254.398438 L 25.578125 254.394531 C 26.089844 254.054688 26.660156 254.257812 27.042969 254.832031 C 27.316406 255.253906 27.433594 255.742188 27.355469 256.265625 "/>
<path style=" stroke:none;fill-rule:nonzero;fill:rgb(100%,100%,100%);fill-opacity:1;" d="M 22.851562 252.96875 L 23.261719 253.925781 L 22.769531 254.136719 L 21.71875 251.6875 L 22.210938 251.476562 L 22.621094 252.4375 L 25.148438 251.351562 L 25.375 251.886719 L 22.851562 252.96875 "/>
<path style=" stroke:none;fill-rule:nonzero;fill:rgb(100%,100%,100%);fill-opacity:1;" d="M 21.175781 249.914062 L 21.027344 249.355469 L 24.195312 248.496094 L 24.347656 249.054688 L 21.175781 249.914062 "/>
<path style=" stroke:none;fill-rule:nonzero;fill:rgb(100%,100%,100%);fill-opacity:1;" d="M 21 246.457031 L 21.128906 247.488281 L 20.597656 247.554688 L 20.269531 244.910156 L 20.796875 244.84375 L 20.925781 245.878906 L 23.65625 245.535156 L 23.726562 246.113281 L 21 246.457031 "/>
<path style=" stroke:none;fill-rule:nonzero;fill:rgb(100%,100%,100%);fill-opacity:1;" d="M 22.089844 243.140625 L 20.203125 243.019531 L 20.242188 242.441406 L 22.105469 242.5625 C 22.714844 242.601562 23.058594 242.3125 23.09375 241.792969 C 23.128906 241.285156 22.839844 240.953125 22.234375 240.910156 L 20.347656 240.789062 L 20.382812 240.214844 L 22.242188 240.335938 C 23.222656 240.398438 23.675781 240.980469 23.621094 241.839844 C 23.566406 242.691406 23.042969 243.203125 22.089844 243.140625 "/>
<path style=" stroke:none;fill-rule:nonzero;fill:rgb(100%,100%,100%);fill-opacity:1;" d="M 21.472656 237.46875 L 21.210938 238.476562 L 20.691406 238.34375 L 21.363281 235.761719 L 21.878906 235.898438 L 21.617188 236.90625 L 24.277344 237.597656 L 24.132812 238.160156 L 21.472656 237.46875 "/>
<path style=" stroke:none;fill-rule:nonzero;fill:rgb(100%,100%,100%);fill-opacity:1;" d="M 38.0625 265.804688 C 38.570312 265.945312 38.953125 265.832031 39.089844 265.355469 L 39.09375 265.34375 C 39.230469 264.867188 38.960938 264.566406 38.457031 264.421875 L 38.273438 264.367188 L 37.878906 265.75 Z M 37.441406 263.09375 L 38.707031 263.453125 C 40.023438 263.824219 40.492188 264.660156 40.214844 265.640625 L 40.210938 265.648438 C 39.933594 266.628906 39.066406 267.132812 37.726562 266.75 L 36.5 266.398438 L 37.441406 263.09375 "/>
<path style=" stroke:none;fill-rule:nonzero;fill:rgb(100%,100%,100%);fill-opacity:1;" d="M 42.308594 264.246094 L 45.238281 264.390625 L 45.191406 265.332031 L 43.390625 265.242188 L 43.371094 265.589844 L 45.050781 265.671875 L 45.011719 266.503906 L 43.332031 266.421875 L 43.3125 266.792969 L 45.140625 266.882812 L 45.09375 267.828125 L 42.140625 267.683594 L 42.308594 264.246094 "/>
<path style=" stroke:none;fill-rule:nonzero;fill:rgb(100%,100%,100%);fill-opacity:1;" d="M 51.46875 265.039062 C 51.753906 264.953125 51.902344 264.769531 51.828125 264.53125 L 51.828125 264.523438 C 51.753906 264.285156 51.542969 264.214844 51.25 264.304688 L 50.949219 264.394531 L 51.175781 265.128906 Z M 49.582031 263.851562 L 51.0625 263.402344 C 51.9375 263.136719 52.652344 263.34375 52.890625 264.121094 L 52.894531 264.132812 C 53.136719 264.925781 52.660156 265.53125 51.769531 265.804688 L 51.414062 265.914062 L 51.6875 266.808594 L 50.585938 267.144531 L 49.582031 263.851562 "/>
<path style=" stroke:none;fill-rule:nonzero;fill:rgb(100%,100%,100%);fill-opacity:1;" d="M 56.550781 263.332031 L 55.863281 262.757812 L 56.003906 263.640625 Z M 54.707031 261.859375 L 55.699219 261.296875 L 58.671875 263.59375 L 57.589844 264.210938 L 57.203125 263.898438 L 56.15625 264.492188 L 56.226562 264.980469 L 55.160156 265.589844 L 54.707031 261.859375 "/>
<path style=" stroke:none;fill-rule:nonzero;fill:rgb(100%,100%,100%);fill-opacity:1;" d="M 60.378906 259.808594 C 60.582031 259.621094 60.621094 259.414062 60.476562 259.261719 L 60.46875 259.257812 C 60.316406 259.09375 60.117188 259.132812 59.921875 259.3125 L 59.558594 259.65625 L 60.015625 260.148438 Z M 58.058594 259.734375 L 59.289062 258.589844 C 59.734375 258.171875 60.121094 258.019531 60.464844 258.03125 C 60.753906 258.039062 61.007812 258.152344 61.25 258.410156 L 61.257812 258.417969 C 61.597656 258.785156 61.644531 259.21875 61.476562 259.652344 L 62.863281 259.960938 L 61.902344 260.855469 L 60.757812 260.578125 L 60.75 260.585938 L 60.578125 260.746094 L 61.246094 261.46875 L 60.40625 262.253906 L 58.058594 259.734375 "/>
<path style=" stroke:none;fill-rule:nonzero;fill:rgb(100%,100%,100%);fill-opacity:1;" d="M 61.507812 256.15625 L 62.1875 255.226562 L 64.960938 257.261719 L 64.28125 258.191406 L 61.507812 256.15625 "/>
<path style=" stroke:none;fill-rule:nonzero;fill:rgb(100%,100%,100%);fill-opacity:1;" d="M 65.679688 255.273438 L 65.289062 254.398438 C 65.710938 254.1875 66.003906 253.855469 66.179688 253.492188 C 66.269531 253.308594 66.261719 253.207031 66.175781 253.164062 L 66.167969 253.160156 C 66.078125 253.117188 65.980469 253.191406 65.753906 253.488281 C 65.277344 254.113281 64.78125 254.628906 64.125 254.308594 L 64.117188 254.304688 C 63.53125 254.019531 63.296875 253.335938 63.710938 252.484375 C 64.003906 251.890625 64.359375 251.515625 64.816406 251.292969 L 65.269531 252.140625 C 64.914062 252.328125 64.652344 252.628906 64.511719 252.917969 C 64.4375 253.074219 64.457031 253.167969 64.53125 253.207031 L 64.539062 253.210938 C 64.625 253.25 64.71875 253.191406 64.941406 252.894531 C 65.46875 252.175781 65.957031 251.757812 66.582031 252.0625 L 66.589844 252.066406 C 67.238281 252.378906 67.378906 253.109375 66.972656 253.941406 C 66.667969 254.566406 66.214844 255.046875 65.679688 255.273438 "/>
<path style=" stroke:none;fill-rule:nonzero;fill:rgb(100%,100%,100%);fill-opacity:1;" d="M 79.117188 235.621094 L 82.449219 235.621094 L 82.449219 250.769531 L 79.117188 250.769531 L 79.117188 235.621094 "/>
<path style=" stroke:none;fill-rule:nonzero;fill:rgb(100%,100%,100%);fill-opacity:1;" d="M 94.855469 243.261719 L 92.214844 243.261719 L 92.214844 238.628906 L 94.789062 238.628906 C 96.457031 238.628906 97.496094 239.453125 97.496094 240.945312 C 97.496094 242.242188 96.523438 243.261719 94.855469 243.261719 M 95.070312 235.621094 L 88.882812 235.621094 L 88.882812 250.769531 L 92.214844 250.769531 L 92.214844 246.226562 L 94.746094 246.226562 C 98.144531 246.226562 100.871094 244.386719 100.871094 240.878906 C 100.871094 237.785156 98.6875 235.621094 95.070312 235.621094 "/>
<path style=" stroke:none;fill-rule:nonzero;fill:rgb(100%,100%,100%);fill-opacity:1;" d="M 117.695312 243.261719 L 115.054688 243.261719 L 115.054688 238.628906 L 117.628906 238.628906 C 119.296875 238.628906 120.335938 239.453125 120.335938 240.945312 C 120.335938 242.242188 119.359375 243.261719 117.695312 243.261719 M 117.910156 235.621094 L 111.722656 235.621094 L 111.722656 250.769531 L 115.054688 250.769531 L 115.054688 246.226562 L 117.585938 246.226562 C 120.984375 246.226562 123.710938 244.386719 123.710938 240.878906 C 123.710938 237.785156 121.527344 235.621094 117.910156 235.621094 "/>
<path style=" stroke:none;fill-rule:nonzero;fill:rgb(100%,100%,100%);fill-opacity:1;" d="M 135.53125 244.429688 L 133.519531 239.515625 L 131.507812 244.429688 Z M 132.023438 235.511719 L 135.097656 235.511719 L 141.59375 250.769531 L 138.105469 250.769531 L 136.722656 247.375 L 130.316406 247.375 L 128.929688 250.769531 L 125.53125 250.769531 L 132.023438 235.511719 "/>
<path style=" stroke:none;fill-rule:nonzero;fill:rgb(100%,100%,100%);fill-opacity:1;" d="M 152.480469 242.980469 C 154.105469 242.980469 155.035156 242.113281 155.035156 240.835938 L 155.035156 240.792969 C 155.035156 239.363281 154.039062 238.628906 152.414062 238.628906 L 149.105469 238.628906 L 149.105469 242.980469 Z M 145.769531 235.621094 L 152.695312 235.621094 C 154.625 235.621094 156.117188 236.160156 157.113281 237.15625 C 157.957031 238 158.410156 239.191406 158.410156 240.621094 L 158.410156 240.664062 C 158.410156 243.109375 157.089844 244.644531 155.164062 245.359375 L 158.863281 250.769531 L 154.96875 250.769531 L 151.722656 245.921875 L 149.105469 245.921875 L 149.105469 250.769531 L 145.769531 250.769531 L 145.769531 235.621094 "/>
<path style=" stroke:none;fill-rule:nonzero;fill:rgb(100%,100%,100%);fill-opacity:1;" d="M 164.066406 235.621094 L 167.398438 235.621094 L 167.398438 250.769531 L 164.066406 250.769531 L 164.066406 235.621094 "/>
<path style=" stroke:none;fill-rule:nonzero;fill:rgb(100%,100%,100%);fill-opacity:1;" d="M 179.503906 241.703125 C 176.882812 241.03125 176.234375 240.6875 176.234375 239.6875 C 176.234375 238.953125 176.90625 238.347656 178.183594 238.347656 C 179.460938 238.347656 180.78125 238.910156 182.121094 239.839844 L 183.855469 237.332031 C 182.316406 236.097656 180.433594 235.402344 178.226562 235.402344 C 175.132812 235.402344 172.921875 237.242188 172.921875 239.992188 C 172.921875 243 174.894531 243.867188 177.941406 244.644531 C 180.476562 245.296875 180.996094 245.75 180.996094 246.59375 C 180.996094 247.480469 180.175781 248.042969 178.808594 248.042969 C 177.078125 248.042969 175.648438 247.332031 174.285156 246.207031 L 172.316406 248.5625 C 174.136719 250.1875 176.449219 250.988281 178.746094 250.988281 C 182.011719 250.988281 184.308594 249.277344 184.308594 246.269531 C 184.308594 243.628906 182.574219 242.503906 179.503906 241.703125 "/>
<path style=" stroke:none;fill-rule:nonzero;fill:rgb(100%,100%,100%);fill-opacity:1;" d="M 183.746094 206.996094 L 20.421875 206.996094 L 20.421875 205.589844 L 183.746094 205.589844 L 183.746094 206.996094 "/>
<path style=" stroke:none;fill-rule:nonzero;fill:rgb(100%,100%,100%);fill-opacity:1;" d="M 14.570312 189.351562 L 189.402344 189.351562 L 189.402344 14.703125 L 14.570312 14.703125 L 14.570312 189.351562 "/>
<path style=" stroke:none;fill-rule:nonzero;fill:rgb(13.729858%,12.159729%,12.548828%);fill-opacity:1;" d="M 183.683594 132.867188 L 20.289062 132.867188 L 20.289062 20.421875 L 183.683594 20.421875 L 183.683594 132.867188 "/>
<path style=" stroke:none;fill-rule:nonzero;fill:rgb(78.215027%,9.346008%,31.622314%);fill-opacity:1;" d="M 183.542969 183.644531 L 183.476562 140.445312 L 176.152344 140.445312 C 175.390625 141.464844 175.902344 146.042969 173.585938 146.917969 C 165.734375 145.15625 172.890625 144.265625 170.195312 140.445312 C 169.855469 140.464844 166.65625 140.445312 166.316406 140.445312 C 166.683594 140.496094 168.050781 142.03125 166.003906 143.789062 C 163.253906 161.898438 168.308594 169.277344 165.753906 183.632812 L 183.542969 183.644531 "/>
<path style=" stroke:none;fill-rule:nonzero;fill:rgb(78.215027%,9.346008%,31.622314%);fill-opacity:1;" d="M 66.695312 153.820312 C 69.632812 152.4375 69.65625 149.367188 69.792969 147.351562 C 68.902344 146.355469 65.414062 146.292969 64.019531 146.546875 C 62.085938 148.167969 63.765625 151.058594 62.609375 152.9375 C 63.371094 154.5625 65.414062 153.425781 66.695312 153.820312 "/>
<path style=" stroke:none;fill-rule:nonzero;fill:rgb(78.215027%,9.346008%,31.622314%);fill-opacity:1;" d="M 83.484375 175.253906 L 84.355469 175.503906 C 85.152344 175.664062 86.234375 175.699219 87.066406 175.347656 C 86.847656 174.769531 86.554688 174.222656 86.199219 173.777344 C 85.246094 174.234375 84.335938 174.714844 83.484375 175.253906 "/>
<path style=" stroke:none;fill-rule:nonzero;fill:rgb(78.215027%,9.346008%,31.622314%);fill-opacity:1;" d="M 83.714844 155.710938 C 81.941406 151.003906 88.347656 149.085938 90.816406 146.210938 L 94.128906 148.058594 C 93.769531 151.273438 87.898438 151.867188 88.253906 155.351562 C 88.867188 155.871094 89.402344 156.746094 90.199219 156.914062 C 90.480469 157.78125 89.753906 158.3125 89.226562 158.835938 C 86.652344 159.875 85.324219 157.351562 83.714844 155.710938 M 87.070312 175.347656 C 87.765625 177.085938 87.847656 179.234375 87.011719 180.597656 L 78.4375 180.894531 L 78.4375 179.796875 C 79.945312 177.816406 81.609375 176.414062 83.484375 175.253906 L 81.761719 174.769531 C 79.316406 173.097656 85.078125 170.695312 85.96875 170.039062 L 88.285156 173.746094 C 88.214844 174.585938 87.71875 175.070312 87.070312 175.347656 M 70.011719 179.46875 C 68.167969 176.28125 70.320312 170.96875 70.828125 167.929688 C 71.261719 167.492188 71.710938 166.902344 72.460938 167.136719 C 72.972656 168.804688 70.527344 169.890625 72.164062 171.328125 C 73.855469 170.828125 76.078125 172.351562 77.777344 171.046875 C 76.890625 169.597656 75.042969 170.328125 73.785156 169.742188 L 73.785156 168.949219 L 77.570312 168.722656 C 78.15625 169.523438 80.832031 170.28125 80.242188 171.8125 C 77.722656 175.363281 73.417969 177.4375 70.011719 179.46875 M 67.035156 161.492188 C 67.425781 160.839844 68.199219 161.226562 68.757812 161.121094 C 68.960938 162.71875 71.449219 160.742188 70.492188 162.824219 L 70.210938 162.824219 C 69.15625 163.375 67.425781 162.824219 67.035156 161.492188 M 71.941406 162.429688 C 73.222656 161.683594 75.007812 161.804688 74.710938 164.269531 L 72.636719 164.269531 C 72.238281 163.773438 71.636719 163.277344 71.941406 162.429688 M 73.496094 145.070312 C 73.855469 144.492188 74.382812 143.394531 75.421875 143.753906 C 75.335938 144.621094 74.894531 146.230469 73.496094 145.570312 Z M 75.933594 164.519531 C 77.929688 164.953125 80.085938 163.4375 81.550781 165.023438 C 80.890625 166.410156 80.890625 168.722656 78.59375 167.414062 C 77.570312 166.613281 75.261719 166.976562 75.421875 165.023438 Z M 76.152344 146.375 C 76.304688 144.710938 78.300781 145.363281 79.410156 144.851562 L 79.636719 145.570312 C 78.59375 146.375 77.851562 148.117188 76.152344 147.460938 Z M 82.078125 159.007812 C 80.8125 159.875 78.679688 159.578125 77.261719 159.285156 C 77.628906 158.71875 77.714844 158.050781 77.777344 157.40625 C 78.679688 156.679688 79.636719 155.085938 81.261719 155.589844 C 81.925781 156.527344 82.222656 157.699219 82.078125 159.007812 M 82.039062 145.816406 L 81.679688 150.351562 C 81.5 151.066406 80.957031 152.480469 79.683594 151.945312 C 78.136719 152.3125 78.949219 150.433594 78.773438 149.738281 C 80.132812 148.578125 80.503906 146.078125 82.039062 145.816406 M 67.640625 159.285156 L 66.535156 159.285156 C 64.980469 158.71875 61.570312 157.917969 61.433594 156.105469 C 63.582031 156.679688 65.5 157.765625 67.640625 158.492188 Z M 94.359375 164.003906 C 92.289062 164.078125 90.507812 167.0625 88.734375 165.824219 C 89.773438 162.914062 92.058594 160.53125 93.027344 157.699219 C 94.730469 153.839844 97.503906 145.425781 96.320312 140.417969 L 88.378906 140.417969 C 85.789062 141.148438 87.707031 147.832031 85.03125 148.269531 C 84.296875 146.441406 84.511719 144.265625 82.410156 140.464844 L 78.121094 140.464844 C 78.449219 143.328125 78.007812 143.46875 77.777344 143.753906 C 76.304688 143.832031 76.449219 141.511719 74.597656 142.746094 C 72.972656 142.453125 72.535156 145.070312 70.828125 144.5625 C 70.246094 143.175781 68.609375 141.375 66.828125 142.453125 C 68.382812 145.800781 76.152344 147.179688 72.460938 152.683594 C 71.710938 154.28125 72.308594 156.601562 70.320312 157.40625 C 66.828125 156.460938 63.582031 155.152344 60.101562 154.28125 C 60.472656 155.589844 59.507812 157.40625 59.875 158.71875 C 63.582031 159.214844 64.691406 163.066406 67.863281 164.226562 C 68.535156 164.734375 68.832031 165.3125 68.691406 166.117188 C 66.460938 167.0625 64.09375 165.097656 62.027344 164.226562 C 61.503906 164.4375 61.789062 164.953125 61.722656 165.3125 C 63.648438 167.570312 69.863281 166.613281 67.863281 171.328125 C 66.160156 175.183594 66.535156 181.566406 60.695312 182.085938 C 60.167969 183.242188 61.570312 183.15625 62.027344 183.671875 C 67.046875 184.183594 72.238281 179.386719 76.449219 183.382812 C 77.851562 183.382812 79.636719 182.5 80.746094 183.644531 L 93.363281 183.644531 C 95.742188 179.046875 93.90625 176.109375 94.128906 171.894531 C 94.40625 170.828125 91.175781 169.742188 88.734375 170.328125 C 88.296875 170.03125 88.582031 169.449219 88.519531 168.949219 C 90.140625 167.0625 96.652344 169.890625 95.171875 165.3125 C 95.171875 164.953125 95.171875 164.078125 94.359375 164.003906 "/>
<path style=" stroke:none;fill-rule:nonzero;fill:rgb(78.215027%,9.346008%,31.622314%);fill-opacity:1;" d="M 32.695312 145.101562 C 24.78125 144.597656 20.542969 145.40625 20.433594 145.378906 L 20.433594 151.644531 L 21.914062 151.644531 C 23.695312 152.179688 24.90625 152.214844 26.695312 152.214844 C 33.332031 152.894531 38.921875 151.917969 45.507812 151.5625 C 44.761719 151.339844 44.011719 151.15625 43.332031 151.203125 C 42.214844 150.359375 41.507812 149.8125 41.773438 148.472656 C 43.519531 146.609375 46.714844 148.148438 48.765625 147.039062 C 50.574219 147.734375 49.367188 149.710938 49.796875 150.929688 C 49.617188 151.273438 49.417969 151.246094 49.207031 151.4375 C 51.222656 151.421875 53.371094 151.484375 55.6875 151.695312 L 55.6875 145.203125 C 45.894531 144.574219 38.988281 145.484375 32.695312 145.101562 "/>
<path style=" stroke:none;fill-rule:nonzero;fill:rgb(78.215027%,9.346008%,31.622314%);fill-opacity:1;" d="M 106.261719 158.144531 C 104.839844 158.507812 103.023438 158.796875 101.730469 157.9375 C 102.382812 156.476562 103.960938 157.347656 105.054688 157.125 C 105.433594 157.636719 106.21875 157.054688 106.261719 158.144531 M 110.960938 173.574219 L 110.960938 175.488281 C 108.417969 176.367188 106.0625 179.140625 103.28125 177.917969 L 103.28125 176.1875 C 104.394531 175.664062 105.683594 177.230469 106.621094 174.796875 C 108.144531 174.976562 109.394531 172.726562 110.960938 173.574219 M 108.792969 147.496094 L 107.59375 148.84375 C 107.125 148.84375 106.277344 147.40625 106.144531 146.824219 C 106.519531 146.394531 108.605469 146.992188 108.792969 147.496094 M 108.898438 150.605469 C 109.488281 151.039062 110.742188 151.074219 110.09375 152.707031 C 109.351562 153.371094 108.800781 151.644531 108.105469 151.433594 Z M 110.316406 168.261719 L 110.316406 170.476562 C 109.605469 170.359375 108.660156 170.847656 108.125 170.109375 C 108.269531 168.394531 109.605469 168.515625 110.316406 168.261719 M 111.121094 162.46875 L 107 162.46875 L 107 160.949219 L 111.121094 160.949219 Z M 113.4375 181.121094 C 112.464844 183.402344 110.660156 181.742188 109.414062 181.121094 C 108.386719 180.703125 107.5625 183.714844 106.597656 181.535156 C 106.550781 181.011719 106.828125 180.804688 106.921875 180.390625 C 109.183594 178.835938 111.535156 180.085938 113.4375 181.121094 M 101.085938 171.285156 L 103.910156 171.285156 L 103.910156 172.078125 L 101.085938 172.078125 Z M 105.917969 153.472656 C 105.03125 154.160156 103.800781 154.480469 102.785156 154.597656 L 102.171875 152.554688 C 103.339844 152.453125 105.472656 151.875 105.917969 153.472656 M 102.425781 150.304688 L 104.597656 150.304688 L 104.597656 151.09375 L 102.425781 151.09375 Z M 115.769531 151.96875 L 115.769531 154.414062 C 114.628906 154.28125 113.257812 154.789062 112.265625 154.023438 C 112.757812 152.246094 114.628906 152.355469 115.769531 151.96875 M 106.921875 142.90625 C 110.105469 143.699219 113.453125 144.078125 116.839844 144.21875 L 116.839844 140.441406 L 102.675781 140.441406 C 102.65625 143.433594 100.390625 147.617188 100.390625 147.617188 C 101.632812 147.605469 102.84375 147.6875 103.9375 148.210938 L 103.9375 149.003906 C 102.78125 148.71875 101.597656 148.566406 100.390625 148.496094 L 100.390625 160.753906 L 101.953125 160.753906 C 102.042969 161.042969 102.320312 161.199219 102.261719 161.554688 L 101.953125 162.140625 L 100.390625 162.140625 L 100.390625 163.628906 C 100.914062 163.65625 101.476562 163.800781 101.953125 163.664062 C 101.980469 163.730469 102.007812 163.800781 102.054688 163.863281 C 102.789062 163.996094 103.308594 164.976562 104.226562 164.460938 L 104.226562 165.25 L 102.578125 165.25 C 102.261719 165.25 101.863281 165.160156 101.613281 164.867188 C 101.230469 165.019531 100.8125 165.085938 100.390625 165.023438 L 100.390625 166.152344 C 101.632812 165.691406 103.257812 166.214844 104.449219 166.273438 C 104.589844 166.566406 104.863281 166.71875 104.773438 167.078125 L 104.449219 167.652344 C 103.210938 167.203125 101.679688 167.441406 100.390625 167.308594 L 100.390625 176.792969 C 100.835938 176.878906 101.28125 177.003906 101.632812 177.089844 C 101.761719 177.449219 102.136719 177.664062 102.136719 178.097656 C 101.65625 178.386719 101.023438 178.453125 100.390625 178.328125 L 100.390625 183.632812 L 116.839844 183.632812 L 116.839844 178.328125 C 116.207031 178.453125 114.644531 178.523438 114.160156 178.242188 C 114.160156 177.804688 115.804688 174.476562 116.253906 174.394531 L 116.839844 167.308594 C 115.542969 167.441406 114.027344 167.203125 112.78125 167.652344 L 112.464844 167.078125 C 112.378906 166.71875 112.652344 166.566406 112.78125 166.273438 C 113.988281 166.214844 115.613281 165.691406 116.839844 166.152344 L 116.839844 165.023438 C 116.160156 165.109375 115.445312 164.929688 114.964844 164.460938 C 114.910156 164.089844 115.191406 163.949219 115.289062 163.664062 C 115.761719 163.800781 116.320312 163.65625 116.839844 163.628906 L 116.839844 162.140625 L 115.289062 162.140625 L 114.964844 161.554688 C 114.910156 161.199219 115.191406 161.042969 115.289062 160.753906 L 116.839844 160.753906 L 116.839844 148.496094 C 115.644531 148.566406 114.441406 148.71875 113.296875 149.003906 L 113.296875 148.210938 C 114.394531 147.6875 115.613281 147.605469 116.839844 147.617188 L 116.839844 145.203125 C 113.910156 145.039062 111.007812 144.734375 108.257812 144.503906 C 107.5625 144.132812 106.550781 144.21875 106.074219 143.484375 C 106.261719 142.980469 106.597656 142.90625 106.921875 142.90625 "/>
<path style=" stroke:none;fill-rule:nonzero;fill:rgb(78.215027%,9.346008%,31.622314%);fill-opacity:1;" d="M 34.011719 143.105469 C 41 143.105469 48.679688 142.472656 55.765625 143.019531 L 55.765625 140.355469 L 20.363281 140.355469 C 20.328125 141.460938 20.363281 143.191406 20.363281 143.191406 C 24.792969 142.460938 30.300781 143.105469 34.011719 143.105469 "/>
<path style=" stroke:none;fill-rule:nonzero;fill:rgb(78.215027%,9.346008%,31.622314%);fill-opacity:1;" d="M 28.578125 155.957031 C 26.597656 155.957031 24.441406 154.023438 22.457031 153.382812 L 21.464844 153.382812 L 20.46875 153.601562 L 20.421875 183.632812 L 55.808594 183.632812 L 55.808594 153.253906 C 46.578125 152.1875 38.523438 156.660156 28.578125 155.957031 "/>
<path style=" stroke:none;fill-rule:nonzero;fill:rgb(78.215027%,9.346008%,31.622314%);fill-opacity:1;" d="M 156.75 160.246094 C 155.945312 160.175781 154.121094 159.996094 153.96875 158.835938 C 153.78125 157.570312 153.710938 155.8125 156.519531 156.328125 C 158.605469 156.867188 159.4375 159.753906 156.75 160.246094 M 151.742188 176.019531 C 150.863281 177.007812 151.109375 181.449219 148.980469 179.148438 C 146.707031 173.167969 149.78125 169.054688 150.296875 163.742188 C 151.621094 162.292969 153.085938 161.757812 153.917969 162.125 C 154.121094 162.167969 155.234375 164.832031 155.421875 164.871094 C 155.671875 168.527344 153.453125 168.710938 155.59375 174.769531 C 155.015625 175.761719 152.414062 175.253906 151.742188 176.019531 M 146.457031 156.652344 C 146.902344 156.0625 148.460938 155.238281 149.285156 155.382812 C 150.167969 155.742188 150.761719 157.421875 150.394531 158.582031 C 150.316406 159.523438 149.285156 159.300781 148.542969 159.300781 C 147.503906 158.9375 146.15625 157.882812 146.457031 156.652344 M 143.457031 154.375 C 143.152344 155.609375 141.609375 157.054688 139.6875 156.6875 C 138.722656 155.957031 139.046875 154.574219 138.820312 153.558594 C 139.046875 152.835938 141.175781 152.257812 142.070312 152.476562 C 142.4375 152.984375 143.746094 153.648438 143.457031 154.375 M 139.117188 148.269531 C 139.558594 150.019531 137.15625 150.328125 136.253906 150.425781 C 135.25 149.894531 133.976562 147.9375 134.644531 146.300781 C 135.320312 145.632812 135.875 144.769531 137.105469 145.101562 C 137.761719 146.183594 139.671875 146.734375 139.117188 148.269531 M 134.183594 177.402344 L 134.183594 174.707031 L 132.144531 172.78125 L 131.285156 169.890625 C 130.285156 165.472656 131.429688 160.34375 132.226562 158.675781 C 132.191406 158.707031 132.1875 158.71875 132.152344 158.730469 C 131.40625 158.507812 130.226562 159.164062 129.777344 158.226562 C 130.449219 157.132812 129.492188 155.460938 130.597656 154.527344 C 131.40625 154.375 133.421875 154.414062 133.9375 154.992188 C 133.882812 155.894531 133.847656 157.175781 133.027344 158.078125 C 133.878906 157.902344 134.8125 158.050781 135.476562 158.71875 C 135.261719 167.171875 136.078125 172.886719 136.769531 180.640625 Z M 126.164062 149.488281 C 124.738281 148.269531 123.863281 146.871094 124.21875 144.957031 C 125.109375 142.863281 128.117188 143.5625 129.359375 144.4375 C 130.3125 145.835938 132.027344 147.492188 129.402344 148.226562 C 129.664062 151.597656 127.210938 151.066406 126.164062 149.488281 M 161.675781 163.4375 C 159.605469 158.421875 164.324219 141.726562 156.699219 140.355469 C 155.863281 140.234375 155.164062 140.585938 154.503906 141.136719 C 155.835938 142.085938 156.84375 143.503906 157.066406 145.117188 C 155.285156 149.039062 151.59375 144.246094 149.074219 145.558594 L 149.074219 148.746094 C 148.03125 149.613281 147.292969 150.777344 145.824219 150.339844 C 144.929688 149.324219 143.742188 148.601562 144.183594 147.160156 C 145.085938 145.269531 147.144531 145.996094 148.480469 145.117188 C 148.445312 145.070312 148.425781 145.027344 148.398438 144.980469 C 145.867188 144.363281 146.199219 140.417969 141.921875 140.417969 L 133.753906 140.417969 C 129.960938 141.585938 125.289062 143.753906 120.921875 140.445312 L 121.746094 145.828125 L 122.285156 147.671875 L 122.269531 149.277344 L 124.195312 150.953125 L 122.195312 152.664062 L 122.875 156.808594 C 124.386719 157.261719 126.011719 157.332031 126.085938 158.71875 C 125.808594 160.976562 124.113281 163.570312 124.050781 165.910156 C 123.949219 168.804688 125.558594 180.746094 125.511719 183.632812 C 127.074219 183.488281 134.542969 183.1875 136.070312 182.410156 C 136.078125 182.46875 138.152344 183.570312 138.152344 183.632812 C 140.804688 183.886719 144.273438 184.546875 143.40625 179.945312 L 141.488281 167.703125 C 139.210938 161.4375 143.40625 159.875 144.8125 159.804688 L 145.917969 160.808594 C 145.527344 162.054688 145.324219 163.246094 145.214844 164.402344 C 145.492188 164.871094 145.722656 165.367188 145.570312 166.152344 C 145.664062 166.890625 145.46875 167.324219 145.191406 167.621094 C 145.632812 173.304688 148.347656 178.246094 148.398438 183.671875 L 155.554688 183.632812 L 158.15625 181.605469 L 157.609375 176.566406 L 157.914062 171.8125 L 157.75 162.96875 C 158.851562 163.222656 159.933594 163.53125 161.160156 164.003906 L 161.675781 163.4375 "/>
<path style=" stroke:none;fill-rule:nonzero;fill:rgb(74.113464%,73.643494%,73.75946%);fill-opacity:1;" d="M 114.859375 103.605469 C 115.742188 103.605469 118.035156 103.8125 119.621094 103.550781 C 124.589844 102.722656 127.148438 101.105469 127.148438 97.5625 C 127.148438 94.011719 124.902344 92.75 118.070312 92.75 L 111.78125 92.75 L 111.78125 112.8125 C 112.269531 112.78125 112.796875 112.734375 113.320312 112.734375 C 113.8125 112.734375 114.300781 112.78125 114.859375 112.8125 Z M 114.859375 93.894531 C 115.917969 93.835938 118.421875 93.808594 119.9375 93.925781 C 122.722656 94.128906 123.921875 95.714844 123.921875 97.707031 C 123.921875 100.316406 121.878906 102.164062 118.351562 102.457031 C 117.152344 102.542969 115.742188 102.542969 114.859375 102.457031 L 114.859375 93.894531 "/>
<path style=" stroke:none;fill-rule:nonzero;fill:rgb(74.113464%,73.643494%,73.75946%);fill-opacity:1;" d="M 136.890625 104.207031 L 136.320312 104.425781 C 135.03125 104.933594 135.070312 104.871094 132.71875 105.375 C 129.949219 105.976562 127.105469 106.324219 126.957031 109.484375 C 126.882812 111.472656 128.964844 112.988281 131.316406 113.117188 C 133.628906 113.242188 135.941406 112.230469 136.699219 110.304688 L 136.699219 112.738281 L 141.324219 112.738281 L 141.324219 112.199219 L 139.734375 112.199219 L 139.734375 103.382812 C 139.734375 101.046875 139.316406 98.867188 134.3125 98.644531 C 132.945312 98.582031 132.605469 98.707031 131.617188 98.835938 C 130.480469 98.992188 129.421875 99.339844 128.660156 99.625 L 128.660156 103.859375 L 129.34375 103.859375 L 130.179688 102.089844 C 130.898438 100.570312 131.542969 98.929688 134.007812 99.148438 C 136.472656 99.371094 136.890625 100.730469 136.890625 102.183594 Z M 136.890625 106.195312 C 136.890625 107.019531 136.929688 107.523438 136.8125 108.34375 C 136.550781 110.175781 135.105469 112.199219 132.71875 112.328125 C 130.710938 112.453125 129.761719 110.871094 129.910156 109.417969 C 130.253906 106.164062 131.507812 106.574219 135.371094 105.375 L 136.890625 104.902344 L 136.890625 106.195312 "/>
<path style=" stroke:none;fill-rule:nonzero;fill:rgb(74.113464%,73.643494%,73.75946%);fill-opacity:1;" d="M 149.984375 112.738281 L 143.125 112.738281 L 143.125 112.199219 L 144.828125 112.199219 L 144.828125 99.5625 L 143.046875 99.5625 L 143.046875 98.992188 L 147.484375 98.992188 L 147.484375 101.867188 C 147.671875 100.824219 149.265625 98.898438 151.769531 98.898438 C 152.488281 98.898438 153.132812 99.054688 153.855469 99.371094 L 153.855469 104.363281 L 153.132812 104.363281 L 152.222656 102.058594 C 151.578125 100.445312 151.085938 99.402344 150.101562 99.878906 C 147.523438 101.109375 147.75 104.078125 147.75 106.859375 L 147.75 112.199219 L 149.984375 112.199219 L 149.984375 112.738281 "/>
<path style=" stroke:none;fill-rule:nonzero;fill:rgb(74.113464%,73.643494%,73.75946%);fill-opacity:1;" d="M 160.542969 95.800781 C 160.542969 96.6875 159.671875 97.316406 158.683594 97.316406 C 157.738281 97.316406 156.863281 96.621094 156.863281 95.832031 C 156.863281 95.042969 157.699219 94.285156 158.644531 94.285156 C 159.671875 94.285156 160.542969 94.980469 160.542969 95.800781 M 155.765625 112.738281 L 155.765625 112.199219 L 157.511719 112.199219 L 157.511719 99.5625 L 155.878906 99.5625 L 155.878906 98.992188 L 160.46875 98.992188 L 160.46875 112.199219 L 162.019531 112.199219 L 162.019531 112.738281 L 155.765625 112.738281 "/>
<path style=" stroke:none;fill-rule:nonzero;fill:rgb(74.113464%,73.643494%,73.75946%);fill-opacity:1;" d="M 173.335938 102.214844 C 172.617188 100.066406 171.894531 99.214844 169.925781 99.214844 C 168.21875 99.214844 166.054688 99.78125 165.90625 101.519531 C 165.789062 103.066406 167.726562 103.699219 169.46875 104.175781 C 172.425781 105.027344 175.878906 105.910156 175.765625 108.660156 C 175.6875 111.28125 173.070312 113.210938 169.507812 113.148438 C 167.460938 113.117188 165.144531 112.453125 164.351562 111.980469 L 164.351562 107.460938 L 165.03125 107.460938 L 165.828125 109.734375 C 166.703125 112.296875 167.6875 112.324219 169.242188 112.453125 C 171.402344 112.640625 173.867188 111.757812 174.058594 109.988281 C 174.320312 107.808594 170.835938 107.238281 168.636719 106.574219 C 167.082031 106.101562 164.046875 105.25 164.046875 102.65625 C 164.046875 99.625 167.988281 98.613281 170.074219 98.613281 C 171.820312 98.613281 173.828125 99.183594 174.550781 99.5625 L 174.550781 103.699219 L 173.828125 103.699219 L 173.335938 102.214844 "/>
<path style=" stroke:none;fill-rule:nonzero;fill:rgb(100%,100%,100%);fill-opacity:1;" d="M 44.640625 68.335938 L 38.226562 68.335938 L 38.226562 86.65625 C 38.226562 87.484375 37.546875 88.117188 36.769531 88.117188 L 36.085938 88.117188 C 35.261719 88.117188 34.628906 87.484375 34.628906 86.65625 L 34.628906 68.335938 L 28.265625 68.335938 C 27.4375 68.335938 26.757812 67.800781 26.757812 66.976562 L 26.757812 66.441406 C 26.757812 65.613281 27.4375 65.082031 28.214844 65.082031 L 44.59375 65.082031 C 45.417969 65.082031 46.097656 65.613281 46.097656 66.441406 L 46.097656 66.976562 C 46.097656 67.800781 45.417969 68.335938 44.640625 68.335938 "/>
<path style=" stroke:none;fill-rule:nonzero;fill:rgb(100%,100%,100%);fill-opacity:1;" d="M 65.390625 88.117188 L 50.421875 88.117188 C 49.648438 88.117188 49.0625 87.535156 49.0625 86.753906 L 49.0625 66.441406 C 49.0625 65.617188 49.695312 65.082031 50.472656 65.082031 L 64.710938 65.082031 C 65.539062 65.082031 66.167969 65.617188 66.167969 66.441406 L 66.167969 66.976562 C 66.167969 67.804688 65.539062 68.335938 64.710938 68.335938 L 52.660156 68.335938 L 52.660156 75.042969 L 63.738281 75.042969 C 64.566406 75.042969 65.199219 75.578125 65.199219 76.40625 L 65.199219 76.9375 C 65.199219 77.765625 64.566406 78.300781 63.738281 78.300781 L 52.660156 78.300781 L 52.660156 84.859375 L 65.390625 84.859375 C 66.21875 84.859375 66.851562 85.394531 66.851562 86.222656 L 66.851562 86.753906 C 66.851562 87.582031 66.21875 88.117188 65.390625 88.117188 "/>
<path style=" stroke:none;fill-rule:nonzero;fill:rgb(100%,100%,100%);fill-opacity:1;" d="M 85.65625 88.117188 L 70.542969 88.117188 L 70.542969 66.539062 C 70.542969 65.710938 71.175781 65.082031 72 65.082031 L 72.679688 65.082031 C 73.457031 65.082031 74.140625 65.710938 74.140625 66.539062 L 74.140625 84.859375 L 85.65625 84.859375 C 86.484375 84.859375 87.113281 85.394531 87.113281 86.222656 L 87.113281 86.753906 C 87.113281 87.582031 86.484375 88.117188 85.65625 88.117188 "/>
<path style=" stroke:none;fill-rule:nonzero;fill:rgb(100%,100%,100%);fill-opacity:1;" d="M 105.824219 88.117188 L 90.855469 88.117188 C 90.078125 88.117188 89.496094 87.535156 89.496094 86.753906 L 89.496094 66.441406 C 89.496094 65.617188 90.128906 65.082031 90.90625 65.082031 L 105.144531 65.082031 C 105.96875 65.082031 106.601562 65.617188 106.601562 66.441406 L 106.601562 66.976562 C 106.601562 67.804688 105.96875 68.335938 105.144531 68.335938 L 93.09375 68.335938 L 93.09375 75.042969 L 104.171875 75.042969 C 104.996094 75.042969 105.628906 75.578125 105.628906 76.40625 L 105.628906 76.9375 C 105.628906 77.765625 104.996094 78.300781 104.171875 78.300781 L 93.09375 78.300781 L 93.09375 84.859375 L 105.824219 84.859375 C 106.652344 84.859375 107.28125 85.394531 107.28125 86.222656 L 107.28125 86.753906 C 107.28125 87.582031 106.652344 88.117188 105.824219 88.117188 "/>
<path style=" stroke:none;fill-rule:nonzero;fill:rgb(100%,100%,100%);fill-opacity:1;" d="M 125.84375 88.117188 L 116.320312 88.117188 C 113.308594 88.117188 110.976562 85.539062 110.976562 82.578125 L 110.976562 70.476562 C 110.976562 67.511719 113.503906 65.082031 116.515625 65.082031 L 125.265625 65.082031 C 126.089844 65.082031 126.722656 65.617188 126.722656 66.441406 L 126.722656 66.976562 C 126.722656 67.804688 126.089844 68.335938 125.265625 68.335938 L 117.777344 68.335938 C 115.445312 68.335938 114.570312 69.699219 114.570312 71.496094 L 114.570312 81.847656 C 114.570312 84.132812 116.027344 84.859375 117.828125 84.859375 L 125.84375 84.859375 C 126.671875 84.859375 127.304688 85.394531 127.304688 86.222656 L 127.304688 86.753906 C 127.304688 87.582031 126.671875 88.117188 125.84375 88.117188 "/>
<path style=" stroke:none;fill-rule:nonzero;fill:rgb(100%,100%,100%);fill-opacity:1;" d="M 145.867188 71.011719 C 145.867188 69.550781 144.652344 68.335938 143.195312 68.335938 L 137.023438 68.335938 C 135.515625 68.335938 134.347656 69.550781 134.347656 71.011719 L 134.347656 82.1875 C 134.347656 83.695312 135.515625 84.859375 136.972656 84.859375 L 143.195312 84.859375 C 144.652344 84.859375 145.867188 83.695312 145.867188 82.1875 Z M 144.070312 88.117188 L 136.148438 88.117188 C 133.136719 88.117188 130.753906 85.636719 130.753906 82.675781 L 130.753906 70.425781 C 130.753906 67.464844 133.328125 65.082031 136.34375 65.082031 L 143.875 65.082031 C 146.886719 65.082031 149.464844 67.464844 149.464844 70.425781 L 149.464844 82.675781 C 149.464844 85.636719 147.03125 88.117188 144.070312 88.117188 "/>
<path style=" stroke:none;fill-rule:nonzero;fill:rgb(100%,100%,100%);fill-opacity:1;" d="M 173.957031 88.117188 L 173.273438 88.117188 C 172.496094 88.117188 171.816406 87.484375 171.816406 86.660156 L 171.816406 71.300781 L 166.957031 78.105469 C 166.519531 78.6875 166.132812 79.175781 165.402344 79.175781 L 164.917969 79.175781 C 164.1875 79.175781 163.800781 78.6875 163.363281 78.105469 L 158.503906 71.300781 L 158.503906 86.660156 C 158.503906 87.484375 157.820312 88.117188 157.042969 88.117188 L 156.363281 88.117188 C 155.539062 88.117188 154.90625 87.484375 154.90625 86.660156 L 154.90625 66.441406 C 154.90625 65.664062 155.441406 65.082031 156.265625 65.082031 L 157.140625 65.082031 C 157.773438 65.082031 158.308594 65.664062 158.648438 66.148438 L 165.160156 75.335938 L 171.722656 66.148438 C 172.0625 65.664062 172.546875 65.082031 173.179688 65.082031 L 174.054688 65.082031 C 174.878906 65.082031 175.414062 65.664062 175.414062 66.441406 L 175.414062 86.660156 C 175.414062 87.484375 174.78125 88.117188 173.957031 88.117188 "/>
</g>
</svg>
