<?xml version="1.0" standalone="no"?>
<!DOCTYPE svg PUBLIC "-//W3C//DTD SVG 20010904//EN"
 "http://www.w3.org/TR/2001/REC-SVG-20010904/DTD/svg10.dtd">
<svg version="1.0" xmlns="http://www.w3.org/2000/svg"
 width="1194.000000pt" height="1158.000000pt" viewBox="0 0 1194.000000 1158.000000"
 preserveAspectRatio="xMidYMid meet">

<g transform="translate(0.000000,1158.000000) scale(0.100000,-0.100000)"
fill="#000000" stroke="none">
<path d="M4490 11278 c0 -42 -19 -53 -80 -46 -28 2 -36 -2 -51 -27 -30 -51
-24 -82 29 -148 29 -37 28 -40 -10 -56 -128 -51 -344 -109 -563 -151 -59 -11
-294 -61 -340 -72 -22 -5 -60 -13 -85 -18 -25 -5 -72 -16 -105 -26 -33 -9 -75
-20 -92 -25 -18 -5 -50 -14 -70 -20 -21 -5 -54 -14 -74 -19 -49 -13 -210 -68
-231 -80 -10 -6 -23 -10 -28 -10 -6 0 -66 -27 -134 -60 -173 -83 -269 -174
-247 -233 5 -12 16 -47 26 -77 10 -30 36 -93 58 -140 22 -47 42 -104 45 -127
5 -47 13 -39 -163 -143 -49 -29 -123 -78 -165 -108 -86 -64 -282 -256 -359
-352 -72 -89 -70 -87 -126 -160 -103 -135 -236 -276 -305 -324 -54 -37 -76
-50 -203 -118 -96 -52 -98 -54 -93 -84 2 -18 16 -57 30 -88 14 -31 26 -59 26
-61 0 -3 15 -38 34 -78 18 -39 42 -90 51 -112 10 -22 42 -91 72 -153 29 -62
53 -114 53 -116 0 -5 75 -166 212 -456 28 -58 60 -127 73 -155 13 -27 41 -88
63 -135 22 -47 50 -107 62 -135 24 -53 87 -187 126 -269 13 -28 24 -56 24 -63
0 -7 5 -13 10 -13 6 0 10 -6 10 -13 0 -7 11 -35 24 -63 27 -57 90 -189 151
-319 91 -195 118 -247 130 -252 41 -15 359 184 462 288 72 75 74 76 175 203
13 16 37 46 53 66 17 20 44 54 60 76 149 192 255 298 390 388 81 55 294 186
302 186 2 0 9 5 16 10 7 6 39 31 71 56 33 24 65 52 72 62 28 36 14 96 -55 247
-16 33 -34 76 -41 95 -7 19 -17 39 -22 45 -12 14 -10 65 5 79 34 33 461 196
515 196 7 0 20 4 30 9 17 9 203 54 295 72 83 16 151 30 192 39 22 5 81 16 130
25 50 9 109 20 133 25 23 6 63 15 90 21 115 25 230 58 307 86 39 14 88 29 110
34 35 9 41 8 57 -13 10 -13 18 -26 18 -30 0 -3 25 -58 55 -122 30 -63 55 -117
55 -120 0 -2 16 -40 35 -83 68 -150 84 -193 77 -213 -2 -8 -17 -42 -32 -75
-15 -33 -34 -76 -43 -95 -28 -66 -59 -135 -89 -200 -54 -117 -75 -164 -91
-200 -9 -19 -39 -84 -67 -145 -28 -60 -61 -129 -71 -153 -29 -64 -52 -82 -101
-82 -24 0 -54 -6 -68 -13 -15 -8 -46 -17 -71 -20 -25 -3 -58 -13 -74 -21 -17
-9 -44 -16 -61 -16 -17 0 -37 -7 -44 -15 -7 -8 -24 -15 -39 -15 -15 0 -35 -6
-46 -14 -11 -7 -35 -17 -54 -21 -19 -4 -41 -14 -49 -21 -7 -8 -24 -14 -36 -14
-13 0 -29 -7 -36 -15 -7 -8 -19 -15 -26 -15 -8 0 -31 -9 -51 -20 -21 -11 -45
-20 -54 -20 -9 0 -19 -7 -23 -15 -3 -8 -14 -15 -24 -15 -11 0 -25 -7 -32 -15
-7 -8 -21 -15 -32 -15 -10 0 -21 -6 -24 -14 -3 -8 -19 -18 -36 -21 -16 -4 -32
-13 -35 -21 -3 -8 -12 -14 -19 -14 -14 0 -63 -31 -92 -57 -7 -7 -20 -13 -28
-13 -8 0 -17 -7 -20 -15 -4 -8 -12 -15 -20 -15 -7 0 -17 -6 -21 -13 -4 -7 -20
-18 -35 -24 -16 -7 -28 -17 -28 -23 0 -5 -6 -10 -13 -10 -7 0 -20 -8 -28 -17
-9 -10 -26 -25 -39 -33 -32 -21 -67 -50 -104 -87 -18 -18 -38 -33 -45 -33 -6
0 -11 -7 -11 -15 0 -8 -4 -15 -9 -15 -13 0 -191 -178 -191 -190 0 -6 -7 -10
-15 -10 -8 0 -15 -5 -15 -10 0 -6 -21 -32 -46 -57 -25 -26 -52 -59 -60 -75 -8
-15 -19 -28 -24 -28 -6 0 -10 -6 -10 -12 0 -7 -14 -26 -31 -42 -16 -17 -32
-40 -35 -53 -4 -13 -10 -23 -15 -23 -5 0 -14 -11 -19 -25 -5 -14 -14 -25 -20
-25 -5 0 -12 -11 -16 -25 -3 -14 -10 -25 -15 -25 -8 0 -31 -37 -50 -82 -6 -16
-15 -28 -19 -28 -4 0 -13 -12 -19 -28 -6 -15 -15 -35 -21 -44 -5 -10 -15 -26
-20 -35 -6 -10 -15 -30 -21 -45 -6 -16 -15 -28 -20 -28 -4 0 -11 -16 -15 -35
-3 -19 -10 -35 -15 -35 -4 0 -13 -18 -19 -40 -6 -22 -15 -40 -19 -40 -5 0 -12
-16 -16 -36 -3 -20 -13 -43 -21 -51 -8 -8 -14 -24 -14 -37 0 -12 -7 -31 -15
-42 -8 -10 -15 -30 -15 -44 0 -14 -6 -34 -14 -45 -7 -11 -17 -40 -21 -65 -4
-25 -14 -54 -21 -65 -8 -11 -14 -34 -14 -53 0 -18 -6 -45 -14 -60 -7 -15 -16
-56 -20 -91 -3 -35 -10 -69 -16 -76 -5 -6 -12 -49 -15 -96 -3 -46 -11 -118
-18 -159 l-12 -75 -6 95 c-3 52 -5 -92 -5 -320 0 -228 2 -370 5 -315 5 84 7
94 14 60 4 -22 12 -96 17 -164 5 -68 14 -129 20 -136 5 -7 13 -41 17 -76 3
-34 12 -74 20 -89 7 -14 13 -38 13 -55 0 -16 6 -42 14 -57 8 -14 17 -46 21
-70 4 -24 12 -46 17 -49 5 -3 12 -25 15 -47 3 -23 12 -47 19 -53 8 -6 14 -24
14 -40 0 -15 6 -34 14 -41 7 -8 17 -29 21 -48 4 -19 14 -40 21 -48 8 -7 14
-22 14 -31 0 -10 7 -24 15 -31 8 -7 15 -18 15 -26 0 -14 45 -103 61 -118 5 -6
9 -18 9 -28 0 -10 7 -21 15 -24 8 -4 15 -15 15 -25 0 -11 9 -27 20 -36 11 -10
20 -25 20 -34 0 -9 7 -22 15 -29 8 -7 15 -19 15 -27 0 -7 6 -16 14 -19 8 -3
17 -16 20 -30 4 -13 11 -24 16 -24 6 0 15 -11 20 -25 5 -14 14 -25 20 -25 5 0
10 -6 10 -13 0 -15 21 -43 67 -92 17 -18 34 -42 37 -53 4 -11 13 -23 21 -26 8
-3 15 -10 15 -16 0 -6 23 -33 50 -61 27 -28 50 -55 50 -60 0 -5 7 -9 15 -9 8
0 15 -5 15 -10 0 -13 77 -90 90 -90 5 0 10 -7 10 -15 0 -8 4 -15 9 -15 5 0 41
-30 80 -68 39 -37 92 -83 118 -102 26 -19 54 -43 62 -52 9 -10 21 -18 28 -18
7 0 13 -5 13 -11 0 -5 13 -15 29 -20 16 -6 32 -17 35 -25 3 -8 12 -14 21 -14
8 0 15 -5 15 -11 0 -5 14 -15 30 -20 17 -6 30 -15 30 -20 0 -5 6 -9 13 -9 8 0
24 -9 37 -20 13 -11 29 -20 37 -20 7 0 16 -7 19 -15 4 -8 14 -15 24 -15 10 0
25 -7 34 -15 8 -8 25 -19 38 -25 13 -5 30 -14 38 -19 8 -5 22 -12 30 -15 8 -3
22 -10 30 -16 26 -16 108 -50 123 -50 8 0 17 -7 21 -15 3 -9 18 -15 36 -15 18
0 33 -6 36 -15 4 -8 16 -15 28 -15 12 0 38 -9 59 -20 20 -11 47 -20 59 -20 13
0 32 -7 42 -15 11 -8 34 -15 51 -15 17 0 39 -6 50 -14 11 -7 43 -17 70 -21 28
-4 55 -11 60 -15 6 -5 45 -13 88 -19 43 -6 86 -15 95 -20 9 -4 64 -11 122 -15
58 -4 114 -9 125 -11 11 -2 34 -5 50 -6 17 -2 -15 -6 -70 -9 -55 -3 82 -6 305
-6 223 0 365 2 315 5 -82 5 -86 7 -45 13 25 4 90 10 145 14 115 8 111 7 148
22 16 7 49 12 75 12 26 0 59 7 74 14 16 8 49 18 75 22 27 4 57 13 68 20 11 8
33 14 50 14 17 0 40 7 51 15 10 8 28 15 39 15 11 0 38 9 60 20 22 11 50 19 61
20 12 0 24 7 28 15 3 9 18 15 34 15 16 0 35 6 41 14 7 8 26 18 44 22 17 3 37
13 45 20 7 8 22 14 31 14 10 0 24 7 31 15 7 8 20 15 30 15 10 0 23 7 30 15 6
8 21 17 33 21 12 4 27 13 35 20 7 8 22 14 33 14 11 0 22 7 25 15 4 8 14 15 24
15 9 0 25 9 35 20 10 11 24 20 32 20 7 0 13 4 13 9 0 5 14 14 30 20 17 5 30
15 30 20 0 6 7 11 15 11 9 0 18 6 21 14 3 8 19 19 35 25 16 5 29 15 29 20 0 6
6 11 13 11 7 0 20 8 29 17 28 29 51 48 88 74 19 13 46 36 59 52 14 15 31 27
38 27 7 0 13 7 13 15 0 8 5 15 10 15 13 0 160 148 160 160 0 6 7 10 15 10 8 0
15 3 15 8 0 4 21 30 48 58 26 27 60 69 76 92 16 23 33 42 37 42 5 0 9 6 9 13
0 7 8 20 18 29 27 25 52 61 52 75 0 7 5 13 10 13 6 0 15 11 20 25 5 14 14 25
20 25 5 0 12 11 16 25 3 14 10 25 15 25 5 0 14 11 19 25 5 14 14 25 20 25 5 0
10 8 10 18 0 11 9 29 20 42 11 13 20 31 20 42 0 10 4 18 9 18 5 0 28 39 51 87
23 49 46 95 51 103 5 8 14 26 19 40 6 14 17 37 25 52 8 14 15 34 15 43 0 9 7
23 15 31 8 9 15 25 15 36 0 11 6 32 14 46 8 15 18 44 21 65 3 20 10 37 15 37
5 0 12 21 16 47 4 27 12 57 19 68 7 11 15 42 19 69 3 27 10 54 15 60 5 6 12
40 16 76 4 36 12 70 17 77 5 6 11 47 14 90 2 43 10 116 17 163 l12 85 6 -95
c3 -52 5 90 5 315 0 226 -2 365 -5 310 l-6 -100 -12 85 c-7 47 -15 120 -17
163 -3 43 -9 84 -14 90 -6 7 -13 42 -17 80 -4 37 -11 70 -16 72 -4 3 -11 27
-14 53 -3 26 -12 63 -20 82 -7 19 -16 52 -20 73 -3 20 -10 37 -15 37 -4 0 -11
19 -15 43 -4 23 -14 51 -21 62 -8 11 -14 29 -14 40 0 11 -6 29 -14 40 -7 11
-16 33 -20 49 -4 15 -14 35 -21 43 -8 8 -15 23 -15 33 0 10 -4 21 -9 25 -5 3
-15 22 -22 43 -6 20 -15 39 -18 42 -3 3 -19 31 -35 63 -16 31 -32 57 -37 57
-5 0 -9 8 -9 18 0 11 -9 29 -20 42 -11 13 -20 31 -20 42 0 10 -5 18 -10 18 -6
0 -15 11 -20 25 -5 14 -14 25 -19 25 -5 0 -11 10 -15 23 -3 12 -19 37 -35 54
-16 18 -32 41 -35 51 -4 11 -20 32 -36 48 -16 16 -30 32 -30 37 0 4 -8 15 -17
25 -10 10 -25 29 -33 41 -8 13 -31 40 -50 61 -19 22 -44 50 -55 64 -11 14 -26
25 -32 26 -7 0 -13 5 -13 10 0 10 -176 190 -186 190 -2 0 -19 15 -38 33 -19
17 -46 41 -61 52 -14 11 -34 28 -43 38 -9 9 -20 17 -24 17 -4 0 -22 14 -40 30
-18 17 -43 33 -55 36 -12 3 -24 12 -27 20 -3 8 -12 14 -21 14 -8 0 -15 7 -15
15 0 8 -8 15 -18 15 -11 0 -28 8 -40 18 -51 42 -67 52 -84 52 -10 0 -18 4 -18
10 0 5 -15 16 -34 24 -18 8 -37 19 -40 25 -4 6 -16 11 -27 11 -11 0 -22 7 -25
15 -4 8 -16 15 -29 15 -12 0 -28 6 -34 14 -7 8 -23 17 -38 21 -14 3 -32 13
-40 20 -8 8 -25 15 -39 15 -14 0 -27 7 -30 15 -4 8 -18 15 -34 15 -15 0 -33 6
-39 14 -7 8 -28 17 -49 21 -20 4 -40 11 -43 16 -3 5 -23 12 -45 16 -21 3 -46
11 -54 18 -8 7 -35 15 -59 18 -24 3 -47 10 -50 16 -4 5 -31 13 -61 17 -30 4
-61 11 -67 16 -7 6 -45 14 -84 18 -58 6 -76 13 -95 34 -13 14 -24 29 -24 35 0
5 -9 26 -20 48 -10 21 -44 90 -73 153 -30 63 -71 151 -92 195 -21 44 -56 118
-77 165 -62 133 -119 253 -129 272 -12 23 -11 57 2 99 15 48 16 49 99 234 10
22 38 83 64 135 25 53 46 101 46 108 0 7 5 12 10 12 6 0 10 6 10 14 0 7 6 19
14 25 16 13 72 2 131 -24 36 -17 224 -69 338 -94 26 -6 66 -15 90 -21 23 -5
85 -17 137 -26 52 -9 105 -20 118 -25 13 -5 34 -9 47 -9 13 0 34 -4 47 -9 13
-5 52 -14 88 -20 186 -34 494 -118 605 -166 31 -14 116 -48 170 -69 33 -12
105 -55 105 -62 0 -2 -4 -12 -9 -22 -5 -9 -13 -28 -19 -42 -5 -14 -20 -47 -32
-75 -12 -27 -28 -63 -35 -80 -7 -16 -23 -52 -35 -80 -13 -27 -23 -69 -24 -93
-1 -58 21 -78 224 -212 14 -9 52 -31 85 -50 105 -59 307 -208 358 -265 10 -11
40 -42 66 -70 39 -41 133 -154 194 -235 71 -93 176 -218 228 -271 54 -56 185
-159 202 -159 3 0 34 -17 68 -39 64 -38 172 -91 188 -91 8 0 66 114 155 305
18 39 49 104 69 145 166 352 269 571 314 670 35 78 78 169 133 285 26 55 58
123 70 150 24 55 55 121 120 260 24 50 64 137 90 195 97 214 106 233 188 412
32 70 33 92 4 102 -9 3 -35 16 -57 29 -22 13 -62 36 -90 52 -159 88 -332 248
-460 425 -22 30 -48 64 -58 75 -11 11 -50 61 -88 112 -67 87 -151 173 -234
238 -96 75 -345 235 -366 235 -5 0 -9 4 -9 9 0 5 -13 14 -30 21 -16 7 -30 16
-30 21 0 11 28 80 75 184 49 110 69 157 79 189 12 36 -66 126 -158 185 -67 42
-207 111 -225 111 -6 0 -19 4 -29 9 -44 22 -97 40 -297 100 -114 33 -376 95
-540 126 -44 8 -98 19 -120 24 -22 5 -67 15 -100 21 -33 6 -76 16 -95 21 -19
5 -66 16 -105 25 -64 14 -94 23 -165 45 -71 22 -170 63 -170 71 0 5 13 29 30
53 36 52 38 93 8 146 -27 49 -43 54 -80 28 l-30 -22 -24 29 c-22 27 -25 28
-38 12 -7 -10 -21 -18 -30 -18 -18 0 -46 -55 -46 -89 0 -21 -89 -236 -161
-389 -21 -46 -39 -86 -39 -88 0 -3 -34 -80 -86 -191 -13 -29 -35 -77 -48 -105
-13 -29 -45 -98 -71 -153 -48 -101 -74 -158 -115 -250 -12 -27 -43 -93 -67
-145 -25 -52 -61 -128 -80 -170 -20 -41 -57 -120 -83 -175 -26 -55 -55 -118
-65 -140 -31 -70 -62 -137 -113 -245 -130 -275 -212 -451 -212 -455 0 -12
-224 -471 -236 -484 -5 -5 -34 26 -34 38 0 15 -65 158 -242 531 -25 52 -56
118 -68 145 -41 92 -67 149 -115 250 -26 55 -58 125 -72 155 -14 30 -38 82
-53 115 -15 33 -50 107 -77 165 -28 58 -61 130 -75 160 -14 30 -46 98 -71 150
-64 134 -127 271 -127 275 0 2 -24 54 -54 117 -101 214 -126 267 -126 273 0 3
-15 38 -34 78 -18 39 -41 90 -51 112 -10 22 -30 67 -45 100 -65 142 -80 176
-80 180 0 3 -8 24 -19 48 -34 79 -41 98 -41 118 0 34 -32 78 -70 95 -19 9 -38
22 -42 28 -4 6 -8 -6 -8 -26z m90 -234 c9 -16 40 -83 70 -149 72 -162 137
-300 281 -603 33 -68 59 -125 59 -127 0 -2 22 -50 49 -107 27 -56 59 -125 71
-153 13 -27 51 -110 86 -183 35 -74 64 -135 64 -137 0 -1 29 -63 64 -136 62
-131 83 -176 144 -309 16 -36 51 -110 77 -165 60 -128 97 -206 128 -275 14
-30 38 -84 55 -120 73 -158 102 -222 102 -226 0 -2 10 -25 21 -49 12 -25 19
-48 16 -51 -5 -5 -32 48 -165 326 -73 153 -186 391 -267 565 -65 138 -123 261
-158 335 -19 41 -63 136 -97 210 -34 74 -77 167 -95 205 -18 39 -49 104 -68
145 -19 41 -56 120 -82 175 -44 94 -143 306 -205 440 -15 33 -51 108 -79 168
-28 59 -51 110 -51 112 0 3 -13 33 -30 67 -16 34 -30 66 -30 71 0 17 24 0 40
-29z m2831 -41 c-28 -67 -99 -225 -168 -372 -19 -42 -46 -101 -60 -131 -45
-97 -85 -183 -123 -265 -81 -170 -133 -283 -162 -345 -17 -36 -53 -111 -79
-168 -27 -56 -49 -104 -49 -107 0 -2 -27 -61 -61 -131 -79 -166 -124 -263
-204 -439 -12 -27 -46 -99 -75 -160 -29 -60 -65 -137 -80 -170 -51 -109 -98
-211 -171 -366 -39 -85 -84 -181 -99 -214 -15 -33 -53 -113 -84 -178 -31 -65
-56 -120 -56 -121 0 -2 -23 -53 -51 -112 -28 -60 -64 -136 -79 -169 -15 -33
-51 -109 -80 -170 -29 -60 -66 -139 -82 -175 -74 -165 -102 -219 -115 -224
-24 -10 -12 18 170 404 102 216 131 280 178 383 28 62 78 167 110 235 33 68
59 125 59 127 0 2 22 50 49 107 27 56 62 132 79 168 16 36 77 166 134 290 58
124 117 250 130 280 14 30 49 105 78 165 57 119 108 229 146 313 58 128 75
163 124 267 29 61 67 142 85 180 18 39 56 119 84 178 28 60 51 110 51 112 0 2
25 56 56 121 30 66 68 146 84 179 15 33 49 104 74 158 25 54 69 148 97 210 62
137 100 207 110 207 4 0 -5 -30 -20 -67z m-3633 -274 c17 -22 56 -95 88 -162
33 -67 86 -176 119 -242 l60 -120 57 -3 c97 -5 349 53 531 122 37 14 75 26 85
26 25 0 300 -559 286 -582 -15 -23 -188 -84 -367 -128 -231 -57 -277 -74 -277
-100 0 -19 38 -114 93 -230 141 -301 152 -328 143 -338 -4 -3 -80 -21 -169
-39 -171 -34 -247 -51 -442 -102 -66 -17 -130 -31 -143 -31 -23 0 -33 16 -109
190 -54 125 -187 379 -200 384 -31 12 -327 -115 -427 -183 -24 -17 -51 -31
-60 -31 -14 0 -53 73 -197 378 -33 70 -67 140 -75 156 -8 16 -14 35 -14 43 0
19 115 91 242 152 128 61 183 81 223 81 44 0 44 1 218 -375 53 -114 93 -181
113 -189 13 -5 329 66 554 124 19 5 67 14 107 20 39 7 79 17 89 24 16 12 15
18 -14 87 -17 41 -46 108 -65 149 -19 41 -46 100 -60 131 -14 30 -44 94 -67
142 l-41 87 -44 0 c-24 0 -65 -5 -92 -10 -26 -6 -106 -22 -178 -36 -71 -14
-157 -33 -190 -41 -33 -9 -76 -19 -95 -24 -19 -4 -62 -14 -95 -23 -111 -28
-102 -34 -180 127 -64 133 -104 219 -169 361 -15 32 -25 65 -22 72 9 23 220
82 496 138 123 25 163 31 227 34 26 2 36 -5 61 -39z m4707 5 c163 -29 343 -72
435 -106 49 -17 66 -28 68 -44 2 -12 -16 -64 -39 -115 -74 -163 -223 -451
-235 -456 -7 -2 -27 0 -46 6 -18 5 -64 19 -103 31 -38 11 -88 25 -110 29 -22
5 -83 18 -135 29 -118 25 -204 40 -298 50 -71 8 -74 8 -94 -17 -18 -22 -238
-463 -238 -477 0 -2 -11 -22 -25 -44 -25 -39 -27 -40 -68 -34 -143 20 -402 85
-492 123 -11 5 -34 14 -52 21 -17 6 -39 20 -48 30 -16 18 -16 22 1 72 31 95
202 448 239 495 l22 27 144 -47 c172 -56 383 -110 479 -123 l45 -6 34 73 c180
389 231 494 247 506 20 15 88 9 269 -23z m376 -790 c163 -66 352 -170 364
-202 3 -8 -2 -26 -10 -40 -16 -30 -105 -222 -105 -228 0 -2 -31 -69 -70 -149
-38 -80 -70 -149 -70 -153 0 -5 -5 -13 -11 -19 -9 -9 -33 2 -93 41 -86 55
-126 75 -270 137 -49 22 -100 46 -112 54 l-23 15 28 67 c16 38 40 93 54 123
165 364 174 380 222 380 17 0 60 -12 96 -26z m-6615 -371 c30 -51 231 -453
245 -491 5 -12 15 -25 22 -28 7 -2 60 24 118 59 168 102 259 149 274 143 12
-4 175 -321 175 -340 0 -3 11 -29 24 -58 39 -86 66 -157 66 -177 0 -18 -44
-48 -262 -175 -94 -54 -128 -67 -128 -46 0 5 -21 53 -46 107 -146 309 -215
444 -229 449 -40 16 -252 -188 -382 -366 -48 -67 -68 -84 -87 -77 -13 5 -80
134 -146 282 -35 77 -75 164 -104 228 l-27 58 62 82 c138 182 346 397 385 397
7 0 25 -21 40 -47z m7594 3 c143 -123 380 -399 380 -442 0 -8 -20 -55 -44
-106 -24 -51 -54 -115 -66 -143 -76 -168 -161 -336 -169 -333 -5 1 -37 41 -71
88 -80 109 -352 383 -375 378 -23 -4 -62 -75 -204 -370 -65 -135 -95 -188
-107 -188 -19 0 -93 40 -249 133 -141 84 -137 80 -115 130 75 175 245 523 259
531 15 10 62 -14 261 -129 100 -58 120 -67 134 -62 8 3 71 121 141 263 70 141
136 265 147 276 20 20 26 19 78 -26z m-2050 -31 c144 -24 238 -45 395 -85 153
-39 245 -69 245 -81 0 -5 -16 -44 -36 -86 -44 -94 -74 -161 -104 -228 -32 -72
-104 -216 -121 -242 -18 -30 -38 -29 -166 8 -118 33 -204 53 -448 103 l-160
33 2 28 c1 15 15 55 31 89 17 33 40 84 52 111 12 28 52 111 87 185 36 74 69
145 74 158 10 26 29 27 149 7z m-2431 -507 c27 -57 58 -124 70 -150 11 -27 31
-69 42 -95 119 -265 115 -241 43 -273 -62 -29 -91 -39 -154 -57 -200 -54 -372
-93 -415 -93 -41 0 -55 16 -105 125 -63 136 -187 417 -194 441 -8 25 15 36
109 54 152 30 236 52 430 116 55 18 106 33 113 33 7 1 34 -45 61 -101z m1456
62 c144 -49 221 -70 365 -99 78 -16 149 -35 157 -43 12 -13 9 -27 -27 -109
-99 -224 -229 -489 -240 -489 -5 0 -62 12 -127 26 -65 15 -134 30 -153 33 -77
16 -258 74 -310 99 -49 24 -55 30 -52 55 2 16 14 54 28 85 14 31 29 66 34 77
47 107 145 304 174 350 28 43 41 55 54 50 9 -4 53 -19 97 -35z m-2940 -435
c28 -55 64 -129 80 -165 15 -36 52 -117 82 -180 30 -63 55 -123 56 -133 2 -16
-20 -27 -123 -66 -135 -52 -238 -102 -310 -150 -25 -17 -49 -31 -53 -31 -12 0
-174 345 -241 513 -32 79 -28 90 41 137 94 62 375 184 408 176 6 -1 33 -47 60
-101z m4398 73 c136 -52 277 -129 335 -183 l54 -50 -130 -265 c-71 -146 -136
-273 -144 -284 -14 -17 -17 -17 -71 18 -73 47 -218 116 -331 158 -48 18 -90
37 -93 44 -3 10 29 85 149 344 17 36 39 85 50 110 25 58 77 140 89 140 5 0 47
-14 92 -32z m-6203 -280 c21 -46 65 -139 216 -455 19 -40 38 -73 43 -73 4 0
30 33 59 73 86 124 352 407 382 407 10 0 41 -42 62 -85 8 -16 20 -39 26 -50 7
-11 57 -113 111 -227 55 -115 105 -208 111 -208 16 0 60 24 195 105 180 108
183 110 205 90 10 -9 39 -60 66 -113 51 -104 99 -162 192 -232 63 -47 102 -94
102 -123 0 -33 -90 -105 -253 -205 -89 -55 -172 -105 -185 -111 -40 -21 -40
-22 -210 324 -79 161 -121 235 -136 235 -33 0 -263 -241 -394 -413 -24 -32
-47 -57 -53 -57 -7 0 -159 299 -159 314 0 9 -119 256 -124 256 -3 0 -29 -26
-58 -57 -204 -223 -450 -407 -521 -389 -36 9 -138 204 -256 491 -26 65 -31
105 -12 105 19 0 208 113 278 167 79 61 190 172 238 240 17 24 35 43 40 43 6
0 21 -24 35 -52z m8009 -86 c131 -132 234 -212 361 -280 98 -52 98 -47 4 -250
-19 -40 -34 -75 -34 -78 0 -11 -102 -209 -134 -258 -35 -54 -36 -55 -63 -44
-25 11 -88 46 -163 89 -82 47 -178 132 -307 272 -34 37 -66 67 -72 67 -16 0
-50 -59 -117 -200 -97 -206 -168 -344 -179 -347 -5 -1 -47 46 -92 105 -92 120
-245 282 -312 331 -43 30 -46 31 -62 14 -17 -18 -85 -151 -209 -410 -46 -96
-68 -133 -81 -133 -48 0 -391 209 -443 270 -49 59 -37 84 87 183 98 78 125
113 200 257 24 47 50 86 59 88 18 3 180 -88 292 -165 43 -30 85 -52 93 -49 7
3 17 16 22 28 24 62 260 536 270 542 28 18 161 -107 332 -311 66 -79 127 -143
135 -143 10 0 37 46 75 125 32 69 59 127 59 129 0 2 23 52 50 110 28 58 50
108 50 111 0 8 42 75 47 75 3 0 62 -57 132 -128z m-4189 -148 c0 -8 -4 -12
-10 -9 -5 3 -10 10 -10 16 0 5 5 9 10 9 6 0 10 -7 10 -16z m213 -441 c8 -21
42 -94 75 -163 32 -69 71 -150 84 -180 14 -30 49 -103 77 -163 28 -59 51 -109
51 -112 0 -2 19 -42 42 -90 38 -80 44 -106 19 -90 -6 3 -22 30 -35 58 -13 29
-47 100 -75 160 -28 59 -51 109 -51 112 0 2 -27 60 -60 129 -72 153 -91 195
-120 266 -12 30 -26 63 -31 72 -11 22 -12 38 0 38 5 0 16 -17 24 -37z m-25
-302 c45 -93 82 -174 82 -180 0 -6 5 -11 10 -11 6 0 10 -6 10 -14 0 -8 11 -36
24 -63 45 -87 86 -176 86 -185 0 -4 -135 -8 -300 -8 -165 0 -300 2 -300 4 0 2
9 21 19 43 10 21 32 67 49 103 34 73 116 248 168 357 19 40 34 79 34 86 0 13
19 37 30 37 3 0 42 -76 88 -169z m-3422 -278 c100 -208 154 -323 154 -328 0
-2 14 -34 30 -70 47 -103 46 -106 -81 -239 -61 -64 -152 -147 -203 -185 -83
-63 -231 -151 -252 -151 -9 0 -27 36 -174 345 -87 183 -92 196 -88 236 3 32
10 37 105 89 56 30 130 76 165 102 65 48 185 167 251 251 21 26 40 47 42 47 2
0 25 -44 51 -97z m6772 47 c68 -99 258 -266 380 -332 120 -65 137 -80 136
-122 -1 -21 -6 -47 -12 -59 -6 -12 -32 -68 -57 -125 -80 -181 -177 -374 -191
-379 -8 -3 -20 -1 -27 5 -6 5 -43 26 -82 47 -38 21 -101 58 -140 83 -74 49
-226 197 -278 272 -50 72 -46 94 64 327 126 267 159 333 166 333 4 0 23 -23
41 -50z m-3639 -244 c-10 -9 -109 -14 -109 -6 0 6 26 10 57 10 31 0 54 -2 52
-4z m494 -3 c-13 -2 -35 -2 -50 0 -16 2 -5 4 22 4 28 0 40 -2 28 -4z m-23
-542 c3 -5 52 -11 109 -15 57 -3 110 -11 117 -17 7 -6 39 -13 71 -16 32 -3 67
-11 78 -18 11 -6 42 -15 68 -18 27 -4 58 -14 70 -22 12 -8 33 -15 48 -15 15 0
32 -7 39 -15 7 -8 27 -15 45 -15 18 0 38 -6 44 -14 7 -8 25 -18 41 -21 16 -3
34 -13 41 -21 6 -8 22 -14 34 -14 12 0 28 -7 35 -15 7 -8 19 -15 27 -15 8 0
26 -9 40 -20 14 -11 34 -20 43 -20 10 0 20 -7 24 -15 3 -8 15 -15 26 -15 11 0
23 -7 26 -15 4 -8 15 -15 25 -15 11 0 27 -9 36 -20 10 -11 23 -20 30 -20 7 0
13 -4 13 -9 0 -5 10 -13 23 -17 12 -3 29 -14 38 -23 9 -9 26 -23 39 -31 12 -8
31 -23 42 -32 12 -10 24 -18 27 -18 3 0 30 -22 59 -50 29 -27 55 -50 58 -50
12 0 314 -316 314 -328 0 -10 29 -49 53 -70 9 -9 17 -22 17 -29 0 -7 5 -13 11
-13 5 0 15 -13 20 -30 6 -16 15 -30 19 -30 9 0 31 -36 50 -82 6 -14 18 -29 26
-32 8 -3 14 -16 14 -30 0 -13 7 -26 15 -30 8 -3 15 -14 15 -24 0 -11 6 -25 14
-31 8 -7 17 -23 21 -38 3 -14 13 -32 20 -40 8 -8 15 -24 15 -35 0 -11 6 -26
14 -32 18 -15 36 -90 25 -108 -5 -7 -9 -23 -9 -35 0 -13 -8 -24 -20 -28 -11
-3 -20 -13 -20 -21 0 -8 -10 -14 -23 -14 -13 0 -37 -11 -52 -24 -23 -20 -28
-32 -28 -68 1 -60 -15 -68 -151 -78 -62 -4 -121 -12 -132 -17 -10 -6 -68 -13
-127 -17 -59 -3 -116 -10 -127 -16 -10 -5 -62 -12 -117 -16 -54 -3 -111 -10
-128 -16 -16 -5 -80 -14 -141 -18 -62 -4 -122 -14 -135 -21 -33 -18 -500 -20
-506 -2 -3 7 -20 15 -38 19 -19 3 -39 12 -46 20 -6 8 -18 14 -25 14 -8 0 -22
9 -31 20 -10 11 -23 20 -30 20 -7 0 -13 5 -13 11 0 5 -13 15 -30 20 -16 6 -30
15 -30 19 0 5 -15 12 -32 15 -18 4 -36 12 -39 17 -4 6 -28 14 -55 19 -26 5
-51 14 -55 20 -4 7 -62 11 -170 11 -130 0 -170 -4 -194 -16 -16 -9 -42 -16
-57 -16 -15 0 -33 -6 -40 -14 -8 -7 -29 -17 -46 -21 -18 -3 -32 -10 -32 -15 0
-5 -14 -11 -31 -15 -17 -4 -33 -13 -36 -21 -3 -8 -11 -14 -18 -14 -8 0 -20 -6
-27 -12 -28 -26 -78 -58 -90 -58 -8 0 -25 -8 -38 -17 -22 -16 -51 -18 -255
-17 -179 1 -244 5 -291 18 -34 9 -96 16 -137 16 -41 0 -92 6 -113 14 -22 7
-90 16 -153 20 -63 4 -123 12 -134 17 -10 6 -69 13 -130 16 -62 3 -120 10
-130 15 -10 5 -68 13 -128 18 -61 4 -113 11 -117 14 -11 11 -13 54 -3 60 13 9
-17 66 -35 66 -8 0 -14 4 -14 10 0 5 -12 13 -26 16 -38 10 -74 47 -74 77 0 14
-5 29 -10 32 -7 4 -7 12 0 25 5 10 10 28 10 39 0 11 6 26 14 33 7 8 17 28 20
45 4 18 14 37 22 44 8 6 14 19 14 29 0 10 7 23 15 30 8 7 15 21 15 32 0 10 6
21 14 24 8 3 18 18 21 34 3 16 13 31 21 34 8 3 14 12 14 21 0 15 30 63 58 93
6 7 12 20 12 28 0 8 7 17 15 20 8 4 15 11 15 18 0 6 8 19 18 28 24 22 52 60
52 71 0 4 23 30 50 57 28 27 50 53 50 59 0 6 7 11 15 11 8 0 15 5 15 11 0 11
175 189 185 189 3 0 28 23 56 50 28 28 54 50 58 50 4 0 17 8 29 18 11 9 30 24
43 32 12 8 29 23 38 33 8 9 24 17 34 17 9 0 20 7 23 15 4 8 12 15 19 15 6 0
20 9 30 20 10 11 26 20 35 20 10 0 20 7 24 15 3 8 14 15 25 15 11 0 26 6 33
14 8 7 23 16 35 20 12 4 27 13 33 21 7 8 20 15 30 15 10 0 23 7 30 15 7 8 23
15 36 15 12 0 29 7 37 15 8 7 27 17 43 21 16 4 35 13 42 21 7 7 23 13 34 13
11 0 32 6 46 14 42 21 155 56 182 56 14 0 34 7 44 15 11 8 40 15 65 15 25 0
59 7 74 15 16 8 71 17 125 21 54 3 106 10 117 15 11 5 49 10 85 13 98 6 414
-4 420 -13z m-168 -1820 c-8 -5 15 -11 60 -15 48 -4 75 -12 81 -21 5 -9 23
-15 42 -15 24 0 35 -5 35 -15 0 -10 10 -15 28 -15 15 0 35 -8 44 -17 25 -28
61 -53 75 -53 7 0 13 -7 13 -15 0 -8 4 -15 9 -15 12 0 56 -43 64 -63 3 -9 11
-17 16 -17 5 0 13 -9 16 -21 4 -12 14 -29 23 -39 36 -38 52 -65 52 -86 0 -12
7 -24 15 -28 9 -3 15 -18 15 -38 0 -19 8 -44 17 -57 25 -36 25 -325 0 -361 -9
-13 -17 -39 -17 -58 0 -20 -6 -35 -15 -38 -8 -4 -15 -17 -15 -30 0 -13 -8 -31
-19 -41 -10 -10 -22 -28 -25 -40 -4 -13 -12 -23 -17 -23 -5 0 -9 -7 -9 -15 0
-9 -7 -18 -15 -21 -8 -4 -15 -13 -15 -21 0 -8 -9 -17 -20 -20 -11 -3 -20 -12
-20 -19 0 -8 -7 -14 -15 -14 -8 0 -15 -7 -15 -15 0 -8 -6 -15 -13 -15 -7 0
-20 -9 -30 -20 -9 -11 -23 -20 -31 -20 -8 0 -16 -7 -20 -15 -3 -8 -15 -15 -26
-15 -11 0 -23 -6 -26 -14 -3 -8 -21 -17 -41 -21 -20 -3 -42 -13 -50 -21 -9 -8
-34 -14 -64 -14 -28 0 -48 -4 -45 -9 9 -14 -33 -21 -136 -21 -73 0 -100 4
-112 15 -8 9 -33 15 -60 15 -24 0 -51 6 -58 13 -7 8 -30 17 -50 21 -20 3 -39
13 -42 21 -3 8 -15 15 -26 15 -11 0 -20 7 -20 15 0 8 -9 15 -20 15 -11 0 -28
9 -37 20 -10 11 -23 20 -30 20 -7 0 -13 7 -13 15 0 8 -7 15 -15 15 -8 0 -15 7
-15 15 0 8 -6 15 -14 15 -8 0 -17 9 -21 19 -3 11 -12 22 -20 25 -8 3 -15 12
-15 21 0 8 -4 15 -9 15 -5 0 -14 14 -20 30 -5 17 -14 30 -20 30 -6 0 -13 15
-17 34 -3 19 -12 37 -20 40 -9 3 -14 20 -14 45 0 25 -5 41 -15 45 -13 4 -15
35 -15 186 0 151 2 182 15 186 10 4 15 20 15 45 0 25 5 42 14 45 8 3 17 21 20
40 4 19 11 34 16 34 5 0 12 11 16 25 3 14 12 25 20 25 8 0 14 7 14 15 0 8 9
23 20 32 11 10 20 23 20 30 0 7 7 13 15 13 8 0 15 6 15 14 0 8 9 18 20 21 11
3 20 13 20 21 0 8 6 14 13 14 8 0 23 8 35 18 52 43 68 52 89 52 13 0 23 6 23
14 0 10 13 16 38 18 21 2 36 8 35 15 -2 7 24 14 72 18 41 4 75 11 75 16 0 5
42 9 93 9 53 0 86 -4 79 -9z m1778 -313 c17 -21 17 -23 -3 -50 -15 -20 -30
-28 -51 -28 -17 -1 -42 -7 -56 -15 -14 -8 -47 -14 -73 -15 -26 0 -60 -6 -75
-14 -15 -7 -58 -16 -95 -19 -38 -3 -75 -11 -82 -17 -7 -6 -44 -13 -81 -17 -38
-3 -78 -12 -89 -18 -11 -7 -48 -15 -83 -18 -34 -3 -68 -10 -75 -15 -7 -6 -51
-13 -99 -17 l-88 -7 -10 26 c-15 41 13 73 70 81 25 3 65 12 90 20 25 8 64 15
88 15 24 0 55 6 70 14 15 7 56 17 92 20 36 4 70 12 76 16 5 5 37 12 70 15 32
4 77 12 99 20 22 7 68 15 103 18 34 3 68 10 75 15 32 26 102 20 127 -10z
m-3573 11 c5 -5 37 -13 69 -16 32 -2 77 -11 99 -18 22 -8 67 -16 99 -20 33 -3
65 -10 71 -15 6 -5 42 -12 80 -16 39 -4 73 -11 76 -16 3 -5 43 -13 88 -18 46
-5 88 -13 95 -18 6 -5 40 -12 76 -16 41 -4 67 -11 73 -21 4 -8 15 -15 22 -15
25 0 19 -57 -6 -65 -28 -9 -191 4 -205 16 -7 6 -46 14 -88 18 -42 5 -82 13
-89 19 -6 5 -43 12 -81 15 -38 3 -71 9 -75 15 -3 6 -39 14 -80 18 -41 4 -86
13 -100 20 -14 8 -46 14 -69 14 -24 0 -58 6 -75 14 -18 8 -44 17 -59 20 -37 8
-48 49 -22 76 21 21 83 27 101 9z m-460 -200 c6 -6 43 -15 84 -20 40 -5 75
-13 78 -17 3 -5 29 -12 56 -15 28 -3 64 -13 80 -21 17 -9 46 -16 65 -16 20 0
44 -6 55 -14 11 -7 40 -16 64 -19 24 -3 47 -10 50 -15 3 -5 26 -13 51 -17 25
-4 54 -14 65 -21 11 -8 34 -14 51 -14 17 0 37 -7 44 -15 7 -8 23 -15 36 -15
13 0 41 -9 61 -20 21 -11 45 -20 54 -20 9 0 22 -7 29 -15 7 -8 25 -15 41 -15
15 0 34 -7 42 -15 8 -7 27 -17 43 -21 16 -4 35 -13 42 -21 7 -7 22 -13 31 -13
10 0 24 -7 31 -15 7 -8 21 -15 31 -15 9 0 24 -7 33 -15 8 -8 25 -20 38 -25 49
-23 78 -41 78 -51 0 -5 6 -9 13 -9 15 0 43 -21 93 -67 19 -18 37 -33 41 -33 7
0 65 -62 98 -104 11 -15 25 -33 32 -40 7 -7 15 -25 18 -39 4 -14 13 -28 21
-31 8 -3 14 -14 14 -24 0 -11 6 -25 14 -31 8 -7 17 -27 20 -46 4 -19 11 -35
16 -35 6 0 13 -18 16 -40 4 -22 13 -45 20 -51 8 -6 14 -22 14 -34 0 -37 12
-85 20 -80 4 2 10 -24 14 -59 3 -36 13 -77 21 -93 8 -15 15 -50 15 -77 0 -27
7 -72 15 -100 38 -130 53 -829 20 -934 -3 -6 -13 -12 -23 -12 -26 0 -71 -50
-78 -89 -7 -32 -68 -111 -86 -111 -5 0 -17 -7 -26 -16 -12 -13 -27 -15 -66
-10 -27 3 -52 9 -55 14 -3 5 -28 13 -56 17 -27 4 -58 13 -69 21 -11 8 -32 14
-47 14 -15 0 -32 6 -38 14 -6 7 -30 16 -53 19 -22 3 -44 10 -47 15 -3 6 -20
14 -36 18 -16 4 -36 13 -43 21 -7 7 -22 13 -31 13 -10 0 -24 7 -31 15 -7 8
-22 15 -35 15 -12 0 -32 9 -45 20 -13 11 -27 20 -32 20 -5 0 -16 7 -24 15 -9
8 -24 15 -35 15 -10 0 -19 4 -19 10 0 5 -15 17 -32 25 -66 32 -78 40 -78 52 0
7 -8 13 -18 13 -11 0 -28 8 -40 17 -11 10 -30 25 -42 33 -22 15 -62 48 -91 75
-9 8 -19 15 -22 15 -4 0 -30 22 -58 50 -28 28 -55 50 -60 50 -5 0 -9 7 -9 15
0 8 -6 15 -12 15 -7 1 -35 26 -63 57 -27 30 -76 82 -107 114 -31 33 -73 84
-93 114 -21 30 -41 55 -46 55 -5 0 -9 7 -9 15 0 9 -7 18 -15 21 -8 4 -15 12
-15 19 0 6 -9 22 -20 35 -11 13 -20 29 -20 37 0 7 -4 13 -9 13 -5 0 -13 10
-17 23 -3 12 -15 30 -25 40 -11 10 -19 26 -19 36 0 11 -7 21 -15 25 -8 3 -15
14 -15 24 0 11 -7 25 -15 32 -8 7 -15 19 -15 27 0 8 -9 26 -20 40 -11 14 -20
34 -20 45 0 11 -7 26 -15 34 -8 9 -15 26 -15 38 0 13 -6 29 -14 35 -7 6 -16
29 -20 51 -3 22 -10 40 -16 40 -5 0 -12 21 -16 47 -4 26 -13 53 -20 61 -8 7
-14 28 -14 45 0 18 -6 44 -14 58 -7 14 -17 53 -21 85 -4 32 -11 64 -16 70 -5
6 -13 53 -19 105 -5 52 -14 126 -20 164 -15 112 -13 205 5 211 8 4 15 11 15
18 1 18 37 56 54 56 9 0 19 7 22 15 5 11 22 15 63 15 52 0 59 3 79 30 12 16
22 38 22 50 0 17 6 20 38 20 21 0 43 -5 49 -11z m4430 -17 c2 -13 10 -30 18
-38 8 -9 15 -20 15 -25 0 -5 29 -9 65 -9 47 0 67 -4 71 -14 3 -8 16 -17 29
-20 14 -4 27 -18 33 -36 6 -16 16 -30 22 -30 16 0 11 -194 -6 -261 -8 -29 -14
-81 -14 -114 -1 -33 -7 -78 -15 -100 -8 -22 -18 -62 -21 -89 -4 -27 -13 -61
-20 -75 -8 -14 -14 -39 -14 -54 0 -16 -6 -41 -14 -55 -8 -15 -18 -44 -21 -64
-3 -21 -10 -38 -15 -38 -4 0 -11 -18 -15 -39 -4 -22 -13 -45 -21 -52 -8 -6
-14 -22 -14 -34 0 -12 -7 -28 -15 -35 -8 -7 -15 -23 -15 -36 0 -12 -6 -29 -14
-36 -7 -8 -17 -25 -21 -38 -4 -14 -13 -32 -20 -40 -7 -8 -16 -25 -19 -37 -4
-13 -11 -23 -16 -23 -5 0 -11 -13 -15 -30 -4 -16 -10 -30 -15 -30 -5 0 -12
-10 -16 -22 -4 -13 -22 -43 -40 -67 -19 -24 -34 -49 -34 -56 0 -7 -7 -15 -15
-19 -8 -3 -15 -12 -15 -21 0 -8 -4 -15 -9 -15 -5 0 -24 -23 -42 -50 -18 -28
-36 -50 -41 -50 -4 0 -8 -5 -8 -11 0 -6 -29 -40 -65 -75 -36 -35 -65 -67 -65
-71 0 -7 -37 -42 -190 -183 -21 -19 -48 -42 -61 -50 -12 -8 -31 -23 -41 -32
-10 -10 -21 -18 -26 -18 -4 0 -15 -8 -24 -17 -28 -31 -61 -53 -80 -53 -10 0
-18 -7 -18 -15 0 -8 -6 -15 -13 -15 -8 0 -24 -9 -37 -20 -13 -11 -29 -20 -35
-20 -7 0 -15 -7 -19 -15 -3 -8 -17 -15 -31 -15 -14 0 -28 -6 -31 -14 -3 -8
-19 -18 -35 -21 -16 -4 -29 -10 -29 -13 0 -8 -80 -47 -117 -57 -13 -3 -23 -11
-23 -16 0 -5 -8 -9 -18 -9 -9 0 -34 -9 -55 -20 -20 -11 -46 -20 -56 -20 -11 0
-26 -7 -35 -15 -8 -8 -30 -15 -50 -15 -19 0 -41 -6 -49 -14 -8 -8 -36 -18 -63
-22 -27 -4 -52 -11 -55 -15 -8 -14 -159 -30 -203 -23 -42 7 -96 51 -96 77 0 8
-7 20 -14 27 -8 6 -16 30 -18 53 -3 39 -5 42 -43 51 -22 5 -43 14 -47 20 -11
15 -9 139 2 216 5 36 12 108 15 160 14 238 17 280 25 285 4 3 11 51 15 107 4
57 12 109 17 116 6 7 13 45 16 85 3 39 11 81 17 92 7 11 15 44 18 74 4 29 11
59 17 66 5 6 13 33 16 58 4 26 13 52 20 58 8 6 14 23 14 38 0 15 6 35 14 46 7
11 16 33 20 49 4 15 14 35 21 43 8 8 15 25 15 39 0 13 5 24 10 24 6 0 14 8 18
18 12 31 84 132 93 132 5 0 9 7 9 15 0 8 9 23 20 32 11 10 20 21 20 26 0 9 34
42 76 72 15 11 32 25 38 30 25 22 76 55 86 55 5 0 10 4 10 9 0 5 14 14 30 20
17 5 30 14 30 20 0 5 13 12 29 16 16 3 32 13 35 21 3 8 17 14 31 14 14 0 28 7
31 15 4 8 14 15 24 15 10 0 25 6 32 14 8 7 29 17 48 21 19 4 40 14 48 21 7 8
24 14 36 14 13 0 29 6 35 14 7 8 30 17 52 21 21 4 39 11 39 15 0 5 17 12 38
16 20 4 46 13 57 20 11 8 32 14 47 14 14 0 33 6 41 14 8 8 36 18 63 22 27 4
52 11 55 16 3 5 26 12 50 15 24 3 53 12 64 19 11 8 35 14 55 14 19 0 48 7 63
15 16 8 52 17 80 21 29 4 57 11 63 16 7 4 42 12 78 16 37 5 71 13 77 19 5 5
24 10 41 9 24 -1 32 -6 35 -24z m-2247 -1002 c19 -19 20 -33 20 -452 0 -431 0
-432 -22 -465 -23 -33 -38 -42 -38 -23 0 6 -7 10 -15 10 -9 0 -20 12 -26 28
-14 36 -2 892 13 910 15 18 45 15 68 -8z"/>
<path d="M5969 4611 c9 -6 -17 -11 -75 -16 -49 -4 -96 -13 -104 -20 -8 -7 -28
-15 -44 -19 -15 -4 -35 -14 -43 -21 -8 -8 -25 -15 -39 -15 -15 0 -24 -6 -24
-15 0 -8 -7 -15 -15 -15 -9 0 -18 -7 -21 -15 -4 -8 -11 -15 -18 -15 -14 0
-116 -104 -116 -118 0 -6 -6 -15 -12 -19 -20 -13 -54 -65 -62 -95 -3 -16 -10
-28 -15 -28 -5 0 -12 -23 -16 -50 -4 -28 -10 -48 -15 -45 -14 9 -20 -39 -20
-175 0 -137 6 -184 20 -175 5 3 12 -16 16 -42 4 -26 13 -53 20 -61 8 -7 14
-24 14 -38 0 -15 6 -24 15 -24 8 0 15 -6 15 -13 0 -8 9 -24 20 -37 11 -13 20
-27 20 -31 0 -4 21 -28 48 -53 72 -69 79 -74 99 -78 10 -2 17 -9 16 -15 -1 -6
11 -14 26 -18 16 -3 32 -13 35 -21 3 -8 16 -14 30 -14 14 0 31 -6 38 -13 7 -8
38 -17 68 -21 30 -4 58 -13 62 -19 9 -16 217 -15 226 0 4 7 32 15 62 19 30 4
61 13 68 21 7 7 24 13 38 13 14 0 27 6 30 14 3 8 19 18 35 21 15 4 27 12 26
18 -1 6 6 13 16 15 11 2 26 10 35 18 70 61 111 104 117 123 3 11 11 21 16 21
5 0 14 11 19 25 5 14 14 25 20 25 5 0 10 11 10 24 0 14 6 31 14 39 8 8 17 35
21 60 4 25 13 48 21 51 21 8 20 318 0 335 -8 7 -18 31 -21 53 -4 23 -14 48
-21 56 -8 7 -14 22 -14 33 0 10 -4 19 -10 19 -5 0 -12 11 -16 25 -3 14 -15 30
-25 36 -11 5 -19 16 -19 24 0 8 -7 15 -15 15 -8 0 -15 5 -15 11 0 14 -74 89
-88 89 -5 0 -12 7 -16 15 -3 8 -12 15 -21 15 -8 0 -15 7 -15 15 0 9 -9 15 -25
15 -14 0 -28 6 -31 14 -3 8 -24 18 -45 21 -22 4 -43 13 -46 21 -3 9 -20 14
-47 14 -72 0 -148 12 -134 21 8 5 -6 9 -37 9 -33 0 -45 -3 -36 -9z m87 -59
c20 -13 49 -85 36 -90 -7 -2 -12 -8 -12 -14 0 -19 -51 -58 -75 -58 -27 0 -75
36 -75 57 0 7 -4 13 -10 13 -16 0 -12 26 11 64 19 33 25 36 67 36 26 0 52 -4
58 -8z m85 -248 c8 -8 24 -14 35 -14 11 0 27 -8 36 -17 9 -10 35 -33 57 -52
23 -18 41 -39 41 -47 0 -8 5 -14 11 -14 5 0 15 -13 20 -30 6 -16 15 -30 20
-30 8 0 11 -12 24 -105 9 -54 8 -60 -4 -135 -5 -36 -15 -66 -20 -68 -6 -2 -13
-19 -17 -38 -3 -19 -12 -34 -20 -34 -8 0 -14 -5 -14 -12 0 -18 -90 -98 -110
-98 -10 0 -20 -6 -23 -14 -3 -7 -26 -17 -51 -20 -26 -4 -44 -11 -41 -17 11
-16 -154 -11 -171 6 -9 8 -29 15 -45 15 -17 0 -32 6 -35 15 -4 8 -14 15 -23
15 -20 0 -111 82 -111 99 0 6 -7 11 -15 11 -8 0 -15 9 -15 19 0 11 -7 26 -15
34 -8 9 -18 40 -21 71 -4 31 -10 56 -13 56 -11 0 -12 61 -3 74 5 6 12 34 14
63 3 29 12 59 21 68 10 9 17 23 17 31 0 8 7 17 15 20 8 4 15 12 15 19 0 7 18
28 41 46 22 19 48 42 57 52 9 9 26 17 38 17 12 0 27 7 34 15 21 25 242 25 271
-1z m365 1 c4 -8 12 -15 20 -15 28 0 29 -114 1 -132 -7 -4 -34 -8 -60 -8 -38
0 -53 5 -68 23 -29 34 -24 80 12 116 33 34 85 42 95 16z m-916 -35 c11 -11 20
-29 20 -40 0 -11 6 -20 13 -21 10 0 10 -2 0 -6 -7 -2 -13 -12 -13 -21 0 -29
-41 -62 -78 -62 -37 0 -72 23 -72 47 0 7 -4 13 -10 13 -5 0 -10 14 -10 30 0
17 5 30 10 30 6 0 15 11 20 25 8 22 16 25 55 25 32 0 51 -6 65 -20z m938 -539
c36 -41 42 -51 42 -76 0 -14 -4 -25 -8 -25 -5 0 -14 -11 -20 -26 -11 -23 -17
-25 -63 -22 -48 3 -52 5 -73 43 -23 40 -23 40 -3 72 10 18 26 37 36 43 27 16
70 11 89 -9z m-920 -36 c34 -39 30 -88 -11 -119 -38 -29 -82 -34 -91 -11 -3 8
-12 15 -20 15 -33 0 -30 125 3 133 9 3 34 5 57 6 32 1 45 -4 62 -24z m445
-238 c15 -12 27 -28 27 -35 0 -7 5 -12 10 -12 6 0 10 -9 10 -20 0 -11 -4 -20
-9 -20 -5 0 -12 -13 -16 -30 -6 -29 -8 -30 -65 -30 -56 0 -59 1 -80 36 -20 32
-21 38 -9 62 18 37 59 71 85 72 11 0 33 -10 47 -23z"/>
<path d="M5912 4253 c-18 -2 -36 -11 -39 -19 -3 -8 -13 -14 -23 -14 -9 0 -27
-9 -40 -20 -13 -11 -27 -20 -32 -20 -4 0 -8 -6 -8 -14 0 -8 -7 -16 -15 -20 -8
-3 -15 -12 -15 -19 0 -8 -9 -24 -20 -37 -11 -13 -20 -37 -20 -56 0 -18 -4 -36
-10 -39 -12 -8 -13 -102 -1 -109 4 -3 11 -23 14 -45 3 -22 11 -47 18 -56 45
-54 97 -105 107 -105 7 0 12 -7 12 -15 0 -10 10 -15 29 -15 16 0 36 -7 45 -15
16 -17 176 -22 176 -6 0 5 16 12 36 15 19 4 38 14 41 22 3 7 14 14 24 14 10 0
19 7 19 15 0 8 5 15 10 15 14 0 59 51 60 67 0 6 5 13 11 15 14 5 31 85 32 148
1 52 -17 140 -30 149 -4 3 -14 18 -20 34 -7 15 -17 27 -23 27 -5 0 -10 7 -10
15 0 8 -4 15 -8 15 -5 0 -19 9 -32 20 -13 11 -30 20 -38 20 -8 0 -20 7 -26 16
-9 11 -35 16 -101 19 -50 2 -105 1 -123 -2z"/>
<path d="M6717 7469 c-37 -144 -66 -263 -64 -266 9 -9 67 -21 71 -15 2 4 16
55 31 115 23 86 31 106 44 103 9 -3 45 -12 81 -21 113 -29 126 -57 91 -192
l-19 -71 38 -10 38 -9 21 83 c25 100 26 125 5 165 -15 30 -15 30 27 68 38 33
42 42 46 91 4 46 1 61 -19 89 -12 19 -34 42 -48 52 -21 16 -234 79 -266 79 -5
0 -40 -118 -77 -261z m315 101 c10 -12 18 -33 18 -47 0 -32 -42 -73 -75 -73
-24 0 -166 29 -173 35 -3 2 22 111 33 142 6 19 175 -30 197 -57z"/>
<path d="M5018 7541 c-65 -15 -121 -31 -125 -34 -6 -6 73 -376 82 -386 7 -7
75 10 75 19 0 9 -57 262 -66 291 -3 12 6 19 35 27 34 8 41 7 45 -7 8 -27 66
-288 66 -296 0 -8 62 4 73 14 4 4 -8 76 -28 161 -19 84 -34 155 -31 157 8 8
55 -10 71 -27 10 -10 28 -65 41 -122 13 -57 26 -114 29 -127 5 -21 10 -22 43
-16 20 4 38 8 40 9 6 6 -56 254 -71 283 -20 39 -76 74 -125 79 -20 2 -90 -9
-154 -25z"/>
<path d="M4575 7374 c-74 -32 -119 -73 -134 -125 -15 -51 -8 -87 35 -170 58
-111 134 -135 256 -80 110 49 153 126 122 218 -58 171 -138 217 -279 157z
m130 -66 c28 -13 75 -101 75 -142 0 -43 -11 -56 -71 -86 -97 -49 -129 -38
-172 58 -37 81 -26 112 52 152 63 33 79 35 116 18z"/>
<path d="M7389 7318 c-39 -27 -109 -154 -109 -200 0 -43 23 -91 59 -121 38
-31 90 -35 164 -13 26 8 47 12 47 10 0 -3 -9 -23 -21 -45 -11 -23 -19 -42 -17
-44 2 -1 17 -10 35 -19 l32 -16 87 172 c100 199 106 171 -49 249 -116 58 -171
64 -228 27z m194 -81 c64 -28 68 -32 62 -56 -14 -58 -40 -85 -101 -108 -80
-29 -119 -29 -149 2 -14 13 -25 35 -25 48 0 36 52 131 80 144 29 14 39 12 133
-30z"/>
<path d="M4045 7118 c-79 -50 -108 -94 -107 -164 2 -80 90 -203 158 -220 60
-15 148 22 322 134 10 7 9 15 -5 40 -10 18 -22 32 -27 32 -4 0 -57 -29 -116
-65 -142 -86 -164 -85 -219 5 -38 61 -41 108 -8 137 66 59 132 77 175 48 19
-14 24 -14 52 0 36 19 37 25 8 52 -37 33 -64 43 -115 43 -40 0 -61 -8 -118
-42z"/>
<path d="M7952 7032 c-18 -10 -51 -44 -74 -77 -35 -48 -43 -68 -46 -114 -5
-77 18 -108 148 -198 l105 -73 22 28 c13 15 22 30 20 34 -1 4 -47 38 -102 75
-114 78 -133 104 -112 156 8 18 29 50 47 70 42 49 77 49 147 2 54 -36 70 -66
60 -107 -4 -14 1 -27 16 -39 32 -27 44 -23 57 16 19 58 4 111 -44 159 -79 79
-173 105 -244 68z"/>
<path d="M3615 6818 c-51 -29 -124 -102 -139 -139 -31 -77 -15 -130 66 -213
62 -63 114 -83 176 -66 38 10 234 169 240 193 1 7 -9 23 -22 36 l-25 24 -68
-60 c-117 -101 -134 -113 -163 -113 -33 0 -60 9 -60 20 0 4 54 54 120 111 130
112 125 101 71 162 -15 16 -38 35 -53 43 -32 17 -115 18 -143 2z m115 -83 c10
-11 5 -20 -26 -47 -21 -18 -60 -52 -86 -75 -27 -24 -53 -43 -58 -43 -14 0 -22
57 -11 78 6 11 32 38 57 61 50 44 100 55 124 26z"/>
<path d="M8634 6786 c-12 -31 0 -51 30 -51 36 0 56 26 37 49 -17 20 -60 21
-67 2z"/>
<path d="M8476 6721 l-27 -28 31 -26 31 -27 -77 -90 -78 -90 -26 25 c-14 14
-29 25 -32 25 -4 0 -16 -13 -28 -29 l-20 -30 87 -76 88 -76 23 26 c28 33 28
39 -4 64 l-27 21 52 60 c28 33 74 87 103 120 28 33 49 62 47 63 -2 2 -29 24
-60 50 l-56 47 -27 -29z"/>
<path d="M3051 6501 c-47 -54 -49 -59 -33 -73 35 -30 43 -31 71 -4 l27 26 135
-121 c74 -66 141 -127 148 -135 13 -12 12 -18 -8 -45 l-23 -31 23 -24 c12 -13
26 -24 30 -24 3 0 41 38 84 85 l78 86 -29 30 -29 30 -27 -32 -27 -32 -177 162
c-97 88 -180 161 -184 161 -5 0 -31 -26 -59 -59z"/>
<path d="M8725 6279 c-77 -66 -141 -126 -143 -133 -1 -6 8 -22 21 -34 l23 -22
72 61 73 62 74 -5 c82 -5 121 -24 131 -63 12 -47 -5 -72 -100 -151 -52 -44
-95 -82 -95 -86 -1 -4 9 -19 22 -34 l23 -27 102 87 c56 48 109 100 117 116 21
41 19 109 -5 147 -25 41 -60 59 -134 68 l-60 8 37 34 37 33 -22 30 c-12 17
-24 30 -27 29 -3 0 -69 -54 -146 -120z"/>
<path d="M2963 6125 c-34 -15 -119 -121 -129 -162 -10 -39 2 -113 23 -142 11
-14 48 -45 82 -68 54 -37 69 -43 115 -43 73 0 104 23 197 152 l78 106 -33 25
-33 26 -69 -97 c-38 -53 -77 -105 -86 -114 -19 -19 -83 -25 -92 -9 -3 4 22 46
56 92 33 46 76 105 94 130 l33 45 -56 37 c-62 41 -120 48 -180 22z m112 -74
c3 -5 -26 -52 -64 -105 -65 -90 -70 -94 -85 -77 -34 37 -18 86 53 164 25 27
83 38 96 18z"/>
<path d="M9140 5903 c-39 -15 -133 -88 -151 -116 -23 -39 -25 -107 -3 -150 9
-18 34 -57 55 -88 21 -31 35 -59 32 -63 -11 -11 -58 -6 -79 9 -12 8 -40 44
-64 80 -23 36 -45 65 -49 65 -3 0 -18 -10 -33 -23 l-27 -22 52 -74 c29 -41 64
-83 78 -94 38 -28 108 -33 149 -12 81 42 349 229 343 239 -3 6 -38 58 -77 115
-56 83 -78 107 -110 122 -40 18 -87 23 -116 12z m88 -89 c18 -12 75 -88 105
-140 6 -10 -166 -134 -186 -134 -4 0 -27 30 -52 67 -65 98 -62 134 19 189 56
38 81 42 114 18z"/>
<path d="M2477 5678 c-42 -95 -77 -178 -77 -184 0 -16 59 -39 69 -28 4 5 18
34 31 64 13 30 27 58 30 62 3 4 105 -37 225 -91 l220 -99 18 35 c10 19 17 36
15 38 -2 2 -100 46 -218 100 -118 53 -216 98 -219 100 -2 3 10 36 28 75 17 39
31 72 31 74 0 4 -58 26 -69 26 -4 0 -42 -78 -84 -172z"/>
</g>
</svg>
