<?xml version="1.0" encoding="UTF-8" standalone="no"?>
<svg
   version="1.1"
   viewBox="0.00 0.00 1024.00 1024.00"
   id="svg410"
   sodipodi:docname="mad_logo.svg"
   inkscape:version="1.2-beta (1b65182ce9, 2022-04-05)"
   xmlns:inkscape="http://www.inkscape.org/namespaces/inkscape"
   xmlns:sodipodi="http://sodipodi.sourceforge.net/DTD/sodipodi-0.dtd"
   xmlns="http://www.w3.org/2000/svg"
   xmlns:svg="http://www.w3.org/2000/svg">
  <defs
     id="defs414" />
  <sodipodi:namedview
     id="namedview412"
     pagecolor="#ffffff"
     bordercolor="#999999"
     borderopacity="1"
     inkscape:pageshadow="0"
     inkscape:pageopacity="0"
     inkscape:pagecheckerboard="0"
     inkscape:deskcolor="#d1d1d1"
     showgrid="false"
     inkscape:zoom="0.90185895"
     inkscape:cx="347.06092"
     inkscape:cy="508.94877"
     inkscape:window-width="2160"
     inkscape:window-height="1369"
     inkscape:window-x="-8"
     inkscape:window-y="-8"
     inkscape:window-maximized="1"
     inkscape:current-layer="svg410" />
  <g
     stroke-width="2.00"
     fill="none"
     stroke-linecap="butt"
     id="g362"
     style="stroke:none">
    <path
       stroke="#ade3a6"
       vector-effect="non-scaling-stroke"
       d="   M 527.12 1024.00   Q 663.44 1018.75 774.96 942.89   Q 783.25 937.26 791.22 931.25   C 887.26 858.88 951.95 753.16 971.53 634.25"
       id="path274"
       style="stroke:none" />
    <path
       stroke="#80ae8f"
       vector-effect="non-scaling-stroke"
       d="   M 971.53 634.25   Q 971.17 633.92 971.69 633.45   Q 985.72 620.87 997.60 606.67   C 1007.15 595.27 1012.38 579.23 1016.64 564.32   Q 1021.53 547.18 1020.66 527.90   Q 1020.35 520.97 1019.78 514.20   Q 1017.15 482.75 1003.70 456.41   C 996.15 441.63 983.85 430.08 971.42 419.83   Q 963.75 413.51 952.75 407.61"
       id="path276"
       style="stroke:none" />
    <path
       stroke="#ade3a6"
       vector-effect="non-scaling-stroke"
       d="   M 952.75 407.61   Q 912.34 291.82 822.15 211.09   Q 769.87 164.30 703.37 133.74   Q 696.07 130.38 690.63 129.52   C 666.71 125.72 643.15 139.26 635.42 162.45   C 628.58 182.98 635.08 203.98 651.89 217.68   Q 656.15 221.16 666.05 225.61   Q 675.21 229.73 686.42 235.80   Q 687.77 236.53 686.23 236.52   Q 658.24 236.34 629.50 237.03   Q 616.88 237.33 601.99 243.57   C 588.69 249.14 585.31 258.57 586.39 272.56   Q 586.70 276.56 591.39 277.89   Q 596.84 279.45 602.38 281.10   Q 607.11 282.51 612.37 282.41   C 620.53 282.26 623.97 274.19 626.78 267.98   Q 628.95 263.20 632.54 262.07   Q 639.87 259.78 643.46 266.30   C 645.28 269.59 646.41 276.57 643.84 279.91   Q 641.84 282.52 638.56 284.17   Q 631.33 287.81 623.45 292.13   Q 618.16 295.03 613.26 295.47   C 608.84 295.86 604.39 292.18 601.03 289.25   C 593.01 282.27 583.96 299.94 581.82 305.29   C 580.75 307.93 579.98 312.01 580.07 314.50   Q 580.58 329.22 580.55 343.96   Q 580.55 346.37 581.31 354.99   Q 581.37 355.68 581.92 355.25   C 586.21 351.88 591.05 348.92 596.28 347.49   C 603.96 345.39 610.90 348.59 616.08 354.22   C 619.08 357.48 622.38 361.19 626.56 362.46   Q 630.15 363.55 634.32 364.74   Q 635.34 365.03 635.69 364.04   Q 637.03 360.29 639.73 360.23   Q 640.19 360.22 640.55 360.50   Q 642.43 361.96 643.38 363.58   Q 645.96 367.97 648.55 372.70   Q 649.68 374.77 651.10 372.89   Q 652.56 370.96 653.47 368.31   Q 655.95 361.02 658.11 354.32   A 0.55 0.55 0.0 0 1 659.07 354.16   C 661.86 357.91 663.27 362.38 664.75 366.77   C 666.92 373.22 670.62 376.77 676.21 380.39   C 679.33 382.40 683.74 381.81 687.24 381.57   C 689.73 381.40 704.84 381.10 700.17 387.73   Q 696.48 392.99 691.04 396.11   Q 683.12 400.67 675.42 405.78   C 669.33 409.83 660.49 412.90 653.74 409.78   Q 649.30 407.72 643.80 403.99   Q 625.74 391.73 607.88 379.10   Q 604.53 376.73 600.66 375.68   Q 591.84 373.27 582.00 372.37   Q 581.45 372.32 581.45 372.87   C 581.70 396.87 582.16 421.65 577.64 445.07   Q 575.21 457.71 568.34 468.03   Q 566.02 471.53 555.83 481.19"
       id="path278"
       style="stroke:none" />
    <path
       stroke="#80ae8f"
       vector-effect="non-scaling-stroke"
       d="   M 555.83 481.19   L 550.06 468.78"
       id="path280"
       style="stroke:none" />
    <path
       stroke="#ade3a6"
       vector-effect="non-scaling-stroke"
       d="   M 550.06 468.78   C 555.35 461.05 557.59 453.20 557.58 443.49   Q 557.37 245.54 557.57 47.19   Q 557.58 40.08 556.43 35.04   C 552.83 19.28 540.26 7.18 525.01 2.72   Q 515.29 -0.13 504.67 1.47   C 487.02 4.12 472.52 16.86 467.82 33.94   Q 466.45 38.93 466.46 46.30   Q 466.56 243.34 466.46 443.94   Q 466.45 450.60 467.81 455.57   Q 469.60 462.16 473.27 467.93"
       id="path282"
       style="stroke:none" />
    <path
       stroke="#80ae8f"
       vector-effect="non-scaling-stroke"
       d="   M 473.27 467.93   L 414.33 593.87"
       id="path284"
       style="stroke:none" />
    <path
       stroke="#ade3a6"
       vector-effect="non-scaling-stroke"
       d="   M 414.33 593.87   C 411.61 592.36 408.36 591.18 406.05 589.83   C 394.15 582.90 385.78 572.80 378.19 561.24   Q 371.15 550.51 364.59 542.54   Q 361.68 539.01 357.48 536.42   Q 344.39 528.35 328.20 522.27   Q 319.85 519.14 311.66 517.47   Q 306.98 516.51 304.14 516.97   Q 298.84 517.84 293.32 521.74   C 286.52 526.54 278.95 532.20 270.97 533.93   Q 264.36 535.36 262.67 528.86   Q 259.18 515.37 255.60 501.57   A 0.84 0.83 -1.1 0 0 254.97 500.97   C 248.06 499.51 241.59 498.53 235.25 494.89   A 1.47 1.47 0.0 0 1 234.65 492.98   C 238.93 483.96 244.82 475.66 250.28 467.08   A 0.91 0.90 20.3 0 0 249.64 465.70   Q 246.89 465.31 244.35 464.54   C 242.12 463.85 240.10 464.53 238.42 466.01   Q 231.45 472.13 223.33 480.56   Q 221.06 482.92 218.11 484.46   A 1.35 1.35 0.0 0 1 216.46 484.15   Q 207.85 474.30 206.38 461.85   C 205.01 450.28 210.48 443.60 219.38 437.96   Q 232.37 429.73 251.03 425.03   C 261.66 422.34 268.32 427.32 273.25 436.25   Q 277.11 443.26 280.16 451.47   A 0.94 0.94 0.0 0 0 281.26 452.06   L 284.04 451.43   Q 284.61 451.30 284.64 450.73   C 285.14 441.68 284.02 433.31 283.33 424.49   C 282.81 417.93 283.53 409.86 287.70 404.67   Q 298.01 391.86 314.59 373.69   Q 324.55 362.78 335.10 354.61   C 344.72 347.16 354.67 342.40 365.65 337.37   Q 371.30 334.79 378.34 330.27   Q 389.43 323.17 393.50 310.73   C 395.60 304.31 394.47 299.03 389.75 294.42   C 382.23 287.11 362.93 267.91 351.26 274.31   Q 348.27 275.95 345.20 279.49   Q 340.61 284.77 336.13 290.74   C 328.52 300.89 316.38 309.51 303.64 301.36   Q 297.53 297.45 293.78 291.83   C 290.95 287.59 291.49 282.95 296.64 280.94   C 309.25 276.05 321.56 268.74 330.58 258.33   A 1.00 1.00 0.0 0 0 330.27 256.78   Q 328.26 255.78 325.76 255.56   Q 317.63 254.81 309.96 254.68   Q 307.66 254.64 309.58 253.36   Q 334.68 236.66 357.95 226.09   Q 367.68 221.67 372.34 218.17   C 402.00 195.92 397.59 149.16 363.32 133.42   Q 349.52 127.08 333.77 129.66   Q 326.78 130.80 316.50 135.68   Q 290.18 148.18 270.35 160.35   Q 158.18 229.24 97.30 346.30   Q 76.05 387.16 62.54 436.04"
       id="path286"
       style="stroke:none" />
    <path
       stroke="#80ae8f"
       vector-effect="non-scaling-stroke"
       d="   M 62.54 436.04   L 44.31 394.63   Q 44.03 394.00 43.34 394.00   L 40.52 394.00   A 0.85 0.84 3.9 0 0 39.68 394.73   L 3.93 653.79   A 0.63 0.62 4.0 0 0 4.55 654.50   L 28.33 654.50   A 0.79 0.79 0.0 0 0 29.11 653.81   L 52.76 469.27   Q 52.82 468.78 53.09 469.20   Q 54.10 470.77 54.43 472.14"
       id="path288"
       style="stroke:none" />
    <path
       stroke="#ade3a6"
       vector-effect="non-scaling-stroke"
       d="   M 54.43 472.14   Q 47.24 509.92 46.50 546.75   Q 43.71 683.50 113.45 799.52   C 159.47 876.07 228.15 938.36 308.26 977.37   Q 392.13 1018.22 486.76 1023.32   Q 491.88 1023.59 496.98 1024.00"
       id="path290"
       style="stroke:none" />
    <path
       stroke="#ade3a6"
       vector-effect="non-scaling-stroke"
       d="   M 419.89 260.38   C 422.28 268.92 426.45 276.00 433.01 282.34   C 436.82 286.01 441.95 282.07 444.31 278.69   Q 444.60 278.27 444.52 277.76   C 444.24 275.78 443.56 274.12 443.52 272.04   C 443.31 260.96 443.90 250.82 443.71 238.60   Q 443.67 235.84 443.96 233.42   C 444.45 229.22 446.78 219.71 439.61 219.29   C 432.40 218.87 425.18 220.79 418.09 222.43   C 414.53 223.25 413.53 226.20 410.79 228.11   Q 410.31 228.45 410.34 229.04   Q 410.61 235.61 413.06 241.74   C 415.50 247.85 418.10 253.96 419.89 260.38"
       id="path292"
       style="stroke:none" />
    <path
       stroke="#ade3a6"
       vector-effect="non-scaling-stroke"
       d="   M 372.81 248.04   Q 372.52 251.57 369.53 254.29   C 367.70 255.96 364.81 255.82 362.58 257.11   Q 355.61 261.14 350.23 262.21   Q 349.45 262.37 349.90 263.02   Q 351.05 264.65 353.02 264.71   C 355.86 264.79 358.38 264.15 361.30 264.97   Q 367.40 266.67 373.49 265.79   Q 381.42 264.65 391.50 261.35   C 396.52 259.71 400.83 255.81 402.88 250.94   C 405.00 245.92 395.23 241.94 391.54 240.53   Q 374.90 234.20 356.12 232.25   Q 355.57 232.19 355.08 232.44   L 351.97 234.02   Q 351.50 234.26 351.50 234.79   L 351.50 238.27   A 1.39 1.38 -65.7 0 0 351.84 239.18   C 356.63 244.59 362.14 245.24 368.68 246.97   C 369.83 247.27 370.87 247.33 372.02 247.24   Q 372.88 247.18 372.81 248.04"
       id="path294"
       style="stroke:none" />
    <path
       stroke="#ade3a6"
       vector-effect="non-scaling-stroke"
       d="   M 266.14 463.51   C 271.44 467.90 278.07 470.86 284.47 474.09   C 286.78 475.26 288.43 477.09 290.45 478.64   A 1.88 1.87 -51.4 0 0 293.02 478.35   C 294.91 476.11 297.23 470.09 294.62 467.52   C 292.46 465.41 288.07 463.87 285.15 463.11   Q 278.68 461.42 273.79 459.34   Q 270.13 457.78 264.62 458.32   A 0.75 0.74 -3.7 0 0 263.95 459.08   Q 264.02 461.76 266.14 463.51"
       id="path296"
       style="stroke:none" />
    <path
       stroke="#ade3a6"
       vector-effect="non-scaling-stroke"
       d="   M 322.33 478.12   C 317.52 474.73 312.21 473.01 307.91 468.94   A 1.77 1.77 0.0 0 0 305.25 469.21   Q 302.84 472.63 300.58 476.08   C 297.07 481.45 303.68 485.85 308.20 484.80   Q 315.14 483.19 322.29 478.96   Q 322.96 478.57 322.33 478.12"
       id="path298"
       style="stroke:none" />
    <path
       stroke="#2e9236"
       vector-effect="non-scaling-stroke"
       d="   M 550.06 468.78   L 515.20 394.30   A 0.95 0.94 76.9 0 0 514.33 393.75   L 509.25 393.75   Q 508.64 393.75 508.37 394.31   L 473.84 467.59   Q 473.76 467.77 473.57 467.84   Q 473.45 467.88 473.27 467.93"
       id="path300"
       style="stroke:none" />
    <path
       stroke="#ade3a6"
       vector-effect="non-scaling-stroke"
       d="   M 518.0715 136.2407   A 0.60 0.60 0.0 0 0 517.7715 135.4470   L 506.9987 130.5829   A 0.60 0.60 0.0 0 0 506.2050 130.8828   L 506.1885 130.9193   A 0.60 0.60 0.0 0 0 506.4885 131.7130   L 517.2613 136.5771   A 0.60 0.60 0.0 0 0 518.0550 136.2772   L 518.0715 136.2407"
       id="path302"
       style="stroke:none" />
    <path
       stroke="#ade3a6"
       vector-effect="non-scaling-stroke"
       d="   M 513.40 223.63   L 510.71 222.58   Q 510.37 222.45 510.37 222.81   L 510.37 223.51   Q 510.37 223.67 510.53 223.71   Q 511.88 224.02 513.18 224.79   Q 513.63 225.06 513.63 224.54   L 513.63 223.97   A 0.37 0.36 -79.5 0 0 513.40 223.63"
       id="path304"
       style="stroke:none" />
    <path
       stroke="#2e9236"
       vector-effect="non-scaling-stroke"
       d="   M 414.33 593.87   L 385.80 654.32   A 0.48 0.48 0.0 0 0 386.23 655.00   L 414.46 655.00   Q 414.89 655.00 415.08 654.61   L 434.17 613.55   Q 434.27 613.33 434.44 613.17   L 434.66 612.96"
       id="path306"
       style="stroke:none" />
    <path
       stroke="#ade3a6"
       vector-effect="non-scaling-stroke"
       d="   M 434.66 612.96   Q 435.19 613.38 435.42 614.01   C 438.64 622.63 438.18 632.26 436.33 640.93   Q 432.96 656.73 425.92 678.20   C 421.79 690.76 414.06 701.69 407.12 712.93   C 401.56 721.94 397.16 730.70 393.55 739.58   Q 390.59 746.84 388.11 752.61   Q 385.64 758.36 378.71 765.62   Q 373.02 771.57 366.91 777.83   Q 359.85 785.07 357.37 793.04   C 355.18 800.07 354.04 807.61 355.43 815.18   Q 356.41 820.47 356.97 825.43   C 358.14 835.87 361.99 845.81 365.27 855.83   Q 365.89 857.73 366.01 859.97   A 1.53 1.53 0.0 0 1 364.14 861.54   Q 357.38 860.01 350.88 856.85   C 346.99 854.95 343.87 851.00 341.35 847.52   C 328.12 829.30 319.53 803.78 317.34 781.41   Q 315.87 766.35 315.18 744.79   Q 314.80 733.16 313.24 720.16   C 311.53 705.85 308.52 688.40 297.49 678.36   C 291.62 673.01 283.86 669.24 278.78 664.23   Q 275.46 660.95 271.95 658.08   C 264.67 652.12 257.78 642.74 258.38 632.84   Q 259.60 612.49 265.85 591.10   C 268.96 580.45 273.66 570.38 276.94 559.79   Q 277.97 556.48 275.88 552.52   Q 271.57 544.33 260.31 539.39   Q 257.81 538.29 255.98 536.50   C 246.77 527.45 236.68 518.12 225.49 511.03   Q 221.23 508.34 217.99 507.48   Q 208.56 505.00 201.44 501.18"
       id="path308"
       style="stroke:none" />
    <path
       stroke="#2e9236"
       vector-effect="non-scaling-stroke"
       d="   M 201.44 501.18   L 186.34 394.73   Q 186.24 394.00 185.50 394.00   L 182.67 394.00   Q 182.01 393.99 181.73 394.59   L 110.77 544.53   A 0.27 0.27 0.0 0 1 110.28 544.52   L 62.54 436.04"
       id="path310"
       style="stroke:none" />
    <path
       stroke="#2e9236"
       vector-effect="non-scaling-stroke"
       d="   M 952.75 407.61   Q 936.65 400.77 923.50 398.29   Q 904.14 394.62 892.35 394.48   Q 848.30 393.93 801.42 393.50   Q 800.73 393.49 800.73 394.18   L 800.73 431.92"
       id="path312"
       style="stroke:none" />
    <path
       stroke="#ade3a6"
       vector-effect="non-scaling-stroke"
       d="   M 800.73 431.92   Q 797.40 431.52 794.18 430.58   C 782.01 427.01 769.22 425.34 757.53 420.90   Q 756.93 420.67 757.08 421.29   Q 758.89 428.89 761.09 432.58   C 763.76 437.07 770.99 440.73 775.89 442.93   Q 783.29 446.25 789.79 449.86   C 799.45 455.22 792.60 465.44 786.87 470.88   C 781.39 476.08 776.26 481.47 770.20 486.14   Q 758.49 495.18 746.99 501.34   Q 740.63 504.75 736.29 500.57   C 730.17 494.67 725.58 484.30 722.79 476.03   C 715.75 455.15 707.92 435.84 694.91 418.67   A 1.03 1.03 0.0 0 0 693.13 418.90   C 692.15 421.30 691.94 423.55 692.82 426.17   C 696.52 437.20 700.31 448.12 705.43 458.80   Q 712.07 472.63 721.75 491.43   Q 727.80 503.19 734.62 513.37   Q 736.04 515.49 737.88 517.57   Q 740.50 520.51 743.46 518.56   Q 746.93 516.28 750.54 512.72   C 752.92 510.37 756.76 507.20 760.30 508.67   C 766.62 511.31 764.51 518.06 761.99 522.40   Q 757.29 530.48 751.47 542.11   C 750.04 544.96 747.85 548.02 745.63 550.43   Q 726.20 571.53 726.46 601.85   C 726.59 617.88 730.54 634.78 728.14 650.76   C 726.64 660.79 721.10 666.66 715.11 674.22   C 710.75 679.73 707.37 687.65 704.82 694.31   Q 696.96 714.90 690.15 732.26   Q 686.30 742.09 683.34 746.42   C 678.94 752.83 672.89 758.78 666.88 764.15   C 661.31 769.13 653.22 771.39 646.31 769.52   C 642.92 768.60 639.20 763.24 637.53 760.29   C 630.52 747.91 625.66 733.83 621.85 720.14   Q 619.64 712.19 618.15 701.38   Q 614.99 678.38 615.91 655.03"
       id="path314"
       style="stroke:none" />
    <path
       stroke="#2e9236"
       vector-effect="non-scaling-stroke"
       d="   M 615.91 655.03   L 636.54 655.01   A 0.38 0.37 77.8 0 0 636.88 654.48   L 601.46 578.70"
       id="path316"
       style="stroke:none" />
    <path
       stroke="#ade3a6"
       vector-effect="non-scaling-stroke"
       d="   M 601.46 578.70   L 602.29 551.19   Q 602.31 550.68 601.79 550.66   L 588.09 550.17"
       id="path318"
       style="stroke:none" />
    <path
       stroke="#2e9236"
       vector-effect="non-scaling-stroke"
       d="   M 588.09 550.17   L 555.83 481.19"
       id="path320"
       style="stroke:none" />
    <path
       stroke="#2e9236"
       vector-effect="non-scaling-stroke"
       d="   M 971.53 634.25   Q 971.22 634.17 971.01 634.15   Q 970.76 634.13 970.52 634.33   Q 964.39 639.34 956.56 642.86   Q 940.21 650.20 921.74 652.92   C 901.82 655.86 882.21 655.03 862.57 655.02"
       id="path322"
       style="stroke:none" />
    <path
       stroke="#80ae8f"
       vector-effect="non-scaling-stroke"
       d="   M 862.57 655.02   L 801.02 655.03   Q 800.50 655.03 800.50 654.51   L 800.73 431.92"
       id="path324"
       style="stroke:none" />
    <path
       stroke="#80ae8f"
       vector-effect="non-scaling-stroke"
       d="   M 826.61 457.49   L 825.80 629.17   Q 825.79 629.70 826.33 629.69   L 869.30 629.08"
       id="path326"
       style="stroke:none" />
    <path
       stroke="#2e9236"
       vector-effect="non-scaling-stroke"
       d="   M 869.30 629.08   Q 889.15 628.93 894.75 628.69   Q 914.34 627.85 935.54 620.58   Q 953.51 614.41 965.42 602.91   Q 970.35 598.15 976.82 588.42"
       id="path328"
       style="stroke:none" />
    <path
       stroke="#80ae8f"
       vector-effect="non-scaling-stroke"
       d="   M 976.82 588.42   Q 985.87 575.18 989.88 564.34   Q 994.31 552.34 994.51 538.96   C 994.73 523.36 994.37 507.77 990.94 493.04   Q 985.12 468.07 965.15 450.88"
       id="path330"
       style="stroke:none" />
    <path
       stroke="#2e9236"
       vector-effect="non-scaling-stroke"
       d="   M 965.15 450.88   Q 947.50 433.28 923.65 426.44   Q 919.24 425.17 910.32 423.19   Q 901.49 421.22 895.33 421.03   Q 861.59 419.97 827.33 419.07   Q 826.83 419.06 826.83 419.55   L 826.61 457.49"
       id="path332"
       style="stroke:none" />
    <path
       stroke="#ade3a6"
       vector-effect="non-scaling-stroke"
       d="   M 965.15 450.88   Q 976.60 499.42 977.50 548.00   Q 977.84 566.39 976.82 588.42"
       id="path334"
       style="stroke:none" />
    <path
       stroke="#ade3a6"
       vector-effect="non-scaling-stroke"
       d="   M 869.30 629.08   Q 869.02 628.39 869.10 627.99   Q 881.07 568.13 873.34 508.07   Q 873.20 507.01 872.94 508.04   Q 872.11 511.34 871.26 515.16   Q 870.64 517.99 869.07 519.72   Q 865.62 523.54 862.00 526.30   A 0.76 0.75 53.1 0 1 860.93 526.14   Q 848.80 509.55 840.91 490.83   Q 834.07 474.58 826.61 457.49"
       id="path336"
       style="stroke:none" />
    <path
       stroke="#80ae8f"
       vector-effect="non-scaling-stroke"
       d="   M 588.09 550.17   L 601.46 578.70"
       id="path338"
       style="stroke:none" />
    <path
       stroke="#80ae8f"
       vector-effect="non-scaling-stroke"
       d="   M 615.91 655.03   L 609.00 654.98   A 0.48 0.48 0.0 0 1 608.57 654.71   L 567.93 569.46   Q 567.71 568.99 567.19 568.99   L 455.44 569.00   A 0.93 0.92 -77.5 0 0 454.60 569.54   L 434.66 612.96"
       id="path340"
       style="stroke:none" />
    <path
       stroke="#80ae8f"
       vector-effect="non-scaling-stroke"
       d="   M 495.24 485.61   L 468.39 543.08   Q 468.14 543.62 468.73 543.61   L 537.69 542.87"
       id="path342"
       style="stroke:none" />
    <path
       stroke="#2e9236"
       vector-effect="non-scaling-stroke"
       d="   M 537.69 542.87   L 555.26 542.72   Q 555.58 542.72 555.44 542.44   L 533.48 496.05"
       id="path344"
       style="stroke:none" />
    <path
       stroke="#80ae8f"
       vector-effect="non-scaling-stroke"
       d="   M 533.48 496.05   L 528.58 485.73"
       id="path346"
       style="stroke:none" />
    <path
       stroke="#2e9236"
       vector-effect="non-scaling-stroke"
       d="   M 528.58 485.73   L 511.98 450.70   A 0.24 0.24 0.0 0 0 511.55 450.70   L 495.24 485.61"
       id="path348"
       style="stroke:none" />
    <path
       stroke="#ade3a6"
       vector-effect="non-scaling-stroke"
       d="   M 528.58 485.73   Q 511.73 491.86 495.24 485.61"
       id="path350"
       style="stroke:none" />
    <path
       stroke="#ade3a6"
       vector-effect="non-scaling-stroke"
       d="   M 533.48 496.05   C 525.09 498.98 519.04 500.03 511.22 500.25   Q 510.19 500.28 510.49 501.27   C 512.52 507.91 515.97 514.17 519.47 520.15   Q 527.02 533.05 537.69 542.87"
       id="path352"
       style="stroke:none" />
    <path
       stroke="#80ae8f"
       vector-effect="non-scaling-stroke"
       d="   M 201.44 501.18   L 223.10 653.76   Q 223.21 654.50 222.46 654.50   L 198.47 654.50   A 0.57 0.56 85.9 0 1 197.91 654.01   L 172.22 470.06   Q 172.15 469.57 171.94 470.02   Q 161.30 492.21 150.90 514.48   Q 150.35 515.67 150.60 516.41"
       id="path354"
       style="stroke:none" />
    <path
       stroke="#2e9236"
       vector-effect="non-scaling-stroke"
       d="   M 150.60 516.41   Q 149.61 517.25 148.53 519.51   Q 131.68 555.23 114.85 590.95   Q 114.59 591.50 113.99 591.50   L 108.01 591.50   Q 107.40 591.50 107.16 590.94   L 54.43 472.14"
       id="path356"
       style="stroke:none" />
    <path
       stroke="#ade3a6"
       vector-effect="non-scaling-stroke"
       d="   M 862.57 655.02   Q 848.19 704.97 822.02 746.78   Q 763.13 840.90 660.89 887.74   Q 652.25 891.70 642.11 895.51   C 555.48 928.08 461.27 927.06 375.60 892.64   Q 366.26 888.89 357.19 884.53   Q 260.47 838.04 203.35 747.33   Q 198.01 738.84 193.25 730.06   Q 139.40 630.73 150.60 516.41"
       id="path358"
       style="stroke:none" />
    <path
       stroke="#ade3a6"
       vector-effect="non-scaling-stroke"
       d="   M 737.66 671.02   Q 732.14 682.55 728.41 698.47   C 727.83 700.97 727.28 702.90 728.89 705.07   C 731.06 707.99 735.67 711.11 739.42 708.78   Q 746.99 704.07 755.14 692.89   C 760.87 685.02 760.21 675.82 762.15 666.79   Q 763.79 659.15 763.97 649.85   C 764.04 646.46 761.44 642.13 757.68 645.39   Q 751.28 650.93 744.85 658.24   C 741.65 661.88 739.76 666.61 737.66 671.02"
       id="path360"
       style="stroke:none" />
  </g>
  <path
     fill="#5bc74c"
     d="m 550.06,468.78 c -59.56203,-4.19061 -11.90645,1.37374 -76.22,-1.19 -0.0533,0.12 -0.14333,0.20333 -0.27,0.25 -0.08,0.0267 -0.18,0.0567 -0.3,0.09 -2.44667,-3.84667 -4.26667,-7.96667 -5.46,-12.36 -0.90667,-3.31333 -1.35667,-7.19 -1.35,-11.63 0.0667,-133.73333 0.0667,-266.28 0,-397.64 -0.007,-4.913333 0.44667,-9.033333 1.36,-12.36 4.7,-17.08 19.2,-29.82 36.85,-32.47 7.08,-1.06666667 13.86,-0.65 20.34,1.25 15.25,4.46 27.82,16.56 31.42,32.32 0.76667,3.36 1.14667,7.41 1.14,12.15 -0.13333,132.23333 -0.13,264.33333 0.01,396.3 0.01,9.71 -2.23,17.56 -7.52,25.29 z"
     id="path366"
     sodipodi:nodetypes="cccccccccccccc"
     style="stroke:none" />
  <path
     fill="#5bc74c"
     d="   M 414.33 593.87   L 385.80 654.32   A 0.48 0.48 0.0 0 0 386.23 655.00   L 414.46 655.00   Q 414.89 655.00 415.08 654.61   L 434.17 613.55   Q 434.27 613.33 434.44 613.17   L 434.66 612.96   Q 435.19 613.38 435.42 614.01   C 438.64 622.63 438.18 632.26 436.33 640.93   Q 432.96 656.73 425.92 678.20   C 421.79 690.76 414.06 701.69 407.12 712.93   C 401.56 721.94 397.16 730.70 393.55 739.58   Q 390.59 746.84 388.11 752.61   Q 385.64 758.36 378.71 765.62   Q 373.02 771.57 366.91 777.83   Q 359.85 785.07 357.37 793.04   C 355.18 800.07 354.04 807.61 355.43 815.18   Q 356.41 820.47 356.97 825.43   C 358.14 835.87 361.99 845.81 365.27 855.83   Q 365.89 857.73 366.01 859.97   A 1.53 1.53 0.0 0 1 364.14 861.54   Q 357.38 860.01 350.88 856.85   C 346.99 854.95 343.87 851.00 341.35 847.52   C 328.12 829.30 319.53 803.78 317.34 781.41   Q 315.87 766.35 315.18 744.79   Q 314.80 733.16 313.24 720.16   C 311.53 705.85 308.52 688.40 297.49 678.36   C 291.62 673.01 283.86 669.24 278.78 664.23   Q 275.46 660.95 271.95 658.08   C 264.67 652.12 257.78 642.74 258.38 632.84   Q 259.60 612.49 265.85 591.10   C 268.96 580.45 273.66 570.38 276.94 559.79   Q 277.97 556.48 275.88 552.52   Q 271.57 544.33 260.31 539.39   Q 257.81 538.29 255.98 536.50   C 246.77 527.45 236.68 518.12 225.49 511.03   Q 221.23 508.34 217.99 507.48   Q 208.56 505.00 201.44 501.18   L 186.34 394.73   Q 186.24 394.00 185.50 394.00   L 182.67 394.00   Q 182.01 393.99 181.73 394.59   L 110.77 544.53   A 0.27 0.27 0.0 0 1 110.28 544.52   L 62.54 436.04   Q 76.05 387.16 97.30 346.30   Q 158.18 229.24 270.35 160.35   Q 290.18 148.18 316.50 135.68   Q 326.78 130.80 333.77 129.66   Q 349.52 127.08 363.32 133.42   C 397.59 149.16 402.00 195.92 372.34 218.17   Q 367.68 221.67 357.95 226.09   Q 334.68 236.66 309.58 253.36   Q 307.66 254.64 309.96 254.68   Q 317.63 254.81 325.76 255.56   Q 328.26 255.78 330.27 256.78   A 1.00 1.00 0.0 0 1 330.58 258.33   C 321.56 268.74 309.25 276.05 296.64 280.94   C 291.49 282.95 290.95 287.59 293.78 291.83   Q 297.53 297.45 303.64 301.36   C 316.38 309.51 328.52 300.89 336.13 290.74   Q 340.61 284.77 345.20 279.49   Q 348.27 275.95 351.26 274.31   C 362.93 267.91 382.23 287.11 389.75 294.42   C 394.47 299.03 395.60 304.31 393.50 310.73   Q 389.43 323.17 378.34 330.27   Q 371.30 334.79 365.65 337.37   C 354.67 342.40 344.72 347.16 335.10 354.61   Q 324.55 362.78 314.59 373.69   Q 298.01 391.86 287.70 404.67   C 283.53 409.86 282.81 417.93 283.33 424.49   C 284.02 433.31 285.14 441.68 284.64 450.73   Q 284.61 451.30 284.04 451.43   L 281.26 452.06   A 0.94 0.94 0.0 0 1 280.16 451.47   Q 277.11 443.26 273.25 436.25   C 268.32 427.32 261.66 422.34 251.03 425.03   Q 232.37 429.73 219.38 437.96   C 210.48 443.60 205.01 450.28 206.38 461.85   Q 207.85 474.30 216.46 484.15   A 1.35 1.35 0.0 0 0 218.11 484.46   Q 221.06 482.92 223.33 480.56   Q 231.45 472.13 238.42 466.01   C 240.10 464.53 242.12 463.85 244.35 464.54   Q 246.89 465.31 249.64 465.70   A 0.91 0.90 20.3 0 1 250.28 467.08   C 244.82 475.66 238.93 483.96 234.65 492.98   A 1.47 1.47 0.0 0 0 235.25 494.89   C 241.59 498.53 248.06 499.51 254.97 500.97   A 0.84 0.83 -1.1 0 1 255.60 501.57   Q 259.18 515.37 262.67 528.86   Q 264.36 535.36 270.97 533.93   C 278.95 532.20 286.52 526.54 293.32 521.74   Q 298.84 517.84 304.14 516.97   Q 306.98 516.51 311.66 517.47   Q 319.85 519.14 328.20 522.27   Q 344.39 528.35 357.48 536.42   Q 361.68 539.01 364.59 542.54   Q 371.15 550.51 378.19 561.24   C 385.78 572.80 394.15 582.90 406.05 589.83   C 408.36 591.18 411.61 592.36 414.33 593.87   Z"
     id="path368"
     style="stroke:none" />
  <path
     fill="#5bc74c"
     d="   M 952.75 407.61   Q 936.65 400.77 923.50 398.29   Q 904.14 394.62 892.35 394.48   Q 848.30 393.93 801.42 393.50   Q 800.73 393.49 800.73 394.18   L 800.73 431.92   Q 797.40 431.52 794.18 430.58   C 782.01 427.01 769.22 425.34 757.53 420.90   Q 756.93 420.67 757.08 421.29   Q 758.89 428.89 761.09 432.58   C 763.76 437.07 770.99 440.73 775.89 442.93   Q 783.29 446.25 789.79 449.86   C 799.45 455.22 792.60 465.44 786.87 470.88   C 781.39 476.08 776.26 481.47 770.20 486.14   Q 758.49 495.18 746.99 501.34   Q 740.63 504.75 736.29 500.57   C 730.17 494.67 725.58 484.30 722.79 476.03   C 715.75 455.15 707.92 435.84 694.91 418.67   A 1.03 1.03 0.0 0 0 693.13 418.90   C 692.15 421.30 691.94 423.55 692.82 426.17   C 696.52 437.20 700.31 448.12 705.43 458.80   Q 712.07 472.63 721.75 491.43   Q 727.80 503.19 734.62 513.37   Q 736.04 515.49 737.88 517.57   Q 740.50 520.51 743.46 518.56   Q 746.93 516.28 750.54 512.72   C 752.92 510.37 756.76 507.20 760.30 508.67   C 766.62 511.31 764.51 518.06 761.99 522.40   Q 757.29 530.48 751.47 542.11   C 750.04 544.96 747.85 548.02 745.63 550.43   Q 726.20 571.53 726.46 601.85   C 726.59 617.88 730.54 634.78 728.14 650.76   C 726.64 660.79 721.10 666.66 715.11 674.22   C 710.75 679.73 707.37 687.65 704.82 694.31   Q 696.96 714.90 690.15 732.26   Q 686.30 742.09 683.34 746.42   C 678.94 752.83 672.89 758.78 666.88 764.15   C 661.31 769.13 653.22 771.39 646.31 769.52   C 642.92 768.60 639.20 763.24 637.53 760.29   C 630.52 747.91 625.66 733.83 621.85 720.14   Q 619.64 712.19 618.15 701.38   Q 614.99 678.38 615.91 655.03   L 636.54 655.01   A 0.38 0.37 77.8 0 0 636.88 654.48   L 601.46 578.70   L 602.29 551.19   Q 602.31 550.68 601.79 550.66   L 588.09 550.17   L 555.83 481.19   Q 566.02 471.53 568.34 468.03   Q 575.21 457.71 577.64 445.07   C 582.16 421.65 581.70 396.87 581.45 372.87   Q 581.45 372.32 582.00 372.37   Q 591.84 373.27 600.66 375.68   Q 604.53 376.73 607.88 379.10   Q 625.74 391.73 643.80 403.99   Q 649.30 407.72 653.74 409.78   C 660.49 412.90 669.33 409.83 675.42 405.78   Q 683.12 400.67 691.04 396.11   Q 696.48 392.99 700.17 387.73   C 704.84 381.10 689.73 381.40 687.24 381.57   C 683.74 381.81 679.33 382.40 676.21 380.39   C 670.62 376.77 666.92 373.22 664.75 366.77   C 663.27 362.38 661.86 357.91 659.07 354.16   A 0.55 0.55 0.0 0 0 658.11 354.32   Q 655.95 361.02 653.47 368.31   Q 652.56 370.96 651.10 372.89   Q 649.68 374.77 648.55 372.70   Q 645.96 367.97 643.38 363.58   Q 642.43 361.96 640.55 360.50   Q 640.19 360.22 639.73 360.23   Q 637.03 360.29 635.69 364.04   Q 635.34 365.03 634.32 364.74   Q 630.15 363.55 626.56 362.46   C 622.38 361.19 619.08 357.48 616.08 354.22   C 610.90 348.59 603.96 345.39 596.28 347.49   C 591.05 348.92 586.21 351.88 581.92 355.25   Q 581.37 355.68 581.31 354.99   Q 580.55 346.37 580.55 343.96   Q 580.58 329.22 580.07 314.50   C 579.98 312.01 580.75 307.93 581.82 305.29   C 583.96 299.94 593.01 282.27 601.03 289.25   C 604.39 292.18 608.84 295.86 613.26 295.47   Q 618.16 295.03 623.45 292.13   Q 631.33 287.81 638.56 284.17   Q 641.84 282.52 643.84 279.91   C 646.41 276.57 645.28 269.59 643.46 266.30   Q 639.87 259.78 632.54 262.07   Q 628.95 263.20 626.78 267.98   C 623.97 274.19 620.53 282.26 612.37 282.41   Q 607.11 282.51 602.38 281.10   Q 596.84 279.45 591.39 277.89   Q 586.70 276.56 586.39 272.56   C 585.31 258.57 588.69 249.14 601.99 243.57   Q 616.88 237.33 629.50 237.03   Q 658.24 236.34 686.23 236.52   Q 687.77 236.53 686.42 235.80   Q 675.21 229.73 666.05 225.61   Q 656.15 221.16 651.89 217.68   C 635.08 203.98 628.58 182.98 635.42 162.45   C 643.15 139.26 666.71 125.72 690.63 129.52   Q 696.07 130.38 703.37 133.74   Q 769.87 164.30 822.15 211.09   Q 912.34 291.82 952.75 407.61   Z"
     id="path370"
     style="stroke:none" />
  <path
     fill="#5bc74c"
     d="   M 433.01 282.34   C 426.45 276.00 422.28 268.92 419.89 260.38   C 418.10 253.96 415.50 247.85 413.06 241.74   Q 410.61 235.61 410.34 229.04   Q 410.31 228.45 410.79 228.11   C 413.53 226.20 414.53 223.25 418.09 222.43   C 425.18 220.79 432.40 218.87 439.61 219.29   C 446.78 219.71 444.45 229.22 443.96 233.42   Q 443.67 235.84 443.71 238.60   C 443.90 250.82 443.31 260.96 443.52 272.04   C 443.56 274.12 444.24 275.78 444.52 277.76   Q 444.60 278.27 444.31 278.69   C 441.95 282.07 436.82 286.01 433.01 282.34   Z"
     id="path374"
     style="stroke:none" />
  <path
     fill="#5bc74c"
     d="   M 372.02 247.24   C 370.87 247.33 369.83 247.27 368.68 246.97   C 362.14 245.24 356.63 244.59 351.84 239.18   A 1.39 1.38 -65.7 0 1 351.50 238.27   L 351.50 234.79   Q 351.50 234.26 351.97 234.02   L 355.08 232.44   Q 355.57 232.19 356.12 232.25   Q 374.90 234.20 391.54 240.53   C 395.23 241.94 405.00 245.92 402.88 250.94   C 400.83 255.81 396.52 259.71 391.50 261.35   Q 381.42 264.65 373.49 265.79   Q 367.40 266.67 361.30 264.97   C 358.38 264.15 355.86 264.79 353.02 264.71   Q 351.05 264.65 349.90 263.02   Q 349.45 262.37 350.23 262.21   Q 355.61 261.14 362.58 257.11   C 364.81 255.82 367.70 255.96 369.53 254.29   Q 372.52 251.57 372.81 248.04   Q 372.88 247.18 372.02 247.24   Z"
     id="path378"
     style="stroke:none" />
  <path
     fill="#005c1f"
     d="   M 952.75 407.61   Q 963.75 413.51 971.42 419.83   C 983.85 430.08 996.15 441.63 1003.70 456.41   Q 1017.15 482.75 1019.78 514.20   Q 1020.35 520.97 1020.66 527.90   Q 1021.53 547.18 1016.64 564.32   C 1012.38 579.23 1007.15 595.27 997.60 606.67   Q 985.72 620.87 971.69 633.45   Q 971.17 633.92 971.53 634.25   Q 971.22 634.17 971.01 634.15   Q 970.76 634.13 970.52 634.33   Q 964.39 639.34 956.56 642.86   Q 940.21 650.20 921.74 652.92   C 901.82 655.86 882.21 655.03 862.57 655.02   L 801.02 655.03   Q 800.50 655.03 800.50 654.51   L 800.73 431.92   L 800.73 394.18   Q 800.73 393.49 801.42 393.50   Q 848.30 393.93 892.35 394.48   Q 904.14 394.62 923.50 398.29   Q 936.65 400.77 952.75 407.61   Z   M 826.61 457.49   L 825.80 629.17   Q 825.79 629.70 826.33 629.69   L 869.30 629.08   Q 889.15 628.93 894.75 628.69   Q 914.34 627.85 935.54 620.58   Q 953.51 614.41 965.42 602.91   Q 970.35 598.15 976.82 588.42   Q 985.87 575.18 989.88 564.34   Q 994.31 552.34 994.51 538.96   C 994.73 523.36 994.37 507.77 990.94 493.04   Q 985.12 468.07 965.15 450.88   Q 947.50 433.28 923.65 426.44   Q 919.24 425.17 910.32 423.19   Q 901.49 421.22 895.33 421.03   Q 861.59 419.97 827.33 419.07   Q 826.83 419.06 826.83 419.55   L 826.61 457.49   Z"
     id="path380"
     style="stroke:none" />
  <path
     fill="#005c1f"
     d="   M 550.06 468.78   L 555.83 481.19   L 588.09 550.17   L 601.46 578.70   L 636.88 654.48   A 0.38 0.37 77.8 0 1 636.54 655.01   L 615.91 655.03   L 609.00 654.98   A 0.48 0.48 0.0 0 1 608.57 654.71   L 567.93 569.46   Q 567.71 568.99 567.19 568.99   L 455.44 569.00   A 0.93 0.92 -77.5 0 0 454.60 569.54   L 434.66 612.96   L 434.44 613.17   Q 434.27 613.33 434.17 613.55   L 415.08 654.61   Q 414.89 655.00 414.46 655.00   L 386.23 655.00   A 0.48 0.48 0.0 0 1 385.80 654.32   L 414.33 593.87   L 473.27 467.93   Q 473.45 467.88 473.57 467.84   Q 473.76 467.77 473.84 467.59   L 508.37 394.31   Q 508.64 393.75 509.25 393.75   L 514.33 393.75   A 0.95 0.94 76.9 0 1 515.20 394.30   L 550.06 468.78   Z   M 495.24 485.61   L 468.39 543.08   Q 468.14 543.62 468.73 543.61   L 537.69 542.87   L 555.26 542.72   Q 555.58 542.72 555.44 542.44   L 533.48 496.05   L 528.58 485.73   L 511.98 450.70   A 0.24 0.24 0.0 0 0 511.55 450.70   L 495.24 485.61   Z"
     id="path382"
     style="stroke:none" />
  <path
     fill="#005c1f"
     d="   M 62.54 436.04   L 110.28 544.52   A 0.27 0.27 0.0 0 0 110.77 544.53   L 181.73 394.59   Q 182.01 393.99 182.67 394.00   L 185.50 394.00   Q 186.24 394.00 186.34 394.73   L 201.44 501.18   L 223.10 653.76   Q 223.21 654.50 222.46 654.50   L 198.47 654.50   A 0.57 0.56 85.9 0 1 197.91 654.01   L 172.22 470.06   Q 172.15 469.57 171.94 470.02   Q 161.30 492.21 150.90 514.48   Q 150.35 515.67 150.60 516.41   Q 149.61 517.25 148.53 519.51   Q 131.68 555.23 114.85 590.95   Q 114.59 591.50 113.99 591.50   L 108.01 591.50   Q 107.40 591.50 107.16 590.94   L 54.43 472.14   Q 54.10 470.77 53.09 469.20   Q 52.82 468.78 52.76 469.27   L 29.11 653.81   A 0.79 0.79 0.0 0 1 28.33 654.50   L 4.55 654.50   A 0.63 0.62 4.0 0 1 3.93 653.79   L 39.68 394.73   A 0.85 0.84 3.9 0 1 40.52 394.00   L 43.34 394.00   Q 44.03 394.00 44.31 394.63   L 62.54 436.04   Z"
     id="path384"
     style="stroke:none" />
  <path
     fill="#5bc74c"
     d="   M 965.15 450.88   Q 976.60 499.42 977.50 548.00   Q 977.84 566.39 976.82 588.42   Q 970.35 598.15 965.42 602.91   Q 953.51 614.41 935.54 620.58   Q 914.34 627.85 894.75 628.69   Q 889.15 628.93 869.30 629.08   Q 869.02 628.39 869.10 627.99   Q 881.07 568.13 873.34 508.07   Q 873.20 507.01 872.94 508.04   Q 872.11 511.34 871.26 515.16   Q 870.64 517.99 869.07 519.72   Q 865.62 523.54 862.00 526.30   A 0.76 0.75 53.1 0 1 860.93 526.14   Q 848.80 509.55 840.91 490.83   Q 834.07 474.58 826.61 457.49   L 826.83 419.55   Q 826.83 419.06 827.33 419.07   Q 861.59 419.97 895.33 421.03   Q 901.49 421.22 910.32 423.19   Q 919.24 425.17 923.65 426.44   Q 947.50 433.28 965.15 450.88   Z"
     id="path388"
     style="stroke:none" />
  <path
     fill="#5bc74c"
     d="   M 528.58 485.73   Q 511.73 491.86 495.24 485.61   L 511.55 450.70   A 0.24 0.24 0.0 0 1 511.98 450.70   L 528.58 485.73   Z"
     id="path390"
     style="stroke:none" />
  <path
     fill="#5bc74c"
     d="   M 284.47 474.09   C 278.07 470.86 271.44 467.90 266.14 463.51   Q 264.02 461.76 263.95 459.08   A 0.75 0.74 -3.7 0 1 264.62 458.32   Q 270.13 457.78 273.79 459.34   Q 278.68 461.42 285.15 463.11   C 288.07 463.87 292.46 465.41 294.62 467.52   C 297.23 470.09 294.91 476.11 293.02 478.35   A 1.88 1.87 -51.4 0 1 290.45 478.64   C 288.43 477.09 286.78 475.26 284.47 474.09   Z"
     id="path396"
     style="stroke:none" />
  <path
     fill="#5bc74c"
     d="   M 307.91 468.94   C 312.21 473.01 317.52 474.73 322.33 478.12   Q 322.96 478.57 322.29 478.96   Q 315.14 483.19 308.20 484.80   C 303.68 485.85 297.07 481.45 300.58 476.08   Q 302.84 472.63 305.25 469.21   A 1.77 1.77 0.0 0 1 307.91 468.94   Z"
     id="path398"
     style="stroke:none" />
  <path
     fill="#5bc74c"
     d="   M 54.43 472.14   L 107.16 590.94   Q 107.40 591.50 108.01 591.50   L 113.99 591.50   Q 114.59 591.50 114.85 590.95   Q 131.68 555.23 148.53 519.51   Q 149.61 517.25 150.60 516.41   Q 139.40 630.73 193.25 730.06   Q 198.01 738.84 203.35 747.33   Q 260.47 838.04 357.19 884.53   Q 366.26 888.89 375.60 892.64   C 461.27 927.06 555.48 928.08 642.11 895.51   Q 652.25 891.70 660.89 887.74   Q 763.13 840.90 822.02 746.78   Q 848.19 704.97 862.57 655.02   C 882.21 655.03 901.82 655.86 921.74 652.92   Q 940.21 650.20 956.56 642.86   Q 964.39 639.34 970.52 634.33   Q 970.76 634.13 971.01 634.15   Q 971.22 634.17 971.53 634.25   C 951.95 753.16 887.26 858.88 791.22 931.25   Q 783.25 937.26 774.96 942.89   Q 663.44 1018.75 527.12 1024.00   L 496.98 1024.00   Q 491.88 1023.59 486.76 1023.32   Q 392.13 1018.22 308.26 977.37   C 228.15 938.36 159.47 876.07 113.45 799.52   Q 43.71 683.50 46.50 546.75   Q 47.24 509.92 54.43 472.14   Z"
     id="path400"
     style="stroke:none" />
  <path
     fill="#5bc74c"
     d="   M 533.48 496.05   L 555.44 542.44   Q 555.58 542.72 555.26 542.72   L 537.69 542.87   Q 527.02 533.05 519.47 520.15   C 515.97 514.17 512.52 507.91 510.49 501.27   Q 510.19 500.28 511.22 500.25   C 519.04 500.03 525.09 498.98 533.48 496.05   Z"
     id="path404"
     style="stroke:none" />
  <path
     fill="#5bc74c"
     d="   M 737.66 671.02   C 739.76 666.61 741.65 661.88 744.85 658.24   Q 751.28 650.93 757.68 645.39   C 761.44 642.13 764.04 646.46 763.97 649.85   Q 763.79 659.15 762.15 666.79   C 760.21 675.82 760.87 685.02 755.14 692.89   Q 746.99 704.07 739.42 708.78   C 735.67 711.11 731.06 707.99 728.89 705.07   C 727.28 702.90 727.83 700.97 728.41 698.47   Q 732.14 682.55 737.66 671.02   Z"
     id="path408"
     style="stroke:none" />
</svg>
