    <svg id="Calque_2" data-name="Calque 2" xmlns="http://www.w3.org/2000/svg" viewBox="20 0 700 580">
      <defs>
        <style>
          .cls-1,
          .cls-2 {
            stroke-width: 0px;
          }

          .cls-2 {
            fill: #fff;
          }
        </style>
      </defs>
      <g id="Calque_1-2" data-name="Calque 1">
        <g>
          <path class="cls-2" d="M 440.4 337.1 c -0.8 -5.8 -2 -11.3 -2.4 -16.9 c -1.1 -19 3.2 -37.2 9.3 -55.1 c 1.7 -5 3.7 -9.9 4.9 -13.2 c -7.6 9 -16.6 19 -24.9 29.6 c -12.6 16.3 -17.3 35.2 -16.6 55.6 c 0.2 5.7 0.1 5.5 -5.1 7.2 c -20.6 6.6 -41.1 13.2 -61.6 20 c -4.4 1.5 -8.5 3.9 -13.2 6 v -13.5 c -3.3 1.9 -6.5 2.9 -8.4 5 c -3.9 4.2 -7 8.9 -10.5 13.4 c -1.5 1.9 -2.8 4.1 -4.6 5.6 c -11.7 9.8 -23.6 19.2 -35.3 29.1 c -2.9 2.4 -5.2 5.7 -7.2 8.9 c -0.9 1.5 -1.1 4.4 -0.3 5.8 c 0.7 1.1 3.7 1.7 5.3 1.2 c 6.3 -1.8 12.5 -4.1 18.8 -6.3 c 11.4 -4 19.2 -12.3 25.7 -22 c 0.3 -0.5 0.7 -0.9 2 -1.1 c -0.2 1.8 0 3.6 -0.6 5.2 c -2.3 7 -5.6 13.4 -11.2 18.3 c -4.2 3.7 -8.4 7.6 -13.2 10.5 c -5.5 3.3 -11.5 5.9 -17.5 8.2 c -10.7 4.2 -21.9 7.2 -32.2 12.1 c -11.3 5.3 -19.7 14.1 -22.6 26.9 c -2.2 9.8 -0.2 19.1 3.2 28.3 c 5.1 13.5 13 25.3 21.7 36.6 c 0.8 1 1.5 1.9 2.8 3.6 c -1.8 -0.6 -2.9 -0.7 -3.8 -1.2 c -7.1 -3.7 -14.5 -6.9 -21.1 -11.3 c -30.2 -20.1 -41 -49.7 -31.2 -84.7 c 5.9 -20.9 16.9 -39.1 29.7 -56.4 c 16.5 -22.3 35.6 -42.2 56.3 -60.6 c 6.6 -5.9 14.5 -10.1 21.6 -15.5 c 10.8 -8.1 21.5 -16.3 31.9 -24.9 c 8.4 -7 14.5 -15.9 17.7 -26.4 c 0.9 -3 1.4 -6.4 1.3 -9.6 c -0.4 -9 -9.8 -15.4 -18.2 -12.3 c -5.4 2 -10.7 4.8 -15.6 7.9 c -2.5 1.6 -4.7 4.3 -6 7 c -0.9 1.9 -0.8 5.2 0.3 6.9 c 0.9 1.4 4.2 2 6.2 1.6 c 3.8 -0.8 7.5 -2.5 12 -4.2 c -2.1 3.9 -3.8 7.1 -5.7 10.3 c -5.7 9.7 -11.8 19.2 -20.6 26.5 c -3.5 2.9 -7.7 4.9 -11.9 6.7 c -1.9 0.8 -4.5 0.1 -7.4 0.1 c 1.5 -2.8 3 -5 4 -7.4 c 3.4 -8.2 6.8 -16.3 9.9 -24.6 c 0.8 -2.3 0.8 -4.9 0.8 -7.4 c -0.1 -4.7 -2.1 -7.5 -5.7 -8.7 c -4.3 -1.5 -9.2 -0.5 -11.4 3.3 c -2.2 3.8 -3.9 8.2 -4.5 12.5 c -1.4 9.5 -0.5 19 2.7 28.1 c 0.9 2.7 2.4 5.2 4 7.5 c 1.8 2.7 1.2 4.8 -2.1 5.5 c -0.1 0 -0.2 0.1 -0.4 0.1 c -4.6 0.8 -9.5 3 -13.6 1.9 c -3.8 -1 -6.6 -5.7 -9.9 -8.6 c -4 -3.5 -8.1 -7.1 -12.4 -10.3 c -5.3 -3.9 -10.9 -7.1 -17.9 -6.8 c -1.3 0.1 -2.7 -0.5 -4.2 -0.9 c 4.2 -11.8 8.7 -23.3 12.5 -35 c 3.8 -11.7 6.8 -23.6 10.2 -35.5 c -0.4 -0.3 -0.8 -0.5 -1.2 -0.8 c -3.5 0.8 -7.1 1.6 -11.1 2.5 c 1.9 -7.5 3.7 -14.6 5.7 -22.1 c -56.6 -16.4 -113 -32.9 -169.4 -49.2 l 0 -0.5 c 1.1 0 2.2 -0.1 3.3 0 c 53.3 5 106.5 10 159.8 15 c 1.1 0.1 2.2 0.3 3.4 0.4 c 5.5 0.6 7.3 -1.1 7.4 -7.2 c 0.1 -4.1 -2.4 -6.3 -7.3 -5.6 c -4 0.5 -8 1.7 -12 2.9 c -3.8 1.1 -6.6 -0.6 -6.3 -4.6 c 0.2 -2.2 0.8 -4.5 1.9 -6.4 c 6.8 -12.5 12.8 -25.6 21.1 -37.1 c 9.4 -13 12.6 -26.9 11.9 -42.3 c -0.3 -6.3 -1 -12.7 -1.3 -19.1 c 8.9 21.9 14.3 44.8 17.1 68.5 c 0.8 -3.3 1.6 -6.6 2.5 -9.9 c 6.1 -21.6 15.5 -41.4 31.8 -57.4 c 14.1 -13.8 31.1 -21.8 50.8 -23.1 c 7.3 -0.5 14.9 1.3 22.2 2.7 c 10.8 2 22 3.2 32.1 7.1 c 20.4 7.9 40.1 3.6 59.8 -1.4 c 4.1 -1 7.9 -3.4 12.3 -4.8 c -3 3 -5.8 6.3 -9 9.1 c -12.7 10.7 -27.9 15.2 -43.9 17.8 c -13.2 2.1 -25.9 -0.1 -38.4 -3.9 c -3.3 -1 -11 1.7 -12.6 4.7 c -1.4 2.6 0.2 4.3 2 5.8 c 5.1 4 10.8 7.1 17.4 6.9 c 12.6 -0.4 25.2 -0.7 37.7 -2 c 17.8 -1.9 35.4 -5.2 53.1 -7 c 23.4 -2.4 44.8 4.1 64.3 16.9 c 5.2 3.4 10.2 7.1 15.1 11.5 c -1.4 0 -2.8 0 -4.2 0 c -11.9 -0.3 -23.5 0.9 -34.5 5.6 c -14.1 6 -22.4 16.3 -23.8 31.8 c -0.8 9.1 8.8 26 17.2 29.4 c 2.8 1.1 6.4 1.6 9.4 1.1 c 12.6 -2.2 21.3 -13 22.3 -27.2 c 0.1 -1.2 0 -2.5 0 -3.7 c 0.3 -0.1 0.7 -0.1 1 -0.2 c 1 4.5 2.4 8.9 3.1 13.4 c 3.9 23.8 -1.1 44.9 -19.1 62 c -4.3 4.1 -8.3 8.8 -11.4 13.8 c -3 4.8 -5.3 10.3 -6.6 15.7 c -2.8 12.3 8.1 30.8 26.8 29.6 c 1.1 -0.1 2.3 -0.3 3.2 -0.8 c 7.7 -3.7 11.7 -15.2 7.6 -22.7 c -3.8 -6.9 -8 -13.6 -12 -20.3 c -0.6 -1.1 -1.3 -2.1 -2.1 -3.5 c 7.8 -1 14.8 0.4 21.5 3.5 c 12.4 5.7 20.4 15.6 25.5 27.8 c 3.1 7.6 5.7 15.5 7.3 23.5 c 4.8 23.2 28.1 35.3 49.7 25.1 c 8.4 -3.9 15.3 -9.7 20.9 -17.2 c -13.5 37 -33.7 70 -60.4 99.1 c -26.9 29.2 -58.6 51.6 -95.6 66.3 c -36.9 14.7 -75.3 20.3 -115.9 19.4 c 11.6 -2.4 22.1 -4.3 32.5 -6.7 c 26.4 -6.2 51.9 -14.7 75.2 -28.9 c 12.1 -7.3 22.9 -16.1 31.1 -27.7 c 4.8 -6.7 8.2 -14 10.1 -22 c 3 -12.7 -1.4 -23.9 -12.3 -31.2 c -8.6 -5.8 -18.4 -8.2 -28.6 -9.4 c -18.4 -2.1 -36.7 -0.7 -54.9 2.1 c -2.2 0.3 -4.3 1.1 -7.7 2 Z M 260.1 168.7 c 6.1 -11.2 14.1 -20.7 23.6 -28.9 c 18.9 -16.3 41.1 -25.9 65.3 -31 c 22.4 -4.8 45.1 -7.6 68.1 -3.7 c 38 6.4 62.8 31.4 69.3 69.3 c 0.3 1.6 0.3 3.3 -0.1 4.8 c -3.7 15.9 -7.6 31.8 -11.3 47.7 c -2.9 12.9 -3.7 26 -2.3 39.1 c 1.8 17.5 7.4 33.6 18.7 47.4 c 1.9 2.4 4 3.5 7.2 3.7 c 7.6 0.5 15.2 1.2 22.7 2.5 c 12.3 2.1 24.1 5.6 34.3 13.1 c 7.7 5.7 12.7 13 13.3 22.9 c 0.5 8.6 -2.1 16.5 -5.8 24.1 c -1.5 3.1 -3.2 6 -4.9 9.1 c 21.4 -20.3 36.9 -44.3 47.3 -71.8 c -1.3 -0.9 -2.4 -1.6 -3.4 -2.3 c -8.8 -6.7 -18.1 -13 -26.3 -20.4 c -6.1 -5.6 -13 -8.7 -20.7 -10.2 c -6.1 -1.2 -9.5 1.8 -8.3 7.9 c 1.7 9.4 4 18.6 14.6 22.6 c 4.4 1.7 8.4 4.4 12.6 6.6 c 1 0.5 2 1.1 3 1.6 c -1.1 0.5 -2 0.4 -2.8 0.2 c -20.4 -4.6 -38.1 -14.4 -54.4 -27.4 c -11.7 -9.3 -18.7 -21.2 -22.5 -35.4 c -6.4 -23.7 -5.8 -47.7 -3.3 -71.8 c 2.4 -23.2 -2.5 -44.6 -17.8 -62.7 c -14.4 -17.1 -34 -24.4 -55.5 -27.3 c -23.2 -3.2 -46.1 -0.9 -68.9 3.4 c -12 2.3 -23.8 5.3 -36 8 c -0.2 -1.1 -0.5 -2.3 -0.7 -3.5 c -1.6 -9.5 -3.1 -19 -4.9 -28.4 c -0.3 -1.3 -1.8 -3 -3.1 -3.4 c -0.9 -0.3 -2.6 1.2 -3.5 2.2 c -1.2 1.4 -2 3.1 -3 4.7 c -12.2 19.3 -24 38.9 -32.9 60 c -3.7 8.8 -6.8 17.7 -7.5 27.3 Z M 277.2 163.7 c -13.8 14.9 -19.5 47.1 -17.3 65 c 0.4 -1.9 0.6 -3.2 1 -4.5 c 2.3 -7.1 4.4 -14.3 7.2 -21.1 c 1.6 -4 4.7 -7.1 9 -7.5 v -31.9 Z"></path>
          <path class="cls-2" d="M 282 131.2 c 7.2 -11.8 14.4 -23.5 22.3 -36.2 c 1 9.5 1.9 17.9 2.7 25.7 c -2.5 -0.8 -4.9 -2.2 -7.2 -2 c -2.3 0.2 -4.8 1.6 -6.6 3.2 c -3.7 3.1 -7 6.6 -10.5 9.9 c -0.2 -0.2 -0.4 -0.4 -0.6 -0.6 Z"></path>
        </g>
      </g>
    <polyline points="177,115 60,11" fill="rgb(255, 255, 255)"/>
    </svg>