    <svg id="Calque_2" data-name="Calque 2" xmlns="http://www.w3.org/2000/svg" viewBox="0 0 720 720">
      <defs>
        <style>
          .cls-1,
          .cls-2 {
            stroke-width: 0px;
          }

          .cls-2 {
            fill: #fff;
          }
        </style>
      </defs>
      <g id="Calque_1-2" data-name="Calque 1">
        <g>
          <path class="cls-1" d="M720,720H0V0c240,0,480,0,720,0v720ZM440.4,337.15c3.36-.91,5.49-1.71,7.69-2.04,18.22-2.77,36.51-4.22,54.9-2.08,10.13,1.18,19.94,3.56,28.57,9.37,10.95,7.36,15.3,18.51,12.3,31.24-1.89,8.02-5.36,15.3-10.12,21.98-8.28,11.6-19.08,20.39-31.15,27.72-23.33,14.17-48.87,22.65-75.23,28.88-10.41,2.46-20.95,4.35-32.52,6.73,40.61.89,79.01-4.75,115.89-19.43,36.97-14.72,68.7-37.06,95.57-66.3,26.68-29.03,46.92-62.01,60.42-99.06-5.62,7.46-12.56,13.26-20.93,17.19-21.6,10.16-44.91-1.86-49.74-25.09-1.67-8.01-4.2-15.96-7.35-23.52-5.08-12.21-13.16-22.09-25.52-27.77-6.68-3.07-13.67-4.44-21.47-3.48.87,1.42,1.52,2.46,2.14,3.51,4.03,6.75,8.27,13.39,12.02,20.3,4.08,7.52.06,19.03-7.63,22.73-.98.47-2.14.71-3.23.79-18.71,1.27-29.61-17.21-26.8-29.55,1.25-5.48,3.62-10.93,6.56-15.72,3.1-5.05,7.1-9.72,11.41-13.83,18.01-17.18,23-38.23,19.14-62.03-.73-4.52-2.04-8.95-3.08-13.41-.33.07-.65.14-.98.2,0,1.24.08,2.5-.01,3.73-1.02,14.16-9.69,24.98-22.33,27.18-3.01.52-6.59.09-9.43-1.07-8.41-3.41-18.04-20.32-17.23-29.41,1.38-15.51,9.77-25.82,23.83-31.77,11.03-4.66,22.67-5.86,34.52-5.57,1.39.03,2.79,0,4.18,0-4.89-4.35-9.9-8.06-15.11-11.47-19.54-12.8-40.92-19.28-64.33-16.88-17.75,1.82-35.35,5.1-53.1,6.99-12.5,1.33-25.14,1.59-37.72,1.99-6.65.21-12.31-2.88-17.41-6.91-1.8-1.42-3.42-3.16-1.97-5.76,1.64-2.94,9.36-5.65,12.64-4.65,12.53,3.82,25.19,6.05,38.39,3.9,16.02-2.6,31.2-7.12,43.88-17.78,3.25-2.73,6.01-6.04,9-9.09-4.43,1.4-8.22,3.74-12.34,4.78-19.79,4.98-39.4,9.31-59.84,1.43-10.13-3.9-21.34-5.12-32.14-7.12-7.34-1.36-14.9-3.14-22.23-2.68-19.65,1.22-36.66,9.19-50.75,23.05-16.25,15.97-25.68,35.75-31.76,57.36-.92,3.26-1.66,6.58-2.49,9.87-2.77-23.68-8.2-46.51-17.09-68.46.31,6.4,1.02,12.73,1.31,19.08.7,15.38-2.52,29.29-11.89,42.3-8.26,11.47-14.24,24.59-21.09,37.06-1.05,1.91-1.75,4.21-1.9,6.39-.29,3.98,2.48,5.71,6.28,4.61,3.94-1.15,7.93-2.35,11.98-2.86,4.99-.62,7.42,1.55,7.34,5.64-.12,6.05-1.9,7.78-7.4,7.19-1.12-.12-2.23-.31-3.35-.41-53.25-5.01-106.5-10.01-159.75-15-1.09-.1-2.19-.01-3.29-.01l-.04.52c56.41,16.39,112.82,32.78,169.45,49.24-1.93,7.53-3.74,14.6-5.66,22.12,4.03-.91,7.57-1.72,11.11-2.52.39.25.78.5,1.16.75-3.38,11.84-6.45,23.78-10.23,35.49-3.78,11.72-8.25,23.22-12.48,34.97,1.49.33,2.83.92,4.15.87,6.94-.27,12.6,2.89,17.86,6.79,4.31,3.19,8.32,6.78,12.37,10.3,3.34,2.91,6.12,7.52,9.91,8.55,4.05,1.1,9-1.1,13.56-1.86.12-.02.24-.06.37-.08,3.25-.69,3.9-2.85,2.06-5.5-1.61-2.33-3.1-4.86-4.03-7.52-3.18-9.12-4.11-18.6-2.69-28.1.64-4.31,2.37-8.67,4.55-12.48,2.2-3.86,7.05-4.8,11.36-3.33,3.64,1.24,5.66,4.09,5.74,8.74.05,2.47.06,5.14-.78,7.4-3.09,8.28-6.49,16.44-9.91,24.6-.99,2.36-2.41,4.53-3.95,7.37,2.87,0,5.48.69,7.42-.14,4.18-1.8,8.45-3.86,11.92-6.74,8.77-7.27,14.85-16.8,20.58-26.52,1.86-3.15,3.53-6.41,5.65-10.27-4.54,1.65-8.17,3.39-12,4.17-1.97.4-5.27-.23-6.19-1.6-1.13-1.67-1.19-4.97-.29-6.9,1.27-2.7,3.44-5.44,5.95-7.01,4.93-3.08,10.17-5.85,15.61-7.88,8.43-3.15,17.75,3.24,18.19,12.25.16,3.17-.34,6.52-1.27,9.57-3.22,10.55-9.29,19.45-17.68,26.44-10.36,8.63-21.12,16.78-31.89,24.9-7.08,5.34-15.05,9.61-21.62,15.47-20.65,18.41-39.74,38.37-56.28,60.63-12.8,17.24-23.88,35.44-29.73,56.35-9.8,35,.99,64.64,31.23,84.74,6.61,4.39,14.03,7.58,21.1,11.27.92.48,2,.65,3.8,1.21-1.28-1.66-2.03-2.64-2.78-3.61-8.7-11.33-16.66-23.11-21.74-36.59-3.44-9.14-5.4-18.5-3.23-28.27,2.85-12.85,11.25-21.59,22.55-26.94,10.31-4.89,21.5-7.9,32.16-12.07,5.99-2.34,11.98-4.91,17.47-8.22,4.77-2.87,8.95-6.78,13.19-10.47,5.62-4.9,8.88-11.36,11.2-18.31.54-1.63.4-3.48.57-5.23-1.27.25-1.66.67-1.97,1.13-6.53,9.71-14.3,17.99-25.69,22.01-6.22,2.2-12.43,4.47-18.76,6.29-1.63.47-4.65-.08-5.34-1.2-.87-1.41-.67-4.29.26-5.82,1.98-3.26,4.33-6.51,7.21-8.95,11.63-9.85,23.57-19.33,35.28-29.09,1.83-1.52,3.12-3.71,4.6-5.64,3.48-4.51,6.65-9.29,10.5-13.45,1.95-2.11,5.1-3.1,8.43-5.02v13.52c4.64-2.16,8.76-4.57,13.19-6.05,20.48-6.83,41.03-13.46,61.59-20.04,5.22-1.67,5.3-1.48,5.11-7.15-.68-20.39,4.04-39.29,16.6-55.58,8.19-10.63,17.25-20.6,24.85-29.6-1.21,3.21-3.2,8.15-4.93,13.16-6.18,17.83-10.42,36.03-9.35,55.07.31,5.53,1.52,11,2.36,16.85ZM279.59,621.86c-.01,31.98,28.32,53.16,58.22,43.52,18.97-6.12,30.68-24.57,29.6-46.65-1.4-28.57-26.95-47.84-54.76-41.33-19.67,4.61-33.04,22.59-33.05,44.47ZM594.25,622.98c-.43,11.62-.84,24.6-1.43,37.58-.15,3.3.78,4.88,4.34,4.78,5.62-.16,11.25-.14,16.86,0,3.51.09,4.89-1.15,4.7-4.84-.44-8.48-.45-16.98-.75-25.47-.1-2.7.91-3.94,3.63-3.94,8.24.01,16.49.03,24.73-.07,3.25-.04,4.35,1.35,4.19,4.56-.43,8.61-.55,17.23-.94,25.84-.12,2.77,1,3.89,3.67,3.86,6.12-.05,12.24-.14,18.36-.01,3.32.07,4.28-1.28,4.11-4.51-.57-10.6-1.26-21.22-1.23-31.83.04-15.49.6-30.97,1.09-46.46.1-3.18-.92-4.11-4.09-3.94-5.48.29-10.99.2-16.48.09-4.89-.1-4.94-.21-4.79,4.53.23,7.62.46,15.24.84,22.85.15,2.9-.99,4.13-3.84,4.13-8.37,0-16.74-.02-25.11.13-3.75.07-5.07-1.42-4.76-5.17.63-7.72.88-15.47,1.43-23.19.19-2.61-.53-3.48-3.3-3.36-5.98.26-12,.39-17.97,0-3.74-.24-4.74.86-4.58,4.48.56,12.85.87,25.72,1.32,39.96ZM193.34,622.66c-.39,12.6-.77,25.7-1.22,38.81-.08,2.38.41,3.74,3.23,3.73,12.61-.05,25.24.31,37.84,0,12.73-.3,23.11-5.54,30.6-16.12,6.89-9.72,9.67-20.58,8.33-32.27-1.89-16.45-10.7-34.52-34.92-36.93-13.49-1.34-27.17-.67-40.77-1.02-3.5-.09-4.49,1.33-4.35,4.71.54,12.85.85,25.71,1.26,39.09ZM107.14,616.88c0,7.3-.26,17.8.07,28.28.37,11.59,5.81,17.98,17.29,20.17,12.64,2.42,25.38,2.3,37.94-.75,11.53-2.81,16.29-7.98,16.8-19.85.9-21.09,1.08-42.2,1.62-63.31.05-2.15-.77-2.88-2.85-2.8-6.12.22-12.24.51-18.36.43-3.29-.04-4.32,1.1-4.23,4.36.39,13.24.57,26.48.79,39.72.07,4.62.28,9.26-.06,13.85-.44,5.92-3.55,9.03-9.48,9.74-2.44.29-5,.17-7.44-.22-4.8-.77-7.33-3.26-7.97-8.13-.54-4.07-.77-8.21-.71-12.32.21-14.37.54-28.73.98-43.09.09-2.95-.87-3.93-3.81-3.91-6.12.03-12.25-.16-18.36-.47-2.83-.15-3.68.8-3.54,3.63.52,10.48.81,20.97,1.3,34.65ZM502.5,610.17c-1.43,0-2.64-.04-3.84,0-8.24.29-16.48.67-24.72.86-4.71.11-5.81-1.44-5.79-7.43.02-4.95.61-5.7,5.64-5.54,9.11.29,18.22.74,27.32,1.26,2.58.15,3.68-.48,3.31-3.3-.57-4.33-.92-8.7-1.2-13.06-.21-3.26-1.72-4.61-5.01-4.59-17.24.07-34.47.07-51.71,0-2.54-.01-3.59.64-3.39,3.39,1.88,26.22,1.32,52.43-.02,78.65-.24,4.72-.11,4.69,4.74,4.75,17.36.24,34.72.46,52.08.8,2.28.04,3.7-.63,4.05-2.85.86-5.42,1.62-10.86,2.37-16.3.29-2.11-.76-2.97-2.83-2.83-3.49.23-6.98.51-10.48.58-6.24.12-12.5.43-18.71.04-5-.31-5.9-1.73-6.14-6.68-.04-.87.07-1.76-.05-2.62-.49-3.5,1.1-4.7,4.47-4.55,8.36.38,16.72.66,25.08.8,1.12.02,3.18-.95,3.25-1.64.7-6.42,1.06-12.88,1.56-19.76ZM576.29,609.65c3.07-5.27,5.83-10.23,8.8-15.05,1.76-2.86,1.12-4.83-1.15-7.18-12.69-13.13-42.45-15.92-58.03.19-12.36,12.77-16.12,28.09-12.71,44.95,6.96,34.41,40.31,40.37,60.19,30.42,4.34-2.17,7.9-5.97,11.65-9.2.77-.66,1.49-2.57,1.1-3.22-3.18-5.3-6.62-10.43-10.14-15.86-2.49,1.95-4.29,3.48-6.2,4.85-14.5,10.34-30.64,3.52-33.23-14.03-1.45-9.81,2.72-19.73,10.01-23.81,7.35-4.11,16.72-2.65,24.7,3.86,1.43,1.17,2.87,2.33,5.04,4.1ZM392.63,598.28c0,8.49.14,16.58-.03,24.67-.27,12.73-.66,25.46-1.18,38.18-.13,3.17,1.12,4.26,4.08,4.22,5.99-.08,11.98-.1,17.97-.05,2.89.02,4.27-.9,4.13-4.15-.53-12.22-.94-24.45-1.2-36.68-.18-8.82-.04-17.64-.04-26.26h19.64v-19.91c-1.02-.16-1.5-.32-1.97-.29-19.06,1.42-38.12,2.59-57.21.36-.75-.09-2.24.91-2.35,1.57-1.04,6.33-1.85,12.69-2.8,19.6,6.91-.42,13.47-.82,20.97-1.27ZM63.68,578.4c-7.65,0-14.75.17-21.83-.08-3.16-.11-4.12.84-4.09,3.97.25,26.22.39,52.45.46,78.68,0,2.87.9,4.09,3.82,4.13,17.49.23,34.97.51,52.46.86,2.38.05,3.48-.94,3.69-3.17.45-4.72.82-9.45,1.36-14.16.37-3.26-.78-4.44-4.15-4.27-9.98.51-19.97.66-29.95,1.15-2.75.14-3.49-.89-3.44-3.4.27-14.23.39-28.47.7-42.71.15-6.84.63-13.68.99-21Z"></path>
          <path class="cls-2" d="M440.4,337.15c-.85-5.85-2.05-11.32-2.36-16.85-1.07-19.03,3.17-37.24,9.35-55.07,1.74-5.02,3.72-9.95,4.93-13.16-7.6,9-16.65,18.97-24.85,29.6-12.56,16.3-17.28,35.2-16.6,55.58.19,5.67.12,5.48-5.11,7.15-20.56,6.58-41.11,13.21-61.59,20.04-4.43,1.48-8.54,3.89-13.19,6.05v-13.52c-3.33,1.91-6.48,2.91-8.43,5.02-3.85,4.16-7.02,8.95-10.5,13.45-1.49,1.92-2.77,4.11-4.6,5.64-11.71,9.75-23.65,19.24-35.28,29.09-2.88,2.44-5.24,5.69-7.21,8.95-.93,1.53-1.13,4.42-.26,5.82.7,1.12,3.72,1.67,5.34,1.2,6.33-1.82,12.54-4.09,18.76-6.29,11.39-4.02,19.16-12.29,25.69-22.01.31-.47.7-.88,1.97-1.13-.17,1.75-.03,3.6-.57,5.23-2.31,6.95-5.58,13.41-11.2,18.31-4.23,3.69-8.41,7.6-13.19,10.47-5.49,3.3-11.48,5.87-17.47,8.22-10.67,4.17-21.85,7.18-32.16,12.07-11.3,5.35-19.7,14.1-22.55,26.94-2.17,9.77-.21,19.13,3.23,28.27,5.08,13.48,13.03,25.26,21.74,36.59.75.97,1.5,1.95,2.78,3.61-1.79-.56-2.88-.73-3.8-1.21-7.07-3.69-14.49-6.88-21.1-11.27-30.24-20.1-41.03-49.74-31.23-84.74,5.86-20.91,16.93-39.11,29.73-56.35,16.53-22.26,35.63-42.22,56.28-60.63,6.57-5.86,14.54-10.13,21.62-15.47,10.77-8.12,21.53-16.27,31.89-24.9,8.39-6.99,14.46-15.89,17.68-26.44.93-3.05,1.43-6.4,1.27-9.57-.44-9.01-9.76-15.4-18.19-12.25-5.44,2.03-10.68,4.8-15.61,7.88-2.51,1.57-4.68,4.3-5.95,7.01-.9,1.93-.84,5.22.29,6.9.92,1.37,4.22,2,6.19,1.6,3.83-.79,7.46-2.53,12-4.17-2.12,3.86-3.79,7.12-5.65,10.27-5.73,9.72-11.81,19.24-20.58,26.52-3.47,2.88-7.74,4.94-11.92,6.74-1.94.83-4.54.14-7.42.14,1.54-2.84,2.96-5.01,3.95-7.37,3.41-8.15,6.81-16.32,9.91-24.6.84-2.26.83-4.93.78-7.4-.09-4.66-2.1-7.5-5.74-8.74-4.31-1.47-9.16-.53-11.36,3.33-2.17,3.8-3.9,8.17-4.55,12.48-1.42,9.49-.49,18.98,2.69,28.1.93,2.66,2.42,5.19,4.03,7.52,1.84,2.66,1.18,4.81-2.06,5.5-.12.03-.24.06-.37.08-4.56.76-9.51,2.97-13.56,1.86-3.8-1.03-6.57-5.65-9.91-8.55-4.05-3.52-8.07-7.11-12.37-10.3-5.26-3.9-10.92-7.06-17.86-6.79-1.32.05-2.66-.54-4.15-.87,4.22-11.75,8.7-23.25,12.48-34.97,3.77-11.71,6.85-23.65,10.23-35.49-.39-.25-.78-.5-1.16-.75-3.54.8-7.08,1.6-11.11,2.52,1.93-7.52,3.74-14.59,5.66-22.12-56.63-16.45-113.04-32.85-169.45-49.24l.04-.52c1.1,0,2.2-.09,3.29.01,53.25,4.99,106.5,9.99,159.75,15,1.12.11,2.23.3,3.35.41,5.5.59,7.28-1.15,7.4-7.19.08-4.1-2.35-6.27-7.34-5.64-4.05.51-8.04,1.71-11.98,2.86-3.8,1.11-6.57-.63-6.28-4.61.16-2.17.85-4.47,1.9-6.39,6.85-12.47,12.83-25.59,21.09-37.06,9.37-13.01,12.6-26.92,11.89-42.3-.29-6.35-1-12.68-1.31-19.08,8.88,21.95,14.32,44.78,17.09,68.46.83-3.29,1.57-6.6,2.49-9.87,6.08-21.61,15.51-41.39,31.76-57.36,14.1-13.85,31.11-21.82,50.75-23.05,7.33-.46,14.89,1.32,22.23,2.68,10.8,2,22.01,3.21,32.14,7.12,20.44,7.88,40.06,3.56,59.84-1.43,4.12-1.04,7.91-3.37,12.34-4.78-2.99,3.04-5.75,6.35-9,9.09-12.67,10.66-27.86,15.19-43.88,17.78-13.2,2.14-25.86-.09-38.39-3.9-3.28-1-11,1.71-12.64,4.65-1.45,2.6.17,4.34,1.97,5.76,5.1,4.03,10.76,7.12,17.41,6.91,12.59-.4,25.22-.66,37.72-1.99,17.75-1.89,35.35-5.17,53.1-6.99,23.4-2.41,44.78,4.07,64.33,16.88,5.21,3.41,10.22,7.12,15.11,11.47-1.39,0-2.79.03-4.18,0-11.86-.29-23.49.91-34.52,5.57-14.07,5.95-22.45,16.26-23.83,31.77-.81,9.09,8.82,26,17.23,29.41,2.84,1.15,6.42,1.59,9.43,1.07,12.64-2.2,21.31-13.01,22.33-27.18.09-1.24.01-2.49.01-3.73.33-.07.65-.14.98-.2,1.04,4.47,2.35,8.9,3.08,13.41,3.86,23.8-1.13,44.86-19.14,62.03-4.31,4.11-8.3,8.78-11.41,13.83-2.95,4.8-5.32,10.25-6.56,15.72-2.81,12.34,8.09,30.82,26.8,29.55,1.09-.07,2.25-.31,3.23-.79,7.69-3.7,11.72-15.21,7.63-22.73-3.75-6.91-7.99-13.55-12.02-20.3-.63-1.05-1.28-2.09-2.14-3.51,7.79-.96,14.79.42,21.47,3.48,12.36,5.68,20.44,15.56,25.52,27.77,3.15,7.56,5.68,15.51,7.35,23.52,4.83,23.22,28.14,35.25,49.74,25.09,8.37-3.94,15.31-9.74,20.93-17.19-13.5,37.05-33.74,70.03-60.42,99.06-26.87,29.24-58.6,51.59-95.57,66.3-36.88,14.68-75.28,20.32-115.89,19.43,11.56-2.37,22.11-4.27,32.52-6.73,26.36-6.23,51.91-14.72,75.23-28.88,12.07-7.33,22.87-16.13,31.15-27.72,4.77-6.68,8.23-13.96,10.12-21.98,3-12.72-1.35-23.87-12.3-31.24-8.63-5.8-18.44-8.19-28.57-9.37-18.39-2.15-36.68-.7-54.9,2.08-2.2.33-4.33,1.13-7.69,2.04ZM260.07,168.71c6.09-11.18,14.07-20.69,23.61-28.89,18.93-16.28,41.11-25.91,65.29-31.04,22.45-4.76,45.13-7.63,68.06-3.74,38.04,6.44,62.84,31.38,69.28,69.35.26,1.55.26,3.26-.09,4.78-3.71,15.91-7.63,31.77-11.27,47.7-2.94,12.88-3.69,25.97-2.32,39.12,1.82,17.51,7.38,33.58,18.68,47.4,1.95,2.38,4.03,3.51,7.22,3.72,7.59.51,15.2,1.22,22.69,2.51,12.26,2.11,24.1,5.64,34.33,13.13,7.73,5.67,12.66,13.02,13.25,22.86.51,8.63-2.09,16.53-5.81,24.13-1.51,3.07-3.23,6.04-4.86,9.05,21.38-20.27,36.94-44.27,47.32-71.82-1.31-.9-2.37-1.55-3.35-2.3-8.82-6.74-18.13-12.97-26.29-20.44-6.14-5.61-12.99-8.66-20.74-10.23-6.1-1.24-9.47,1.76-8.34,7.86,1.73,9.37,4.04,18.55,14.57,22.58,4.4,1.68,8.4,4.39,12.58,6.64.99.53,1.97,1.1,2.96,1.65-1.12.48-1.97.38-2.8.19-20.39-4.64-38.09-14.42-54.35-27.42-11.67-9.33-18.67-21.23-22.48-35.36-6.4-23.7-5.83-47.69-3.31-71.82,2.43-23.23-2.47-44.6-17.76-62.72-14.42-17.09-34.01-24.35-55.5-27.32-23.18-3.21-46.15-.94-68.94,3.44-11.98,2.3-23.82,5.29-36.04,8.03-.22-1.11-.49-2.3-.69-3.5-1.59-9.48-3.07-18.99-4.86-28.43-.25-1.33-1.81-2.99-3.1-3.36-.91-.27-2.61,1.16-3.54,2.21-1.22,1.38-2.03,3.13-3.03,4.72-12.2,19.34-24.02,38.88-32.9,60.04-3.68,8.76-6.75,17.7-7.46,27.3ZM277.23,163.69c-13.81,14.88-19.5,47.13-17.25,65.03.41-1.86.58-3.21,1-4.48,2.33-7.08,4.43-14.25,7.21-21.15,1.6-3.97,4.65-7.08,9.04-7.45v-31.95Z"></path>
          <path class="cls-2" d="M279.59,621.86c0-21.87,13.38-39.86,33.05-44.47,27.82-6.51,53.36,12.76,54.76,41.33,1.09,22.08-10.62,40.54-29.6,46.65-29.9,9.64-58.23-11.54-58.22-43.52ZM302.98,621.99c.02,11.04,6.24,19.59,15.84,21.76,9.48,2.15,18.62-2.47,22.92-11.95,3.66-8.07,3.15-16.1-1.65-23.59-4.94-7.73-13.77-10.89-22.17-8.27-8.66,2.71-14.96,12-14.95,22.05Z"></path>
          <path class="cls-2" d="M594.25,622.98c-.45-14.24-.75-27.1-1.32-39.96-.16-3.62.84-4.72,4.58-4.48,5.97.39,11.99.25,17.97,0,2.77-.12,3.49.74,3.3,3.36-.55,7.73-.8,15.47-1.43,23.19-.31,3.75,1.01,5.24,4.76,5.17,8.37-.15,16.74-.13,25.11-.13,2.85,0,3.99-1.22,3.84-4.13-.38-7.61-.61-15.23-.84-22.85-.14-4.74-.09-4.63,4.79-4.53,5.49.11,11,.2,16.48-.09,3.17-.17,4.19.75,4.09,3.94-.49,15.48-1.05,30.97-1.09,46.46-.03,10.61.66,21.23,1.23,31.83.17,3.22-.8,4.57-4.11,4.51-6.12-.13-12.24-.04-18.36.01-2.67.02-3.8-1.09-3.67-3.86.38-8.61.51-17.23.94-25.84.16-3.21-.95-4.6-4.19-4.56-8.24.1-16.49.09-24.73.07-2.72,0-3.72,1.24-3.63,3.94.31,8.49.32,16.99.75,25.47.19,3.69-1.19,4.93-4.7,4.84-5.62-.15-11.25-.17-16.86,0-3.55.1-4.49-1.48-4.34-4.78.59-12.98,1-25.96,1.43-37.58Z"></path>
          <path class="cls-2" d="M193.34,622.66c-.41-13.37-.72-26.24-1.26-39.09-.14-3.37.85-4.8,4.35-4.71,13.59.36,27.28-.32,40.77,1.02,24.22,2.41,33.03,20.48,34.92,36.93,1.34,11.68-1.45,22.54-8.33,32.27-7.5,10.59-17.87,15.82-30.6,16.12-12.61.3-25.23-.06-37.84,0-2.82.01-3.31-1.35-3.23-3.73.46-13.11.83-26.21,1.22-38.81ZM225.38,645.91c11.97.06,19.93-5.73,22.41-16.81.78-3.47,1.03-7.22.67-10.76-1.47-14.75-14.22-23.57-28.71-20.24-2.31.53-3.32,1.55-3.3,4.06.1,11.73-.08,23.46.05,35.19.09,8.48.28,8.52,8.87,8.57Z"></path>
          <path class="cls-2" d="M107.14,616.88c-.49-13.68-.79-24.17-1.3-34.65-.14-2.83.71-3.77,3.54-3.63,6.11.31,12.24.5,18.36.47,2.93-.02,3.9.96,3.81,3.91-.44,14.36-.77,28.73-.98,43.09-.06,4.1.16,8.25.71,12.32.65,4.87,3.18,7.36,7.97,8.13,2.43.39,5,.51,7.44.22,5.93-.72,9.04-3.82,9.48-9.74.34-4.59.13-9.23.06-13.85-.21-13.24-.4-26.49-.79-39.72-.1-3.27.93-4.4,4.23-4.36,6.12.07,12.24-.21,18.36-.43,2.08-.08,2.9.65,2.85,2.8-.54,21.1-.72,42.22-1.62,63.31-.51,11.87-5.27,17.04-16.8,19.85-12.55,3.05-25.29,3.17-37.94.75-11.48-2.2-16.93-8.58-17.29-20.17-.33-10.48-.07-20.98-.07-28.28Z"></path>
          <path class="cls-2" d="M502.5,610.17c-.49,6.88-.86,13.34-1.56,19.76-.07.68-2.13,1.65-3.25,1.64-8.36-.13-16.73-.42-25.08-.8-3.37-.15-4.96,1.06-4.47,4.55.12.86,0,1.75.05,2.62.24,4.94,1.14,6.37,6.14,6.68,6.21.39,12.47.08,18.71-.04,3.49-.07,6.99-.35,10.48-.58,2.07-.14,3.12.72,2.83,2.83-.75,5.44-1.51,10.88-2.37,16.3-.35,2.22-1.77,2.89-4.05,2.85-17.36-.34-34.72-.57-52.08-.8-4.84-.07-4.98-.03-4.74-4.75,1.34-26.22,1.9-52.44.02-78.65-.2-2.75.85-3.4,3.39-3.39,17.24.08,34.47.08,51.71,0,3.29-.01,4.8,1.33,5.01,4.59.28,4.36.63,8.73,1.2,13.06.37,2.82-.73,3.45-3.31,3.3-9.1-.52-18.21-.97-27.32-1.26-5.03-.16-5.63.59-5.64,5.54-.02,5.99,1.08,7.54,5.79,7.43,8.24-.19,16.48-.57,24.72-.86,1.2-.04,2.4,0,3.84,0Z"></path>
          <path class="cls-2" d="M576.29,609.65c-2.17-1.77-3.61-2.93-5.04-4.1-7.98-6.51-17.35-7.97-24.7-3.86-7.29,4.08-11.46,14-10.01,23.81,2.59,17.55,18.73,24.38,33.23,14.03,1.91-1.37,3.71-2.89,6.2-4.85,3.52,5.43,6.97,10.57,10.14,15.86.39.65-.32,2.55-1.1,3.22-3.76,3.23-7.31,7.03-11.65,9.2-19.87,9.95-53.23,3.99-60.19-30.42-3.41-16.86.35-32.17,12.71-44.95,15.58-16.1,45.34-13.32,58.03-.19,2.27,2.35,2.91,4.32,1.15,7.18-2.97,4.83-5.73,9.78-8.8,15.05Z"></path>
          <path class="cls-2" d="M392.63,598.28c-7.49.45-14.05.85-20.97,1.27.95-6.91,1.77-13.28,2.8-19.6.11-.66,1.61-1.66,2.35-1.57,19.09,2.23,38.15,1.07,57.21-.36.47-.04.95.13,1.97.29v19.91h-19.64c0,8.62-.15,17.45.04,26.26.25,12.23.66,24.46,1.2,36.68.14,3.24-1.24,4.17-4.13,4.15-5.99-.05-11.98-.03-17.97.05-2.96.04-4.21-1.05-4.08-4.22.52-12.72.91-25.45,1.18-38.18.17-8.09.03-16.18.03-24.67Z"></path>
          <path class="cls-2" d="M63.68,578.4c-.36,7.33-.84,14.16-.99,21-.32,14.23-.44,28.47-.7,42.71-.05,2.51.69,3.54,3.44,3.4,9.98-.49,19.98-.64,29.95-1.15,3.37-.17,4.53,1.01,4.15,4.27-.54,4.71-.91,9.44-1.36,14.16-.21,2.23-1.31,3.22-3.69,3.17-17.48-.35-34.97-.64-52.46-.86-2.92-.04-3.81-1.26-3.82-4.13-.06-26.23-.21-52.45-.46-78.68-.03-3.13.93-4.08,4.09-3.97,7.08.24,14.18.08,21.83.08Z"></path>
          <path class="cls-1" d="M260.07,168.71c.71-9.61,3.78-18.54,7.46-27.3,8.88-21.16,20.7-40.7,32.9-60.04,1-1.58,1.8-3.34,3.03-4.72.93-1.05,2.63-2.47,3.54-2.21,1.29.38,2.85,2.03,3.1,3.36,1.79,9.45,3.27,18.95,4.86,28.43.2,1.2.47,2.38.69,3.5,12.22-2.75,24.07-5.73,36.04-8.03,22.79-4.38,45.76-6.65,68.94-3.44,21.49,2.98,41.08,10.23,55.5,27.32,15.29,18.12,20.19,39.49,17.76,62.72-2.52,24.12-3.09,48.12,3.31,71.82,3.82,14.13,10.81,26.03,22.48,35.36,16.26,13,33.96,22.78,54.35,27.42.83.19,1.68.29,2.8-.19-.99-.55-1.97-1.11-2.96-1.65-4.18-2.25-8.18-4.96-12.58-6.64-10.53-4.02-12.84-13.21-14.57-22.58-1.13-6.1,2.24-9.1,8.34-7.86,7.75,1.58,14.6,4.62,20.74,10.23,8.16,7.47,17.47,13.69,26.29,20.44.98.75,2.04,1.4,3.35,2.3-10.37,27.55-25.93,51.55-47.32,71.82,1.63-3.01,3.36-5.98,4.86-9.05,3.72-7.6,6.32-15.5,5.81-24.13-.58-9.84-5.51-17.19-13.25-22.86-10.23-7.5-22.07-11.03-34.33-13.13-7.49-1.29-15.1-2-22.69-2.51-3.19-.21-5.27-1.34-7.22-3.72-11.3-13.82-16.86-29.89-18.68-47.4-1.37-13.15-.62-26.23,2.32-39.12,3.64-15.93,7.56-31.79,11.27-47.7.36-1.52.36-3.23.09-4.78-6.43-37.97-31.24-62.9-69.28-69.35-22.93-3.88-45.61-1.02-68.06,3.74-24.17,5.13-46.36,14.75-65.29,31.04-9.54,8.2-17.51,17.71-23.61,28.89ZM282.04,131.17c.21.19.43.37.64.56,3.49-3.33,6.82-6.85,10.52-9.93,1.85-1.54,4.31-2.98,6.6-3.16,2.27-.19,4.68,1.25,7.17,2.02-.82-7.89-1.68-16.23-2.66-25.73-7.83,12.74-15.05,24.49-22.28,36.24Z"></path>
          <path class="cls-1" d="M277.23,163.69v31.95c-4.39.37-7.44,3.48-9.04,7.45-2.78,6.9-4.88,14.07-7.21,21.15-.42,1.27-.59,2.62-1,4.48-2.25-17.9,3.44-50.15,17.25-65.03Z"></path>
          <path class="cls-1" d="M302.98,621.99c-.02-10.05,6.28-19.35,14.95-22.05,8.39-2.62,17.22.54,22.17,8.27,4.79,7.49,5.3,15.52,1.65,23.59-4.3,9.48-13.44,14.1-22.92,11.95-9.6-2.18-15.82-10.72-15.84-21.76Z"></path>
          <path class="cls-1" d="M225.38,645.91c-8.59-.04-8.78-.08-8.87-8.57-.13-11.73.05-23.46-.05-35.19-.02-2.51.98-3.53,3.3-4.06,14.49-3.33,27.24,5.5,28.71,20.24.35,3.54.1,7.29-.67,10.76-2.48,11.08-10.44,16.87-22.41,16.81Z"></path>
          <path class="cls-2" d="M282.04,131.17c7.22-11.75,14.44-23.5,22.28-36.24.98,9.5,1.85,17.85,2.66,25.73-2.49-.77-4.9-2.21-7.17-2.02-2.29.19-4.75,1.63-6.6,3.16-3.7,3.08-7.04,6.59-10.52,9.93-.21-.19-.43-.37-.64-.56Z"></path>
        </g>
      </g>
    </svg>