<svg id="Calque_1" data-name="Calque 1" xmlns="http://www.w3.org/2000/svg" viewBox="0 0 528.96 312.29"><title>babar_contour</title><path d="M56.19,448.33c.83-2.48,1.31-4.14,2-5.73,1.17-2.89,2.48-5.72,3.63-8.61a5.26,5.26,0,0,0,.41-2.77c-2.93-14.29-3.6-28.75-3.5-43.29.2-27.41,3.82-54.44,9.6-81.16,3.74-17.26,8.25-34.35,12.52-51.49a71.47,71.47,0,0,1,3-8c4.22-11,12.8-16.35,23.94-18.16,14.45-2.34,29-1,43.5-1,12.44.07,24.93.25,36.74-4.45a65.25,65.25,0,0,0,10.55-5.85,98.42,98.42,0,0,1,37-13.85,43.56,43.56,0,0,1,17.56.75,16.52,16.52,0,0,1,6.35,2.91c6.46,5.23,13.5,5.9,21.42,4.25,13.88-2.89,28-3.29,42.16-2.89,19.85.56,39.45,3.06,58.55,8.78,14.38,4.31,28.31,9.62,40.55,18.62,9.58,7,20.57,10.23,32.24,11,9.85.67,19.75,1.43,29.58,1a166.35,166.35,0,0,0,27.47-3.58c4.77-1,9.09-4.09,13.62-6.21a73.93,73.93,0,0,1,7-3.12c6-2.09,10.29-.1,13,5.68,2.85,6.05,1.82,12.14.37,18.25-.23.94-.69,1.84-.94,2.78-1.59,6-5.57,8.53-11.74,7.49-6.88-1.16-13.74-2.62-20.67-3.35-10.1-1.06-20.25-1.83-30.39-2.27-8.39-.37-16.8-.08-25.35-.08,1.37,5.16,2.87,10.1,4,15.14a165.6,165.6,0,0,1,3.45,50c-1.17,13.88-4,27.19-11.52,39.24-2.64,4.24-5.29,8.64-6.87,13.32-2.82,8.31-3,17.06-2.18,25.77,1.46,16.19,3.26,32.37,4.37,48.59a64.59,64.59,0,0,1-1.49,17c-2,10-8.19,16.36-18.3,18.61-14,3.12-28.2,3.8-41.68-1.29-10.82-4.07-21-9.83-31.3-15.25-5.94-3.13-8.86-8.52-8.65-15.38.19-5.82.48-11.65.59-17.47,0-2.34-.29-4.69-.48-7.38-5.27.3-10.26.75-15.26.81-9.78.14-19.58.46-29.33,0s-19.4-2-29.1-2.85c-.56-.06-1.58.93-1.78,1.61-2.06,7-1.61,14.06-.91,21.14.8,8.24,2.31,16.44,2.54,24.68.41,14.89-5.49,22.65-20,26.59-17.91,4.87-35.54,3.68-52.42-4.28-6.59-3.11-12.29-7.72-13.58-15.37-.61-3.62-2.6-4.91-5.25-6.23-2.11-1.06-4.16-2.25-6.31-3.19-7.83-3.44-11.19-9.49-10.86-17.9.43-11.06,1-22.12,1-33.18a88.51,88.51,0,0,0-3.41-25.7,70.17,70.17,0,0,0-10.93-21.47c-6.3-8.55-17.55-10.13-27.25-4.09-5.5,3.41-9.4,8.36-13,13.58-8,11.43-15.58,23-19.16,36.73-.86,3.32-1.42,6.72-2.14,10.07-.45,2.07,0,6.26,1.64,7.62,2.79,2.35,5,2.55,8.27,4.74,3.22,2.66,4.34,7.89,1.54,12.45a9.62,9.62,0,0,0-.65,1.33c-1.49,3.54-1,4.34,2.84,4.56,2.66.16,5.35.09,8,.45,4.61.62,7.21,3.45,8.09,8.07,1.07,5.6-.43,10.79-2.53,15.79a55.13,55.13,0,0,1-13.84,19.7,21.64,21.64,0,0,1-11.16,5.09c-3.5.61-8.66-3.36-9.9-7.18a4.13,4.13,0,0,0-1.6-2.15c-3.63-2.15-7.45-4-11-6.26-6.27-3.93-12.9-6.12-20.42-5.58C37.22,495.3,29,489.53,22,482c-3.94-4.29-4.51-10.27-4-16,.35-3.9,1.46-7.73,2.29-11.57a6.07,6.07,0,0,1,5.47-5,3,3,0,0,0,3-2.82c1.34-6.4,5.48-8.79,11.85-7.05,3.77,1,9.5,2.38,12.88,5.32A26,26,0,0,1,56.19,448.33ZM56,449c-3.12,13.56-8.82,25.43-20.57,33.88,2.83,1.09,5.29,1.85,7.58,3q19.17,9.27,38.25,18.74A4.06,4.06,0,0,1,83,507a8.06,8.06,0,0,0,6.2,6.1c3.47.94,6.49-.44,9.2-2.29,8.82-6,14.33-14.53,17.47-24.63a19.15,19.15,0,0,0-.6-13.89c-1.57-3.49-4.29-5.08-7.63-3.7-5.89,2.43-9.64-.84-13.71-4.18,4.48-1.81,5.19-3.15,4.31-7.93l1.91.33c.39-4-2.73-7.07-9.85-9.23,1.37,2.28,2.45,4.07,3.95,6.54-4-2.76-5.75-5-6.89-8.92-1.84-6.21-1.58-12.51-.61-18.8C88.88,412.35,93,399,100.92,386.94c6-9.19,14.07-15.35,25-17.59,3.19-.65,6.36-1.38,9.56-2,14.62-2.8,20.43-11,27.86-25.72,2.09-4.92,2-10.84,2.41-16.31s.12-5.3-5.16-6.69a23.21,23.21,0,0,1-4.42-2.23l.46-.9c2.78.59,5.58,1.12,8.34,1.8,2.5.61,2.31-.59,3.87-2.54a24.6,24.6,0,0,0,2.59-3.73,21.72,21.72,0,0,1,2.49-3.27c.85,4-1.4,6.22-3.55,8.53-1.67,1.8-1.92,3.28-1.87,6.3.42,9-.53,17.86-5.25,25.84-3.22,5.43-6.84,10.62-10,16.08-2.48,4.26-1.94,5.88,1.41,9.43,2.83,3,5.85,6,8,9.42,5.57,8.85,8.2,18.71,9,29.1.55,6.87.55,13.84,3.28,20.38a3.77,3.77,0,0,1-.29,2.5,49.18,49.18,0,0,0-3.08,23.55c.66,6,3.21,9.59,7.74,10.49.31-2.41.61-4.8.95-7.49,1.44,9.19,6.26,14.32,10.62,13.15,0-3.57.07-7.12,0-10.66-.19-8.1-4.25-16.2.78-24.34,1.33-2.15.88-5.6.75-8.43-.28-6.11-1.22-12.21-1.23-18.31,0-3.72-1.51-6-4.23-8.06-2.57-1.92-5.12-3.86-7.56-5.93-2.13-1.8-4.21-3.76-4.47-7.46,1.59,1.19,2.69,2.16,3.92,2.92,3.75,2.31,7.33,5.2,11.41,6.57,2.87,1,3.11,2.2,3.11,4.5,0,4.42-.12,8.86.22,13.27a7.73,7.73,0,0,0,7.36,7.08,53.86,53.86,0,0,1,6.21.56,20,20,0,0,1,3.55,1.3l-.23,1a18.36,18.36,0,0,1-3.06,0c-2.43-.4-4.83-1-7.26-1.44-3.4-.62-4.82.53-5.22,4.41l9.64,1.6-.16,1.11c-2.12-.16-4.23-.28-6.34-.5-1.67-.16-3.54-.26-3.64,1.87-.26,5.38-.29,10.77-.21,16.16,0,1.91,1.41,2.6,3.32,2.41,4.29-.43,4.43-.42,5.44,3.66.69,2.77,2.11,3.55,4.69,2.68a6.16,6.16,0,0,1,2.56-.62c1,.15,1.88.84,3.44,1.6-2.68.76-5.12-.85-5.89,2.16-2.5,9.79-3.28,19.61-1.16,29.62a6.11,6.11,0,0,0,6,5.32c1,.09,2.92-.88,3.1-1.66a39.88,39.88,0,0,0,1.24-9.57c-.11-5.46-.74-10.91-1.09-15.54a21.87,21.87,0,0,0,3.87-1.43c1-.63,1.62-1.84,2.64-2.35s2.77-1.23,3.69-.79c1.26.59,2,2.18,3,3.35l-.63.5c-3.88-3.12-5.68-2.73-8.12,2a18.83,18.83,0,0,0-1.73,4.81c-1.52,7.15-.47,14.21,1.13,21.21.14.58.67,1.44,1.13,1.52a91.92,91.92,0,0,0,9.48,1.18c1.74.1,2.53-1.07,2.42-2.94-.24-4.25-.34-8.5-.44-12.75,0-1.29.16-2.58.25-3.87l1,0c.26,6.42.51,12.84.77,19.36,10.09.54,18.27-2.33,25-9.11,1.84-1.85,3.35-3.75,3.25-6.66a73.64,73.64,0,0,1,.59-7.37,262.86,262.86,0,0,0-1.73-51.78c-.59-4.52-1.26-9-2-14.31a30.19,30.19,0,0,0,16.39,11.36,111.08,111.08,0,0,0,20.81,4.18c23,1.86,45.52-1.24,67.79-6.85,2.71-.69,4-1.91,4.33-4.64.24-1.84.63-3.94,3.38-4.28.4,3.37.65,6.62,1.23,9.81.72,4,2.61,5.1,6.59,4.08a10.29,10.29,0,0,1,2.54-.74,10.9,10.9,0,0,1,2.77.76c-.06.34-.12.67-.17,1-1.33.2-2.67.33-4,.62s-2.56.74-3.83,1.13l-.1,1,4.09,2.16c-5,.92-7.53,3.83-6.74,7.44a2.42,2.42,0,0,0,3.94,1.64c1.34-.88,2.7-1.73,4.39-2.81.75,2.4,1.31,4.21,1.88,6l-.63.23L382,442.14c-1.44,2.16-3,3.83-3.83,5.82a35.75,35.75,0,0,0-.1,27.94c1.59,3.91,4.21,6.87,8.77,7.78,2.4-5.07,1.54-10.29,1.17-15.48-.36-5-.93-10-.81-15,.08-3.58,3.84-6.52,7.06-6.35,1.83.09,4.61,3.67,5,6.7-.6-.84-1-1.49-1.5-2.11-2.07-2.79-4.17-2.81-6,.23a18.05,18.05,0,0,0-2.26,5.73c-1.76,9.26.15,18.27,2.3,27.23.12.52.79,1.28,1.23,1.3,3.31.11,6.62.06,10.46.06-.84-9.14-1.62-17.76-2.42-26.57l4.33-.65c-1.92,8.45-2,16.46.44,24.39,1.43,4.63,3.35,5.41,7.89,3.62,2.21-.87,3.44-2.15,3-4.67-.23-1.46-.28-2.94-.46-4.41-.29-2.5-.61-5-.92-7.49l.72-.11c.39,2.4.85,4.79,1.16,7.19s.49,5.09.73,7.58c8.45,2.19,16.43-2.54,19.42-11.55a52,52,0,0,0,2.16-19.91c-.67-10.35-2-20.67-2.44-31-.34-7.47.19-15,.39-22.48.12-4.23-.74-7.88-5.32-9.72.81-1.22,1.49-2.29,2.21-3.34a162,162,0,0,0,21.17-43.46c4.08-15.49,2.38-36.42-3-57.09-1.82-7.59-3.64-11.9-6.08-18.14-1.25-3.22-3.74-7-4.82-10.56,1.4-.06,2.18-.12,3-.12,12.95,0,25.91,0,38.87.11,3.55,0,7.09.39,10.65.49,4.23.11,8.47.33,12.68.05a5.19,5.19,0,0,0,5.25-5.09c-1.24-.28-2.38-.57-3.54-.8-18.48-1-28.35-.93-44.62-1-8.79,0-17.61.68-26.36.2s-16.37-4.95-23.27-10.21c-11.17-8.51-23.75-13.92-37.11-17.85-9.45-2.78-17-4.1-31.16-5.66-6.07-.41-26.8-1.56-40.51-1a116.47,116.47,0,0,0-35.25,7.18c-1.75.64-2.27,1.37-1.66,3.24,2.6,7.86,5.13,15.74,7.52,23.67,2,6.69,3.74,12.76,2.56,19.61a3.23,3.23,0,0,1-1.4,2.12c-.62.41-1.34,1-1.52.35-2.88-11.46-5-25.55-8.17-36.93-2-7-3.91-14.15-9.56-19-7.81-6.77-17-6.55-26.38-4.76-12.25,2.33-22.93,8.24-33.41,14.65-7.81,4.78-15.81,9.24-24.06,14.05-.42-2.27-.69-3.71-1-5.15-.33-1.91-1.09-3.23-3.39-3.27-3.34-.06-6.71-.75-10-.49-13.79,1.07-27.57,2.25-41.32,3.68-15,1.55-26.5,8.08-31.66,23.16a42.91,42.91,0,0,0-1.54,4.47c-3.75,16.73-7.71,33.42-11.1,50.23a492.25,492.25,0,0,0-8.57,64.83,357.11,357.11,0,0,0,.44,55.12A20.49,20.49,0,0,0,69,442.28c3.54,5.62,8.72,9.63,14.69,12.56a10.3,10.3,0,0,0,9.12.45,21.86,21.86,0,0,1,3.78-.9c-1.37,6.25-5,9-10.51,7.45-4.78-1.37-9.22-3.91-13.93-5.57-5.78-2-8.14-5.9-7.74-11.92.16-2.34-.44-4.73-.77-7.73C58,440.9,60.51,446,60.77,450.79ZM31.47,478.48c1.5,2.67,2.09,2.9,4,1.52,10-7.14,15.3-17.37,17.71-29.06.39-1.89-1.61-5.4-3.45-6.37-3.12-1.63-6.95-2-10.54-2.58-4-.6-6.47,1.48-7.08,5.52-.4,2.69-1.3,4.78-4.37,5.43-2.17.46-4,1.31-3.57,4.38.21,1.39-.62,3.1-1.37,4.44-2.7,4.87-1.91,9.59.61,14.1,5.09,9.12,13.09,14.55,23,17.23a40.38,40.38,0,0,0,6.72.67l.14-.91c-3.33-1.42-6.68-2.83-10-4.28s-6.61-3.09-10-4.4C30.48,483.08,30.34,481.32,31.47,478.48Zm341.09-33.62,1.49-.82c-.8-5.7-1.55-11.41-2.48-17.08a2.45,2.45,0,0,0-1.94-1.4,79.77,79.77,0,0,0-11.36,1.54,14.58,14.58,0,0,0-5.43,3.3c-1.34,1.12-1.8,2.59-.38,4.36a36.34,36.34,0,0,1,3,5.32c-5.35,6.43-4.4,21.76,2.08,28.6,6.54-7.91,1.24-16,.64-23.37,2.13-1.28,4.19-2.33,6-3.67s3.09-1.17,4.61.37A32.68,32.68,0,0,0,372.56,444.86ZM204.25,493.77c0-6.74.14-13.26-.05-19.77a46.21,46.21,0,0,0-1.27-10.51c-.68-2.56-2.47-4.83-3.87-7.42C191,463.68,193,490.87,204.25,493.77Zm161.1-48.89c-2.89,7.41-3.18,15.13-2.55,22.91.12,1.51.43,3.72,1.42,4.3,2.26,1.32,5,1.84,7.53,2.69C375.55,463.85,372.19,448.46,365.35,444.88ZM530.47,255.09c-.05-.28-.11-.56-.16-.84l6.38-1.65c-.06-1.23-.1-2.26-.16-3.48a45.24,45.24,0,0,1-4.64.66c-.54,0-1.11-.56-1.66-.87a6.94,6.94,0,0,1,.83-1.43c.83-.89,1.75-1.69,3.08-2.95-6.09,0-8.55,1.27-9.59,4.38l3.2,1-6.13,4.46c.6,1.08,1.09,2,1.6,2.87l-2.54,1c.81,3.42,5.92,5.22,12.08,4.16l-2.7-3.8h6.62c0-1.32-.1-2.34-.15-3.58ZM74.58,454.53l-8-9.39C66.58,451.3,67.47,452.4,74.58,454.53Zm7.73,3.8c4.62,3,8,2.89,10,0Z" transform="translate(-17.86 -203.44)"/><path d="M130.54,281.2c4-2.18,8.6.07,9.05,4.35.86,8.08-7.35,16.22-15.46,15.32a8.44,8.44,0,0,1-7.67-7.78,20.71,20.71,0,0,1,4-15.36c2.29-3,5.27-4.71,9.71-3.38L120,281.22c3.45,2.8,5.47-1,8.37-.33-3.43,3.31-7.92,6.13-3.89,12.05C126.8,289,133.69,287.84,130.54,281.2Z" transform="translate(-17.86 -203.44)"/><path d="M87.11,485.35l-31.7-14.13-4.82,6.28,22.62,11.11-.48.93-25-11.73c2.2-3.46,4.24-6.65,6.57-10.3l33.3,17.13Z" transform="translate(-17.86 -203.44)"/><path d="M274.53,323.67a.38.38,0,0,1-.67-.23c-.21-10.16,2.66-19.3,4.71-28.59.12-.43,1.14-.35,2.12-.44a.38.38,0,0,1,.4.39C280.41,308,277.91,319.33,274.53,323.67Z" transform="translate(-17.86 -203.44)"/><path d="M84.4,465.77,61,455.79c-1,3-2,6.09-3.19,9.58l9.83,4.76-.32.68-11.82-5c1-4.29,2-8.55,3.06-13.21L85,465Z" transform="translate(-17.86 -203.44)"/><path d="M179.9,456.59c-.39-4.51-.92-9-1.12-13.54-.2-4.27-.06-4.38,4.16-4.9a10.56,10.56,0,0,1,4.86.9C182,443.75,180.84,450,179.9,456.59Z" transform="translate(-17.86 -203.44)"/><path d="M107.79,481.69c.86,11.14-9.29,24.87-19.94,26.37C99.12,502.27,104.71,493.15,107.79,481.69Z" transform="translate(-17.86 -203.44)"/><path d="M66.61,492.41c-5.49-2.8-11-5.62-16.47-8.4-2.32-1.17-4.63-3.05-7,.09-.28.38-1.39.15-2.23.21.9-3.07,3.63-4.62,6-3.43,6.82,3.48,13.56,7.1,20.34,10.66Z" transform="translate(-17.86 -203.44)"/></svg>