<?xml version="1.0" encoding="UTF-8" standalone="no"?>
<!-- Created with Inkscape (http://www.inkscape.org/) -->

<svg
   width="98.461624mm"
   height="72.149925mm"
   viewBox="0 0 98.461624 72.149925"
   version="1.1"
   id="svg1"
   xml:space="preserve"
   xmlns="http://www.w3.org/2000/svg"
   xmlns:svg="http://www.w3.org/2000/svg"><defs
     id="defs1" /><g
     id="layer1"
     transform="translate(-587.90419,-285.22083)"><path
       style="fill:#005c1f;fill-opacity:1;stroke-width:0.264583"
       d="m 612.02625,345.55149 c -20.55518,-3.46287 -25.24736,-20.72013 -23.83275,-29.18366 l 0.28671,-1.71532 1.5875,3.61505 c 0.87312,1.98828 1.73588,3.66351 1.91724,3.72274 0.19769,0.0646 0.73979,-0.74022 1.35361,-2.00954 l 1.02388,-2.11723 -0.93199,3.21365 c -1.65257,5.69835 6.12792,15.8199 10.43702,19.92123 2.98685,2.84284 6.30415,-3.80756 13.34254,-3.7367 13.28375,0.13373 7.52238,4.60562 10.48981,3.82815 6.57741,-1.72374 6.67822,-5.59011 9.48507,-11.49447 l 3.44945,-2.24541 0.33616,-0.1228 0.007,-0.94311 3.39606,-0.96701 c 1.07719,-0.4496 1.08202,-0.38374 0.19581,2.67437 -2.2221,7.66799 -9.00856,13.00507 -16.13653,16.51756 -5.44745,2.68436 -9.75502,2.94883 -15.46184,1.98742 z m -5.11085,-7.24863 c -1.21377,-0.85016 -2.15741,-3.75122 -2.16962,-6.67018 -0.011,-2.63329 -0.34192,-3.47045 -1.9635,-4.96765 -1.33173,-1.22958 -1.46977,-1.46075 -1.46977,-2.4612 0,-0.60729 0.23812,-1.78167 0.52916,-2.60973 0.29105,-0.82807 0.52917,-1.64483 0.52917,-1.81504 0,-0.45674 -3.17113,-2.97327 -3.96694,-3.14806 -0.54233,-0.11912 -1.18359,-0.91017 -1.52023,-1.4918 -1.38218,-2.3881 -0.0344,-5.30894 -0.18615,-5.46074 -0.22888,-0.22888 -0.25458,-0.18246 -2.53482,4.57941 l -2.14977,4.4894 -1.32705,-3.04271 c -0.72988,-1.67349 -1.43261,-3.17056 -1.56163,-3.32682 -0.12902,-0.15626 -0.13761,-0.39438 -0.0191,-0.52917 0.11852,-0.13478 0.5455,-1.17057 0.94885,-2.30176 2.27834,-6.38956 8.03465,-12.64445 14.36104,-15.60492 1.66739,-0.78026 1.78697,-0.79895 2.8165,-0.44016 1.41714,0.49388 0.61961,1.87097 0.42107,3.11467 -0.21882,1.37078 1.02422,1.94614 -0.89363,2.93826 -2.05136,1.06118 -2.64215,1.59781 -1.75909,1.59781 0.76069,0 0.49352,0.38861 -0.85049,1.23704 l -1.08738,0.68643 0.71627,0.61611 c 0.86988,0.74824 1.34976,0.62097 2.48022,-0.65775 l 0.84496,-0.95578 1.00023,0.56394 c 2.05619,1.15933 1.88333,2.36582 -0.51891,3.62184 -0.92673,0.48454 -2.22064,1.53049 -3.27196,2.64495 -1.70727,1.8098 -1.73614,1.86451 -1.58098,2.99646 0.15981,1.16598 -0.18352,1.59989 -0.49339,0.62357 -0.25974,-0.81839 -0.97334,-1.07537 -2.11262,-0.76081 -1.10771,0.30586 -2.25293,1.30068 -2.25293,1.95708 0,0.60907 0.49417,1.44984 0.85216,1.44984 0.1674,0 0.57946,-0.25844 0.91569,-0.57431 0.76719,-0.72074 1.09238,-0.45375 0.51695,0.42445 -0.56315,0.85948 -0.55319,0.9109 0.23449,1.21038 0.44636,0.1697 0.72155,0.52538 0.83138,1.07452 0.21737,1.08684 0.71654,1.23078 1.92089,0.55389 0.76275,-0.42869 1.1764,-0.50723 1.77189,-0.33645 1.11733,0.32045 3.01073,1.32228 3.01073,1.59303 0,0.12683 0.5525,0.84511 1.22778,1.59618 0.79443,0.8836 1.02899,0.80813 1.27035,0.94043 0.21849,0.11977 0.93631,0.36002 1.18257,0.71238 0.33457,0.47873 0.45148,0.0175 0.53541,1.13988 l 0.009,0.94505 c 0.0107,1.1746 -0.6675,3.22644 -1.51228,4.57508 -0.35217,0.56221 -0.85204,1.51471 -1.11084,2.11666 -0.2588,0.60195 -0.90362,1.61174 -1.43294,2.24397 -1.0388,1.24077 -1.11682,1.67623 -0.67197,3.75051 0.15973,0.74481 0.24185,1.40278 0.18247,1.46215 -0.0594,0.0594 -0.37025,-0.0758 -0.69084,-0.30033 z m 17.68179,-6.25552 c -0.48922,-0.80446 -0.69917,-1.61965 -1.2479,-4.84537 l -0.22708,-1.33489 -0.45893,-1.24189 c -0.50686,-1.37159 -1.18342,-1.9978 -1.2853,-2.36736 0.0405,-0.48242 -2.45771,-1.76907 -2.70811,-1.76907 -0.21231,0 -1.0291,-1.18701 -1.51887,-2.26538 -0.47917,-1.05503 -0.0142,-1.51456 0.72467,-1.8912 0.50301,-0.25641 1.28942,-0.7288 1.77355,-0.9346 0.57743,-0.6925 1.34112,-1.74355 1.46013,-4.38938 0.10763,-2.39304 0.12452,-2.44739 0.76031,-2.44739 0.35763,0 1.31531,0.47625 2.12818,1.05833 1.67533,1.19968 2.39745,1.29757 3.68799,0.49997 1.03585,-0.64019 1.02927,-1.12327 -0.017,-1.24664 -0.46646,-0.055 -0.89548,-0.36936 -1.21006,-0.88663 -0.47252,-0.777 -0.493,-0.78367 -0.67225,-0.21888 -0.13453,0.42387 -0.26421,0.50321 -0.47611,0.29131 -0.16021,-0.16017 -0.52766,-0.29121 -0.8166,-0.29121 -0.28894,0 -0.80497,-0.2627 -1.14673,-0.58377 -0.53944,-0.50677 -0.7249,-0.5447 -1.40612,-0.28757 l -0.78472,0.29621 v -1.28749 c 0,-0.70812 0.14223,-1.59965 0.31607,-1.98118 0.27506,-0.60369 0.42857,-0.67259 1.18325,-0.53101 1.08426,0.20341 2.46943,-0.45434 2.46943,-1.17262 0,-0.84893 -0.57618,-0.93881 -1.17821,-0.18379 -0.88706,1.11247 -2.26138,0.88414 -2.26138,-0.37571 0,-1.11756 1.05694,-1.56599 3.69103,-1.56599 1.17139,0 2.12981,-0.10098 2.12981,-0.2244 0,-0.12342 -0.47363,-0.43798 -1.05252,-0.69902 -1.30872,-0.59015 -1.93006,-1.5068 -1.93006,-2.84737 0,-1.33529 0.75209,-2.34296 2.10597,-2.82162 1.01477,-0.35877 1.13506,-0.3395 2.82896,0.45317 5.65824,2.64781 11.16077,8.27466 13.66506,13.97378 0.44052,1.00251 0.91,2.01859 1.0433,2.25794 0.22452,0.40318 0.1802,0.40357 -0.60242,0.005 -0.6387,-0.32501 -1.83566,-0.45434 -4.90713,-0.53024 l -0.47512,2.71543 -0.63928,3.11127 -2.76078,-3.33036 -0.92604,-0.3318 c -1.23163,-0.44129 -1.5875,-0.43311 -1.5875,0.0365 0,0.21532 0.47625,0.63446 1.05833,0.93142 0.58208,0.29696 1.05833,0.70224 1.05833,0.90063 0,0.39429 -1.72166,2.04435 -2.65329,2.54295 -0.78366,0.4194 -1.0566,0.10324 -2.10065,-2.4332 -0.82421,-2.00236 -1.59606,-3.10308 -1.59606,-2.27609 0,0.5311 2.52795,5.65954 2.90444,5.89223 0.16715,0.1033 0.52271,-0.0102 0.79014,-0.25221 0.80705,-0.73038 0.90632,0.0187 0.16586,1.25168 -1.63216,2.71774 -1.82016,3.33238 -1.63709,5.35255 0.15415,1.70109 0.10951,1.98381 -0.44194,2.79902 -0.33737,0.49875 -1.00977,1.89184 -1.4942,3.09576 -1.28177,3.18544 -2.6889,4.08434 -3.72544,2.37987 z m 5.81948,-3.40755 c 0,-0.87049 1.02287,-2.84347 1.64746,-3.17773 0.51578,-0.27604 0.53022,-0.23563 0.35623,0.99667 -0.19637,1.39075 -0.87547,2.5565 -1.56871,2.69283 -0.30039,0.0591 -0.43498,-0.0993 -0.43498,-0.51177 z m 9.07876,-10.28941 c -0.13762,-1.162 -0.19853,-1.26668 -0.50034,-0.8599 -0.32452,0.43739 -0.36601,0.43371 -0.74547,-0.066 -0.221,-0.29104 -0.65842,-1.15303 -0.97203,-1.91553 -0.31362,-0.7625 -0.64618,-1.33914 -0.73902,-1.28142 -0.0928,0.0577 -0.12716,-0.55362 -0.0763,-1.35851 l 0.0925,-1.46346 2.81788,0.11967 c 2.01785,0.0857 3.08078,0.2559 3.74391,0.59948 1.11834,0.57944 1.9688,1.25132 2.02783,1.60203 0.35205,2.09149 0.61801,4.76093 0.61801,6.20302 0,1.73081 -0.0382,1.83904 -0.92232,2.61533 z m -24.486,0.60212 c 1e-4,0 -10e-5,3.2e-4 0,3e-4 z m -11.14677,-4.17387 c 0.0838,-0.21828 0.24404,-0.39688 0.35617,-0.39688 0.11214,0 0.3521,0.1786 0.53326,0.39688 0.27837,0.33541 0.22321,0.39687 -0.35617,0.39687 -0.50068,0 -0.64449,-0.10702 -0.53326,-0.39687 z m -1.62411,-0.41482 c -0.78939,-0.50565 -0.54146,-0.6491 0.59531,-0.34446 0.32742,0.0877 0.59531,0.32424 0.59531,0.52555 0,0.47342 -0.22139,0.43974 -1.19062,-0.18109 z m 9.38558,-12.16631 c -0.15968,-0.29837 -0.45141,-0.99905 -0.64829,-1.55706 -0.42013,-1.19078 -0.1692,-1.60463 0.97292,-1.60463 0.74083,0 0.74083,0 0.74083,1.85208 0,1.45014 -0.0841,1.85208 -0.38757,1.85208 -0.21316,0 -0.51821,-0.24411 -0.67789,-0.54247 z m -4.02777,-0.83878 c 0.73704,-0.35546 0.76464,-0.74067 0.0661,-0.92333 -0.72968,-0.19082 -0.6661,-0.60583 0.0928,-0.60583 0.98608,0 2.28844,0.54547 2.28844,0.95847 0,0.46886 -1.08182,0.89947 -2.20004,0.8757 -0.79853,-0.017 -0.81149,-0.0329 -0.24736,-0.30501 z"
       id="path70-1-8-6" /><path
       style="fill:none;stroke:#f4931f;stroke-width:6.56167;stroke-linecap:round;stroke-dasharray:none;stroke-opacity:1"
       id="path1-4-7-3-7"
       d="m 301.34722,650.82049 a 25.664583,25.664583 0 0 1 27.57217,-22.43082 25.664583,25.664583 0 0 1 23.5417,26.62996 25.664583,25.664583 0 0 1 -25.64304,24.61303"
       transform="rotate(-37.50756)" /><g
       id="g3-2-12-7"
       transform="translate(508.26459,218.01637)"><rect
         style="fill:none;stroke:#5bc74c;stroke-width:5.51677;stroke-linecap:round;stroke-dasharray:none;stroke-opacity:1"
         id="rect2-9-2-3"
         width="0.1088498"
         height="24.708797"
         x="108.32712"
         y="69.962837"
         ry="0.052128263" /><path
         style="fill:none;stroke:#5bc74c;stroke-width:6.56167;stroke-linecap:round;stroke-dasharray:none;stroke-opacity:1"
         id="path1-9-0-41"
         d="m 119.02415,78.16838 a 25.664583,25.664583 0 0 1 14.68807,28.67214 25.664583,25.664583 0 0 1 -24.90283,20.43723 25.664583,25.664583 0 0 1 -25.255718,-19.9995 25.664583,25.664583 0 0 1 14.185434,-28.924119" /></g><rect
       style="fill:none;stroke:#f4931f;stroke-width:6.53164;stroke-linecap:round;stroke-dasharray:none;stroke-opacity:1"
       id="rect2-7-2-1-8-17"
       width="0.13922642"
       height="19.139359"
       x="-354.10495"
       y="647.77765"
       ry="0.040378403"
       transform="rotate(-90)" /><rect
       style="fill:none;stroke:#f4931f;stroke-width:6.53163;stroke-linecap:round;stroke-dasharray:none;stroke-opacity:1"
       id="rect2-7-2-8-2-9-1"
       width="0.1392263"
       height="19.139378"
       x="-345.7659"
       y="647.83838"
       ry="0.040378429"
       transform="rotate(-90)" /><g
       id="g24-2-1-8"
       transform="matrix(0.09211522,-0.1022212,0.10928509,0.09848075,598.41521,324.82866)"><path
         style="fill:#fcc50f"
         d="m 446.43149,258.53598 c -3.42536,-1.37576 -6.43585,-1.05888 -4.2103,-8.92611 1.11714,-3.94904 3.47127,-14.43487 5.79078,-24.60987 2.3195,-10.175 4.73367,-19.0519 5.3648,-19.72643 0.89935,-0.9612 2.41688,-2.80331 6.01554,5.47644 1.31401,3.02326 3.3388,9.84779 4.9541,14.29538 1.26454,3.48183 10.4129,37.10804 7.8406,39.94846 -2.15866,2.38366 -21.63107,-4.80134 -25.75552,-6.45787 z M 359,226.04192 c -4.125,-1.50224 -10.22353,-4.11278 -13.55228,-5.80121 -12.92022,-6.55349 -29.34636,-12.77603 -56.31218,-10.4019 -4.86645,0.42846 -6.99293,0.2031 -8.46142,-0.89672 -1.92784,-1.44386 -1.91535,-1.53547 0.72997,-5.35267 1.48026,-2.13602 2.97962,-5.32481 3.33189,-7.08619 0.5699,-2.84948 0.29159,-3.39794 -2.52463,-4.97516 -9.56681,-5.35787 -39.80018,-24.3674 -41.77002,-26.2633 -1.26818,-1.22059 -2.30579,-3.29702 -2.30579,-4.61429 0,-3.04241 3.30756,-6.39504 6.30908,-6.39504 1.26999,0 8.13249,3.59962 15.25,7.99916 7.11751,4.39953 13.53642,7.99953 14.26424,8 3.85691,0.002 -0.8101,-4.22235 -13.32332,-12.06093 -7.7,-4.82347 -14.84612,-9.89363 -15.88026,-11.26703 -3.59034,-4.76819 0.67819,-10.84023 6.55652,-9.32674 1.27806,0.32906 8.52547,4.43618 16.10535,9.12692 7.57989,4.69074 14.44239,8.52862 15.25,8.52862 3.88543,0 0.44149,-3.41957 -10.02244,-9.95154 -6.31996,-3.94514 -12.16996,-7.85211 -13,-8.68215 -2.4585,-2.45849 -1.92836,-8.04554 0.94187,-9.92619 3.26373,-2.13848 4.89351,-1.53764 18.12158,6.68069 10.27557,6.384 14.42738,8.12047 14.42738,6.03418 0,-1.32707 -2.9149,-3.52921 -10.7896,-8.1513 -7.76523,-4.55785 -10.2104,-7.10916 -10.2104,-10.65362 0,-2.93521 4.66731,-6.57383 7.40713,-5.77457 3.63264,1.0597 40.72926,23.67202 48.57791,29.61075 4.13323,3.12743 24.77942,16.17825 31.37942,21.98068 7.58876,6.67169 13.65422,11.16713 16.5,12.22903 2.475,0.92354 4.88591,2.0132 5.35758,2.42146 0.47166,0.40826 -0.94746,8.32138 -3.1536,17.58472 -2.20615,9.26333 -4.56349,19.31742 -5.23854,22.34242 -2.0376,9.13086 -2.3891,9.25776 -13.96544,5.04192 z"
         id="path29-8-5-56" /><path
         style="fill:#f4931f"
         d="m 389.64866,407.07787 c -2.69809,1.51413 -6.41156,2.31368 -15.08614,6.2398 -21.88376,9.90459 -14.57349,-13.50689 -14.54721,-20.02222 0.008,-2.0875 0.34592,-4.27511 0.75,-4.86136 0.4227,-0.61326 12.58498,-2.01756 28.64048,-3.30693 22.80719,-1.83158 28.05724,-2.00225 28.73469,-0.9341 1.33678,2.10774 0.49268,6.41787 -4.10079,9.24281 -2.00527,1.23323 -6.96993,4.06948 -10.0063,5.56146 -2.18154,1.07195 -12.90846,7.25209 -14.38473,8.08054 z m -20.98117,-95.80686 c -1.06422,-1.72195 -0.62593,-13.24281 0.9548,-25.09755 2.01321,-15.09817 1.09513,-20.64212 -6.05588,-36.56915 -5.60335,-12.48005 -6.26376,-14.95503 -4.66426,-17.48023 0.73041,-1.15313 1.59758,-1.09865 5.35543,0.33649 5.67415,2.16697 8.84718,1.72054 10.381,-1.46057 0.66297,-1.375 3.82801,-13.29381 7.03341,-26.48624 5.30979,-21.85343 6.05647,-24.11229 8.3973,-25.40376 3.36329,-1.85559 7.68137,-0.75134 9.08189,2.32247 0.86696,1.90277 0.34538,5.40494 -2.61303,17.54528 -2.03291,8.34239 -3.41911,15.89009 -3.08043,16.77266 1.32495,3.45278 3.45077,-1.48186 7.0006,-16.25041 1.983,-8.25 4.11138,-16.27536 4.72973,-17.83413 1.36639,-3.44442 4.85907,-4.97865 8.32988,-3.65905 4.50432,1.71254 4.61823,4.41696 0.84608,20.08715 C 409.67573,217.56986 409.33554,220 411.29737,220 c 1.68743,0 3.15556,-4.25599 6.75339,-19.57742 1.15237,-4.90742 2.91863,-9.76633 3.92501,-10.79758 3.59097,-3.6797 11.03477,-1.12555 11.01637,3.77999 -0.004,1.15225 -1.35078,7.49501 -2.99214,14.09501 -3.14519,12.647 -3.62044,16.5 -2.03518,16.5 1.5329,0 2.82126,-3.14062 4.55217,-11.0968 2.08735,-9.59462 3.3489,-12.76106 5.55442,-13.94142 3.30223,-1.7673 6.79023,-1.10258 8.58461,1.636 1.88892,2.88285 1.65239,4.29381 -6.18634,36.90222 -4.05461,16.86679 -5.27516,20.45712 -14.48119,42.59716 -4.58634,11.02993 -7.36904,19.18992 -7.72706,22.6588 -0.30774,2.98166 -1.05495,5.58336 -1.66047,5.78157 -1.05743,0.34612 -19.09221,1.82089 -38.20467,3.12413 -5.73786,0.39126 -9.33482,0.24682 -9.7288,-0.39065 z"
         id="path28-6-2-1" /><path
         style="fill:#f4931f;fill-opacity:1"
         d="m 244.30236,403.98824 c -2.76905,-1.11514 -3.29339,-2.15356 -13.64289,-27.01858 -8.80046,-21.14341 -12.37785,-32.4106 -17.13564,-53.96966 -1.8901,-8.56465 -3.66611,-13.94429 -5.64121,-17.08755 -1.58544,-2.52315 -16.69212,-40.93826 -16.84983,-41.51659 -1.13266,-4.15357 1.56173,-5.84968 10.41103,-8.95683 7.30884,-2.56626 10.71837,-5.2049 14.58717,-6.26734 4.373,-1.20089 9.71275,-5.21357 11.42811,-4.72951 5.81687,1.64147 19.23825,39.18834 24.14035,48.56557 5.35892,10.25108 19.65407,16.43396 30.20666,21.87173 9.25971,4.77154 15.19389,9.46483 15.19389,12.01671 0,1.14286 -1.37825,2.05763 -4.26237,2.82901 -2.34431,0.62701 -5.30538,2.25024 -6.58015,3.60717 l -2.31778,2.46717 3.09041,7.04122 C 293.28889,357.32866 304,384.36807 304,385.93244 c 0,0.8924 -0.70052,2.62268 -1.5567,3.84505 -1.93217,2.75856 -7.42081,3.02635 -9.6845,0.47251 -0.85315,-0.9625 -3.90712,-7.6 -6.7866,-14.75 -5.30904,-13.18284 -6.51915,-15.5 -8.09464,-15.5 -1.84874,0 -0.66316,4.14737 5.65131,19.76935 6.8022,16.82859 7.31634,20.17276 3.42184,22.25703 -2.8092,1.50344 -6.47844,1.15596 -8.19833,-0.77638 -0.85667,-0.9625 -4.3207,-8.5 -7.69783,-16.75 -6.4046,-15.64582 -8.47911,-19.16315 -9.59195,-16.26314 -0.33598,0.87557 1.67248,7.25474 4.46326,14.17593 2.79078,6.9212 5.07414,13.86498 5.07414,15.43062 0,5.52581 -7.15955,8.32894 -10.70302,4.19047 -0.92589,-1.08136 -3.88118,-7.49386 -6.56731,-14.25 -5.34418,-13.44163 -6.14449,-14.76906 -7.86627,-13.04728 -0.8488,0.8488 -0.0887,3.62146 3.002,10.95 4.8848,11.58277 5.12867,14.3863 1.49974,17.24082 -2.92563,2.3013 -2.9652,2.30823 -6.06278,1.06079 z M 178.18333,195.24471 c 1.11788,-1.57028 4.03493,-6.0084 4.80919,-7.12719 0.81056,-1.17125 7.65869,-8.57787 9.49187,-10.01539 1.72329,-1.35133 4.36968,4.66427 5.96745,8.02495 1.67012,3.51285 5.53458,9.60465 4.99986,10.21388 -2.41489,2.75143 -15.87195,8.3543 -19.35094,9.70497 -3.09452,1.2014 -13.6489,6.08721 -14.00244,4.77894 -0.77129,-2.85418 3.63003,-8.50502 4.08532,-9.10179 0.94513,-1.23885 2.97449,-5.03827 3.99969,-6.47837 z"
         id="path27-8-3-5" /><path
         style="fill:#fcc50f;fill-opacity:1"
         d="m 206.92661,386.15475 c -1.8974,-2.28622 -18.2492,-18.25324 -16.91365,-22.4612 0.60826,-1.91646 17.32963,-9.66956 22.72895,-11.19132 1.73129,-0.48796 2.45734,-0.10465 3.18783,1.68295 0.52027,1.27315 5.30145,12.76586 10.62486,25.53935 5.32341,12.77349 9.45807,23.79849 9.18814,24.5 -0.57092,1.48373 -5.74781,3.45047 -9.58324,0.66964 -1.11989,-0.81195 -18.5607,-17.92948 -19.23289,-18.73942 z M 339.5,380.3489 c -8.8,-0.77641 -18.475,-1.15382 -21.5,-0.8387 -3.025,0.31513 -6.52571,0.66675 -7.77935,0.78138 -2.06347,0.18868 -3.0919,-1.7332 -10.85832,-20.29158 -4.71843,-11.275 -8.64272,-21.35446 -8.72065,-22.39879 -0.0974,-1.30552 0.79566,-2.17432 2.85832,-2.78063 1.65,-0.485 5.025,-1.5381 7.5,-2.3402 2.475,-0.80211 8.92926,-2.34045 14.3428,-3.41855 14.01316,-2.79069 21.08975,-6.4204 30.97564,-15.88795 C 353.81255,305.99689 359.36108,302 361.83015,302 c 0.51121,0 1.12603,2.71748 1.36628,6.03884 0.65677,9.07982 2.20509,10.2132 12.33118,9.02656 13.51347,-1.58361 42.31941,-3.32061 44.78898,-2.70079 4.77096,1.19744 5.52866,9.62532 0.99069,11.01949 -1.80035,0.55312 -25.44436,2.6159 -29.98388,2.6159 -2.5853,0 -4.19199,2.53141 -2.61048,4.11292 0.63797,0.63797 7.11199,0.55413 18.60383,-0.24092 20.6769,-1.43053 22.68325,-1.02511 22.68325,4.58351 0,5.42231 -2.15902,6.20003 -21,7.56465 -17.12887,1.24061 -20.32023,1.98176 -19.35577,4.49509 0.65927,1.71804 3.63788,1.79514 19.85577,0.51392 12.28304,-0.97036 14.91422,-0.2113 16.13554,4.65486 0.52769,2.10247 0.1267,3.12373 -1.91658,4.88129 -2.28099,1.96202 -4.17102,2.30756 -16.12316,2.94771 -13.43794,0.71973 -17.70449,1.88405 -16.14577,4.40611 0.56758,0.91836 3.79151,1.0496 12.95707,0.52743 13.58887,-0.77416 15.5929,-0.0712 15.5929,5.46987 0,5.27301 -1.60896,5.74116 -27.5,8.0015 -27.12955,2.36847 -30.70987,2.39759 -53,0.43096 z"
         id="path25-4-6-4" /></g><path
       style="fill:none;stroke:#f4931f;stroke-width:6.56167;stroke-linecap:round;stroke-dasharray:none;stroke-opacity:1"
       id="path2-17"
       d="m 302.02797,660.61056 a 25.664583,25.664583 0 0 1 0.4663,-14.82933"
       transform="rotate(-37.50756)" /></g></svg>
