<svg style="fill-rule:evenodd;clip-rule:evenodd;stroke-linecap:round;stroke-linejoin:round;"
    xmlns:vectornator="http://vectornator.io" xmlns:xlink="http://www.w3.org/1999/xlink"
    xmlns="http://www.w3.org/2000/svg" xml:space="preserve" version="1.1" viewBox="0 0 1200 800">
    <g id="layer1" vectornator:layerName="layer1" visibility="hidden">
        <use opacity="1" xlink:href="#Image" transform="matrix(0.940225 0 0 0.895725 105.155 -37.3635)" />
    </g>
    <g id="layer3" vectornator:layerName="layer3">
        <path stroke="#000000" stroke-opacity="0" stroke-width="17"
            d="M382.601+644.413C334.93+627.769+239.27+623.93+238.992+623.706C237.383+622.403+232.955+581.611+231.469+554.41C230.22+531.534+229.961+496.588+230.873+473.976C231.3+463.366+233.008+436.53+234.491+421.083C243.438+327.836+265.652+228.667+299.227+132.085C307.522+108.223+321.428+72.404+322.166+73.0012C322.457+73.2367+307.588+129.967+302.974+165.912C298.732+198.962+297.075+213.187+296.818+226.648C296.441+246.353+298.617+304.912+300.699+330.47C300.762+331.234+309.224+388.505+310.082+392.199C313.638+407.512+328.779+465.319+331.445+473.763C338.174+495.076+373.581+580.854+374.491+581.483C374.808+581.702+395.719+623.171+396.809+623.908C397.131+624.125+414.217+654.075+413.865+654.948C413.513+655.821+413.25+655.813+413.019+654.922C413.019+654.922+386.497+645.774+382.601+644.413Z"
            fill="#ffffff" stroke-linecap="butt" opacity="1" stroke-linejoin="miter" />
        <path
            d="M558.683+686.052C535.747+685.355+495.907+677.737+454.828+666.193L443.032+662.878L435.724+652.383C406.827+610.878+375.963+549.565+353.432+488.904C343.744+462.82+329.122+408.68+324.392+381.373C314.051+321.675+314.172+262.277+324.74+210.18C327.671+195.735+333.473+172.227+334.002+172.656C334.2+172.816+333.398+182.291+332.221+193.711C329.08+224.16+329.767+253.573+334.417+287.848C336.687+304.578+351.272+360.838+357.838+378.191C381.718+441.303+414.263+499.631+458.981+559.463C485.235+594.589+512.581+626.474+552.113+668.052C560.158+676.514+567.147+683.948+567.643+684.573C568.838+686.076+567.384+686.316+558.683+686.052Z"
            opacity="1" fill="#ff0000" />
        <path stroke="#ffffff" stroke-width="0.8"
            d="M405.073+344.245L434.529+344.058L434.716+417.791L448.6+417.604L448.412+344.245L478.056+344.058L477.868+330.362L405.073+330.924L405.073+344.245Z"
            fill="#ffffff" stroke-linecap="butt" opacity="1" stroke-linejoin="miter" />
        <path stroke="#ffffff" stroke-width="0.8"
            d="M492.502+417.226L558.919+416.85L558.919+404.843L506.011+404.655L505.823+380.077L551.602+380.077L551.227+367.319L506.011+367.132L506.198+342.929L559.294+343.304L558.919+330.546L492.69+330.546L492.502+417.226Z"
            fill="#ffffff" stroke-linecap="butt" opacity="1" stroke-linejoin="miter" />
        <path stroke="#ffffff" stroke-width="0.8"
            d="M578.056+330.737L591.564+330.924L591.189+405.221L638.281+405.221L638.281+417.604L578.243+417.416L578.056+330.737Z"
            fill="#ffffff" stroke-linecap="butt" opacity="1" stroke-linejoin="miter" />
        <path stroke="#ffffff" stroke-width="0.8"
            d="M752.54+343.87L801.32+343.682L801.32+354.189L814.266+354.001L814.266+341.619C814.266+341.619+812.577+331.112+800.195+331.487C787.812+331.863+751.602+331.3+751.602+331.3C751.602+331.3+763.046+331.3+751.602+331.3C740.157+331.3+739.407+341.431+739.407+343.87C739.407+346.309+739.219+407.285+739.219+407.285L739.219+407.285C739.219+407.285+739.031+400.53+739.407+407.66C739.782+414.789+747.849+417.416+750.288+417.416C752.727+417.416+801.133+417.791+801.133+417.791C801.133+417.791+795.129+417.979+801.508+417.791C807.887+417.604+814.454+412.726+814.454+407.097C814.454+401.469+814.078+394.339+814.078+394.339L801.32+394.339L801.32+405.033L752.165+405.033L752.54+343.87Z"
            fill="#ffffff" stroke-linecap="butt" opacity="1" stroke-linejoin="miter" />
        <path stroke="#ffffff" stroke-width="0.8"
            d="M936.968+417.041L936.78+330.737L950.664+330.737L985.561+396.215L1020.46+330.737L1033.97+330.924L1034.15+417.041L1021.02+417.041L1021.4+354.752L987.812+417.416L983.872+417.604L949.726+354.939L949.726+417.416L936.968+417.041Z"
            fill="#ffffff" stroke-linecap="butt" opacity="1" stroke-linejoin="miter" />
        <path stroke="#ffffff" stroke-width="0.8"
            d="M653.173+417.53L719.59+417.155L719.59+405.148L666.682+404.96L666.494+380.382L712.273+380.382L711.897+367.624L666.682+367.437L666.869+343.234L719.965+343.609L719.59+330.851L653.361+330.851L653.173+417.53Z"
            fill="#ffffff" stroke-linecap="butt" opacity="1" stroke-linejoin="miter" />
        <path
            d="M530.67+453.923L549.839+453.461L587.483+548.381L624.897+453.692L643.604+453.923L596.952+568.935L577.553+569.166L530.67+453.923Z"
            opacity="1" fill="#ff0000" />
        <path d="M798.571+453.923L816.123+453.923L816.123+569.397L798.802+568.935L798.571+453.923Z" opacity="1"
            fill="#ff0000" />
        <path
            d="M846.839+453.923L864.622+453.923L864.853+552.769L926.747+552.769L926.516+569.166L846.839+568.935L846.839+453.923Z"
            opacity="1" fill="#ff0000" />
        <path
            d="M944.828+567.364L1034.18+566.871L1034.18+551.078L963.002+550.831L962.749+518.504L1024.34+518.504L1023.83+501.724L963.002+501.477L963.254+469.644L1034.69+470.137L1034.18+453.357L945.08+453.357L944.828+567.364Z"
            opacity="0.96" fill="#ff0000" />
        <path stroke="#ffffff" stroke-width="12.17"
            d="M841.732+343.832C841.732+339.074+845.241+333.68+852.407+333.363C859.572+333.046+896.715+333.205+896.715+333.205C896.715+333.205+891.743+333.363+896.715+333.205C901.687+333.046+907.537+338.28+907.537+344.149C907.537+350.018+907.39+400.619+907.39+400.619C907.39+400.619+907.537+395.86+907.39+400.619C907.244+405.378+904.466+412.04+897.593+412.357C890.72+412.674+852.699+412.516+852.699+412.516C852.699+412.516+860.011+412.674+852.699+412.516C845.388+412.357+841.732+407.122+841.439+402.681C841.147+398.24+841.732+343.832+841.732+343.832Z"
            fill="#ffffff" stroke-linecap="butt" fill-opacity="0" opacity="1" stroke-linejoin="miter" />
        <path stroke="#ff0000" stroke-width="17"
            d="M673.48+474.966C673.48+469.038+678.049+462.319+687.378+461.924C696.707+461.529+745.063+461.726+745.063+461.726C745.063+461.726+738.59+461.924+745.063+461.726C751.536+461.529+759.151+468.05+759.151+475.361C759.151+482.672+758.961+545.708+758.961+545.708C758.961+545.708+759.151+539.78+758.961+545.708C758.771+551.636+755.153+559.935+746.205+560.33C737.258+560.726+687.759+560.528+687.759+560.528C687.759+560.528+697.278+560.726+687.759+560.528C678.24+560.33+673.48+553.81+673.1+548.277C672.719+542.744+673.48+474.966+673.48+474.966Z"
            fill="#000000" stroke-linecap="butt" fill-opacity="0" opacity="1" stroke-linejoin="miter" />
        <path stroke="#000000" stroke-opacity="0" stroke-width="17"
            d="M357.771+623.117C324.078+609.895+257.352+608.422+257.152+608.237C255.992+607.162+251.686+572.665+249.836+549.634C248.281+530.265+247.053+500.646+247.01+481.461C246.99+472.458+247.01+494.438+247.944+436.555C249.493+340.527+290.372+188.43+290.904+188.923C291.113+189.117+290.117+188.412+287.982+218.97C286.019+247.065+285.291+259.155+285.516+270.571C285.844+287.282+289.114+336.882+291.331+358.509C291.397+359.156+299.006+407.547+299.714+410.663C302.65+423.578+314.925+472.299+317.035+479.407C322.359+497.349+349.585+569.405+350.238+569.921C350.465+570.101+366.269+604.866+367.05+605.47C367.281+605.648+380.076+630.719+379.857+631.466C379.638+632.212+379.454+632.21+379.267+631.459C379.267+631.459+360.525+624.198+357.771+623.117Z"
            fill="#171313" stroke-linecap="butt" opacity="1" stroke-linejoin="miter" />
    </g>
</svg>