<svg xmlns="http://www.w3.org/2000/svg" xmlns:xlink="http://www.w3.org/1999/xlink" viewBox="0 0 342 342"
   xmlns:rdf="http://www.w3.org/1999/02/22-rdf-syntax-ns#" xmlns:dc="http://purl.org/dc/elements/1.1/">
   <metadata>
      <rdf:RDF>
         <rdf:Description rdf:about="">
            <dc:title>Logo de l'association Comète (version blanche)</dc:title>
            <dc:creator>Comète Telecom Paris</dc:creator>
            <dc:description>Logo de l'association Comète. https://comete-tp.fr/.
               https://github.com/comete-telecom-paris/logos</dc:description>
            <dc:date>2025-08-14</dc:date>
         </rdf:Description>
      </rdf:RDF>
   </metadata>
   <path fill="#ffffff"
      d="M0,0,70.79,50.48l70.66,50.65L212,151.89l70.54,50.82,17.65,12.74a149.83,149.83,0,0,1,16.95,14.47,97.73,97.73,0,0,1,14.09,17.59,70.17,70.17,0,0,1,8.88,21.08,57.61,57.61,0,0,1,.63,23.05,52.59,52.59,0,0,1-16.44,30.1,66.15,66.15,0,0,1-9.14,7,71.7,71.7,0,0,1-54.93,9.06,69.19,69.19,0,0,1-10.85-3.65,61.54,61.54,0,0,1-10-5.49c-1.61-1-3.12-2.21-4.64-3.35s-2.93-2.44-4.28-3.78-2.68-2.7-4-4.08l-1.85-2.18-.92-1.09-.83-1.09-6.59-8.66q-6.6-8.62-13.12-17.32l-13-17.39-13-17.46-6.46-8.75-3.25-4.35L165.8,237l-.83-1.07-.43-.53-.11-.12c-.06-.06,0-.06,0,0s.11.2.17.3a2.83,2.83,0,0,1-.2-.28c-.08,0,0-.16.06-.08l.14.11.48.48.95,1,1.85,2c1.23,1.33,2.43,2.69,3.64,4l7.21,8.15q7.19,8.18,14.22,16.47T207,284q7,8.32,13.9,16.72l6.92,8.37c.56.7,1.14,1.38,1.71,2l1.72,1.91c1.23,1.22,2.41,2.48,3.72,3.6a60.25,60.25,0,0,0,8.18,6.23,59.44,59.44,0,0,0,9.07,4.78,62.39,62.39,0,0,0,9.73,3.24,66.36,66.36,0,0,0,30.63-.12,65.44,65.44,0,0,0,18.92-7.95,57.28,57.28,0,0,0,8.11-6.21,45.88,45.88,0,0,0,6.58-7.62c7.67-11.07,9.85-25.59,6.64-38.69a63.5,63.5,0,0,0-8.05-18.74,99.18,99.18,0,0,0-13-16.26,142,142,0,0,0-16-13.85l-17.4-13-69.7-52-69.65-52L69.45,52.31Z" />
   <polygon fill="#ffffff" points="32.97 58.9 219.87 242.65 214.55 247.91 32.97 58.9" />
   <path fill="#ffffff"
      d="M84.5,122.91,233.17,287.47l-6,2.27a46.38,46.38,0,0,1,7.34-26.94,52.83,52.83,0,0,1,21-18.59,51.58,51.58,0,0,1,13.44-4.53,46,46,0,0,1,7.15-.78,55.21,55.21,0,0,1,7.07.29,52.89,52.89,0,0,1,13.71,3.25,49.34,49.34,0,0,1,12.31,6.95,45,45,0,0,1,9.65,10.3,44.2,44.2,0,0,1,5.91,12.71,43.12,43.12,0,0,1,1.36,6.84,35.63,35.63,0,0,1-.93,13.89,38.75,38.75,0,0,1-2.41,6.48,38.35,38.35,0,0,1-3.48,5.91,37.81,37.81,0,0,1-4.4,5.2,39.59,39.59,0,0,1-11,7.73A36.85,36.85,0,0,1,291,321.9a40,40,0,0,1-13.06-1.09,39.38,39.38,0,0,0,12.91-.06,36.89,36.89,0,0,0,12-4.28A37.48,37.48,0,0,0,318.93,298a33.77,33.77,0,0,0,1.74-5.87,33.19,33.19,0,0,0,.59-6,37.3,37.3,0,0,0-2.19-11.88,37.93,37.93,0,0,0-5.76-10.52,39.72,39.72,0,0,0-8.69-8.14A41.68,41.68,0,0,0,294,250.18a50.3,50.3,0,0,0-17.66-2.59,36.8,36.8,0,0,0-5.8.66A46.11,46.11,0,0,0,259.32,252a46.78,46.78,0,0,0-18,15.3,42.63,42.63,0,0,0-5.28,10.59A44.39,44.39,0,0,0,234,289.71l-.43,8.83L228,292Z" />
</svg>