<?xml version="1.0" encoding="UTF-8"?><svg id="Calque_1" xmlns="http://www.w3.org/2000/svg" xmlns:xlink="http://www.w3.org/1999/xlink" viewBox="0 0 1018.17 680.15"><defs><style>.cls-1{fill:url(#Dégradé_sans_nom_46);}.cls-2{fill:url(#Dégradé_sans_nom_17-2);}.cls-3{fill:url(#Dégradé_sans_nom_46-2);}.cls-4{fill:url(#Dégradé_sans_nom_17);}.cls-5{fill:url(#Dégradé_sans_nom_264);}.cls-6{fill:url(#Dégradé_sans_nom_47);}.cls-7{fill:url(#Dégradé_sans_nom_46-3);}.cls-8{fill:url(#Dégradé_sans_nom_264-2);}.cls-9{fill:url(#Dégradé_sans_nom_264-3);}</style><linearGradient id="Dégradé_sans_nom_47" x1="494.57" y1="445.38" x2="987.62" y2="445.38" gradientTransform="matrix(1, 0, 0, 1, 0, 0)" gradientUnits="userSpaceOnUse"><stop offset="0" stop-color="#d4edf9"/><stop offset=".11" stop-color="#c6e4f5"/><stop offset=".31" stop-color="#a3cdea"/><stop offset=".58" stop-color="#6ba7d9"/><stop offset=".91" stop-color="#1e74c2"/><stop offset="1" stop-color="#0866bc"/></linearGradient><linearGradient id="Dégradé_sans_nom_17" x1="325.54" y1="340.07" x2="1018.17" y2="340.07" gradientTransform="matrix(1, 0, 0, 1, 0, 0)" gradientUnits="userSpaceOnUse"><stop offset="0" stop-color="#959ff9"/><stop offset="1" stop-color="#060c82"/></linearGradient><linearGradient id="Dégradé_sans_nom_17-2" x1="415.45" y1="317.33" x2="772.32" y2="317.33" xlink:href="#Dégradé_sans_nom_17"/><linearGradient id="Dégradé_sans_nom_46" x1="-19.92" y1="605.23" x2="370.96" y2="605.23" gradientTransform="matrix(1, 0, 0, 1, 0, 0)" gradientUnits="userSpaceOnUse"><stop offset="0" stop-color="#959ff9"/><stop offset="1" stop-color="#060c82"/></linearGradient><linearGradient id="Dégradé_sans_nom_46-2" x1="-19.96" x2="371.56" xlink:href="#Dégradé_sans_nom_46"/><linearGradient id="Dégradé_sans_nom_46-3" x1="-20.12" y1="606.1" x2="371.38" y2="606.1" xlink:href="#Dégradé_sans_nom_46"/><linearGradient id="Dégradé_sans_nom_264" x1="381.81" y1="592.14" x2="655.74" y2="592.14" gradientTransform="matrix(1, 0, 0, 1, 0, 0)" gradientUnits="userSpaceOnUse"><stop offset="0" stop-color="#0866bc"/><stop offset=".15" stop-color="#2e7fcc"/><stop offset=".34" stop-color="#589bde"/><stop offset=".52" stop-color="#79b0ec"/><stop offset=".7" stop-color="#90c0f6"/><stop offset=".86" stop-color="#9fc9fc"/><stop offset="1" stop-color="#a4cdff"/></linearGradient><linearGradient id="Dégradé_sans_nom_264-2" y1="605.23" x2="655.74" y2="605.23" xlink:href="#Dégradé_sans_nom_264"/><linearGradient id="Dégradé_sans_nom_264-3" y1="605.23" x2="655.74" y2="605.23" xlink:href="#Dégradé_sans_nom_264"/></defs><g><path class="cls-6" d="M801.66,597.42v-19.24h0c.14-7.71,1.81-15.39,4.62-22.77,1.38-3.69,3.09-7.3,5.04-10.77,1.92-3.49,4.06-6.88,6.41-10.12,2.34-3.26,4.95-6.31,7.64-9.28,2.71-2.96,5.58-5.77,8.64-8.36,3.04-2.61,6.26-5,9.55-7.26,3.32-2.22,6.76-4.24,10.3-6.05,7.11-3.55,14.64-6.18,22.35-7.76,7.76-1.51,15.9-2.11,23.88-1.7,7.99,.4,15.89,1.81,23.35,4.42,7.46,2.6,14.45,6.41,20.69,11.3,12.48,9.79,22.47,23.64,27.92,38.9,2.7,7.64,4.34,15.66,4.42,23.73,.1,8.06-1.29,16.15-4.27,23.74-2.91,7.61-7.27,14.76-12.81,20.93-5.55,6.17-12.19,11.45-19.56,15.56-7.38,4.1-15.47,7.04-23.88,8.71-8.41,1.63-17.14,2.05-25.81,1.1l-.12,.77c17.17,3.75,35.86,2.01,52.34-5.55,8.24-3.74,15.94-8.87,22.54-15.29,6.61-6.39,12.09-14.05,16.04-22.51,3.94-8.48,6.15-17.82,6.6-27.23,.44-9.41-.82-18.88-3.54-27.85-2.71-8.98-6.74-17.51-11.81-25.37-5.1-7.84-11.2-15.13-18.52-21.29-7.29-6.19-15.67-11.18-24.6-14.67-8.93-3.51-18.34-5.55-27.78-6.38-9.46-.76-18.91-.4-28.34,1.27-9.46,1.7-18.6,4.84-27.13,9.09-4.26,2.14-8.37,4.54-12.33,7.17-3.95,2.63-7.66,5.6-11.23,8.71-7.11,6.25-13.45,13.35-18.76,21.2-2.65,3.93-5.07,8.01-7.2,12.27-2.11,4.26-3.94,8.68-5.39,13.26-1.16,3.63-2.08,7.37-2.73,11.18-96.95-103.54-188.67-212.33-286.23-315.63,97.92,110.66,189.14,226.84,287.25,337.71l12.48,14.1Z"/><path class="cls-4" d="M1015.73,539.13c-.72-3.76-1.65-7.5-2.63-11.11l-1.71-5.49-.86-2.75-.43-1.37-.52-1.34-2.11-5.35c-.36-.89-.69-1.79-1.08-2.66l-1.23-2.59-2.47-5.18c-.88-1.69-1.85-3.34-2.77-5.01-7.45-13.35-17.11-25.23-27.74-35.9-5.35-5.31-11.01-10.27-16.85-14.95-1.45-1.18-2.93-2.33-4.42-3.45-1.48-1.15-2.97-2.24-4.47-3.34l-8.86-6.42-35.24-25.59-70.4-51.37-70.53-51.21-70.57-51.16-70.73-50.94-70.81-50.83-70.97-50.6C430.98,66.82,383.49,33.33,335.89,0c46.39,35,92.87,69.88,139.37,104.71l139.6,104.38,139.7,104.25,69.86,52.12,70,51.93,35.08,25.9,8.73,6.43c1.42,1.07,2.85,2.13,4.23,3.22,1.4,1.08,2.79,2.17,4.14,3.29,5.46,4.45,10.69,9.12,15.62,14.08,19.73,19.81,34.24,44.37,39.3,71.59,2.59,13.45,2.91,27.29,.32,40.54-1.29,6.62-3.25,13.09-5.9,19.28-.7,1.53-1.47,3.03-2.19,4.54l-1.1,2.27c-.37,.76-.84,1.45-1.26,2.18l-2.57,4.34c-.93,1.4-1.93,2.75-2.89,4.13l-1.46,2.06-1.61,1.95c-1.09,1.28-2.1,2.63-3.25,3.87l-3.5,3.67c-.56,.63-1.19,1.2-1.82,1.77l-1.87,1.72c-5.03,4.54-10.47,8.69-16.3,12.27-11.65,7.16-24.56,12.62-37.83,15.64-6.65,1.53-13.46,2.42-20.3,2.81-6.84,.4-13.73,.24-20.58-.43-6.86-.67-13.61-1.91-20.33-3.6-1.73-.42-3.3-.96-4.96-1.43-1.63-.5-3.29-.93-4.91-1.48l-4.8-1.81-2.4-.9c-.79-.32-1.56-.71-2.35-1.05l-4.68-2.14c-1.56-.72-3.04-1.61-4.57-2.39-3.08-1.53-5.98-3.41-8.94-5.2-5.77-3.8-11.44-7.82-16.66-12.43-5.28-4.53-10.31-9.38-14.99-14.57-2.33-2.6-4.61-5.25-6.75-7.99-.55-.68-1.08-1.36-1.6-2.06-.52-.69-1.04-1.36-1.62-2.17-.56-.8-1.14-1.5-1.72-2.19l-1.74-2.1c-18.53-22.45-37.22-44.77-56.08-66.94-9.43-11.08-18.9-22.13-28.45-33.11l-14.35-16.44c-4.83-5.44-9.62-10.91-14.5-16.31,4.16,5.97,8.41,11.87,12.62,17.8l12.77,17.67c8.53,11.76,17.14,23.45,25.79,35.11,17.3,23.31,34.77,46.47,52.4,69.5l1.65,2.16c.56,.72,1.11,1.44,1.56,2.16,.45,.69,1.01,1.48,1.56,2.26,.54,.78,1.09,1.55,1.66,2.31,2.23,3.06,4.61,5.99,7.04,8.88,4.88,5.75,10.15,11.18,15.75,16.27,5.57,5.13,11.67,9.69,17.94,14,3.21,2.05,6.38,4.18,9.76,5.97,1.68,.91,3.32,1.9,5.04,2.73l5.19,2.46c.87,.4,1.72,.84,2.61,1.21l2.68,1.05,5.36,2.1c1.81,.65,3.66,1.16,5.5,1.75,1.83,.55,3.7,1.19,5.49,1.65,3.64,.98,7.41,1.82,11.16,2.5,1.88,.37,3.77,.63,5.66,.93,1.9,.24,3.79,.51,5.69,.69,7.6,.78,15.28,1,22.94,.58,7.66-.45,15.3-1.48,22.81-3.22,15.06-3.48,29.24-9.54,42.31-17.61,6.54-4.03,12.69-8.74,18.42-13.94l2.13-1.97c.71-.65,1.43-1.31,2.08-2.03l4-4.23c1.31-1.43,2.5-2.98,3.75-4.47l1.85-2.26,1.69-2.39c1.11-1.6,2.26-3.18,3.33-4.8l2.97-5.04c.48-.85,1.02-1.67,1.45-2.54l1.28-2.63c.84-1.76,1.71-3.51,2.52-5.28,3.05-7.18,5.31-14.69,6.77-22.32,2.94-15.3,2.5-31.03-.44-46.07Z"/><polygon class="cls-2" points="772.32 484.68 420.79 139.44 761.65 495.22 772.32 484.68"/></g><g><path class="cls-1" d="M83.88,663.61c-6.31,1.44-13.68,2.17-22.12,2.17-7.87,0-15.53-1.22-22.99-3.64-7.46-2.43-14.05-6.13-19.78-11.1-5.73-4.97-10.32-11.22-13.79-18.74-3.47-7.52-5.2-16.37-5.2-26.54,0-7.63,1.41-15.09,4.25-22.38,2.83-7.29,7.03-13.79,12.58-19.52,5.55-5.73,12.46-10.35,20.73-13.88,8.27-3.53,17.9-5.29,28.89-5.29,8.9,0,15.9,.75,20.99,2.26,5.09,1.5,8.61,2.72,10.58,3.64l-2.78,7.11c-3.47-1.73-7.66-3.15-12.58-4.25-4.92-1.1-10.15-1.65-15.7-1.65-9.49,0-17.84,1.36-25.07,4.08-7.23,2.72-13.3,6.51-18.22,11.36-4.92,4.86-8.62,10.64-11.1,17.35-2.49,6.71-3.73,14-3.73,21.86,0,7.17,1.18,13.94,3.56,20.3,2.37,6.36,5.93,11.88,10.67,16.57,4.74,4.68,10.58,8.39,17.52,11.1,6.94,2.72,15.03,4.08,24.29,4.08,5.78,0,11.36-.55,16.74-1.65,5.38-1.1,10.09-2.63,14.14-4.6l2.6,6.77c-3.36,1.62-8.18,3.15-14.49,4.6Z"/><path class="cls-3" d="M223.54,630.39c-3.3,7.75-7.69,14.26-13.19,19.52-5.49,5.26-11.8,9.22-18.91,11.88-7.11,2.66-14.49,3.99-22.12,3.99-8.33,0-16.05-1.47-23.16-4.42s-13.27-7.03-18.48-12.23c-5.2-5.21-9.28-11.42-12.23-18.65-2.95-7.23-4.42-15.12-4.42-23.68,0-9.13,1.53-17.52,4.6-25.16,3.06-7.63,7.26-14.2,12.58-19.69,5.32-5.49,11.59-9.74,18.82-12.75,7.23-3.01,15.01-4.51,23.33-4.51s16.4,1.5,23.51,4.51c7.11,3.01,13.24,7.14,18.39,12.4,5.15,5.26,9.14,11.48,11.97,18.65,2.83,7.17,4.25,14.98,4.25,23.42,0,10.06-1.65,18.97-4.94,26.72Zm-7.2-44.93c-2.08-6.25-5.18-11.88-9.28-16.92-4.11-5.03-9.25-9.11-15.44-12.23-6.19-3.12-13.45-4.68-21.77-4.68s-15.61,1.5-21.86,4.51c-6.25,3.01-11.48,7.03-15.7,12.06-4.22,5.03-7.37,10.87-9.46,17.52-2.08,6.65-3.12,13.56-3.12,20.73s1.15,13.56,3.47,19.86c2.31,6.31,5.58,11.86,9.8,16.65,4.22,4.8,9.4,8.65,15.53,11.54,6.13,2.89,13.01,4.34,20.65,4.34s14.75-1.39,20.99-4.16c6.25-2.78,11.54-6.59,15.87-11.45,4.34-4.86,7.66-10.61,9.98-17.26,2.31-6.65,3.47-13.85,3.47-21.6,0-6.36-1.04-12.66-3.12-18.91Zm-41.38,24.46c-1.33,1.62-3.15,2.43-5.46,2.43s-3.96-.81-5.29-2.43c-1.33-1.62-1.99-3.47-1.99-5.55,.11-2.31,.84-4.25,2.17-5.81,1.33-1.56,3.09-2.34,5.29-2.34s3.96,.78,5.29,2.34c1.33,1.56,2,3.5,2,5.81,0,2.08-.67,3.93-2,5.55Z"/><path class="cls-7" d="M362.07,665.44l-3.64-56.9c-.23-4.28-.52-8.85-.87-13.71-.35-4.86-.67-9.63-.95-14.31-.29-4.68-.52-9.14-.69-13.36-.17-4.22-.26-7.89-.26-11.02h-.35c-2.32,6.25-4.89,12.87-7.72,19.86-2.84,7-6.1,14.95-9.8,23.86l-27.06,63.84h-6.42l-25.33-62.98c-3.7-9.14-6.88-17.29-9.54-24.46-2.66-7.17-4.97-13.88-6.94-20.12h-.35c-.12,3.36-.26,7.17-.43,11.45-.17,4.28-.41,8.76-.69,13.45-.29,4.68-.58,9.51-.87,14.49-.29,4.97-.61,9.89-.95,14.75l-4.16,55.17-8.33-1.73,9.37-116.93h9.72l28.11,69.74c5.78,14.34,10.41,26.78,13.88,37.3h.35c1.62-4.97,3.58-10.47,5.9-16.48,2.31-6.01,5.15-12.9,8.5-20.65l29.49-69.92h10.06l8.33,116.93-8.33,1.73Z"/><path class="cls-5" d="M396.94,663.7v-116.93h63.5v7.11h-55v44.59h52.05v7.11h-52.05v51.01h57.95v7.11h-66.45Zm34.87-123.18l-22.9-19.95h13.19l16.65,19.95h-6.94Z"/><path class="cls-8" d="M518.9,553.88v109.82h-8.5v-109.82h-43.55v-7.11h95.59v7.11h-43.55Z"/><path class="cls-9" d="M574.07,663.7v-116.93h60.03v7.11h-51.53v44.59h52.05v7.11h-52.05v51.01h61.42v7.11h-69.92Z"/></g></svg>