<?xml version="1.0" encoding="UTF-8" standalone="no"?>
<!-- Created with Inkscape (http://www.inkscape.org/) -->

<svg
   width="170.38991mm"
   height="219.54596mm"
   viewBox="0 0 170.38991 219.54596"
   version="1.1"
   id="svg1"
   xmlns="http://www.w3.org/2000/svg"
   xmlns:svg="http://www.w3.org/2000/svg">
  <defs
     id="defs1" />
  <g
     id="layer1"
     transform="translate(-25.564172,-28.174865)">
    <g
       id="layer1-8"
       transform="translate(6.2495886,-17.333494)"
       style="fill:#ffffff">
      <g
         id="g18"
         transform="matrix(0.24972965,0,0,0.24972965,-64.567048,45.508357)"
         style="fill:#ffffff">
        <path
           class="cls-6"
           d="m 801.66,597.42 v -19.24 0 c 0.14,-7.71 1.81,-15.39 4.62,-22.77 1.38,-3.69 3.09,-7.3 5.04,-10.77 1.92,-3.49 4.06,-6.88 6.41,-10.12 2.34,-3.26 4.95,-6.31 7.64,-9.28 2.71,-2.96 5.58,-5.77 8.64,-8.36 3.04,-2.61 6.26,-5 9.55,-7.26 3.32,-2.22 6.76,-4.24 10.3,-6.05 7.11,-3.55 14.64,-6.18 22.35,-7.76 7.76,-1.51 15.9,-2.11 23.88,-1.7 7.99,0.4 15.89,1.81 23.35,4.42 7.46,2.6 14.45,6.41 20.69,11.3 12.48,9.79 22.47,23.64 27.92,38.9 2.7,7.64 4.34,15.66 4.42,23.73 0.1,8.06 -1.29,16.15 -4.27,23.74 -2.91,7.61 -7.27,14.76 -12.81,20.93 -5.55,6.17 -12.19,11.45 -19.56,15.56 -7.38,4.1 -15.47,7.04 -23.88,8.71 -8.41,1.63 -17.14,2.05 -25.81,1.1 l -0.12,0.77 c 17.17,3.75 35.86,2.01 52.34,-5.55 8.24,-3.74 15.94,-8.87 22.54,-15.29 6.61,-6.39 12.09,-14.05 16.04,-22.51 3.94,-8.48 6.15,-17.82 6.6,-27.23 0.44,-9.41 -0.82,-18.88 -3.54,-27.85 -2.71,-8.98 -6.74,-17.51 -11.81,-25.37 -5.1,-7.84 -11.2,-15.13 -18.52,-21.29 -7.29,-6.19 -15.67,-11.18 -24.6,-14.67 -8.93,-3.51 -18.34,-5.55 -27.78,-6.38 -9.46,-0.76 -18.91,-0.4 -28.34,1.27 -9.46,1.7 -18.6,4.84 -27.13,9.09 -4.26,2.14 -8.37,4.54 -12.33,7.17 -3.95,2.63 -7.66,5.6 -11.23,8.71 -7.11,6.25 -13.45,13.35 -18.76,21.2 -2.65,3.93 -5.07,8.01 -7.2,12.27 -2.11,4.26 -3.94,8.68 -5.39,13.26 -1.16,3.63 -2.08,7.37 -2.73,11.18 C 691.23,457.74 599.51,348.95 501.95,245.65 599.87,356.31 691.09,472.49 789.2,583.36 l 12.48,14.1 z"
           id="path17"
           style="fill:#ffffff" />
        <path
           class="cls-4"
           d="m 1015.73,539.13 c -0.72,-3.76 -1.65,-7.5 -2.63,-11.11 l -1.71,-5.49 -0.86,-2.75 -0.43,-1.37 -0.52,-1.34 -2.11,-5.35 c -0.36,-0.89 -0.69,-1.79 -1.08,-2.66 l -1.23,-2.59 -2.47,-5.18 c -0.88,-1.69 -1.85,-3.34 -2.77,-5.01 -7.45,-13.35 -17.11,-25.23 -27.74,-35.9 -5.35,-5.31 -11.01,-10.27 -16.85,-14.95 -1.45,-1.18 -2.93,-2.33 -4.42,-3.45 -1.48,-1.15 -2.97,-2.24 -4.47,-3.34 l -8.86,-6.42 -35.24,-25.59 -70.4,-51.37 -70.53,-51.21 -70.57,-51.16 -70.73,-50.94 -70.81,-50.83 -70.97,-50.6 C 430.98,66.82 383.49,33.33 335.89,0 c 46.39,35 92.87,69.88 139.37,104.71 l 139.6,104.38 139.7,104.25 69.86,52.12 70,51.93 35.08,25.9 8.73,6.43 c 1.42,1.07 2.85,2.13 4.23,3.22 1.4,1.08 2.79,2.17 4.14,3.29 5.46,4.45 10.69,9.12 15.62,14.08 19.73,19.81 34.24,44.37 39.3,71.59 2.59,13.45 2.91,27.29 0.32,40.54 -1.29,6.62 -3.25,13.09 -5.9,19.28 -0.7,1.53 -1.47,3.03 -2.19,4.54 l -1.1,2.27 c -0.37,0.76 -0.84,1.45 -1.26,2.18 l -2.57,4.34 c -0.93,1.4 -1.93,2.75 -2.89,4.13 l -1.46,2.06 -1.61,1.95 c -1.09,1.28 -2.1,2.63 -3.25,3.87 l -3.5,3.67 c -0.56,0.63 -1.19,1.2 -1.82,1.77 l -1.87,1.72 c -5.03,4.54 -10.47,8.69 -16.3,12.27 -11.65,7.16 -24.56,12.62 -37.83,15.64 -6.65,1.53 -13.46,2.42 -20.3,2.81 -6.84,0.4 -13.73,0.24 -20.58,-0.43 -6.86,-0.67 -13.61,-1.91 -20.33,-3.6 -1.73,-0.42 -3.3,-0.96 -4.96,-1.43 -1.63,-0.5 -3.29,-0.93 -4.91,-1.48 l -4.8,-1.81 -2.4,-0.9 c -0.79,-0.32 -1.56,-0.71 -2.35,-1.05 l -4.68,-2.14 c -1.56,-0.72 -3.04,-1.61 -4.57,-2.39 -3.08,-1.53 -5.98,-3.41 -8.94,-5.2 -5.77,-3.8 -11.44,-7.82 -16.66,-12.43 -5.28,-4.53 -10.31,-9.38 -14.99,-14.57 -2.33,-2.6 -4.61,-5.25 -6.75,-7.99 -0.55,-0.68 -1.08,-1.36 -1.6,-2.06 -0.52,-0.69 -1.04,-1.36 -1.62,-2.17 -0.56,-0.8 -1.14,-1.5 -1.72,-2.19 l -1.74,-2.1 c -18.53,-22.45 -37.22,-44.77 -56.08,-66.94 -9.43,-11.08 -18.9,-22.13 -28.45,-33.11 l -14.35,-16.44 c -4.83,-5.44 -9.62,-10.91 -14.5,-16.31 4.16,5.97 8.41,11.87 12.62,17.8 l 12.77,17.67 c 8.53,11.76 17.14,23.45 25.79,35.11 17.3,23.31 34.77,46.47 52.4,69.5 l 1.65,2.16 c 0.56,0.72 1.11,1.44 1.56,2.16 0.45,0.69 1.01,1.48 1.56,2.26 0.54,0.78 1.09,1.55 1.66,2.31 2.23,3.06 4.61,5.99 7.04,8.88 4.88,5.75 10.15,11.18 15.75,16.27 5.57,5.13 11.67,9.69 17.94,14 3.21,2.05 6.38,4.18 9.76,5.97 1.68,0.91 3.32,1.9 5.04,2.73 l 5.19,2.46 c 0.87,0.4 1.72,0.84 2.61,1.21 l 2.68,1.05 5.36,2.1 c 1.81,0.65 3.66,1.16 5.5,1.75 1.83,0.55 3.7,1.19 5.49,1.65 3.64,0.98 7.41,1.82 11.16,2.5 1.88,0.37 3.77,0.63 5.66,0.93 1.9,0.24 3.79,0.51 5.69,0.69 7.6,0.78 15.28,1 22.94,0.58 7.66,-0.45 15.3,-1.48 22.81,-3.22 15.06,-3.48 29.24,-9.54 42.31,-17.61 6.54,-4.03 12.69,-8.74 18.42,-13.94 l 2.13,-1.97 c 0.71,-0.65 1.43,-1.31 2.08,-2.03 l 4,-4.23 c 1.31,-1.43 2.5,-2.98 3.75,-4.47 l 1.85,-2.26 1.69,-2.39 c 1.11,-1.6 2.26,-3.18 3.33,-4.8 l 2.97,-5.04 c 0.48,-0.85 1.02,-1.67 1.45,-2.54 l 1.28,-2.63 c 0.84,-1.76 1.71,-3.51 2.52,-5.28 3.05,-7.18 5.31,-14.69 6.77,-22.32 2.94,-15.3 2.5,-31.03 -0.44,-46.07 z"
           id="path18"
           style="fill:#ffffff" />
        <polygon
           class="cls-2"
           points="420.79,139.44 761.65,495.22 772.32,484.68 "
           id="polygon18"
           style="fill:#ffffff" />
      </g>
      <g
         id="g24"
         transform="matrix(0.26458333,0,0,0.26458333,19.314584,88.90002)"
         style="fill:#ffffff">
        <path
           class="cls-1"
           d="m 83.88,663.61 c -6.31,1.44 -13.68,2.17 -22.12,2.17 -7.87,0 -15.53,-1.22 -22.99,-3.64 -7.46,-2.43 -14.05,-6.13 -19.78,-11.1 C 13.26,646.07 8.67,639.82 5.2,632.3 1.73,624.78 0,615.93 0,605.76 c 0,-7.63 1.41,-15.09 4.25,-22.38 2.83,-7.29 7.03,-13.79 12.58,-19.52 5.55,-5.73 12.46,-10.35 20.73,-13.88 8.27,-3.53 17.9,-5.29 28.89,-5.29 8.9,0 15.9,0.75 20.99,2.26 5.09,1.5 8.61,2.72 10.58,3.64 l -2.78,7.11 c -3.47,-1.73 -7.66,-3.15 -12.58,-4.25 -4.92,-1.1 -10.15,-1.65 -15.7,-1.65 -9.49,0 -17.84,1.36 -25.07,4.08 -7.23,2.72 -13.3,6.51 -18.22,11.36 -4.92,4.86 -8.62,10.64 -11.1,17.35 -2.49,6.71 -3.73,14 -3.73,21.86 0,7.17 1.18,13.94 3.56,20.3 2.37,6.36 5.93,11.88 10.67,16.57 4.74,4.68 10.58,8.39 17.52,11.1 6.94,2.72 15.03,4.08 24.29,4.08 5.78,0 11.36,-0.55 16.74,-1.65 5.38,-1.1 10.09,-2.63 14.14,-4.6 l 2.6,6.77 c -3.36,1.62 -8.18,3.15 -14.49,4.6 z"
           id="path19"
           style="fill:#ffffff" />
        <path
           class="cls-3"
           d="m 223.54,630.39 c -3.3,7.75 -7.69,14.26 -13.19,19.52 -5.49,5.26 -11.8,9.22 -18.91,11.88 -7.11,2.66 -14.49,3.99 -22.12,3.99 -8.33,0 -16.05,-1.47 -23.16,-4.42 -7.11,-2.95 -13.27,-7.03 -18.48,-12.23 -5.2,-5.21 -9.28,-11.42 -12.23,-18.65 -2.95,-7.23 -4.42,-15.12 -4.42,-23.68 0,-9.13 1.53,-17.52 4.6,-25.16 3.06,-7.63 7.26,-14.2 12.58,-19.69 5.32,-5.49 11.59,-9.74 18.82,-12.75 7.23,-3.01 15.01,-4.51 23.33,-4.51 8.32,0 16.4,1.5 23.51,4.51 7.11,3.01 13.24,7.14 18.39,12.4 5.15,5.26 9.14,11.48 11.97,18.65 2.83,7.17 4.25,14.98 4.25,23.42 0,10.06 -1.65,18.97 -4.94,26.72 z m -7.2,-44.93 c -2.08,-6.25 -5.18,-11.88 -9.28,-16.92 -4.11,-5.03 -9.25,-9.11 -15.44,-12.23 -6.19,-3.12 -13.45,-4.68 -21.77,-4.68 -8.32,0 -15.61,1.5 -21.86,4.51 -6.25,3.01 -11.48,7.03 -15.7,12.06 -4.22,5.03 -7.37,10.87 -9.46,17.52 -2.08,6.65 -3.12,13.56 -3.12,20.73 0,7.17 1.15,13.56 3.47,19.86 2.31,6.31 5.58,11.86 9.8,16.65 4.22,4.8 9.4,8.65 15.53,11.54 6.13,2.89 13.01,4.34 20.65,4.34 7.64,0 14.75,-1.39 20.99,-4.16 6.25,-2.78 11.54,-6.59 15.87,-11.45 4.34,-4.86 7.66,-10.61 9.98,-17.26 2.31,-6.65 3.47,-13.85 3.47,-21.6 0,-6.36 -1.04,-12.66 -3.12,-18.91 z m -41.38,24.46 c -1.33,1.62 -3.15,2.43 -5.46,2.43 -2.31,0 -3.96,-0.81 -5.29,-2.43 -1.33,-1.62 -1.99,-3.47 -1.99,-5.55 0.11,-2.31 0.84,-4.25 2.17,-5.81 1.33,-1.56 3.09,-2.34 5.29,-2.34 2.2,0 3.96,0.78 5.29,2.34 1.33,1.56 2,3.5 2,5.81 0,2.08 -0.67,3.93 -2,5.55 z"
           id="path20"
           style="fill:#ffffff" />
        <path
           class="cls-7"
           d="m 362.07,665.44 -3.64,-56.9 c -0.23,-4.28 -0.52,-8.85 -0.87,-13.71 -0.35,-4.86 -0.67,-9.63 -0.95,-14.31 -0.29,-4.68 -0.52,-9.14 -0.69,-13.36 -0.17,-4.22 -0.26,-7.89 -0.26,-11.02 h -0.35 c -2.32,6.25 -4.89,12.87 -7.72,19.86 -2.84,7 -6.1,14.95 -9.8,23.86 l -27.06,63.84 h -6.42 l -25.33,-62.98 c -3.7,-9.14 -6.88,-17.29 -9.54,-24.46 -2.66,-7.17 -4.97,-13.88 -6.94,-20.12 h -0.35 c -0.12,3.36 -0.26,7.17 -0.43,11.45 -0.17,4.28 -0.41,8.76 -0.69,13.45 -0.29,4.68 -0.58,9.51 -0.87,14.49 -0.29,4.97 -0.61,9.89 -0.95,14.75 l -4.16,55.17 -8.33,-1.73 9.37,-116.93 h 9.72 l 28.11,69.74 c 5.78,14.34 10.41,26.78 13.88,37.3 h 0.35 c 1.62,-4.97 3.58,-10.47 5.9,-16.48 2.31,-6.01 5.15,-12.9 8.5,-20.65 l 29.49,-69.92 h 10.06 l 8.33,116.93 -8.33,1.73 z"
           id="path21"
           style="fill:#ffffff" />
        <path
           class="cls-5"
           d="M 396.94,663.7 V 546.77 h 63.5 v 7.11 h -55 v 44.59 h 52.05 v 7.11 h -52.05 v 51.01 h 57.95 v 7.11 z m 34.87,-123.18 -22.9,-19.95 h 13.19 l 16.65,19.95 z"
           id="path22"
           style="fill:#ffffff" />
        <path
           class="cls-8"
           d="M 518.9,553.88 V 663.7 h -8.5 V 553.88 h -43.55 v -7.11 h 95.59 v 7.11 h -43.55 z"
           id="path23"
           style="fill:#ffffff" />
        <path
           class="cls-9"
           d="M 574.07,663.7 V 546.77 h 60.03 v 7.11 h -51.53 v 44.59 h 52.05 v 7.11 h -52.05 v 51.01 h 61.42 v 7.11 z"
           id="path24"
           style="fill:#ffffff" />
      </g>
    </g>
  </g>
</svg>
