<?xml version="1.0" encoding="UTF-8" standalone="no"?>
<svg
   viewBox="0 0 116831.14 116202.99"
   version="1.1"
   id="svg5"
   width="116831.14"
   height="116202.99"
   xmlns="http://www.w3.org/2000/svg"
   xmlns:svg="http://www.w3.org/2000/svg">
  <defs
     id="defs4">
    <style
       id="style1">.cls-1{fill:url(#Dégradé_sans_nom_11);}.cls-2{fill:url(#Dégradé_sans_nom_11-2);}.cls-3{fill:url(#Dégradé_sans_nom_14);}</style>
  </defs>
  <title
     id="title4">Fichier 1</title>
  <g
     id="Calque_2"
     data-name="Calque 2"
     style="fill:#ffffff">
    <g
       id="Calque_2-2"
       data-name="Calque 2"
       style="fill:#ffffff">
      <path
         class="cls-1"
         d="m 0,0 70.79,50.48 70.66,50.65 70.55,50.76 70.54,50.82 17.65,12.74 a 149.83,149.83 0 0 1 16.95,14.47 97.73,97.73 0 0 1 14.09,17.59 70.17,70.17 0 0 1 8.88,21.08 57.61,57.61 0 0 1 0.63,23.05 52.59,52.59 0 0 1 -16.44,30.1 66.15,66.15 0 0 1 -9.14,7 71.7,71.7 0 0 1 -54.93,9.06 69.19,69.19 0 0 1 -10.85,-3.65 61.54,61.54 0 0 1 -10,-5.49 c -1.61,-1 -3.12,-2.21 -4.64,-3.35 -1.52,-1.14 -2.93,-2.44 -4.28,-3.78 -1.35,-1.34 -2.68,-2.7 -4,-4.08 l -1.85,-2.18 -0.92,-1.09 -0.83,-1.09 -6.59,-8.66 q -6.6,-8.62 -13.12,-17.32 l -13,-17.39 -13,-17.46 -6.46,-8.75 -3.25,-4.35 -1.64,-2.16 -0.83,-1.07 -0.43,-0.53 -0.11,-0.12 c -0.06,-0.06 0,-0.06 0,0 0,0.06 0.11,0.2 0.17,0.3 a 2.83,2.83 0 0 1 -0.2,-0.28 c -0.08,0 0,-0.16 0.06,-0.08 l 0.14,0.11 0.48,0.48 0.95,1 1.85,2 c 1.23,1.33 2.43,2.69 3.64,4 l 7.21,8.15 q 7.19,8.18 14.22,16.47 7.03,8.29 14.05,16.57 7,8.32 13.9,16.72 l 6.92,8.37 c 0.56,0.7 1.14,1.38 1.71,2 l 1.72,1.91 c 1.23,1.22 2.41,2.48 3.72,3.6 a 60.25,60.25 0 0 0 8.18,6.23 59.44,59.44 0 0 0 9.07,4.78 62.39,62.39 0 0 0 9.73,3.24 66.36,66.36 0 0 0 30.63,-0.12 65.44,65.44 0 0 0 18.92,-7.95 57.28,57.28 0 0 0 8.11,-6.21 45.88,45.88 0 0 0 6.58,-7.62 c 7.67,-11.07 9.85,-25.59 6.64,-38.69 a 63.5,63.5 0 0 0 -8.05,-18.74 99.18,99.18 0 0 0 -13,-16.26 142,142 0 0 0 -16,-13.85 l -17.4,-13 -69.7,-52 -69.65,-52 -69.58,-52.1 z"
         id="path4"
         style="fill:#ffffff" />
      <polygon
         class="cls-2"
         points="219.87,242.65 214.55,247.91 32.97,58.9 "
         id="polygon4"
         style="fill:#ffffff" />
      <path
         class="cls-3"
         d="m 84.5,122.91 148.67,164.56 -6,2.27 a 46.38,46.38 0 0 1 7.34,-26.94 52.83,52.83 0 0 1 21,-18.59 51.58,51.58 0 0 1 13.44,-4.53 46,46 0 0 1 7.15,-0.78 55.21,55.21 0 0 1 7.07,0.29 52.89,52.89 0 0 1 13.71,3.25 49.34,49.34 0 0 1 12.31,6.95 45,45 0 0 1 9.65,10.3 44.2,44.2 0 0 1 5.91,12.71 43.12,43.12 0 0 1 1.36,6.84 35.63,35.63 0 0 1 -0.93,13.89 38.75,38.75 0 0 1 -2.41,6.48 38.35,38.35 0 0 1 -3.48,5.91 37.81,37.81 0 0 1 -4.4,5.2 39.59,39.59 0 0 1 -11,7.73 36.85,36.85 0 0 1 -12.89,3.45 40,40 0 0 1 -13.06,-1.09 39.38,39.38 0 0 0 12.91,-0.06 36.89,36.89 0 0 0 12,-4.28 37.48,37.48 0 0 0 16.08,-18.47 33.77,33.77 0 0 0 1.74,-5.87 33.19,33.19 0 0 0 0.59,-6 37.3,37.3 0 0 0 -2.19,-11.88 37.93,37.93 0 0 0 -5.76,-10.52 39.72,39.72 0 0 0 -8.69,-8.14 41.68,41.68 0 0 0 -10.62,-5.41 50.3,50.3 0 0 0 -17.66,-2.59 36.8,36.8 0 0 0 -5.8,0.66 46.11,46.11 0 0 0 -11.22,3.75 46.78,46.78 0 0 0 -18,15.3 42.63,42.63 0 0 0 -5.28,10.59 44.39,44.39 0 0 0 -2.04,11.82 l -0.43,8.83 L 228,292 Z"
         id="path5"
         style="fill:#ffffff" />
    </g>
  </g>
</svg>
