<?xml version="1.0" encoding="UTF-8"?>
<svg id="Calque_2" data-name="Calque 2" xmlns="http://www.w3.org/2000/svg" viewBox="0 0 612.04 771.72">
  <defs>
    <style>
      .cls-1 {
        fill: none;
        stroke: #1a3d51;
        stroke-linecap: round;
        stroke-miterlimit: 10;
        stroke-width: 45.85px;
      }

      .cls-2 {
        fill: #1a3d51;
        stroke-width: 0px;
      }
    </style>
  </defs>
  <g id="Calque_1-2" data-name="Calque 1">
    <g>
      <circle class="cls-2" cx="174.67" cy="240.48" r="51.06"/>
      <g>
        <circle class="cls-2" cx="434.92" cy="241.57" r="51.06"/>
        <g>
          <g>
            <path class="cls-2" d="M56.2,332.5c24.67,40.24,60.31,64.44,104.4,77.32,3.46,1.01,6.93-1.55,6.91-5.15-.05-14.14-.3-28.27-.24-42.41.02-3.76-2.25-7.18-5.77-8.49-48.63-18.04-78.18-52.75-86.93-104.57-1.93-11.45-2.46-23.1-1.99-34.71.91-22.36.94-44.83,5.11-66.92.57-3.03-1.09-6.51-4.56-6.51-5.91,0-9.16.1-15.93.1-2.79,0-5.04,1.05-6.61,3.52C3.35,221.09-3.95,318.02,2.78,405.63c3.14,34.24,9.74,67.58,19.54,100.22,1.46,4.87,3.34,9.62,5.82,14.06,1.92,3.44,4.2,6.65,7.21,9.25,9.44,8.02,24.25,7.53,31.91-2.36,10.88-14.04-.08-32.52-4.91-47.61-9.45-32.24-12.34-58.28-13.67-83.72-1.24-23.72-1.38-44.51,1.41-61.73.5-3.06,4.49-3.88,6.11-1.23Z"/>
            <path class="cls-2" d="M610.65.44c-2.14-1.39-3.72.8-5.08,2.08-11.2,10.5-22.79,20.52-35.41,29.28-22.26,15.43-46.86,25.75-72.84,32.98-7.58,2.11-15.28,3.79-22.86,5.9-3.4.95-6.21.34-8.8-1.85-33.36-28.26-73.37-41.04-115.3-48.96-14.78-2.79-29.57-4.12-44.35-4.12-14.78,0-29.58,1.33-44.35,4.12-41.93,7.92-81.94,20.7-115.3,48.96-2.58,2.19-5.4,2.8-8.8,1.85-7.58-2.11-15.28-3.79-22.86-5.9-25.98-7.23-50.58-17.55-72.84-32.98C29.25,23.05,17.66,13.02,6.46,2.52,5.1,1.24,3.53-.94,1.39.44-.45,1.64-.03,4.02.25,6.03c.08.57.2,1.13.31,1.69,3.25,16.16,6.86,32.22,12.62,47.7,5.65,15.17,13.21,29.22,24.73,40.88,3.72,3.76,7.82,6.63,13.05,7.84,15.77,3.65,31.51,7.4,47.27,11.06,18.27,4.24,36.7,7.81,54.82,12.66,26.39,7.07,51.92,16.17,75.12,31.04,27.17,17.42,44.92,41.65,53.26,72.75.97,3.62,2.82,4.93,6.35,4.86,5.73-.12,12.5-.03,18.23-.03s12.5-.09,18.23.03c3.53.07,5.38-1.24,6.35-4.86,8.35-31.1,26.09-55.33,53.26-72.75,23.2-14.88,48.73-23.98,75.12-31.04,18.13-4.85,36.55-8.42,54.82-12.66,15.76-3.66,31.5-7.41,47.27-11.06,5.23-1.21,9.33-4.08,13.05-7.84,11.52-11.66,19.09-25.71,24.73-40.88,5.76-15.48,9.38-31.55,12.62-47.7.11-.56.23-1.12.31-1.69.28-2.01.7-4.4-1.14-5.59Z"/>
            <path class="cls-2" d="M340.09,299.89c-5.43-7.88-8.89-16.65-11.67-25.7-1.65-5.38-5.09-7.42-10.57-7.28-3.94.1-7.89.06-11.83.01-3.95.05-7.89.09-11.83-.01-5.48-.14-8.92,1.9-10.57,7.28-2.77,9.05-6.24,17.82-11.67,25.7-3.31,4.81-6.95,9.36-10.92,13.86,3.93,4.37,7.58,8.04,10.78,12.05,10.64,13.32,20.17,27.45,29.7,41.57,1.24,1.84,2.14,3.95,4.51,4.54,2.37-.59,3.27-2.7,4.51-4.54,9.53-14.12,19.06-28.25,29.7-41.57,3.21-4.01,6.85-7.68,10.78-12.05-3.97-4.5-7.61-9.05-10.92-13.86Z"/>
          </g>
          <path class="cls-1" d="M520.03,586.15c-113.09-192.41-328.79-178.57-426.01,0"/>
          <path class="cls-1" d="M456.46,653.71c-48.61-132.66-227.52-165.41-300.44,0"/>
          <path class="cls-2" d="M306.02,616.04c-42.99,0-77.84,34.85-77.84,77.84s34.85,77.84,77.84,77.84,77.84-34.85,77.84-77.84-34.85-77.84-77.84-77.84ZM306.02,731.8c-20.94,0-37.92-16.98-37.92-37.92s16.98-37.92,37.92-37.92,37.92,16.98,37.92,37.92-16.98,37.92-37.92,37.92Z"/>
        </g>
        <path class="cls-2" d="M552.86,333.44c-24.67,40.24-60.31,64.44-104.4,77.32-3.46,1.01-6.93-1.55-6.91-5.15.05-14.14.3-28.27.24-42.41-.02-3.76,2.25-7.18,5.77-8.49,48.63-18.04,78.18-52.75,86.93-104.57,1.93-11.45,2.46-23.1,1.99-34.71-.91-22.36-.94-44.83-5.11-66.92-.57-3.03,1.09-6.51,4.56-6.51,5.91,0,9.16.1,15.93.1,2.79,0,5.04,1.05,6.61,3.52,47.25,76.41,54.55,173.34,47.82,260.95-3.14,34.24-9.74,67.58-19.54,100.22-1.46,4.87-3.34,9.62-5.82,14.06-1.92,3.44-4.2,6.65-7.21,9.25-9.44,8.02-24.25,7.53-31.91-2.36-10.88-14.04.08-32.52,4.91-47.61,9.45-32.24,12.34-58.28,13.67-83.72,1.24-23.72,1.38-44.51-1.41-61.73-.5-3.06-4.49-3.88-6.11-1.23Z"/>
      </g>
    </g>
  </g>
</svg>