<?xml version="1.0" encoding="UTF-8"?>
<svg xmlns:cc="http://creativecommons.org/ns#" xmlns:svg="http://www.w3.org/2000/svg" xmlns="http://www.w3.org/2000/svg"
  xmlns:xlink="http://www.w3.org/1999/xlink" version=" 1.1" xml:space="preserve" viewBox="0 0 1000 1000">
  <metadata xmlns="http://www.w3.org/2000/svg">
    <rdf:RDF xmlns:rdf="http://www.w3.org/1999/02/22-rdf-syntax-ns#" xmlns:rdfs="http://www.w3.org/2000/01/rdf-schema#"
      xmlns:dc="http://purl.org/dc/elements/1.1/">
      <rdf:Description dc:title="REZEL logo">
        <dc:creator>
          <rdf:Bag>
            <rdf:li>REZEL</rdf:li>
          </rdf:Bag>
        </dc:creator>
      </rdf:Description>
    </rdf:RDF>
  </metadata>
  <g class="rezel-logo-drawing">
    <path class="rezel-logo-drawing-paths"
      d="m 396.69975,169.24751 a 7.50075,7.50075 0 0 0 -5.05274,1.92383 l -100,90 a 7.5,7.5 0 0 0 -0.1914,0.17774 7.50075,7.50075 0 0 0 -0.14063,0.14062 7.5,7.5 0 0 0 -0.0527,0.0547 7.50075,7.50075 0 0 0 -0.25977,0.2832 7.5,7.5 0 0 0 -0.0195,0.0234 7.50075,7.50075 0 0 0 -0.13281,0.15625 7.5,7.5 0 0 0 -0.0156,0.0195 7.50075,7.50075 0 0 0 -0.12304,0.1582 7.5,7.5 0 0 0 -0.15626,0.20899 7.50075,7.50075 0 0 0 -0.11328,0.16406 7.5,7.5 0 0 0 -0.0918,0.14062 7.50075,7.50075 0 0 0 -0.043,0.0684 7.5,7.5 0 0 0 -0.006,0.01 7.50075,7.50075 0 0 0 -0.10352,0.17187 7.5,7.5 0 0 0 -0.0781,0.13672 7.50075,7.50075 0 0 0 -0.0469,0.082 7.5,7.5 0 0 0 -0.0293,0.0566 7.50075,7.50075 0 0 0 -0.0762,0.14453 7.5,7.5 0 0 0 -0.006,0.0117 7.50075,7.50075 0 0 0 -0.0859,0.17968 7.5,7.5 0 0 0 -0.0508,0.11328 7.50075,7.50075 0 0 0 -0.0449,0.0957 7.5,7.5 0 0 0 -0.0117,0.0293 7.50075,7.50075 0 0 0 -0.0801,0.19532 7.5,7.5 0 0 0 -0.0488,0.1289 7.50075,7.50075 0 0 0 -0.0332,0.0899 7.5,7.5 0 0 0 -0.0508,0.14648 7.50075,7.50075 0 0 0 -0.0215,0.0625 7.5,7.5 0 0 0 -0.041,0.13477 7.50075,7.50075 0 0 0 -0.0293,0.0976 7.5,7.5 0 0 0 -0.0391,0.13868 7.50075,7.50075 0 0 0 -0.0195,0.0703 7.5,7.5 0 0 0 -0.006,0.0234 7.50075,7.50075 0 0 0 -0.0469,0.19532 7.5,7.5 0 0 0 -0.043,0.19531 7.50075,7.50075 0 0 0 -0.008,0.0371 7.5,7.5 0 0 0 -0.004,0.0215 7.50075,7.50075 0 0 0 -0.0332,0.19727 7.5,7.5 0 0 0 -0.0293,0.1875 7.50075,7.50075 0 0 0 -0.008,0.0508 7.5,7.5 0 0 0 -0.002,0.0195 7.50075,7.50075 0 0 0 -0.0215,0.19922 7.5,7.5 0 0 0 -0.0156,0.16797 7.50075,7.50075 0 0 0 -0.006,0.0781 7.5,7.5 0 0 0 -0.002,0.0137 7.50075,7.50075 0 0 0 -0.01,0.19921 7.5,7.5 0 0 0 -0.004,0.16993 7.50075,7.50075 0 0 0 -0.002,0.0605 7.5,7.5 0 0 0 0,0.0293 7.50075,7.50075 0 0 0 0,0.0371 v 199.37891 l -39.89844,239.38867 a 7.50075,7.50075 0 0 0 7.39844,8.73242 h 32.5 v 32.5 a 7.50075,7.50075 0 0 0 9.97852,7.07812 l 124.70312,-43.64648 66.66016,95.84961 a 7.50075,7.50075 0 0 0 12.36132,-0.0684 l 65.37305,-96.2168 125.94531,44.08203 a 7.50075,7.50075 0 0 0 9.97852,-7.07812 v -32.5 h 32.5 a 7.50075,7.50075 0 0 0 7.39844,-8.73242 L 704.16459,466.12447 v -199.3418 a 7.5,7.5 0 0 0 0,-0.0371 7.50075,7.50075 0 0 0 -0.42383,-2.48438 7.5,7.5 0 0 0 0,-0.002 7.50075,7.50075 0 0 0 -0.46289,-1.05273 7.5,7.5 0 0 0 -0.23047,-0.39844 7.50075,7.50075 0 0 0 -0.52929,-0.75195 7.5,7.5 0 0 0 -0.45704,-0.51953 7.50075,7.50075 0 0 0 -0.3789,-0.36524 l -100,-90 a 7.50075,7.50075 0 0 0 -12.51758,5.57422 v 77.10156 c 5.00804,-0.009 10.02582,0.39334 15,1.19532 v -61.457 l 72.95508,65.66016 h -56.58008 c 9.48785,3.38262 18.5662,8.37385 26.83203,15 h 41.79297 v 15.0625 c -8.84751,0.13127 -17.5128,0.50058 -25.97656,1.12695 3.48436,4.57808 6.4993,9.42568 9.0332,14.47266 5.55091,-0.30466 11.19638,-0.50732 16.94336,-0.59766 v 151.82227 l -65.56055,-23.21875 c -8.78731,3.44915 -18.03023,5.53912 -27.39062,6.21289 L 683.25248,469.95259 496.67045,665.87251 310.0767,469.95259 483.67045,408.47017 c 1.99274,7.85777 3.44033,16.28998 4.35547,25.29297 l 1.75,-2.13867 c 3.74924,-4.58229 10.1172,-5.84985 15.30273,-3.51953 l 1.64063,-2.00586 c 0.86676,-6.10339 1.99338,-11.92756 3.38867,-17.46875 l 8.45312,2.99414 2.13282,-2.60743 c -7.38518,-8.12423 -13.09394,-17.32447 -17.11133,-27.10351 -2.56581,5.95088 -4.80031,12.21425 -6.67774,18.80273 -2.99143,-10.47255 -6.87545,-20.13116 -11.58398,-29.00195 l 11.34375,-19.85156 0.0801,0.13867 c -0.86543,-14.34829 1.55896,-28.90497 7.41992,-42.42774 v -35.32812 h 26.9668 c 8.18583,-6.57404 17.29957,-11.58765 26.90039,-15 H 404.16459 v -82.5 a 7.50075,7.50075 0 0 0 -7.46484,-7.49805 z m -7.53516,24.33789 v 65.66016 h -72.95508 z m 200.00977,71.06055 c -13.33162,0.0241 -26.58697,3.26201 -38.51368,9.59961 h 9.8711 c 9.14005,-3.62859 18.86661,-5.47823 28.625,-5.49023 h 0.006 c 9.72665,-0.0112 19.50142,1.80747 28.76953,5.49023 h 9.90234 C 615.7143,267.7884 602.4267,264.62199 589.1745,264.64595 Z m -285.00977,9.59961 h 92.5 92.5 v 60.50781 l -12.80078,22.40235 C 467.61209,344.79436 456.9757,334.29727 444.67045,325.61665 408.87743,300.36684 360.12218,290.1341 304.16459,289.30806 Z m 345.99609,17.38477 c -1.74653,0.19091 -3.48392,0.39204 -5.21093,0.60742 4.20481,4.28363 7.8212,8.96072 10.84961,13.91992 1.52949,-0.15113 3.06822,-0.29309 4.61523,-0.42578 -2.87108,-4.98482 -6.28165,-9.72205 -10.25391,-14.10156 z m -19.05664,2.64062 c -31.58714,5.36513 -59.44483,15.33407 -82.09375,31.35156 -10.0681,7.12025 -19.01726,15.46005 -26.72656,25.04883 0.39915,6.65695 1.79369,13.24386 4.1582,19.53516 8.30366,-12.8967 18.80278,-23.55031 31.22852,-32.33789 22.52981,-15.93328 51.86861,-25.65832 86.13867,-30.30664 -3.36353,-4.64884 -7.37389,-8.95277 -12.03906,-12.76953 -0.21936,-0.17947 -0.44515,-0.34525 -0.66602,-0.52149 z m -326.93945,10.03906 c 54.10762,0.84633 99.83641,10.97419 131.85938,33.56446 19.45537,13.7246 34.2265,31.96798 43.20117,56.25781 l -175.06055,62.00195 z m 87.93164,34.4043 c -14.04598,0 -25.43164,11.19991 -25.43164,25.01563 0,13.81571 11.38566,25.01562 25.43164,25.01562 14.04598,0 25.43359,-11.19992 25.43359,-25.01562 0,-13.81573 -11.38761,-25.01563 -25.43359,-25.01563 z m 200,0 c -14.04598,0 -25.43164,11.19991 -25.43164,25.01563 0,13.81571 11.38566,25.01562 25.43164,25.01562 14.04598,0 25.43359,-11.19992 25.43359,-25.01562 0,-13.81573 -11.38761,-25.01563 -25.43359,-25.01563 z m -84.58984,1.88867 c -1.13755,15.84435 2.30584,31.87887 10.14648,45.9707 0.70395,-1.59288 1.43164,-3.16218 2.18945,-4.69921 -5.4339,-10.73033 -8.25907,-22.51574 -8.39453,-34.37696 z m 17.99609,57.56641 c 1.90319,2.3557 3.93404,4.63546 6.12891,6.80469 l 3.49804,3.45507 -5.74804,7.02735 4.20703,1.49023 4.78906,-5.85351 4.10156,2.85742 c 19.20334,13.38404 42.459,17.47983 64.03907,12.91015 l -8.04493,-2.84765 c -20.02205,2.36111 -40.94134,-2.99121 -57.90429,-16.60938 l -0.002,-0.002 v -0.002 c -0.0488,-0.0392 -0.10022,-0.0766 -0.15234,-0.11133 l -0.44141,-0.29297 -0.375,-0.37305 c -0.0446,-0.0443 -0.0903,-0.0867 -0.13867,-0.12695 l -0.004,-0.002 -0.002,-0.004 c -2.08877,-1.74139 -4.0603,-3.57235 -5.91992,-5.47656 z m -25.95312,39.49805 c -0.52351,0.0522 -1.02656,0.32131 -1.41407,0.79492 l -9.08008,11.09765 c 0.0683,2.36086 0.10938,4.75081 0.10938,7.18555 h 15 0.5 c 0,-6.23694 0.2404,-12.21268 0.68359,-17.9707 l -3.85351,-0.16602 c -0.11301,-0.16547 -0.24924,-0.31451 -0.4043,-0.4414 -0.47356,-0.38757 -1.01751,-0.55223 -1.54101,-0.5 z m 189.62109,47.82226 -0.006,221.2207 a 7.50075,7.50075 0 0 0 0,0.0352 v 29.42969 L 569.10404,694.15376 a 7.5,7.5 0 0 0 -2.63476,-0.92187 l -56.35547,-19.72461 z m -385.00586,0.006 179.05859,188.00781 -179.05859,62.67188 V 706.7457 a 7.50075,7.50075 0 0 0 -0.0117,-0.40039 h 0.0117 z m -15,71.87305 V 699.2457 h -23.64648 z m 415.00391,0.0254 23.64257,141.85156 h -23.64648 z m -207.50391,127.29687 56.92578,19.92383 -57,83.89063 -58.05078,-83.47071 z" />
    <path class="rezel-logo-drawing-paths"
      d="m 589.16459,259.24556 c -25.14833,0.0454 -50.08799,10.84954 -67.30469,31.69336 -29.01169,35.12372 -25.8732,86.39736 5.97657,117.87499 l -21.88282,26.74804 a 7.5,7.5 0 0 0 -1.44335,-1.57421 7.5,7.5 0 0 0 -10.55469,1.05468 l -51.51174,62.96289 a 7.50075,7.50075 0 0 0 1.05469,10.55469 l 14.88282,12.17578 a 7.50075,7.50075 0 0 0 10.55273,-1.05664 l 51.51369,-62.96289 a 7.5,7.5 0 0 0 -1.05665,-10.55273 7.5,7.5 0 0 0 -1.82812,-1.10352 l 21.82812,-26.67969 c 37.26077,25.96942 88.92816,19.16041 117.92383,-16.62109 30.25913,-37.34065 24.57935,-92.3198 -12.62695,-122.75976 -16.27777,-13.31748 -35.96362,-19.78923 -55.52344,-19.7539 z m -0.002,14.9082 c 16.18218,-0.0199 32.48184,5.37492 46.02734,16.45703 30.96114,25.33054 35.63856,70.6472 10.47071,101.70507 -25.1692,31.05957 -70.51715,35.91812 -101.71089,10.875 a 7.5,7.5 0 0 0 -0.54102,-0.39648 7.50075,7.50075 0 0 0 -0.49804,-0.45313 c -30.72548,-25.61546 -34.9453,-71.02903 -9.48633,-101.85155 14.31988,-17.33673 34.93262,-26.31037 55.73828,-26.33594 z" />
  </g>
</svg>
